<?xml version="1.0" encoding="utf-8"?>
<!-- Generator: Adobe Illustrator 16.0.0, SVG Export Plug-In . SVG Version: 6.00 Build 0)  -->
<!DOCTYPE svg PUBLIC "-//W3C//DTD SVG 1.1//EN" "http://www.w3.org/Graphics/SVG/1.1/DTD/svg11.dtd">
<svg version="1.1" id="Capa_1" xmlns="http://www.w3.org/2000/svg" xmlns:xlink="http://www.w3.org/1999/xlink" x="0px" y="0px"
	 width="506px" height="220px" viewBox="0 0 506 220" enable-background="new 0 0 506 220" xml:space="preserve">
<g>
	
		<image overflow="visible" opacity="0.88" width="560" height="274" xlink:href="52B5B5B5.png"  transform="matrix(1 0 0 1 -23.5 -21.5)">
	</image>
	<g>
		<g>
			<g>
				<g>
					<path fill="#FFFFFF" d="M295.807,210.771c-1.844,0.076-3.687,0.145-5.531,0.201c1.838-0.058,3.679-0.125,5.513-0.199
						C295.797,210.773,295.799,210.771,295.807,210.771z"/>
					<path fill="#FFFFFF" d="M290.663,210.965c1.95-0.059,3.901-0.13,5.847-0.211c-0.008,0-0.01,0-0.02,0
						C294.553,210.835,292.605,210.906,290.663,210.965z"/>
				</g>
				<g opacity="0.8">
					<path fill="#FFFFFF" d="M307.85,207.177c-7.666,2.534-15.858,3.905-24.371,3.905c1.49,0,2.967-0.055,4.445-0.109
						c-1.475,0.067-2.955,0.109-4.445,0.109c3.117,0,6.207-0.091,9.283-0.234c-2.037,0.088-4.078,0.146-6.128,0.188
						c0.991-0.024,1.982-0.063,2.97-0.108c-0.551,0.024-1.098,0.057-1.646,0.076c3.791-0.117,7.568-0.349,11.329-0.32
						c97.503,0.676,131.616,2.963,172.414-15.09C471.7,195.594,431.963,208.654,307.85,207.177z"/>
					<path fill="#FFFFFF" d="M295.787,210.773c0.01,0,0.012-0.004,0.02-0.004c-1.844,0.078-3.687,0.146-5.531,0.201
						C292.111,210.915,293.953,210.848,295.787,210.773z"/>
				</g>
				<g opacity="0.8">
					<path fill="#FFFFFF" d="M321.006,202.011c-11.244,5.798-24.002,9.071-37.527,9.071c1.576,0,3.141-0.059,4.699-0.117
						c-1.557,0.071-3.123,0.117-4.699,0.117c3.295,0,6.563-0.094,9.816-0.247c-2.156,0.09-4.314,0.156-6.48,0.198
						c1.047-0.029,2.095-0.068,3.142-0.115c-0.582,0.027-1.158,0.061-1.742,0.08c4.009-0.124,8-0.34,11.979-0.34
						c113.306,0,132.289-3.153,191.51-42.961C491.702,167.697,425.443,202.011,321.006,202.011z"/>
					<path fill="#FFFFFF" d="M296.49,210.754c0.01,0,0.012,0,0.02,0c-1.943,0.081-3.896,0.152-5.847,0.211
						C292.605,210.906,294.553,210.835,296.49,210.754z"/>
				</g>
				<g opacity="0.8">
					<path fill="#FFFFFF" d="M333.023,194.432c-13.766,10.448-30.929,16.65-49.547,16.65c1.799,0,3.582-0.055,5.361-0.133
						c-0.48,0.02-0.957,0.049-1.441,0.064c3.321-0.105,6.625-0.283,9.92-0.283c87.123,0,134.233-16.303,197.616-74.767
						C494.934,135.965,432.247,180.689,333.023,194.432z M294.475,210.559c-1.427,0.137-2.861,0.248-4.304,0.327
						C291.611,210.807,293.045,210.691,294.475,210.559z"/>
					<path fill="#FFFFFF" d="M292.945,210.846c0.007,0,0.01-0.004,0.014-0.004c-1.414,0.061-2.834,0.113-4.252,0.156
						C290.119,210.955,291.534,210.9,292.945,210.846z"/>
					<path fill="#FFFFFF" d="M287.396,211.014c-1.303,0.039-2.609,0.068-3.92,0.068
						C284.792,211.082,286.098,211.057,287.396,211.014z"/>
					<path fill="#FFFFFF" d="M290.619,210.9c-2.37,0.101-4.744,0.182-7.143,0.182C285.875,211.082,288.254,211.014,290.619,210.9z"
						/>
				</g>
				<path opacity="0.8" fill="#FFFFFF" enable-background="new    " d="M349.295,178.014
					c-14.949,20.075-38.865,33.068-65.816,33.068c1.705,0,3.394-0.059,5.078-0.127c-1.682,0.078-3.373,0.127-5.078,0.127
					c1.133,0,2.258-0.02,3.379-0.049c-1.121,0.029-2.246,0.049-3.379,0.049c3.301,0,6.58-0.081,9.84-0.248
					c76.533-3.25,130.206-25.889,182.265-104.703C475.582,106.131,411.566,165.564,349.295,178.014z M290.212,210.913
					c-1.005,0.042-2.012,0.078-3.019,0.106c1.01-0.028,2.021-0.064,3.027-0.106C290.223,210.913,290.213,210.913,290.212,210.913z"
					/>
				<path fill="#FFFFFF" d="M362.174,152.239c-9.997,34.013-41.447,58.843-78.695,58.843c1.734,0,3.451-0.059,5.168-0.13
					c0,0-0.004,0-0.008,0c-1.711,0.071-3.426,0.13-5.16,0.13c2.53,0,5.043-0.063,7.543-0.189
					c82.533-3.502,143.44-43.194,164.615-143.417C455.637,67.476,407.818,129.766,362.174,152.239z"/>
				<path opacity="0.8" fill="#FFFFFF" enable-background="new    " d="M426.591,67.974c0-12.439-1.589-24.505-4.566-36.011
					l-58.075,81.18c1.014,5.153,1.547,10.479,1.547,15.928c0,43.881-34.461,79.709-77.795,81.908
					c-1.402,0.059-2.803,0.104-4.223,0.104c2.07,0,4.127-0.052,6.17-0.157C365.818,207.693,426.591,167.697,426.591,67.974z"/>
				<path opacity="0.8" fill="#FFFFFF" enable-background="new    " d="M283.479,211.082c66.189,0,119.851-53.656,119.851-119.846
					c0-28.537-9.976-54.745-26.629-75.328l-29.429,61.615c11.396,14.085,18.225,32.02,18.225,51.545
					C365.495,174.363,328.775,211.082,283.479,211.082"/>
			</g>
			<g>
				<g>
					<path fill="#FFFFFF" d="M40.913,73.707h11.411c4.62,0,7.744,1.495,7.744,6.011c0,2.377-1.188,4.041-3.294,5.06
						c2.955,0.849,4.45,3.125,4.45,6.147c0,4.924-4.18,7.031-8.56,7.031h-11.75L40.913,73.707L40.913,73.707z M46.246,83.522h5.4
						c1.867,0,3.259-0.849,3.259-2.887c0-2.309-1.764-2.785-3.667-2.785h-4.992V83.522z M46.246,93.813h5.702
						c2.107,0,3.943-0.68,3.943-3.192c0-2.48-1.563-3.465-3.84-3.465h-5.805V93.813z"/>
					<path fill="#FFFFFF" d="M69.278,77.681h-4.82v-3.974h4.82V77.681z M64.458,80.398h4.82v17.559h-4.82V80.398z"/>
					<path fill="#FFFFFF" d="M73.087,73.707h4.822v8.83h0.066c1.189-1.8,3.363-2.615,5.535-2.615c3.498,0,7.269,2.819,7.269,9.237
						c0,6.454-3.771,9.272-7.269,9.272c-2.58,0-4.719-0.782-5.772-2.716h-0.07v2.242h-4.581V73.707L73.087,73.707z M81.849,83.556
						c-2.853,0-4.11,2.684-4.11,5.64c0,2.919,1.257,5.602,4.11,5.602s4.107-2.682,4.107-5.602
						C85.956,86.239,84.702,83.556,81.849,83.556z"/>
					<path fill="#FFFFFF" d="M93.978,73.707H98.8v24.25h-4.822V73.707z"/>
					<path fill="#FFFFFF" d="M107.566,77.681h-4.823v-3.974h4.823V77.681z M102.743,80.398h4.823v17.559h-4.823V80.398z"/>
					<path fill="#FFFFFF" d="M119.896,79.922c5.535,0,9.103,3.668,9.103,9.273c0,5.569-3.567,9.236-9.103,9.236
						c-5.501,0-9.068-3.667-9.068-9.236C110.828,83.59,114.396,79.922,119.896,79.922z M119.896,94.797
						c3.295,0,4.279-2.819,4.279-5.602c0-2.82-0.984-5.64-4.279-5.64c-3.261,0-4.243,2.82-4.243,5.64
						C115.653,91.978,116.636,94.797,119.896,94.797z"/>
					<path fill="#FFFFFF" d="M138.243,80.398h3.53v3.227h-3.53v8.695c0,1.628,0.408,2.036,2.037,2.036
						c0.508,0,0.983-0.035,1.493-0.135v3.77c-0.816,0.134-1.869,0.169-2.82,0.169c-2.952,0-5.535-0.679-5.535-4.177V83.625h-2.919
						v-3.227h2.919v-5.264h4.825V80.398L138.243,80.398z"/>
					<path fill="#FFFFFF" d="M148.063,90.348c0.135,3.057,1.628,4.449,4.31,4.449c1.935,0,3.5-1.188,3.803-2.274h4.247
						c-1.36,4.142-4.247,5.908-8.217,5.908c-5.54,0-8.967-3.804-8.967-9.236c0-5.266,3.632-9.273,8.967-9.273
						c5.976,0,8.862,5.027,8.523,10.426H148.063z M155.907,87.292c-0.444-2.445-1.497-3.736-3.839-3.736
						c-3.059,0-3.94,2.377-4.005,3.736H155.907z"/>
					<path fill="#FFFFFF" d="M175.542,86.578c-0.307-1.969-1.56-3.022-3.564-3.022c-3.092,0-4.11,3.124-4.11,5.706
						c0,2.513,0.983,5.535,4.008,5.535c2.24,0,3.53-1.425,3.837-3.565h4.653c-0.611,4.653-3.837,7.2-8.458,7.2
						c-5.298,0-8.865-3.737-8.865-9c0-5.468,3.26-9.51,8.967-9.51c4.146,0,7.946,2.174,8.253,6.656H175.542z"/>
					<path fill="#FFFFFF" d="M182.883,85.798c0.273-4.518,4.315-5.876,8.251-5.876c3.499,0,7.712,0.782,7.712,4.993v9.135
						c0,1.597,0.167,3.194,0.607,3.907h-4.888c-0.169-0.543-0.307-1.121-0.34-1.699c-1.527,1.596-3.767,2.173-5.91,2.173
						c-3.327,0-5.977-1.663-5.977-5.263c0-3.973,2.988-4.925,5.977-5.333c2.955-0.44,5.706-0.338,5.706-2.308
						c0-2.073-1.425-2.377-3.123-2.377c-1.835,0-3.025,0.747-3.192,2.649L182.883,85.798L182.883,85.798z M194.021,89.364
						c-0.815,0.712-2.513,0.747-4.009,1.019c-1.492,0.305-2.853,0.815-2.853,2.582c0,1.8,1.396,2.24,2.957,2.24
						c3.771,0,3.905-2.988,3.905-4.041V89.364z"/>
				</g>
				<path fill="#FFFFFF" d="M200.754,114.257H26.772c-7.265,0-13.18-5.912-13.18-13.182h1.685c0,6.34,5.157,11.498,11.496,11.498
					h173.982L200.754,114.257L200.754,114.257z"/>
				<g>
					<g>
						<path fill="#FFFFFF" d="M25.523,130.77c-0.457-2.1-2.195-3.299-4.179-3.299c-3.602,0-5.13,3.012-5.13,5.988
							s1.529,5.988,5.13,5.988c2.518,0,4.12-1.946,4.37-4.368h1.298c-0.362,3.339-2.482,5.478-5.668,5.478
							c-4.291,0-6.427-3.377-6.427-7.098c0-3.72,2.136-7.096,6.427-7.096c2.577,0,5.134,1.543,5.477,4.406H25.523L25.523,130.77z"/>
						<path fill="#FFFFFF" d="M29.469,135.672c0.018,1.755,0.936,3.87,3.243,3.87c1.755,0,2.708-1.03,3.088-2.517h1.204
							c-0.515,2.232-1.813,3.529-4.292,3.529c-3.13,0-4.446-2.404-4.446-5.207c0-2.598,1.316-5.209,4.446-5.209
							c3.165,0,4.425,2.766,4.33,5.532L29.469,135.672L29.469,135.672z M35.84,134.66c-0.06-1.813-1.186-3.512-3.129-3.512
							c-1.964,0-3.051,1.72-3.243,3.512H35.84z"/>
						<path fill="#FFFFFF" d="M38.641,130.425h1.201v1.697h0.041c0.437-1.181,1.753-1.983,3.146-1.983
							c2.767,0,3.606,1.451,3.606,3.797v6.332h-1.201v-6.142c0-1.696-0.554-2.978-2.502-2.978c-1.904,0-3.049,1.449-3.09,3.377
							v5.742h-1.201V130.425z"/>
						<path fill="#FFFFFF" d="M50.811,130.425h2v1.011h-2v6.642c0,0.78,0.11,1.237,0.97,1.297c0.346,0,0.689-0.021,1.03-0.06v1.031
							c-0.362,0-0.705,0.038-1.066,0.038c-1.604,0-2.156-0.534-2.14-2.213v-6.735h-1.714v-1.011h1.714v-2.954h1.206V130.425z"/>
						<path fill="#FFFFFF" d="M54.546,130.425h1.108v2.31h0.038c0.611-1.584,1.946-2.52,3.72-2.442v1.203
							c-2.175-0.116-3.662,1.487-3.662,3.528v5.244h-1.204V130.425z"/>
						<path fill="#FFFFFF" d="M69.027,135.348c0,2.823-1.641,5.209-4.656,5.209c-3.01,0-4.653-2.386-4.653-5.209
							c0-2.824,1.643-5.209,4.653-5.209C67.387,130.139,69.027,132.523,69.027,135.348z M60.919,135.348
							c0,2.1,1.145,4.194,3.452,4.194c2.31,0,3.456-2.097,3.456-4.194s-1.146-4.197-3.456-4.197
							C62.064,131.148,60.919,133.25,60.919,135.348z"/>
						<path fill="#FFFFFF" d="M84.783,140.268h-1.108v-1.869h-0.039c-0.513,1.281-2.08,2.158-3.507,2.158
							c-2.999,0-4.427-2.425-4.427-5.209c0-2.785,1.428-5.209,4.427-5.209c1.467,0,2.898,0.744,3.413,2.156h0.038v-5.646h1.204
							L84.783,140.268L84.783,140.268z M80.128,139.542c2.554,0,3.451-2.153,3.451-4.194s-0.897-4.197-3.451-4.197
							c-2.291,0-3.227,2.156-3.227,4.197C76.902,137.389,77.838,139.542,80.128,139.542z"/>
						<path fill="#FFFFFF" d="M87.773,135.672c0.02,1.755,0.934,3.87,3.245,3.87c1.753,0,2.708-1.03,3.088-2.517h1.202
							c-0.517,2.232-1.813,3.529-4.291,3.529c-3.131,0-4.447-2.404-4.447-5.207c0-2.598,1.316-5.209,4.447-5.209
							c3.165,0,4.425,2.766,4.33,5.532L87.773,135.672L87.773,135.672z M94.144,134.66c-0.057-1.813-1.183-3.512-3.125-3.512
							c-1.966,0-3.054,1.72-3.245,3.512H94.144z"/>
						<path fill="#FFFFFF" d="M103.108,135.786c-0.06,2.804,1.964,3.661,4.442,3.661c1.431,0,3.606-0.781,3.606-2.766
							c0-1.547-1.546-2.156-2.804-2.461l-3.035-0.742c-1.602-0.402-3.069-1.166-3.069-3.283c0-1.334,0.859-3.832,4.693-3.832
							c2.687,0,5.053,1.449,5.035,4.232h-1.296c-0.076-2.078-1.795-3.127-3.719-3.127c-1.774,0-3.418,0.686-3.418,2.708
							c0,1.277,0.955,1.812,2.062,2.079l3.321,0.819c1.923,0.515,3.528,1.354,3.528,3.587c0,0.936-0.383,3.893-5.207,3.893
							c-3.225,0-5.592-1.449-5.436-4.77L103.108,135.786L103.108,135.786z"/>
						<path fill="#FFFFFF" d="M114.987,135.672c0.02,1.755,0.935,3.87,3.245,3.87c1.754,0,2.708-1.03,3.091-2.517h1.199
							c-0.515,2.232-1.812,3.529-4.291,3.529c-3.129,0-4.445-2.404-4.445-5.207c0-2.598,1.316-5.209,4.445-5.209
							c3.166,0,4.427,2.766,4.333,5.532L114.987,135.672L114.987,135.672z M121.357,134.66c-0.054-1.813-1.179-3.512-3.125-3.512
							c-1.964,0-3.053,1.72-3.245,3.512H121.357z"/>
						<path fill="#FFFFFF" d="M124.179,130.425h1.108v2.31h0.037c0.611-1.584,1.946-2.52,3.72-2.442v1.203
							c-2.175-0.116-3.662,1.487-3.662,3.528v5.244h-1.204L124.179,130.425L124.179,130.425z"/>
						<path fill="#FFFFFF" d="M129.082,130.425h1.335l3.09,8.644h0.036l3.056-8.644h1.236l-3.68,9.843h-1.28L129.082,130.425z"/>
						<path fill="#FFFFFF" d="M139.036,126.646h1.202v1.928h-1.202V126.646z M139.036,130.425h1.202v9.843h-1.202V130.425z"/>
						<path fill="#FFFFFF" d="M149.49,133.518c-0.325-1.472-1.218-2.367-2.786-2.367c-2.307,0-3.452,2.101-3.452,4.197
							c0,2.1,1.146,4.194,3.452,4.194c1.487,0,2.708-1.163,2.863-2.803h1.202c-0.327,2.366-1.87,3.815-4.065,3.815
							c-3.015,0-4.653-2.385-4.653-5.207c0-2.824,1.638-5.209,4.653-5.209c2.101,0,3.722,1.127,3.989,3.377h-1.203V133.518z"/>
						<path fill="#FFFFFF" d="M152.461,126.646h1.202v1.928h-1.202V126.646z M152.461,130.425h1.202v9.843h-1.202V130.425z"/>
						<path fill="#FFFFFF" d="M164.787,135.348c0,2.823-1.643,5.209-4.658,5.209c-3.014,0-4.653-2.386-4.653-5.209
							c0-2.824,1.639-5.209,4.653-5.209C163.145,130.139,164.787,132.523,164.787,135.348z M156.679,135.348
							c0,2.1,1.146,4.194,3.451,4.194c2.31,0,3.452-2.097,3.452-4.194s-1.142-4.197-3.452-4.197
							C157.824,131.148,156.679,133.25,156.679,135.348z"/>
						<path fill="#FFFFFF" d="M172.47,133.307c-0.055-1.488-1.201-2.156-2.577-2.156c-1.065,0-2.325,0.42-2.325,1.699
							c0,1.068,1.22,1.448,2.039,1.659l1.603,0.36c1.375,0.21,2.803,1.011,2.803,2.729c0,2.135-2.115,2.957-3.946,2.957
							c-2.289,0-3.854-1.068-4.042-3.474h1.201c0.096,1.621,1.296,2.46,2.898,2.46c1.125,0,2.688-0.494,2.688-1.868
							c0-1.144-1.067-1.524-2.156-1.794l-1.543-0.341c-1.566-0.419-2.747-0.955-2.747-2.634c0-2.004,1.966-2.768,3.701-2.768
							c1.966,0,3.529,1.03,3.605,3.168h-1.202V133.307z"/>
						<path fill="#FFFFFF" d="M189.71,140.268h-1.105v-1.869h-0.041c-0.512,1.281-2.076,2.158-3.507,2.158
							c-2.993,0-4.425-2.425-4.425-5.209c0-2.785,1.433-5.209,4.425-5.209c1.468,0,2.9,0.744,3.412,2.156h0.041v-5.646h1.201
							L189.71,140.268L189.71,140.268z M185.057,139.542c2.559,0,3.452-2.153,3.452-4.194s-0.894-4.197-3.452-4.197
							c-2.289,0-3.223,2.156-3.223,4.197S182.768,139.542,185.057,139.542z"/>
						<path fill="#FFFFFF" d="M192.702,135.672c0.02,1.755,0.934,3.87,3.245,3.87c1.754,0,2.708-1.03,3.091-2.517h1.199
							c-0.512,2.232-1.812,3.529-4.291,3.529c-3.129,0-4.445-2.404-4.445-5.207c0-2.598,1.316-5.209,4.445-5.209
							c3.166,0,4.425,2.766,4.331,5.532L192.702,135.672L192.702,135.672z M199.076,134.66c-0.057-1.813-1.183-3.512-3.129-3.512
							c-1.964,0-3.054,1.72-3.245,3.512H199.076z"/>
						<path fill="#FFFFFF" d="M35.118,148.422h1.299v13.62h-1.299V148.422z"/>
						<path fill="#FFFFFF" d="M39.01,152.199h1.2v1.697h0.038c0.44-1.184,1.756-1.983,3.148-1.983c2.763,0,3.606,1.451,3.606,3.797
							v6.332h-1.206v-6.144c0-1.696-0.552-2.976-2.497-2.976c-1.907,0-3.053,1.449-3.09,3.377v5.741h-1.2L39.01,152.199
							L39.01,152.199z"/>
						<path fill="#FFFFFF" d="M53.064,153.21H51.12v8.832h-1.201v-8.832h-1.681v-1.011h1.681v-0.897
							c-0.021-1.696,0.458-2.88,2.383-2.88c0.34,0,0.627,0.02,1.009,0.074v1.033c-0.324-0.059-0.59-0.096-0.874-0.096
							c-1.339,0-1.298,0.838-1.318,1.905v0.859h1.945V153.21z"/>
						<path fill="#FFFFFF" d="M63.021,157.12c0,2.823-1.641,5.208-4.654,5.208c-3.016,0-4.655-2.385-4.655-5.208
							c0-2.824,1.639-5.207,4.655-5.207C61.38,151.913,63.021,154.296,63.021,157.12z M54.915,157.12
							c0,2.099,1.146,4.194,3.453,4.194c2.308,0,3.45-2.097,3.45-4.194c0-2.101-1.142-4.196-3.45-4.196
							C56.06,152.924,54.915,155.021,54.915,157.12z"/>
						<path fill="#FFFFFF" d="M64.813,152.199h1.104v2.309h0.041c0.609-1.584,1.943-2.519,3.717-2.443v1.203
							c-2.174-0.115-3.664,1.487-3.664,3.529v5.245h-1.199L64.813,152.199L64.813,152.199z"/>
						<path fill="#FFFFFF" d="M70.819,152.199h1.105v1.658h0.058c0.629-1.184,1.661-1.944,3.224-1.944
							c1.299,0,2.459,0.629,2.823,1.927c0.591-1.298,1.833-1.927,3.129-1.927c2.156,0,3.261,1.126,3.261,3.452v6.677h-1.201v-6.618
							c0-1.625-0.609-2.5-2.328-2.5c-2.08,0-2.671,1.717-2.671,3.551v5.567h-1.2v-6.677c0.02-1.336-0.533-2.441-2.062-2.441
							c-2.079,0-2.919,1.564-2.937,3.624v5.494h-1.201V152.199L70.819,152.199z"/>
						<path fill="#FFFFFF" d="M86.591,155.213c0.115-2.309,1.738-3.3,3.988-3.3c1.733,0,3.623,0.532,3.623,3.166v5.226
							c0,0.457,0.23,0.729,0.708,0.729c0.131,0,0.286-0.039,0.381-0.078v1.014c-0.27,0.055-0.461,0.074-0.783,0.074
							c-1.222,0-1.412-0.688-1.412-1.719h-0.039c-0.84,1.277-1.7,2.005-3.587,2.005c-1.812,0-3.298-0.897-3.298-2.882
							c0-2.766,2.689-2.859,5.282-3.165c0.994-0.115,1.546-0.247,1.546-1.335c0-1.621-1.165-2.022-2.577-2.022
							c-1.486,0-2.593,0.687-2.632,2.289L86.591,155.213L86.591,155.213z M93.001,156.663H92.96
							c-0.149,0.284-0.682,0.381-1.009,0.438c-2.041,0.359-4.577,0.344-4.577,2.27c0,1.199,1.066,1.943,2.19,1.943
							c1.833,0,3.456-1.16,3.436-3.09L93.001,156.663L93.001,156.663z"/>
						<path fill="#FFFFFF" d="M103.548,155.291c-0.325-1.473-1.222-2.367-2.788-2.367c-2.307,0-3.453,2.098-3.453,4.196
							s1.146,4.194,3.453,4.194c1.49,0,2.711-1.162,2.864-2.805h1.201c-0.322,2.367-1.87,3.817-4.064,3.817
							c-3.011,0-4.653-2.386-4.653-5.208c0-2.824,1.642-5.207,4.653-5.207c2.099,0,3.722,1.126,3.988,3.378L103.548,155.291
							L103.548,155.291z"/>
						<path fill="#FFFFFF" d="M106.52,148.422h1.201v1.928h-1.201V148.422z M106.52,152.199h1.201v9.843h-1.201V152.199z"/>
						<path fill="#FFFFFF" d="M118.844,157.12c0,2.823-1.643,5.208-4.656,5.208c-3.012,0-4.652-2.385-4.652-5.208
							c0-2.824,1.641-5.207,4.652-5.207C117.201,151.913,118.844,154.296,118.844,157.12z M110.735,157.12
							c0,2.099,1.146,4.194,3.452,4.194c2.309,0,3.456-2.097,3.456-4.194c0-2.101-1.147-4.196-3.456-4.196
							C111.881,152.924,110.735,155.021,110.735,157.12z M114.037,150.826h-0.975l2.004-2.69h1.487L114.037,150.826z"/>
						<path fill="#FFFFFF" d="M120.615,152.199h1.2v1.697h0.041c0.435-1.184,1.753-1.983,3.145-1.983
							c2.768,0,3.606,1.451,3.606,3.797v6.332h-1.2v-6.144c0-1.696-0.553-2.976-2.504-2.976c-1.902,0-3.047,1.449-3.088,3.377v5.741
							h-1.2V152.199L120.615,152.199z"/>
						<path fill="#FFFFFF" d="M146.364,152.542c-0.457-2.101-2.196-3.298-4.18-3.298c-3.602,0-5.129,3.012-5.129,5.988
							c0,2.976,1.527,5.988,5.129,5.988c2.518,0,4.122-1.947,4.37-4.367h1.298c-0.362,3.336-2.481,5.475-5.668,5.475
							c-4.291,0-6.425-3.376-6.425-7.096c0-3.721,2.135-7.098,6.425-7.098c2.578,0,5.134,1.545,5.478,4.406L146.364,152.542
							L146.364,152.542z"/>
						<path fill="#FFFFFF" d="M149.834,148.422h9.403v1.107h-8.108v4.92h7.591v1.107h-7.591v5.379h8.206v1.105h-9.5L149.834,148.422
							L149.834,148.422z"/>
						<path fill="#FFFFFF" d="M161.124,148.422h1.448l7.938,11.521h0.038v-11.521h1.299v13.62h-1.452l-7.938-11.522h-0.034v11.522
							h-1.298L161.124,148.422L161.124,148.422z"/>
						<path fill="#FFFFFF" d="M175.178,157.557c-0.055,2.809,1.966,3.664,4.447,3.664c1.428,0,3.605-0.781,3.605-2.766
							c0-1.545-1.543-2.154-2.806-2.459l-3.033-0.744c-1.6-0.4-3.07-1.165-3.07-3.281c0-1.336,0.857-3.835,4.691-3.835
							c2.694,0,5.056,1.449,5.04,4.233h-1.299c-0.077-2.079-1.795-3.125-3.721-3.125c-1.774,0-3.413,0.686-3.413,2.706
							c0,1.28,0.952,1.813,2.059,2.079l3.32,0.82c1.929,0.516,3.527,1.354,3.527,3.586c0,0.935-0.378,3.893-5.205,3.893
							c-3.226,0-5.592-1.45-5.438-4.771H175.178z"/>
						<path fill="#FFFFFF" d="M186.586,148.422h9.399v1.107h-8.105v4.92h7.592v1.107h-7.592v5.379h8.201v1.105h-9.496
							L186.586,148.422L186.586,148.422z"/>
						<path fill="#FFFFFF" d="M197.987,148.422h1.296v13.62h-1.296V148.422z"/>
					</g>
				</g>
			</g>
			<g>
				<g>
					<path fill="#FFFFFF" d="M264.261,169.314c-1.478,0.24-2.78,0.742-2.78,2.494c0,1.273,1.088,1.91,2.248,1.91
						c1.597,0,2.782-0.585,3.508-1.803c0.679-1.037,0.799-2.257,1.09-3.53h-0.049C267.381,168.971,265.762,169.104,264.261,169.314z
						"/>
					<path fill="#FFFFFF" d="M292.863,163.346c-3.145,0-4.791,3.768-4.791,6.605c0,2.255,1.184,3.769,3.436,3.769
						c2.999,0,4.646-3.795,4.646-6.501C296.154,165.068,295.113,163.346,292.863,163.346z"/>
					<path fill="#FFFFFF" d="M283.479,61.403c-36.47,0-66.205,28.798-67.732,64.894l47.027-51.394h9.74l-13.259,63.318h9.132
						l-2.027,10.146h-9.131l-6.036,27.245h-11.498l6.032-27.245h-28.38c-1.08,7.815-5.764,24.276-5.764,24.276l14.085,3.08
						l5.879,21.291c0,0,33.189,0,51.93,0c37.446,0,67.808-30.356,67.808-67.804C351.284,91.762,320.924,61.403,283.479,61.403z
						 M270.018,173.904c0.195,0,0.461-0.104,0.655-0.186l-0.313,1.672c-0.314,0.187-0.896,0.318-1.26,0.318
						c-1.139,0-1.74-0.742-1.621-1.938l-0.049-0.053c-0.869,1.273-2.08,1.99-4.187,1.99c-2.079,0-3.82-1.061-3.82-3.875
						c0-3.979,3.556-4.245,6.313-4.51c2.178-0.213,3.145-0.346,3.145-2.178c0-1.483-1.427-1.803-2.515-1.803
						c-1.573,0-3.123,0.688-3.363,2.469h-2.06c0.414-3.054,2.762-4.461,5.423-4.461c2.419,0,4.571,0.719,4.571,3.504
						c0,0.77-0.24,1.75-0.388,2.494l-0.799,3.741c-0.095,0.558-0.338,1.327-0.338,1.964
						C269.414,173.693,269.68,173.904,270.018,173.904z M284.025,167.563l-1.524,7.83h-2.056l1.596-8.015
						c0.098-0.504,0.291-1.646,0.291-2.122c0-1.3-0.968-1.91-2.178-1.91c-1.137,0-2.32,0.688-3.096,1.592
						c-0.727,0.688-1.113,1.777-1.379,2.865l-1.453,7.59h-2.057l2.637-13.721h1.984l-0.386,2.069h0.047
						c1.039-1.538,2.733-2.388,4.45-2.388c2.349,0,3.484,1.115,3.484,3.529C284.389,165.467,284.244,166.502,284.025,167.563z
						 M282.695,159.684c-0.532,0-1.209-0.317-1.838-0.662c-0.629-0.346-1.211-0.56-1.573-0.56c-0.654,0-0.943,0.505-1.138,1.088
						h-1.258c0.361-1.247,0.991-2.892,2.396-2.892c0.629,0,1.258,0.345,1.862,0.662c0.604,0.268,1.139,0.638,1.549,0.559
						c0.726,0,0.943-0.479,1.234-1.087h1.231C284.775,158.117,284.195,159.684,282.695,159.684z M291.29,175.71
						c-3.291,0-5.274-2.416-5.274-5.731c0-4.484,2.612-8.625,6.992-8.625c3.34,0,5.203,2.019,5.203,5.681
						C298.211,171.518,295.67,175.71,291.29,175.71z M306.079,167.616c1.644,0.741,3.313,1.698,3.313,3.849
						c0,3.051-2.686,4.245-5.104,4.245c-2.855,0-5.082-1.142-5.059-4.644h2.057c-0.096,2.043,1.477,2.652,3.193,2.652
						c1.33,0,2.854-0.531,2.854-2.096c0-1.327-1.645-1.857-3.289-2.604c-1.669-0.715-3.314-1.644-3.314-3.713
						c0-2.548,2.322-3.955,4.646-3.955c2.324,0,4.718,1.144,4.718,4.354h-2.057c0.098-1.564-1.16-2.36-2.588-2.36
						c-1.258,0-2.661,0.37-2.661,1.751C302.789,166.37,304.434,166.874,306.079,167.616z M293.902,149.432
						c-15.391,0-21.381-11.261-21.381-27.686c0-2.895,1.961-47.52,33.364-47.52c15.39,0,21.384,10.021,21.384,27.686
						C327.27,111.003,322.419,149.432,293.902,149.432z"/>
					<polygon fill="#FFFFFF" points="256.82,94.791 256.549,94.791 216.91,138.221 247.754,138.221 					"/>
					<path fill="#FFFFFF" d="M304.542,84.041c-14.979,0-20.245,29.441-20.245,41.115c0,7.539,2.375,14.462,10.949,14.462
						c14.977,0,20.244-29.442,20.244-41.115C315.49,90.962,313.118,84.041,304.542,84.041z"/>
				</g>
			</g>
		</g>
	</g>
</g>
</svg>
