<?xml version="1.0" encoding="utf-8"?>
<!-- Generator: Adobe Illustrator 16.0.0, SVG Export Plug-In . SVG Version: 6.00 Build 0)  -->
<!DOCTYPE svg PUBLIC "-//W3C//DTD SVG 1.1//EN" "http://www.w3.org/Graphics/SVG/1.1/DTD/svg11.dtd">
<svg version="1.1" id="Capa_1" xmlns="http://www.w3.org/2000/svg" xmlns:xlink="http://www.w3.org/1999/xlink" x="0px" y="0px"
	 width="632.968px" height="330.4px" viewBox="-28.394 -30.4 632.968 330.4" enable-background="new -28.394 -30.4 632.968 330.4"
	 xml:space="preserve">
<image overflow="visible" enable-background="new    " width="649" height="323" xlink:href="EDDA71AF.jpg"  transform="matrix(0.9993 0 0 0.9993 -141.7603 478.0645)">
</image>
<rect x="245.36" y="26.541" transform="matrix(-0.9982 0.0592 -0.0592 -0.9982 657.2683 269.9918)" opacity="0.5" fill="#E12021" enable-background="new    " width="158.549" height="236.384"/>
<rect x="104.119" y="26.535" transform="matrix(-0.977 0.2133 -0.2133 -0.977 393.4473 247.0175)" opacity="0.5" fill="#E12021" enable-background="new    " width="158.559" height="236.397"/>
<rect x="381.345" y="-0.467" transform="matrix(-0.9734 -0.229 0.229 -0.9734 903.1938 378.9147)" opacity="0.5" fill="#E12021" enable-background="new    " width="184.476" height="275.037"/>
<rect x="5.461" y="15.483" transform="matrix(-0.9734 -0.229 0.229 -0.9734 132.9354 276.0667)" opacity="0.5" fill="#E12021" enable-background="new    " width="154.049" height="229.673"/>
<polygon fill="#0F0F0F" points="500.026,291.388 -12.16,291.388 3.215,229.894 515.4,229.894 "/>
<g>
	<path fill="#FFFFFF" d="M20.355,274.874h-4.343l4.319-12.151h1.452L20.355,274.874z M19.477,259.074
		c0-0.414,0.063-0.765,0.189-1.055c0.125-0.289,0.293-0.521,0.501-0.694c0.207-0.177,0.44-0.302,0.702-0.378
		c0.26-0.077,0.521-0.117,0.78-0.117c0.61,0,1.099,0.146,1.47,0.439c0.37,0.293,0.555,0.743,0.555,1.354
		c0,0.34-0.051,0.651-0.152,0.929c-0.102,0.275-0.247,0.511-0.433,0.707c-0.188,0.195-0.415,0.349-0.682,0.456
		c-0.268,0.11-0.57,0.166-0.903,0.166c-0.285,0-0.551-0.036-0.8-0.109c-0.248-0.075-0.462-0.184-0.646-0.329
		c-0.184-0.146-0.326-0.333-0.427-0.563C19.527,259.654,19.477,259.385,19.477,259.074z"/>
	<path fill="#FFFFFF" d="M32.104,270.64c-1.033,0-1.935-0.093-2.708-0.28c-0.773-0.186-1.416-0.442-1.928-0.769
		s-0.897-0.708-1.153-1.152c-0.257-0.442-0.384-0.924-0.384-1.446c0-0.389,0.079-0.73,0.237-1.024
		c0.158-0.292,0.382-0.537,0.671-0.729c0.289-0.196,0.629-0.345,1.025-0.44c0.394-0.097,0.831-0.146,1.312-0.146
		c0,0.766,0.081,1.428,0.244,1.988c0.163,0.561,0.391,1.027,0.683,1.396c0.293,0.372,0.643,0.646,1.049,0.825
		c0.406,0.179,0.854,0.27,1.342,0.27c0.472,0,0.89-0.067,1.256-0.201c0.367-0.135,0.678-0.319,0.934-0.55
		c0.256-0.232,0.452-0.505,0.586-0.819c0.134-0.313,0.201-0.647,0.201-1.006c0-0.348-0.043-0.671-0.127-0.963
		c-0.085-0.294-0.243-0.577-0.471-0.854c-0.228-0.276-0.54-0.557-0.939-0.841c-0.399-0.284-0.911-0.598-1.538-0.939
		c-0.651-0.358-1.222-0.727-1.713-1.104c-0.491-0.377-0.903-0.787-1.232-1.228c-0.329-0.438-0.578-0.921-0.743-1.444
		c-0.167-0.523-0.251-1.115-0.251-1.774c0-0.75,0.151-1.436,0.452-2.063c0.302-0.627,0.731-1.164,1.292-1.615
		c0.561-0.452,1.241-0.801,2.038-1.051c0.797-0.247,1.691-0.372,2.685-0.372c0.927,0,1.736,0.076,2.428,0.222
		c0.69,0.146,1.266,0.347,1.727,0.598c0.459,0.253,0.803,0.548,1.031,0.889c0.227,0.343,0.341,0.709,0.341,1.098
		c0,0.678-0.255,1.206-0.769,1.591c-0.512,0.39-1.35,0.581-2.513,0.581c0-0.375-0.036-0.765-0.11-1.171
		c-0.074-0.408-0.203-0.78-0.391-1.117c-0.188-0.338-0.439-0.617-0.756-0.836c-0.317-0.219-0.719-0.33-1.208-0.33
		c-0.333,0-0.664,0.055-0.994,0.16c-0.33,0.106-0.625,0.266-0.885,0.477c-0.26,0.212-0.471,0.478-0.634,0.799
		c-0.163,0.322-0.245,0.702-0.245,1.142c0,0.438,0.07,0.812,0.208,1.122c0.137,0.308,0.345,0.596,0.621,0.86
		c0.276,0.264,0.622,0.521,1.037,0.768c0.415,0.25,0.904,0.524,1.464,0.825c1.26,0.683,2.192,1.437,2.793,2.262
		c0.602,0.827,0.903,1.771,0.903,2.839c0,0.886-0.161,1.675-0.482,2.367c-0.322,0.689-0.78,1.272-1.378,1.742
		c-0.598,0.473-1.32,0.832-2.165,1.08C34.1,270.515,33.153,270.64,32.104,270.64z"/>
	<path fill="#FFFFFF" d="M47.756,268.749c0.406,0,0.792-0.059,1.159-0.176c0.367-0.116,0.705-0.271,1.019-0.465
		c0.313-0.189,0.593-0.404,0.841-0.646c0.249-0.238,0.462-0.484,0.641-0.737c0.097,0.123,0.175,0.278,0.231,0.469
		c0.056,0.193,0.085,0.394,0.085,0.605c0,0.302-0.097,0.618-0.292,0.951c-0.195,0.334-0.494,0.64-0.897,0.922
		c-0.403,0.279-0.916,0.513-1.537,0.694c-0.623,0.183-1.361,0.275-2.214,0.275c-0.765,0-1.485-0.106-2.16-0.317
		c-0.675-0.213-1.268-0.53-1.775-0.957c-0.507-0.427-0.909-0.965-1.202-1.611c-0.294-0.646-0.439-1.405-0.439-2.274
		c0-0.619,0.081-1.266,0.244-1.94c0.163-0.676,0.404-1.336,0.726-1.982c0.322-0.646,0.72-1.262,1.196-1.843
		c0.477-0.579,1.027-1.091,1.653-1.531c0.625-0.438,1.327-0.785,2.104-1.042c0.776-0.257,1.625-0.385,2.544-0.385
		c1.195,0,2.123,0.258,2.781,0.776c0.659,0.518,0.988,1.237,0.988,2.166c0,0.675-0.187,1.321-0.561,1.938
		c-0.375,0.618-0.891,1.16-1.549,1.629c-0.659,0.469-1.444,0.84-2.355,1.117c-0.91,0.274-1.902,0.415-2.977,0.415
		c-0.138,0-0.288,0-0.451,0c-0.163,0-0.321-0.008-0.477-0.025c-0.025,0.163-0.038,0.327-0.043,0.492
		c-0.003,0.168-0.006,0.321-0.006,0.46c0,0.969,0.225,1.714,0.678,2.237C46.163,268.487,46.844,268.749,47.756,268.749z
		 M48.633,258.258c-0.406,0-0.792,0.153-1.158,0.457c-0.367,0.306-0.696,0.701-0.988,1.188c-0.293,0.487-0.545,1.035-0.756,1.641
		c-0.212,0.606-0.366,1.207-0.464,1.801h0.219c0.618,0,1.194-0.081,1.727-0.245c0.533-0.163,0.996-0.396,1.392-0.701
		c0.395-0.305,0.703-0.669,0.928-1.093c0.224-0.423,0.334-0.897,0.334-1.427c0-0.513-0.107-0.91-0.323-1.195
		C49.328,258.399,49.024,258.258,48.633,258.258z M47.938,254.928c0.228-0.236,0.476-0.509,0.744-0.817
		c0.269-0.31,0.534-0.629,0.8-0.958c0.264-0.327,0.519-0.656,0.768-0.982c0.249-0.325,0.471-0.629,0.665-0.915h3.917l-0.073,0.258
		c-0.131,0.145-0.309,0.318-0.537,0.519s-0.486,0.413-0.775,0.641c-0.289,0.227-0.598,0.461-0.927,0.701
		c-0.33,0.239-0.664,0.474-1.006,0.702c-0.342,0.226-0.679,0.444-1.013,0.651c-0.333,0.208-0.646,0.383-0.939,0.53h-1.696
		L47.938,254.928z"/>
	<path fill="#FFFFFF" d="M59.333,276.398l3.392-15.946c0.026-0.105,0.047-0.215,0.068-0.33c0.021-0.113,0.039-0.221,0.056-0.321
		c0.015-0.102,0.027-0.189,0.036-0.264c0.007-0.073,0.013-0.126,0.013-0.157c0-0.228-0.026-0.411-0.074-0.551
		c-0.049-0.137-0.125-0.243-0.232-0.317c-0.106-0.073-0.242-0.122-0.408-0.146c-0.166-0.024-0.367-0.035-0.603-0.035h-0.452
		l0.22-1.331h5.38l-0.646,3.331h0.171c0.285-0.522,0.578-1.001,0.879-1.439c0.302-0.438,0.634-0.817,1.001-1.133
		c0.366-0.318,0.78-0.566,1.245-0.738c0.464-0.176,1.005-0.264,1.623-0.264c0.545,0,1.043,0.097,1.496,0.292
		c0.451,0.196,0.835,0.484,1.153,0.867c0.317,0.382,0.563,0.853,0.738,1.415c0.175,0.562,0.263,1.209,0.263,1.938
		c0,0.603-0.071,1.25-0.213,1.946c-0.143,0.694-0.356,1.391-0.641,2.086c-0.284,0.694-0.64,1.364-1.067,2.006
		c-0.427,0.644-0.93,1.21-1.507,1.703c-0.578,0.492-1.226,0.885-1.946,1.183c-0.719,0.296-1.51,0.444-2.373,0.444
		c-0.504,0-0.975-0.05-1.408-0.151c-0.435-0.103-0.815-0.243-1.141-0.423c-0.009,0.131-0.024,0.266-0.05,0.402
		c-0.015,0.115-0.036,0.243-0.06,0.385c-0.025,0.142-0.053,0.281-0.086,0.421l-0.353,1.672c-0.025,0.105-0.047,0.216-0.068,0.329
		c-0.02,0.113-0.039,0.222-0.054,0.324c-0.017,0.102-0.029,0.188-0.037,0.261c-0.008,0.075-0.012,0.127-0.012,0.16
		c0,0.227,0.024,0.411,0.073,0.549c0.05,0.139,0.126,0.243,0.231,0.317c0.105,0.075,0.243,0.123,0.409,0.146
		c0.167,0.024,0.368,0.036,0.604,0.036h0.952l-0.219,1.33h-6.35V276.398z M70.874,261.454c0-0.34-0.023-0.674-0.067-0.995
		c-0.044-0.319-0.119-0.607-0.22-0.859c-0.102-0.252-0.24-0.456-0.415-0.61c-0.176-0.153-0.393-0.23-0.653-0.23
		c-0.276,0-0.551,0.078-0.824,0.238c-0.272,0.157-0.537,0.372-0.793,0.64c-0.255,0.27-0.496,0.578-0.72,0.927
		c-0.224,0.351-0.427,0.716-0.61,1.092c-0.183,0.379-0.342,0.759-0.477,1.141c-0.134,0.381-0.233,0.739-0.299,1.074l-0.952,4.477
		c0.074,0.075,0.172,0.153,0.293,0.237c0.122,0.086,0.261,0.163,0.415,0.226c0.155,0.067,0.324,0.122,0.507,0.167
		c0.182,0.044,0.372,0.066,0.566,0.066c0.448,0,0.865-0.122,1.25-0.366c0.386-0.243,0.735-0.568,1.049-0.976
		c0.313-0.407,0.592-0.872,0.835-1.396c0.245-0.525,0.448-1.066,0.61-1.63c0.163-0.562,0.287-1.119,0.373-1.678
		C70.83,262.439,70.874,261.924,70.874,261.454z"/>
	<path fill="#FFFFFF" d="M87.465,270.64c-0.741,0-1.333-0.17-1.782-0.506c-0.447-0.337-0.67-0.831-0.67-1.481
		c0-0.261,0.013-0.515,0.036-0.763c0.024-0.247,0.068-0.535,0.134-0.86h-0.172c-0.309,0.578-0.616,1.093-0.921,1.543
		c-0.305,0.451-0.645,0.829-1.019,1.135c-0.375,0.304-0.791,0.535-1.25,0.694c-0.459,0.158-0.995,0.237-1.604,0.237
		c-0.594,0-1.114-0.116-1.562-0.348c-0.447-0.23-0.82-0.551-1.117-0.957c-0.296-0.407-0.521-0.889-0.671-1.445
		c-0.15-0.558-0.226-1.162-0.226-1.813c0-0.649,0.076-1.329,0.226-2.041c0.15-0.711,0.376-1.413,0.677-2.104
		c0.302-0.69,0.673-1.351,1.117-1.977c0.444-0.627,0.955-1.177,1.538-1.646c0.582-0.474,1.23-0.848,1.946-1.13
		c0.716-0.28,1.496-0.422,2.343-0.422c0.325,0,0.656,0.026,0.994,0.079c0.337,0.053,0.661,0.121,0.97,0.201
		c0.311,0.081,0.599,0.175,0.872,0.276c0.272,0.101,0.502,0.205,0.689,0.311l1.318-0.598h1.33l-1.647,7.795
		c-0.033,0.14-0.074,0.322-0.122,0.549c-0.048,0.228-0.096,0.47-0.139,0.727c-0.044,0.257-0.083,0.504-0.116,0.744
		c-0.032,0.24-0.049,0.442-0.049,0.605c0,0.414,0.082,0.725,0.244,0.927c0.163,0.203,0.375,0.305,0.634,0.305
		c0.236,0,0.462-0.05,0.678-0.151c0.216-0.103,0.453-0.229,0.714-0.374l0.549,1.002c-0.211,0.162-0.451,0.33-0.72,0.506
		s-0.568,0.335-0.897,0.48c-0.329,0.147-0.687,0.269-1.074,0.36C88.327,270.592,87.913,270.64,87.465,270.64z M80.438,266.103
		c0,0.479,0.035,0.881,0.103,1.207c0.07,0.325,0.163,0.587,0.281,0.787c0.119,0.197,0.261,0.341,0.427,0.427
		c0.167,0.084,0.349,0.127,0.543,0.127c0.366,0,0.744-0.158,1.135-0.478c0.39-0.316,0.755-0.733,1.098-1.25
		c0.341-0.516,0.649-1.1,0.921-1.749c0.272-0.651,0.478-1.311,0.617-1.978l0.878-4.147c-0.163-0.235-0.389-0.411-0.677-0.525
		c-0.289-0.112-0.596-0.172-0.922-0.172c-0.488,0-0.933,0.126-1.335,0.378c-0.403,0.254-0.767,0.59-1.092,1.014
		s-0.612,0.902-0.86,1.439c-0.249,0.537-0.456,1.092-0.622,1.671c-0.167,0.578-0.292,1.146-0.373,1.708
		C80.479,265.127,80.438,265.638,80.438,266.103z"/>
	<path fill="#FFFFFF" d="M95.456,259.197c0-0.31-0.102-0.529-0.305-0.665c-0.203-0.133-0.542-0.2-1.013-0.2h-0.452L93.905,257h5.526
		l-0.525,3.43h0.122c0.284-0.603,0.572-1.131,0.859-1.586c0.289-0.455,0.605-0.838,0.952-1.146c0.346-0.311,0.737-0.542,1.178-0.701
		c0.44-0.16,0.952-0.239,1.538-0.239c0.886,0,1.545,0.169,1.977,0.502s0.647,0.817,0.647,1.45c0,0.862-0.252,1.506-0.756,1.929
		c-0.504,0.424-1.236,0.634-2.196,0.634c0-0.374-0.019-0.714-0.054-1.02c-0.036-0.305-0.101-0.564-0.195-0.78
		c-0.094-0.214-0.22-0.379-0.377-0.493s-0.356-0.17-0.592-0.17c-0.237,0-0.484,0.095-0.745,0.285c-0.26,0.19-0.521,0.453-0.78,0.786
		c-0.26,0.335-0.515,0.73-0.762,1.189c-0.249,0.459-0.486,0.961-0.714,1.501s-0.435,1.108-0.622,1.7
		c-0.187,0.594-0.346,1.195-0.477,1.805l-0.951,4.32h-3.769l2.122-10.041c0.025-0.138,0.054-0.319,0.092-0.548
		C95.438,259.58,95.456,259.376,95.456,259.197z"/>
	<path fill="#FFFFFF" d="M112.767,268.604c0.391,0,0.744-0.065,1.062-0.196c0.317-0.128,0.614-0.282,0.891-0.462l0.573,0.952
		c-0.276,0.234-0.567,0.459-0.873,0.669c-0.305,0.213-0.637,0.397-0.994,0.557c-0.358,0.159-0.742,0.284-1.154,0.377
		c-0.41,0.093-0.856,0.14-1.334,0.14c-0.456,0-0.88-0.059-1.276-0.176c-0.395-0.117-0.738-0.297-1.031-0.536
		s-0.522-0.542-0.688-0.909c-0.167-0.366-0.25-0.797-0.25-1.292c0-0.146,0.006-0.31,0.018-0.487c0.012-0.179,0.03-0.363,0.054-0.551
		c0.025-0.187,0.053-0.372,0.085-0.553c0.033-0.184,0.066-0.354,0.098-0.507l1.501-6.917h-1.928l0.269-1.282
		c0.357,0,0.748-0.062,1.171-0.183c0.423-0.122,0.855-0.321,1.3-0.598c0.443-0.276,0.886-0.638,1.33-1.085
		c0.444-0.447,0.86-0.993,1.25-1.636h1.452l-0.646,3.075h3.014l-0.343,1.708h-3.048l-1.5,6.845c-0.09,0.366-0.152,0.697-0.189,0.993
		c-0.037,0.296-0.055,0.564-0.055,0.801c0,0.414,0.114,0.728,0.341,0.939C112.092,268.497,112.392,268.604,112.767,268.604z"/>
	<path fill="#FFFFFF" d="M124.016,257l-1.733,8.125c-0.098,0.456-0.178,0.88-0.244,1.275c-0.065,0.394-0.098,0.768-0.098,1.117
		c0,0.366,0.076,0.646,0.226,0.841c0.15,0.194,0.364,0.292,0.64,0.292c0.261,0,0.501-0.047,0.72-0.146
		c0.22-0.097,0.472-0.238,0.756-0.426l0.598,0.841c-0.195,0.212-0.42,0.422-0.672,0.627c-0.252,0.206-0.536,0.393-0.854,0.555
		c-0.316,0.165-0.666,0.294-1.042,0.391c-0.377,0.099-0.795,0.146-1.25,0.146c-0.96,0-1.695-0.227-2.208-0.678
		c-0.512-0.45-0.769-1.081-0.769-1.884c0-0.358,0.033-0.784,0.098-1.282c0.064-0.497,0.166-1.062,0.305-1.695l0.977-4.648
		c0.024-0.105,0.046-0.216,0.067-0.33c0.021-0.113,0.039-0.222,0.054-0.323c0.016-0.101,0.028-0.188,0.036-0.262
		c0.009-0.075,0.012-0.126,0.012-0.158c0-0.227-0.025-0.411-0.073-0.55c-0.05-0.137-0.126-0.244-0.231-0.317
		c-0.106-0.073-0.242-0.122-0.409-0.146c-0.168-0.026-0.368-0.036-0.604-0.036h-0.452l0.22-1.33h5.931V257z M120.648,254.928
		c0.227-0.236,0.476-0.509,0.744-0.817c0.269-0.31,0.534-0.629,0.799-0.958c0.265-0.327,0.521-0.656,0.768-0.982
		c0.249-0.325,0.47-0.629,0.666-0.915h3.917l-0.073,0.258c-0.131,0.145-0.309,0.318-0.537,0.519s-0.486,0.413-0.775,0.641
		c-0.289,0.227-0.598,0.461-0.928,0.701c-0.329,0.239-0.664,0.474-1.005,0.702c-0.341,0.226-0.679,0.444-1.013,0.651
		c-0.334,0.208-0.646,0.383-0.939,0.53h-1.696L120.648,254.928z"/>
	<path fill="#FFFFFF" d="M132.86,268.749c0.439,0,0.835-0.059,1.189-0.176c0.353-0.116,0.673-0.273,0.957-0.47
		c0.285-0.195,0.537-0.414,0.756-0.659c0.22-0.242,0.415-0.491,0.586-0.744c0.104,0.099,0.195,0.243,0.269,0.434
		s0.11,0.411,0.11,0.664c0,0.327-0.095,0.657-0.287,0.996c-0.19,0.336-0.488,0.641-0.89,0.913c-0.403,0.274-0.914,0.498-1.531,0.672
		c-0.619,0.177-1.354,0.263-2.208,0.263c-0.756,0-1.47-0.106-2.142-0.317c-0.67-0.212-1.256-0.531-1.756-0.966
		c-0.5-0.429-0.897-0.967-1.189-1.607c-0.293-0.644-0.439-1.399-0.439-2.271c0-0.618,0.077-1.264,0.231-1.934
		c0.154-0.671,0.386-1.331,0.696-1.979c0.31-0.645,0.694-1.26,1.153-1.841c0.459-0.58,0.994-1.091,1.605-1.531
		c0.61-0.44,1.292-0.789,2.049-1.048c0.757-0.262,1.585-0.392,2.488-0.392c0.692,0,1.288,0.072,1.787,0.213
		c0.5,0.144,0.911,0.334,1.231,0.573c0.322,0.241,0.56,0.522,0.714,0.844c0.155,0.32,0.231,0.659,0.231,1.018
		c0,0.262-0.054,0.516-0.164,0.763c-0.11,0.25-0.287,0.473-0.531,0.672c-0.243,0.199-0.559,0.359-0.945,0.482
		c-0.386,0.121-0.856,0.182-1.408,0.182c0-0.438-0.039-0.856-0.116-1.251c-0.077-0.393-0.193-0.739-0.347-1.035
		c-0.154-0.297-0.343-0.531-0.567-0.703c-0.225-0.169-0.487-0.256-0.787-0.256c-0.358,0-0.693,0.121-1.007,0.36
		c-0.313,0.24-0.601,0.558-0.859,0.951c-0.26,0.396-0.49,0.848-0.688,1.354c-0.2,0.509-0.37,1.032-0.513,1.574
		c-0.142,0.542-0.25,1.074-0.323,1.599s-0.11,1.002-0.11,1.434c0,1.017,0.231,1.806,0.696,2.371
		C131.261,268.467,131.949,268.749,132.86,268.749z"/>
	<path fill="#FFFFFF" d="M146.048,257l-1.732,8.125c-0.098,0.456-0.179,0.88-0.244,1.275c-0.064,0.394-0.098,0.768-0.098,1.117
		c0,0.366,0.076,0.646,0.226,0.841c0.151,0.194,0.364,0.292,0.64,0.292c0.261,0,0.501-0.047,0.72-0.146
		c0.219-0.097,0.471-0.238,0.755-0.426l0.598,0.841c-0.195,0.212-0.419,0.422-0.671,0.627c-0.252,0.206-0.536,0.393-0.854,0.555
		c-0.317,0.165-0.666,0.294-1.043,0.391c-0.377,0.099-0.795,0.146-1.25,0.146c-0.959,0-1.695-0.227-2.208-0.678
		c-0.512-0.45-0.769-1.081-0.769-1.884c0-0.358,0.033-0.784,0.098-1.282c0.065-0.497,0.167-1.062,0.305-1.695l0.977-4.648
		c0.024-0.105,0.048-0.216,0.067-0.33c0.021-0.113,0.039-0.222,0.054-0.323c0.016-0.101,0.028-0.188,0.036-0.262
		c0.009-0.075,0.012-0.126,0.012-0.158c0-0.227-0.025-0.411-0.073-0.55c-0.048-0.137-0.126-0.244-0.231-0.317
		c-0.106-0.073-0.242-0.122-0.409-0.146c-0.167-0.026-0.368-0.036-0.604-0.036h-0.452l0.219-1.33h5.931V257z M144.315,254.757
		c-0.277,0-0.533-0.03-0.769-0.092s-0.441-0.156-0.616-0.286c-0.175-0.129-0.313-0.292-0.415-0.487
		c-0.101-0.195-0.152-0.424-0.152-0.683c0-0.367,0.063-0.68,0.189-0.933c0.125-0.257,0.295-0.469,0.506-0.635
		c0.21-0.167,0.459-0.288,0.743-0.367c0.285-0.077,0.582-0.115,0.892-0.115c0.269,0,0.522,0.029,0.762,0.085
		c0.24,0.057,0.451,0.15,0.634,0.28c0.184,0.129,0.33,0.295,0.439,0.495c0.109,0.197,0.165,0.436,0.165,0.713
		c0,0.342-0.068,0.641-0.202,0.897c-0.133,0.254-0.313,0.468-0.536,0.633c-0.225,0.168-0.478,0.291-0.762,0.373
		C144.909,254.715,144.617,254.757,144.315,254.757z"/>
	<path fill="#FFFFFF" d="M146.572,276.398l3.392-15.946c0.026-0.105,0.048-0.215,0.067-0.33c0.021-0.113,0.039-0.221,0.056-0.321
		c0.016-0.102,0.028-0.189,0.037-0.264c0.007-0.073,0.012-0.126,0.012-0.157c0-0.228-0.026-0.411-0.074-0.551
		c-0.049-0.137-0.125-0.243-0.232-0.317c-0.105-0.073-0.242-0.122-0.408-0.146c-0.167-0.024-0.368-0.035-0.604-0.035h-0.452
		l0.22-1.331h5.379l-0.646,3.331h0.171c0.285-0.522,0.578-1.001,0.879-1.439c0.302-0.438,0.634-0.817,1.001-1.133
		c0.365-0.318,0.78-0.566,1.244-0.738c0.464-0.176,1.004-0.264,1.623-0.264c0.545,0,1.043,0.097,1.496,0.292
		c0.451,0.196,0.835,0.484,1.152,0.867c0.318,0.382,0.564,0.853,0.739,1.415c0.175,0.562,0.263,1.209,0.263,1.938
		c0,0.603-0.072,1.25-0.213,1.946c-0.142,0.694-0.355,1.391-0.64,2.086c-0.285,0.694-0.64,1.364-1.067,2.006
		c-0.427,0.644-0.929,1.21-1.507,1.703c-0.578,0.492-1.227,0.885-1.947,1.183c-0.719,0.296-1.511,0.444-2.373,0.444
		c-0.504,0-0.975-0.05-1.408-0.151c-0.436-0.103-0.815-0.243-1.141-0.423c-0.008,0.131-0.024,0.266-0.049,0.402
		c-0.015,0.115-0.036,0.243-0.06,0.385c-0.025,0.142-0.053,0.281-0.085,0.421l-0.353,1.672c-0.025,0.105-0.047,0.216-0.068,0.329
		s-0.039,0.222-0.054,0.324c-0.017,0.102-0.029,0.188-0.037,0.261c-0.008,0.075-0.012,0.127-0.012,0.16
		c0,0.227,0.024,0.411,0.073,0.549c0.05,0.139,0.126,0.243,0.232,0.317c0.104,0.075,0.242,0.123,0.409,0.146
		c0.166,0.024,0.368,0.036,0.604,0.036h0.952l-0.219,1.33h-6.35V276.398z M158.113,261.454c0-0.34-0.023-0.674-0.068-0.995
		c-0.044-0.319-0.118-0.607-0.219-0.859c-0.102-0.252-0.24-0.456-0.415-0.61c-0.176-0.153-0.394-0.23-0.654-0.23
		c-0.276,0-0.551,0.078-0.824,0.238c-0.272,0.157-0.536,0.372-0.793,0.64c-0.256,0.27-0.496,0.578-0.72,0.927
		c-0.224,0.351-0.427,0.716-0.61,1.092c-0.184,0.379-0.341,0.759-0.476,1.141c-0.134,0.381-0.234,0.739-0.299,1.074l-0.952,4.477
		c0.074,0.075,0.171,0.153,0.293,0.237c0.122,0.086,0.26,0.163,0.415,0.226c0.154,0.067,0.323,0.122,0.506,0.167
		c0.183,0.044,0.373,0.066,0.567,0.066c0.447,0,0.864-0.122,1.25-0.366c0.386-0.243,0.735-0.568,1.048-0.976
		c0.314-0.407,0.593-0.872,0.836-1.396c0.245-0.525,0.447-1.066,0.61-1.63c0.163-0.562,0.287-1.119,0.373-1.678
		C158.069,262.439,158.113,261.924,158.113,261.454z"/>
	<path fill="#FFFFFF" d="M170.422,268.749c0.406,0,0.792-0.059,1.159-0.176c0.367-0.116,0.705-0.271,1.019-0.465
		c0.313-0.189,0.593-0.404,0.841-0.646c0.248-0.238,0.462-0.484,0.641-0.737c0.098,0.123,0.175,0.278,0.231,0.469
		c0.057,0.193,0.085,0.394,0.085,0.605c0,0.302-0.097,0.618-0.292,0.951c-0.196,0.334-0.495,0.64-0.897,0.922
		c-0.403,0.279-0.915,0.513-1.538,0.694c-0.622,0.183-1.36,0.275-2.213,0.275c-0.765,0-1.484-0.106-2.16-0.317
		c-0.675-0.213-1.268-0.53-1.775-0.957c-0.508-0.427-0.909-0.965-1.203-1.611c-0.292-0.646-0.438-1.405-0.438-2.274
		c0-0.619,0.081-1.266,0.245-1.94c0.163-0.676,0.404-1.336,0.725-1.982c0.322-0.646,0.72-1.262,1.197-1.843
		c0.476-0.579,1.027-1.091,1.653-1.531c0.626-0.438,1.328-0.785,2.104-1.042c0.776-0.257,1.624-0.385,2.542-0.385
		c1.196,0,2.123,0.258,2.782,0.776c0.658,0.518,0.987,1.237,0.987,2.166c0,0.675-0.188,1.321-0.561,1.938
		c-0.375,0.618-0.891,1.16-1.55,1.629c-0.658,0.469-1.443,0.84-2.355,1.117c-0.91,0.274-1.903,0.415-2.977,0.415
		c-0.139,0-0.289,0-0.451,0s-0.322-0.008-0.476-0.025c-0.025,0.163-0.039,0.327-0.044,0.492c-0.003,0.168-0.006,0.321-0.006,0.46
		c0,0.969,0.226,1.714,0.678,2.237C168.83,268.487,169.511,268.749,170.422,268.749z M171.3,258.258
		c-0.406,0-0.792,0.153-1.159,0.457c-0.367,0.306-0.696,0.701-0.988,1.188c-0.293,0.487-0.545,1.035-0.756,1.641
		c-0.211,0.606-0.366,1.207-0.464,1.801h0.22c0.618,0,1.193-0.081,1.727-0.245c0.533-0.163,0.995-0.396,1.391-0.701
		c0.394-0.305,0.703-0.669,0.927-1.093c0.225-0.423,0.335-0.897,0.335-1.427c0-0.513-0.107-0.91-0.323-1.195
		C171.995,258.399,171.691,258.258,171.3,258.258z"/>
	<path fill="#FFFFFF" d="M196.066,265.028c-0.025,0.123-0.059,0.295-0.104,0.52c-0.045,0.224-0.087,0.457-0.128,0.7
		c-0.041,0.245-0.076,0.484-0.104,0.722c-0.028,0.234-0.042,0.43-0.042,0.585c0,0.391,0.089,0.675,0.269,0.853
		c0.179,0.179,0.382,0.27,0.61,0.27c0.211,0,0.446-0.057,0.702-0.171c0.257-0.114,0.486-0.231,0.689-0.353l0.549,0.977
		c-0.219,0.178-0.468,0.357-0.743,0.536c-0.277,0.177-0.58,0.341-0.908,0.486c-0.33,0.146-0.686,0.265-1.067,0.354
		s-0.789,0.134-1.22,0.134c-0.366,0-0.701-0.042-1.001-0.127c-0.302-0.084-0.558-0.21-0.773-0.373s-0.383-0.367-0.5-0.615
		c-0.118-0.248-0.176-0.539-0.176-0.874c0-0.153,0.003-0.292,0.012-0.415c0.008-0.121,0.018-0.239,0.03-0.358
		c0.012-0.12,0.028-0.245,0.049-0.379c0.021-0.134,0.047-0.29,0.08-0.47h-0.147c-0.309,0.643-0.635,1.191-0.977,1.646
		c-0.341,0.456-0.705,0.83-1.091,1.122c-0.386,0.293-0.802,0.506-1.244,0.641c-0.443,0.134-0.922,0.201-1.433,0.201
		c-0.643,0-1.194-0.12-1.653-0.365c-0.458-0.244-0.837-0.576-1.134-0.988c-0.297-0.413-0.515-0.899-0.654-1.452
		c-0.139-0.552-0.207-1.137-0.207-1.758c0-0.649,0.076-1.329,0.225-2.041c0.151-0.711,0.375-1.413,0.671-2.104
		c0.297-0.69,0.664-1.351,1.099-1.977c0.436-0.627,0.937-1.177,1.507-1.646c0.569-0.474,1.203-0.848,1.897-1.13
		c0.696-0.28,1.454-0.422,2.275-0.422c0.487,0,0.943,0.055,1.366,0.16c0.423,0.106,0.797,0.252,1.123,0.438
		c0.024-0.105,0.049-0.228,0.073-0.372c0.025-0.144,0.051-0.284,0.08-0.426c0.028-0.142,0.057-0.276,0.086-0.403
		c0.027-0.125,0.05-0.227,0.067-0.298l0.22-1.001c0.024-0.106,0.049-0.215,0.073-0.329c0.025-0.113,0.045-0.222,0.062-0.324
		c0.016-0.101,0.028-0.188,0.037-0.261c0.007-0.074,0.012-0.126,0.012-0.16c0-0.227-0.024-0.411-0.073-0.549
		c-0.05-0.14-0.126-0.242-0.232-0.318c-0.104-0.072-0.244-0.122-0.415-0.146s-0.375-0.035-0.61-0.035h-0.574l0.232-1.318h6.014
		L196.066,265.028z M187.538,266.103c0,0.472,0.035,0.869,0.104,1.193c0.07,0.327,0.163,0.589,0.281,0.787
		c0.118,0.199,0.261,0.345,0.427,0.433c0.167,0.09,0.349,0.135,0.542,0.135c0.367,0,0.743-0.159,1.129-0.478
		c0.386-0.316,0.75-0.731,1.092-1.242c0.341-0.514,0.649-1.095,0.921-1.745c0.272-0.649,0.481-1.313,0.628-1.988l0.879-4.146
		c-0.179-0.229-0.423-0.4-0.732-0.521c-0.308-0.117-0.613-0.176-0.915-0.176c-0.473,0-0.907,0.128-1.306,0.385
		c-0.399,0.256-0.758,0.594-1.08,1.011c-0.322,0.42-0.605,0.899-0.854,1.441c-0.248,0.54-0.453,1.097-0.616,1.67
		c-0.163,0.575-0.287,1.144-0.372,1.709C187.581,265.137,187.538,265.646,187.538,266.103z"/>
	<path fill="#FFFFFF" d="M206.899,268.749c0.406,0,0.792-0.059,1.159-0.176c0.367-0.116,0.706-0.271,1.019-0.465
		c0.313-0.189,0.594-0.404,0.841-0.646c0.249-0.238,0.462-0.484,0.641-0.737c0.097,0.123,0.175,0.278,0.231,0.469
		c0.057,0.193,0.086,0.394,0.086,0.605c0,0.302-0.098,0.618-0.293,0.951c-0.196,0.334-0.495,0.64-0.897,0.922
		c-0.403,0.279-0.915,0.513-1.537,0.694c-0.622,0.183-1.36,0.275-2.214,0.275c-0.764,0-1.484-0.106-2.159-0.317
		c-0.675-0.213-1.268-0.53-1.775-0.957c-0.507-0.427-0.909-0.965-1.202-1.611c-0.292-0.646-0.438-1.405-0.438-2.274
		c0-0.619,0.081-1.266,0.245-1.94c0.163-0.676,0.404-1.336,0.727-1.982c0.321-0.646,0.719-1.262,1.195-1.843
		c0.477-0.579,1.027-1.091,1.653-1.531c0.626-0.438,1.328-0.785,2.104-1.042c0.777-0.257,1.624-0.385,2.543-0.385
		c1.196,0,2.124,0.258,2.782,0.776c0.659,0.518,0.987,1.237,0.987,2.166c0,0.675-0.187,1.321-0.561,1.938
		c-0.375,0.618-0.891,1.16-1.549,1.629c-0.658,0.469-1.443,0.84-2.355,1.117c-0.911,0.274-1.903,0.415-2.977,0.415
		c-0.139,0-0.289,0-0.451,0c-0.163,0-0.322-0.008-0.477-0.025c-0.025,0.163-0.039,0.327-0.043,0.492
		c-0.004,0.168-0.006,0.321-0.006,0.46c0,0.969,0.225,1.714,0.677,2.237C205.307,268.487,205.988,268.749,206.899,268.749z
		 M207.777,258.258c-0.407,0-0.792,0.153-1.159,0.457c-0.366,0.306-0.696,0.701-0.987,1.188c-0.293,0.487-0.545,1.035-0.756,1.641
		c-0.212,0.606-0.367,1.207-0.464,1.801h0.219c0.619,0,1.193-0.081,1.727-0.245c0.533-0.163,0.996-0.396,1.392-0.701
		c0.394-0.305,0.703-0.669,0.927-1.093c0.224-0.423,0.335-0.897,0.335-1.427c0-0.513-0.107-0.91-0.323-1.195
		C208.472,258.399,208.168,258.258,207.777,258.258z"/>
	<path fill="#FFFFFF" d="M228.809,268.079c0-0.716,0.134-1.708,0.402-2.977l0.403-1.978c0.033-0.163,0.073-0.362,0.122-0.598
		c0.049-0.235,0.098-0.481,0.147-0.737c0.049-0.257,0.091-0.514,0.127-0.771c0.037-0.256,0.054-0.485,0.054-0.688
		c0-0.155-0.014-0.317-0.043-0.488c-0.027-0.171-0.082-0.327-0.159-0.463c-0.077-0.139-0.183-0.253-0.316-0.343
		c-0.134-0.088-0.312-0.133-0.531-0.133c-0.285,0-0.568,0.096-0.848,0.285c-0.281,0.191-0.551,0.443-0.812,0.757
		c-0.26,0.314-0.509,0.673-0.744,1.075c-0.237,0.403-0.45,0.815-0.641,1.238c-0.191,0.422-0.355,0.837-0.494,1.242
		c-0.139,0.407-0.245,0.774-0.317,1.099l-1.269,5.795h-3.746l2.099-9.941c0.024-0.106,0.047-0.217,0.067-0.33
		c0.021-0.112,0.038-0.222,0.054-0.322c0.016-0.102,0.028-0.191,0.037-0.265c0.008-0.072,0.012-0.125,0.012-0.157
		c0-0.229-0.026-0.41-0.074-0.55c-0.049-0.138-0.127-0.244-0.231-0.317c-0.107-0.074-0.243-0.123-0.409-0.146
		c-0.167-0.025-0.368-0.036-0.604-0.036h-0.452l0.219-1.332h5.552l-0.279,2.673h0.158c0.317-0.496,0.645-0.928,0.981-1.293
		c0.337-0.365,0.702-0.669,1.093-0.909c0.39-0.239,0.815-0.419,1.274-0.537c0.46-0.117,0.966-0.176,1.52-0.176
		c0.528,0,0.974,0.077,1.335,0.232c0.362,0.153,0.655,0.362,0.879,0.628c0.223,0.266,0.383,0.57,0.481,0.915
		c0.098,0.347,0.147,0.71,0.147,1.093c0,0.211-0.014,0.436-0.043,0.679c-0.029,0.239-0.064,0.479-0.109,0.725
		s-0.094,0.487-0.147,0.732c-0.053,0.242-0.1,0.476-0.14,0.693l-0.561,2.672c-0.098,0.457-0.179,0.881-0.245,1.277
		c-0.065,0.393-0.098,0.766-0.098,1.115c0,0.366,0.076,0.646,0.227,0.841c0.151,0.196,0.368,0.292,0.652,0.292
		c0.26,0,0.498-0.047,0.714-0.146c0.215-0.096,0.465-0.238,0.75-0.426l0.598,0.841c-0.195,0.212-0.418,0.422-0.67,0.629
		s-0.536,0.391-0.85,0.554c-0.312,0.164-0.661,0.293-1.042,0.391s-0.802,0.146-1.256,0.146c-0.959,0-1.697-0.226-2.209-0.678
		C229.065,269.513,228.809,268.884,228.809,268.079z"/>
	<path fill="#FFFFFF" d="M245.681,268.249c0-0.073,0.003-0.157,0.012-0.256c0.009-0.097,0.018-0.197,0.03-0.304
		c0.012-0.107,0.026-0.206,0.036-0.299c0.013-0.095,0.027-0.175,0.044-0.238h-0.207c-0.367,0.521-0.727,0.991-1.081,1.416
		c-0.355,0.422-0.729,0.786-1.129,1.09c-0.399,0.306-0.83,0.541-1.293,0.709c-0.464,0.167-0.992,0.249-1.585,0.249
		c-0.537,0-0.987-0.074-1.354-0.226c-0.367-0.15-0.659-0.352-0.879-0.604c-0.221-0.252-0.377-0.546-0.477-0.885
		c-0.099-0.337-0.147-0.688-0.147-1.055c0-0.416,0.049-0.869,0.147-1.367c0.098-0.495,0.191-0.955,0.281-1.377l0.903-4.405
		c0.065-0.342,0.118-0.649,0.158-0.928c0.04-0.277,0.061-0.482,0.061-0.622c0-0.332-0.101-0.554-0.305-0.659
		s-0.542-0.157-1.013-0.157h-0.452l0.219-1.331h6.002l-1.646,7.478c-0.049,0.194-0.098,0.414-0.147,0.659
		c-0.049,0.244-0.094,0.487-0.134,0.731s-0.076,0.476-0.104,0.695c-0.029,0.219-0.043,0.406-0.043,0.561
		c0,0.368,0.077,0.656,0.231,0.874c0.154,0.214,0.435,0.324,0.842,0.324c0.366,0,0.742-0.167,1.128-0.495
		c0.386-0.329,0.756-0.756,1.109-1.282c0.354-0.524,0.669-1.109,0.945-1.757c0.277-0.646,0.489-1.281,0.635-1.908l1.33-5.88h3.72
		l-1.695,8.123c-0.106,0.456-0.192,0.881-0.255,1.275c-0.066,0.396-0.098,0.769-0.098,1.118c0,0.366,0.075,0.646,0.225,0.842
		c0.151,0.194,0.368,0.292,0.654,0.292c0.26,0,0.498-0.049,0.713-0.146c0.216-0.099,0.466-0.239,0.75-0.427l0.61,0.841
		c-0.203,0.212-0.431,0.421-0.683,0.627c-0.252,0.207-0.534,0.393-0.848,0.556c-0.313,0.163-0.661,0.292-1.042,0.39
		c-0.382,0.099-0.802,0.146-1.256,0.146c-0.554,0-1.014-0.063-1.384-0.188s-0.67-0.296-0.897-0.513
		c-0.228-0.217-0.39-0.468-0.488-0.757C245.73,268.896,245.681,268.583,245.681,268.249z"/>
	<path fill="#FFFFFF" d="M260.357,268.749c0.406,0,0.792-0.059,1.158-0.176c0.367-0.116,0.706-0.271,1.019-0.465
		c0.313-0.189,0.594-0.404,0.841-0.646c0.249-0.238,0.462-0.484,0.641-0.737c0.098,0.123,0.175,0.278,0.231,0.469
		c0.057,0.193,0.086,0.394,0.086,0.605c0,0.302-0.098,0.618-0.293,0.951c-0.195,0.334-0.495,0.64-0.897,0.922
		c-0.402,0.279-0.915,0.513-1.537,0.694c-0.622,0.183-1.36,0.275-2.213,0.275c-0.765,0-1.484-0.106-2.16-0.317
		c-0.676-0.213-1.268-0.53-1.775-0.957c-0.508-0.427-0.909-0.965-1.202-1.611c-0.293-0.646-0.439-1.405-0.439-2.274
		c0-0.619,0.081-1.266,0.245-1.94c0.163-0.676,0.404-1.336,0.726-1.982c0.322-0.646,0.72-1.262,1.196-1.843
		c0.477-0.579,1.027-1.091,1.653-1.531c0.625-0.438,1.327-0.785,2.104-1.042c0.776-0.257,1.624-0.385,2.543-0.385
		c1.196,0,2.124,0.258,2.782,0.776c0.658,0.518,0.987,1.237,0.987,2.166c0,0.675-0.186,1.321-0.56,1.938
		c-0.375,0.618-0.892,1.16-1.55,1.629c-0.658,0.469-1.443,0.84-2.355,1.117c-0.91,0.274-1.902,0.415-2.977,0.415
		c-0.139,0-0.288,0-0.451,0c-0.163,0-0.322-0.008-0.477-0.025c-0.025,0.163-0.039,0.327-0.043,0.492
		c-0.003,0.168-0.006,0.321-0.006,0.46c0,0.969,0.225,1.714,0.678,2.237C258.766,268.487,259.447,268.749,260.357,268.749z
		 M261.235,258.258c-0.406,0-0.792,0.153-1.158,0.457c-0.367,0.306-0.696,0.701-0.987,1.188c-0.294,0.487-0.546,1.035-0.756,1.641
		c-0.212,0.606-0.367,1.207-0.464,1.801h0.219c0.619,0,1.194-0.081,1.727-0.245c0.533-0.163,0.996-0.396,1.391-0.701
		c0.395-0.305,0.703-0.669,0.928-1.093c0.224-0.423,0.334-0.897,0.334-1.427c0-0.513-0.107-0.91-0.323-1.195
		C261.93,258.399,261.627,258.258,261.235,258.258z"/>
	<path fill="#FFFFFF" d="M271.764,269.152c0.343,0,0.659-0.043,0.953-0.128c0.293-0.084,0.545-0.207,0.756-0.364
		c0.211-0.16,0.379-0.356,0.5-0.587s0.184-0.498,0.184-0.799c0-0.284-0.055-0.537-0.165-0.757c-0.11-0.221-0.281-0.425-0.513-0.615
		c-0.232-0.191-0.524-0.381-0.878-0.568c-0.354-0.186-0.776-0.397-1.263-0.633c-0.488-0.229-0.93-0.474-1.324-0.733
		c-0.394-0.259-0.729-0.549-1.005-0.866s-0.491-0.671-0.641-1.061c-0.15-0.39-0.227-0.831-0.227-1.318
		c0-0.609,0.13-1.158,0.391-1.646c0.26-0.487,0.634-0.905,1.122-1.249c0.489-0.347,1.081-0.611,1.775-0.794
		c0.696-0.182,1.482-0.275,2.361-0.275c0.838,0,1.547,0.065,2.13,0.195c0.581,0.129,1.054,0.304,1.415,0.519
		c0.362,0.216,0.622,0.467,0.78,0.751s0.238,0.576,0.238,0.878c0,0.669-0.256,1.151-0.77,1.453
		c-0.512,0.302-1.211,0.449-2.098,0.449c0-0.332-0.032-0.669-0.097-1.006c-0.065-0.336-0.176-0.645-0.33-0.921
		c-0.154-0.277-0.353-0.499-0.598-0.671c-0.245-0.171-0.545-0.257-0.903-0.257c-0.325,0-0.616,0.048-0.872,0.14
		c-0.255,0.094-0.476,0.222-0.658,0.376c-0.184,0.161-0.323,0.345-0.421,0.558c-0.098,0.212-0.147,0.439-0.147,0.682
		c0,0.277,0.056,0.519,0.166,0.721c0.109,0.203,0.281,0.394,0.512,0.573c0.231,0.178,0.527,0.356,0.885,0.532
		c0.357,0.173,0.78,0.371,1.269,0.59c0.537,0.245,1.001,0.502,1.39,0.775c0.391,0.273,0.714,0.569,0.97,0.891
		c0.255,0.321,0.447,0.671,0.574,1.05c0.125,0.377,0.189,0.799,0.189,1.262c0,0.675-0.128,1.281-0.383,1.818
		c-0.257,0.535-0.641,0.992-1.154,1.366c-0.512,0.375-1.147,0.66-1.903,0.859c-0.756,0.201-1.635,0.299-2.636,0.299
		c-0.716,0-1.364-0.061-1.946-0.182c-0.581-0.123-1.078-0.301-1.487-0.536c-0.41-0.236-0.729-0.524-0.952-0.867
		c-0.223-0.341-0.335-0.729-0.335-1.158c0-0.391,0.077-0.72,0.232-0.987c0.154-0.27,0.355-0.487,0.604-0.653
		c0.249-0.169,0.532-0.288,0.854-0.365c0.321-0.079,0.648-0.119,0.981-0.119c0,0.448,0.044,0.876,0.134,1.282
		c0.089,0.408,0.231,0.768,0.427,1.081c0.195,0.313,0.45,0.563,0.762,0.743C270.925,269.061,271.308,269.152,271.764,269.152z"/>
	<path fill="#FFFFFF" d="M285.781,268.604c0.391,0,0.744-0.065,1.061-0.196c0.317-0.128,0.614-0.282,0.892-0.462l0.573,0.952
		c-0.275,0.234-0.567,0.459-0.872,0.669c-0.306,0.213-0.637,0.397-0.993,0.557c-0.359,0.159-0.743,0.284-1.154,0.377
		s-0.856,0.14-1.335,0.14c-0.456,0-0.88-0.059-1.276-0.176c-0.396-0.117-0.738-0.297-1.03-0.536
		c-0.293-0.239-0.522-0.542-0.689-0.909c-0.167-0.366-0.25-0.797-0.25-1.292c0-0.146,0.006-0.31,0.018-0.487
		c0.012-0.179,0.03-0.363,0.054-0.551c0.026-0.187,0.053-0.372,0.086-0.553c0.032-0.184,0.064-0.354,0.098-0.507l1.501-6.917h-1.928
		l0.269-1.282c0.357,0,0.747-0.062,1.171-0.183c0.423-0.122,0.854-0.321,1.3-0.598c0.442-0.276,0.887-0.638,1.33-1.085
		s0.859-0.993,1.25-1.636h1.452l-0.646,3.075h3.013l-0.341,1.708h-3.051l-1.499,6.845c-0.092,0.366-0.152,0.697-0.19,0.993
		c-0.036,0.296-0.054,0.564-0.054,0.801c0,0.414,0.112,0.728,0.341,0.939C285.105,268.497,285.407,268.604,285.781,268.604z"/>
	<path fill="#FFFFFF" d="M292.649,259.197c0-0.31-0.102-0.529-0.305-0.665c-0.203-0.133-0.541-0.2-1.013-0.2h-0.452l0.221-1.332
		h5.526l-0.525,3.43h0.123c0.284-0.603,0.571-1.131,0.859-1.586c0.29-0.455,0.606-0.838,0.952-1.146
		c0.345-0.311,0.737-0.542,1.177-0.701c0.44-0.16,0.952-0.239,1.537-0.239c0.887,0,1.546,0.169,1.978,0.502s0.646,0.817,0.646,1.45
		c0,0.862-0.252,1.506-0.756,1.929c-0.504,0.424-1.236,0.634-2.196,0.634c0-0.374-0.018-0.714-0.055-1.02
		c-0.036-0.305-0.102-0.564-0.194-0.78c-0.094-0.216-0.22-0.379-0.379-0.493c-0.157-0.114-0.355-0.17-0.59-0.17
		c-0.236,0-0.484,0.095-0.745,0.285c-0.26,0.19-0.521,0.453-0.779,0.786c-0.261,0.335-0.515,0.73-0.764,1.189
		c-0.247,0.459-0.485,0.961-0.714,1.501c-0.227,0.54-0.434,1.108-0.621,1.7c-0.189,0.594-0.347,1.195-0.477,1.805l-0.952,4.32
		h-3.771l2.123-10.041c0.026-0.138,0.056-0.319,0.092-0.548C292.631,259.58,292.649,259.376,292.649,259.197z"/>
	<path fill="#FFFFFF" d="M314.534,270.64c-0.739,0-1.332-0.17-1.779-0.506c-0.447-0.337-0.672-0.831-0.672-1.481
		c0-0.261,0.013-0.515,0.036-0.763c0.023-0.247,0.07-0.535,0.134-0.86h-0.171c-0.311,0.578-0.616,1.093-0.922,1.543
		c-0.305,0.451-0.645,0.829-1.02,1.135c-0.375,0.304-0.79,0.535-1.251,0.694c-0.459,0.158-0.993,0.237-1.604,0.237
		c-0.594,0-1.114-0.116-1.562-0.348c-0.448-0.23-0.82-0.551-1.116-0.957c-0.297-0.407-0.521-0.889-0.672-1.445
		c-0.151-0.558-0.226-1.162-0.226-1.813c0-0.649,0.074-1.329,0.226-2.041c0.15-0.711,0.377-1.413,0.678-2.104
		c0.301-0.69,0.674-1.351,1.116-1.977c0.443-0.627,0.956-1.177,1.538-1.646c0.579-0.474,1.229-0.848,1.944-1.13
		c0.716-0.28,1.496-0.422,2.341-0.422c0.327,0,0.658,0.026,0.996,0.079c0.335,0.053,0.659,0.121,0.97,0.201
		c0.309,0.081,0.599,0.175,0.872,0.276c0.273,0.101,0.502,0.205,0.689,0.311l1.317-0.598h1.33l-1.646,7.795
		c-0.033,0.14-0.072,0.322-0.123,0.549c-0.049,0.228-0.096,0.47-0.141,0.727s-0.082,0.504-0.115,0.744
		c-0.032,0.24-0.05,0.442-0.05,0.605c0,0.414,0.081,0.725,0.245,0.927c0.163,0.203,0.374,0.305,0.634,0.305
		c0.236,0,0.462-0.05,0.677-0.151c0.216-0.103,0.453-0.229,0.715-0.374l0.549,1.002c-0.212,0.162-0.452,0.33-0.721,0.506
		c-0.267,0.176-0.566,0.335-0.896,0.48c-0.328,0.147-0.687,0.269-1.073,0.36C315.395,270.592,314.982,270.64,314.534,270.64z
		 M307.509,266.103c0,0.479,0.034,0.881,0.104,1.207c0.069,0.325,0.163,0.587,0.28,0.787c0.117,0.197,0.26,0.341,0.427,0.427
		c0.166,0.084,0.347,0.127,0.543,0.127c0.365,0,0.744-0.158,1.133-0.478c0.391-0.316,0.758-0.733,1.1-1.25
		c0.341-0.516,0.646-1.1,0.921-1.749c0.272-0.651,0.478-1.311,0.616-1.978l0.879-4.147c-0.162-0.235-0.39-0.411-0.678-0.525
		c-0.288-0.112-0.597-0.172-0.922-0.172c-0.488,0-0.934,0.126-1.336,0.378c-0.403,0.254-0.767,0.59-1.092,1.014
		s-0.611,0.902-0.858,1.439c-0.249,0.537-0.456,1.092-0.624,1.671c-0.166,0.578-0.291,1.146-0.372,1.708
		C307.549,265.127,307.509,265.638,307.509,266.103z"/>
	<path fill="#FFFFFF" d="M333.396,268.749c0.439,0,0.836-0.059,1.189-0.176c0.353-0.116,0.674-0.273,0.957-0.47
		c0.285-0.195,0.537-0.414,0.758-0.659c0.218-0.242,0.414-0.491,0.585-0.744c0.105,0.099,0.193,0.243,0.269,0.434
		c0.073,0.19,0.108,0.411,0.108,0.664c0,0.327-0.094,0.657-0.284,0.996c-0.192,0.336-0.489,0.641-0.891,0.913
		c-0.403,0.274-0.914,0.498-1.533,0.672c-0.617,0.177-1.354,0.263-2.206,0.263c-0.758,0-1.472-0.106-2.142-0.317
		c-0.671-0.212-1.257-0.531-1.756-0.966c-0.501-0.429-0.897-0.967-1.19-1.607c-0.292-0.644-0.438-1.399-0.438-2.271
		c0-0.618,0.075-1.264,0.23-1.934c0.155-0.671,0.386-1.331,0.695-1.979c0.308-0.645,0.693-1.26,1.153-1.841
		c0.459-0.58,0.992-1.091,1.604-1.531c0.609-0.44,1.294-0.789,2.05-1.048c0.756-0.262,1.585-0.392,2.488-0.392
		c0.689,0,1.286,0.072,1.786,0.213c0.499,0.144,0.911,0.334,1.232,0.573c0.319,0.241,0.56,0.522,0.713,0.844
		c0.155,0.32,0.231,0.659,0.231,1.018c0,0.262-0.055,0.516-0.165,0.763c-0.108,0.25-0.286,0.473-0.53,0.672
		c-0.243,0.199-0.56,0.359-0.944,0.482c-0.387,0.121-0.857,0.182-1.408,0.182c0-0.438-0.04-0.856-0.117-1.251
		c-0.078-0.393-0.194-0.739-0.348-1.035c-0.154-0.297-0.344-0.531-0.568-0.703c-0.225-0.169-0.485-0.256-0.786-0.256
		c-0.358,0-0.693,0.121-1.007,0.36c-0.313,0.24-0.6,0.558-0.86,0.951c-0.26,0.396-0.49,0.848-0.689,1.354
		c-0.198,0.509-0.37,1.032-0.513,1.574c-0.142,0.542-0.249,1.074-0.323,1.599s-0.111,1.002-0.111,1.434
		c0,1.017,0.232,1.806,0.698,2.371C331.797,268.468,332.484,268.749,333.396,268.749z"/>
	<path fill="#FFFFFF" d="M346.549,268.749c0.405,0,0.791-0.059,1.158-0.176c0.366-0.116,0.705-0.271,1.019-0.465
		c0.314-0.189,0.594-0.404,0.843-0.646c0.247-0.238,0.461-0.484,0.64-0.737c0.098,0.123,0.176,0.278,0.232,0.469
		c0.056,0.193,0.084,0.394,0.084,0.605c0,0.302-0.1,0.618-0.292,0.951c-0.195,0.334-0.494,0.64-0.897,0.922
		c-0.402,0.279-0.916,0.513-1.536,0.694c-0.623,0.183-1.36,0.275-2.215,0.275c-0.765,0-1.484-0.106-2.16-0.317
		c-0.676-0.213-1.266-0.53-1.775-0.957c-0.509-0.427-0.908-0.965-1.199-1.611c-0.294-0.646-0.44-1.405-0.44-2.274
		c0-0.619,0.081-1.266,0.244-1.94c0.163-0.676,0.404-1.336,0.727-1.982c0.322-0.647,0.719-1.262,1.195-1.843
		c0.477-0.579,1.025-1.091,1.652-1.531c0.626-0.438,1.327-0.785,2.105-1.042c0.776-0.257,1.624-0.385,2.542-0.385
		c1.195,0,2.123,0.258,2.783,0.776c0.657,0.518,0.986,1.237,0.986,2.166c0,0.675-0.187,1.321-0.561,1.938
		c-0.375,0.618-0.891,1.16-1.551,1.629c-0.658,0.469-1.441,0.84-2.354,1.117c-0.909,0.274-1.901,0.415-2.977,0.415
		c-0.136,0-0.287,0-0.449,0c-0.163,0-0.323-0.008-0.478-0.025c-0.024,0.163-0.038,0.327-0.043,0.492
		c-0.004,0.168-0.006,0.321-0.006,0.46c0,0.969,0.227,1.714,0.677,2.237C344.954,268.487,345.637,268.749,346.549,268.749z
		 M347.426,258.258c-0.408,0-0.793,0.153-1.158,0.457c-0.366,0.306-0.695,0.701-0.989,1.188c-0.292,0.487-0.545,1.035-0.756,1.641
		c-0.213,0.606-0.366,1.207-0.466,1.801h0.222c0.619,0,1.194-0.081,1.727-0.245c0.533-0.163,0.996-0.396,1.391-0.701
		c0.395-0.305,0.703-0.669,0.927-1.093c0.226-0.423,0.336-0.897,0.336-1.427c0-0.513-0.107-0.91-0.322-1.195
		C348.12,258.401,347.816,258.258,347.426,258.258z"/>
	<path fill="#FFFFFF" d="M358.345,268.652c0.26,0,0.5-0.049,0.722-0.146c0.219-0.099,0.471-0.239,0.755-0.427l0.6,0.841
		c-0.196,0.212-0.421,0.422-0.673,0.628c-0.253,0.206-0.536,0.392-0.849,0.556c-0.313,0.162-0.661,0.292-1.042,0.389
		c-0.384,0.099-0.802,0.146-1.257,0.146c-0.959,0-1.695-0.225-2.209-0.677c-0.513-0.452-0.768-1.08-0.768-1.885
		c0-0.717,0.135-1.71,0.403-2.978l2.17-10.248c0.027-0.105,0.051-0.216,0.075-0.329s0.043-0.222,0.061-0.324
		c0.018-0.101,0.027-0.188,0.037-0.262c0.008-0.073,0.012-0.125,0.012-0.158c0-0.228-0.023-0.412-0.073-0.549
		c-0.049-0.14-0.126-0.245-0.232-0.319c-0.105-0.073-0.243-0.121-0.416-0.146c-0.17-0.024-0.374-0.037-0.609-0.037h-0.525
		l0.231-1.315h6.04l-2.977,13.71c-0.099,0.457-0.179,0.881-0.244,1.276c-0.067,0.394-0.097,0.768-0.097,1.117
		c0,0.365,0.074,0.645,0.226,0.841C357.855,268.551,358.067,268.652,358.345,268.652z"/>
	<path fill="#FFFFFF" d="M368.764,268.749c0.405,0,0.792-0.059,1.159-0.176c0.365-0.116,0.704-0.271,1.018-0.465
		c0.314-0.189,0.593-0.404,0.843-0.646c0.247-0.238,0.461-0.484,0.639-0.737c0.099,0.123,0.177,0.278,0.232,0.469
		c0.057,0.193,0.086,0.394,0.086,0.605c0,0.302-0.1,0.618-0.293,0.951c-0.195,0.334-0.495,0.64-0.897,0.922
		c-0.402,0.279-0.915,0.513-1.534,0.694c-0.625,0.183-1.362,0.275-2.217,0.275c-0.764,0-1.483-0.106-2.16-0.317
		c-0.675-0.213-1.266-0.53-1.774-0.957c-0.508-0.427-0.909-0.965-1.2-1.611c-0.294-0.646-0.439-1.405-0.439-2.274
		c0-0.619,0.081-1.266,0.243-1.94c0.164-0.676,0.403-1.336,0.727-1.982c0.321-0.647,0.719-1.262,1.196-1.843
		c0.476-0.579,1.025-1.091,1.651-1.531c0.626-0.438,1.328-0.785,2.105-1.042c0.776-0.257,1.625-0.385,2.543-0.385
		c1.193,0,2.122,0.258,2.781,0.776c0.659,0.518,0.988,1.237,0.988,2.166c0,0.675-0.188,1.321-0.562,1.938
		c-0.375,0.618-0.891,1.16-1.549,1.629c-0.66,0.469-1.443,0.84-2.354,1.117c-0.91,0.274-1.903,0.415-2.979,0.415
		c-0.137,0-0.287,0-0.45,0c-0.161,0-0.322-0.008-0.477-0.025c-0.024,0.163-0.039,0.327-0.041,0.492
		c-0.005,0.168-0.009,0.321-0.009,0.46c0,0.969,0.228,1.714,0.677,2.237C367.17,268.487,367.852,268.749,368.764,268.749z
		 M369.642,258.258c-0.408,0-0.794,0.153-1.16,0.457c-0.365,0.306-0.694,0.701-0.987,1.188c-0.291,0.487-0.546,1.035-0.757,1.641
		c-0.212,0.606-0.365,1.207-0.464,1.801h0.221c0.619,0,1.192-0.081,1.726-0.245c0.532-0.163,0.996-0.396,1.391-0.701
		c0.396-0.305,0.703-0.669,0.927-1.093c0.225-0.423,0.337-0.897,0.337-1.427c0-0.513-0.107-0.91-0.324-1.195
		C370.333,258.401,370.031,258.258,369.642,258.258z"/>
	<path fill="#FFFFFF" d="M378.438,254.854c0.024-0.106,0.048-0.217,0.073-0.33c0.023-0.114,0.045-0.222,0.063-0.324
		c0.015-0.101,0.026-0.188,0.035-0.262c0.007-0.073,0.012-0.125,0.012-0.158c0-0.227-0.024-0.412-0.073-0.548
		c-0.05-0.14-0.125-0.245-0.23-0.32c-0.106-0.073-0.245-0.12-0.415-0.145c-0.171-0.024-0.376-0.037-0.611-0.037h-0.573l0.231-1.316
		h6.063l-1.002,4.745c-0.031,0.155-0.083,0.35-0.151,0.586c-0.07,0.234-0.147,0.491-0.231,0.769c-0.087,0.274-0.179,0.56-0.28,0.847
		c-0.103,0.29-0.197,0.565-0.286,0.825c-0.09,0.26-0.173,0.495-0.243,0.707c-0.075,0.212-0.133,0.373-0.172,0.487h0.123
		c0.3-0.61,0.613-1.14,0.938-1.592c0.324-0.451,0.68-0.827,1.063-1.129c0.381-0.301,0.796-0.526,1.243-0.678
		c0.447-0.149,0.947-0.227,1.502-0.227c0.527,0,1.016,0.099,1.463,0.294c0.447,0.194,0.83,0.48,1.152,0.86
		c0.322,0.378,0.575,0.85,0.757,1.415c0.184,0.565,0.275,1.215,0.275,1.945c0,0.676-0.081,1.375-0.245,2.099
		c-0.162,0.723-0.403,1.433-0.72,2.129c-0.316,0.694-0.705,1.354-1.166,1.977c-0.459,0.623-0.987,1.167-1.583,1.634
		c-0.598,0.469-1.26,0.841-1.984,1.116c-0.725,0.277-1.505,0.415-2.342,0.415c-0.341,0-0.672-0.024-0.987-0.073
		c-0.317-0.047-0.612-0.113-0.884-0.196c-0.274-0.08-0.521-0.174-0.743-0.279c-0.226-0.105-0.414-0.219-0.569-0.34l-1.415,0.718
		h-1.403L378.438,254.854z M385.366,261.454c0-0.495-0.034-0.914-0.104-1.256c-0.069-0.342-0.165-0.618-0.285-0.829
		c-0.123-0.213-0.266-0.368-0.427-0.464c-0.163-0.097-0.333-0.146-0.514-0.146c-0.309,0-0.605,0.092-0.89,0.274
		c-0.284,0.184-0.557,0.423-0.811,0.714c-0.256,0.293-0.491,0.62-0.709,0.98c-0.215,0.364-0.407,0.726-0.573,1.086
		c-0.168,0.363-0.307,0.704-0.423,1.027c-0.113,0.32-0.193,0.581-0.242,0.786l-1.025,4.72c0.179,0.204,0.406,0.372,0.683,0.502
		c0.276,0.129,0.59,0.193,0.938,0.193c0.487,0,0.935-0.128,1.343-0.382c0.407-0.257,0.771-0.594,1.098-1.013
		c0.324-0.421,0.607-0.898,0.847-1.435c0.241-0.536,0.442-1.086,0.604-1.646c0.164-0.562,0.284-1.112,0.366-1.653
		C385.324,262.374,385.366,261.886,385.366,261.454z"/>
	<path fill="#FFFFFF" d="M393.356,259.197c0-0.31-0.102-0.529-0.305-0.665c-0.203-0.133-0.541-0.2-1.013-0.2h-0.452l0.221-1.332
		h5.526l-0.526,3.43h0.124c0.284-0.603,0.57-1.131,0.859-1.586c0.29-0.455,0.606-0.838,0.953-1.146
		c0.345-0.311,0.737-0.542,1.177-0.701c0.44-0.16,0.952-0.239,1.537-0.239c0.887,0,1.545,0.169,1.977,0.502s0.646,0.817,0.646,1.45
		c0,0.862-0.252,1.506-0.756,1.929c-0.505,0.424-1.235,0.634-2.194,0.634c0-0.374-0.02-0.714-0.057-1.02
		c-0.036-0.305-0.103-0.564-0.194-0.78c-0.094-0.216-0.221-0.379-0.379-0.493s-0.354-0.17-0.591-0.17
		c-0.235,0-0.482,0.095-0.744,0.285c-0.259,0.19-0.521,0.453-0.779,0.786c-0.26,0.335-0.515,0.73-0.763,1.189
		c-0.247,0.459-0.485,0.961-0.714,1.501c-0.228,0.54-0.436,1.108-0.623,1.7c-0.188,0.594-0.345,1.195-0.476,1.805l-0.952,4.32h-3.77
		l2.122-10.041c0.027-0.138,0.056-0.319,0.093-0.548C393.339,259.58,393.356,259.376,393.356,259.197z"/>
	<path fill="#FFFFFF" d="M415.242,270.64c-0.739,0-1.334-0.17-1.781-0.506c-0.446-0.337-0.673-0.831-0.673-1.481
		c0-0.261,0.015-0.515,0.039-0.763c0.023-0.247,0.069-0.535,0.133-0.86h-0.172c-0.31,0.578-0.616,1.093-0.92,1.543
		c-0.307,0.451-0.646,0.829-1.021,1.135c-0.374,0.304-0.79,0.535-1.25,0.694c-0.46,0.158-0.994,0.237-1.604,0.237
		c-0.593,0-1.114-0.116-1.563-0.348c-0.446-0.23-0.819-0.551-1.115-0.957c-0.298-0.407-0.522-0.889-0.673-1.445
		c-0.151-0.558-0.225-1.162-0.225-1.813c0-0.649,0.073-1.329,0.225-2.041c0.15-0.711,0.379-1.413,0.678-2.104
		c0.302-0.69,0.675-1.351,1.117-1.977c0.444-0.627,0.956-1.177,1.537-1.646c0.58-0.474,1.23-0.848,1.946-1.13
		c0.715-0.28,1.495-0.422,2.34-0.422c0.328,0,0.657,0.026,0.995,0.079c0.336,0.053,0.661,0.121,0.97,0.201
		c0.311,0.081,0.601,0.175,0.874,0.276c0.271,0.101,0.501,0.205,0.689,0.311l1.317-0.598h1.33l-1.646,7.795
		c-0.033,0.14-0.074,0.322-0.124,0.549c-0.048,0.228-0.095,0.47-0.14,0.727s-0.083,0.504-0.115,0.744s-0.05,0.442-0.05,0.605
		c0,0.414,0.08,0.725,0.245,0.927c0.162,0.203,0.373,0.305,0.632,0.305c0.236,0,0.464-0.05,0.679-0.151
		c0.216-0.103,0.453-0.229,0.713-0.374l0.551,1.002c-0.212,0.162-0.452,0.33-0.721,0.506s-0.567,0.335-0.897,0.48
		c-0.328,0.147-0.687,0.269-1.074,0.36C416.103,270.592,415.69,270.64,415.242,270.64z M408.216,266.103
		c0,0.479,0.035,0.881,0.104,1.207c0.069,0.325,0.163,0.587,0.28,0.787c0.117,0.197,0.261,0.341,0.428,0.427
		c0.166,0.084,0.347,0.127,0.542,0.127c0.365,0,0.745-0.158,1.133-0.478c0.391-0.316,0.758-0.733,1.099-1.25
		c0.342-0.516,0.647-1.1,0.923-1.749c0.271-0.651,0.477-1.311,0.613-1.978l0.881-4.147c-0.163-0.235-0.389-0.411-0.677-0.525
		c-0.289-0.112-0.597-0.172-0.922-0.172c-0.489,0-0.935,0.126-1.338,0.378c-0.402,0.254-0.765,0.59-1.09,1.014
		s-0.612,0.902-0.859,1.439c-0.249,0.537-0.456,1.092-0.625,1.671c-0.165,0.578-0.289,1.146-0.372,1.708
		C408.258,265.127,408.216,265.638,408.216,266.103z"/>
	<path fill="#FFFFFF" d="M427.614,268.749c0.438,0,0.835-0.059,1.189-0.176c0.353-0.116,0.672-0.273,0.955-0.47
		c0.285-0.195,0.537-0.414,0.759-0.659c0.219-0.242,0.415-0.491,0.584-0.744c0.105,0.099,0.195,0.243,0.269,0.434
		c0.074,0.19,0.111,0.411,0.111,0.664c0,0.327-0.096,0.657-0.287,0.996c-0.191,0.336-0.489,0.641-0.891,0.913
		c-0.402,0.274-0.913,0.498-1.531,0.672c-0.619,0.177-1.354,0.263-2.208,0.263c-0.757,0-1.471-0.106-2.141-0.317
		c-0.672-0.212-1.258-0.531-1.755-0.966c-0.502-0.429-0.897-0.967-1.189-1.607c-0.294-0.644-0.44-1.399-0.44-2.271
		c0-0.618,0.077-1.264,0.23-1.934c0.155-0.671,0.386-1.331,0.697-1.979c0.309-0.645,0.692-1.26,1.151-1.841
		c0.46-0.58,0.993-1.091,1.604-1.531s1.294-0.789,2.051-1.048c0.755-0.262,1.586-0.392,2.488-0.392c0.689,0,1.286,0.072,1.786,0.213
		c0.499,0.144,0.911,0.334,1.232,0.573c0.319,0.241,0.559,0.522,0.713,0.844c0.154,0.32,0.231,0.659,0.231,1.018
		c0,0.262-0.055,0.516-0.165,0.763c-0.109,0.25-0.287,0.473-0.53,0.672c-0.245,0.199-0.561,0.359-0.946,0.482
		c-0.386,0.121-0.855,0.182-1.408,0.182c0-0.438-0.037-0.856-0.115-1.251c-0.079-0.393-0.194-0.739-0.349-1.035
		c-0.153-0.297-0.344-0.531-0.567-0.703c-0.225-0.169-0.485-0.256-0.787-0.256c-0.357,0-0.692,0.121-1.006,0.36
		c-0.314,0.24-0.6,0.558-0.859,0.951c-0.262,0.396-0.491,0.848-0.689,1.354c-0.2,0.509-0.371,1.032-0.514,1.574
		c-0.141,0.542-0.25,1.074-0.323,1.599c-0.074,0.524-0.11,1.002-0.11,1.434c0,1.017,0.23,1.806,0.694,2.371
		C426.014,268.468,426.702,268.749,427.614,268.749z"/>
	<path fill="#FFFFFF" d="M440.801,257l-1.732,8.125c-0.097,0.456-0.179,0.88-0.245,1.275c-0.065,0.394-0.096,0.768-0.096,1.117
		c0,0.366,0.075,0.646,0.226,0.841s0.362,0.292,0.64,0.292c0.26,0,0.501-0.047,0.719-0.146c0.222-0.097,0.474-0.238,0.759-0.426
		l0.596,0.841c-0.192,0.212-0.418,0.422-0.67,0.627c-0.253,0.208-0.536,0.393-0.854,0.555c-0.316,0.165-0.664,0.294-1.042,0.391
		c-0.379,0.099-0.797,0.146-1.25,0.146c-0.959,0-1.697-0.227-2.21-0.678c-0.511-0.45-0.768-1.081-0.768-1.884
		c0-0.358,0.032-0.784,0.098-1.282c0.065-0.497,0.167-1.062,0.305-1.695l0.976-4.648c0.025-0.105,0.047-0.216,0.068-0.33
		c0.021-0.113,0.037-0.222,0.055-0.323c0.019-0.101,0.027-0.188,0.036-0.262c0.009-0.075,0.012-0.126,0.012-0.158
		c0-0.227-0.023-0.411-0.072-0.55c-0.05-0.137-0.127-0.244-0.232-0.317c-0.104-0.073-0.24-0.122-0.408-0.146
		c-0.167-0.026-0.367-0.036-0.603-0.036h-0.453l0.221-1.33h5.928V257z M439.068,254.757c-0.276,0-0.533-0.03-0.77-0.092
		c-0.235-0.062-0.441-0.156-0.616-0.286c-0.176-0.129-0.313-0.292-0.415-0.487c-0.102-0.195-0.152-0.424-0.152-0.683
		c0-0.367,0.063-0.68,0.189-0.933c0.125-0.257,0.294-0.469,0.506-0.635c0.211-0.167,0.46-0.288,0.745-0.367
		c0.282-0.077,0.579-0.115,0.89-0.115c0.269,0,0.523,0.029,0.761,0.085c0.24,0.057,0.452,0.15,0.635,0.28
		c0.183,0.129,0.329,0.295,0.439,0.495c0.109,0.197,0.164,0.436,0.164,0.713c0,0.342-0.066,0.641-0.201,0.897
		c-0.133,0.254-0.313,0.468-0.536,0.633c-0.225,0.168-0.478,0.291-0.763,0.373C439.662,254.715,439.368,254.757,439.068,254.757z"/>
	<path fill="#FFFFFF" d="M443.072,265.394c0-0.626,0.073-1.273,0.219-1.938c0.146-0.666,0.368-1.321,0.665-1.965
		c0.298-0.643,0.671-1.25,1.118-1.824c0.445-0.573,0.973-1.075,1.578-1.508c0.607-0.43,1.295-0.772,2.063-1.024
		c0.769-0.252,1.62-0.377,2.557-0.377c0.714,0,1.39,0.1,2.024,0.3c0.635,0.198,1.188,0.509,1.659,0.931
		c0.472,0.426,0.847,0.967,1.122,1.631c0.278,0.664,0.416,1.459,0.416,2.385c0,0.603-0.07,1.23-0.208,1.891
		c-0.138,0.659-0.353,1.308-0.64,1.944c-0.288,0.64-0.655,1.251-1.098,1.832c-0.444,0.579-0.966,1.091-1.568,1.531
		c-0.602,0.44-1.285,0.789-2.049,1.05c-0.766,0.26-1.619,0.389-2.562,0.389c-0.78,0-1.497-0.106-2.147-0.322
		c-0.651-0.217-1.207-0.542-1.672-0.977c-0.465-0.436-0.825-0.982-1.086-1.643C443.201,267.042,443.072,266.272,443.072,265.394z
		 M448.816,268.849c0.447,0,0.853-0.129,1.214-0.385s0.688-0.594,0.976-1.013c0.29-0.42,0.54-0.897,0.751-1.433
		c0.213-0.536,0.384-1.09,0.52-1.659c0.132-0.57,0.234-1.131,0.306-1.679c0.068-0.549,0.104-1.042,0.104-1.482
		c0-0.981-0.17-1.689-0.506-2.122c-0.339-0.43-0.801-0.647-1.386-0.647c-0.423,0-0.813,0.123-1.171,0.368
		c-0.358,0.242-0.681,0.569-0.972,0.975c-0.288,0.407-0.541,0.874-0.761,1.397c-0.222,0.526-0.406,1.068-0.556,1.629
		c-0.151,0.562-0.263,1.121-0.334,1.68c-0.076,0.555-0.111,1.066-0.111,1.53c0,1.018,0.171,1.745,0.514,2.186
		C447.744,268.628,448.215,268.849,448.816,268.849z M450.292,254.928c0.229-0.236,0.478-0.509,0.745-0.817
		c0.269-0.31,0.534-0.629,0.799-0.958c0.265-0.327,0.52-0.656,0.769-0.982c0.248-0.325,0.471-0.629,0.665-0.915h3.916l-0.073,0.258
		c-0.13,0.145-0.31,0.318-0.536,0.519c-0.229,0.2-0.486,0.413-0.774,0.641c-0.29,0.227-0.6,0.461-0.93,0.701
		c-0.327,0.239-0.664,0.474-1.006,0.702c-0.342,0.226-0.678,0.444-1.013,0.651c-0.334,0.208-0.646,0.383-0.939,0.53h-1.694
		L450.292,254.928z"/>
	<path fill="#FFFFFF" d="M467.104,268.079c0-0.716,0.133-1.708,0.402-2.977l0.402-1.978c0.031-0.163,0.073-0.362,0.122-0.598
		s0.098-0.481,0.146-0.737c0.049-0.257,0.092-0.514,0.129-0.771c0.035-0.256,0.054-0.485,0.054-0.688
		c0-0.155-0.016-0.317-0.042-0.488c-0.029-0.17-0.081-0.327-0.158-0.463c-0.078-0.139-0.185-0.253-0.319-0.343
		c-0.135-0.088-0.311-0.133-0.53-0.133c-0.283,0-0.565,0.096-0.847,0.285c-0.281,0.191-0.552,0.443-0.813,0.757
		c-0.26,0.314-0.507,0.673-0.743,1.075c-0.235,0.403-0.449,0.815-0.64,1.238c-0.19,0.422-0.356,0.837-0.494,1.242
		c-0.139,0.407-0.243,0.774-0.317,1.099l-1.27,5.795h-3.745l2.098-9.941c0.026-0.106,0.047-0.217,0.067-0.33
		c0.022-0.112,0.039-0.222,0.057-0.322c0.017-0.102,0.027-0.191,0.035-0.265c0.008-0.072,0.014-0.125,0.014-0.157
		c0-0.229-0.025-0.41-0.075-0.55c-0.048-0.138-0.124-0.244-0.231-0.317c-0.104-0.074-0.24-0.123-0.408-0.146
		c-0.167-0.025-0.368-0.036-0.604-0.036h-0.452l0.221-1.332h5.552l-0.28,2.673h0.159c0.316-0.496,0.644-0.928,0.98-1.293
		c0.338-0.365,0.702-0.669,1.092-0.909c0.391-0.239,0.815-0.419,1.274-0.537c0.461-0.116,0.968-0.176,1.521-0.176
		c0.528,0,0.975,0.077,1.335,0.232c0.362,0.153,0.654,0.362,0.879,0.628c0.224,0.266,0.385,0.57,0.481,0.915
		c0.097,0.347,0.146,0.71,0.146,1.093c0,0.211-0.014,0.436-0.041,0.679c-0.029,0.238-0.066,0.479-0.111,0.725
		c-0.044,0.245-0.094,0.487-0.146,0.732c-0.054,0.242-0.101,0.476-0.141,0.693l-0.562,2.672c-0.099,0.457-0.178,0.881-0.244,1.277
		c-0.065,0.395-0.096,0.766-0.096,1.115c0,0.366,0.074,0.646,0.226,0.841c0.15,0.196,0.368,0.292,0.652,0.292
		c0.26,0,0.497-0.047,0.714-0.146c0.217-0.096,0.466-0.238,0.75-0.426l0.598,0.841c-0.195,0.212-0.418,0.422-0.671,0.629
		c-0.252,0.204-0.535,0.391-0.849,0.554c-0.313,0.164-0.66,0.293-1.043,0.391c-0.382,0.098-0.8,0.146-1.256,0.146
		c-0.959,0-1.695-0.226-2.208-0.678C467.36,269.513,467.104,268.884,467.104,268.079z"/>
	<path fill="#FFFFFF" d="M480.426,268.347c0,0.416-0.064,0.767-0.19,1.057c-0.124,0.288-0.292,0.521-0.499,0.694
		c-0.208,0.176-0.441,0.301-0.701,0.378c-0.261,0.077-0.521,0.116-0.78,0.116c-0.609,0-1.1-0.147-1.472-0.439
		c-0.37-0.292-0.554-0.743-0.554-1.354c0-0.341,0.05-0.649,0.151-0.928c0.102-0.274,0.246-0.513,0.434-0.708
		c0.187-0.193,0.415-0.344,0.683-0.45c0.269-0.105,0.569-0.16,0.902-0.16c0.284,0,0.551,0.037,0.799,0.112
		c0.247,0.073,0.464,0.182,0.646,0.328c0.183,0.146,0.326,0.333,0.427,0.561C480.374,267.78,480.426,268.047,480.426,268.347z
		 M479.546,252.561h4.345l-4.317,12.14h-1.453L479.546,252.561z"/>
</g>
<g>
	<path fill="#FFFFFF" d="M32.711,118.877h13.716c4.004,0,6.688-1.945,8.056-5.834l1.11-3.055h3.715l-3.125,12.43H18.059l0.556-2.987
		h0.937c2.408,0,4.081-0.422,5.018-1.268c0.937-0.845,1.567-2.008,1.892-3.49l7.396-34.929c0.138-0.648,0.208-1.216,0.208-1.702
		c0-1.11-0.326-1.956-0.974-2.535c-0.649-0.578-1.99-0.868-4.027-0.868h-0.903l0.625-2.985H64.62l-2.258,12.431h-3.714l0.208-2.188
		c0.115-1.111,0.174-1.758,0.174-1.944c0-3.171-1.691-4.756-5.071-4.756H42.015l-4.062,18.923h17.152l-0.694,3.473H37.26
		L32.711,118.877z"/>
	<path fill="#FFFFFF" d="M72.815,107.558c0,3.634,0.96,6.557,2.882,8.768c1.921,2.21,4.561,3.315,7.916,3.315
		c3.31,0,5.943-0.821,7.899-2.464c1.956-1.643,2.934-3.876,2.934-6.702c0-2.245-0.563-4.144-1.683-5.695
		c-1.125-1.55-3.548-3.379-7.275-5.486c-3.797-2.199-6.431-4.455-7.899-6.77c-1.47-2.315-2.205-4.931-2.205-7.848
		c0-4.097,1.55-7.413,4.652-9.948c3.101-2.534,7.304-3.801,12.604-3.801c4.12,0,7.407,0.717,9.86,2.153
		c2.454,1.435,3.682,3.276,3.682,5.521c0,3.287-2.096,4.931-6.284,4.931c0-2.778-0.66-4.976-1.979-6.597
		c-1.32-1.621-3.265-2.431-5.833-2.431c-2.825,0-5.14,0.811-6.945,2.431c-1.806,1.621-2.708,3.796-2.708,6.528
		c0,2.014,0.48,3.756,1.441,5.226c0.96,1.47,3.409,3.351,7.343,5.642c3.727,2.176,6.418,4.341,8.072,6.493
		c1.656,2.152,2.483,4.605,2.483,7.36c0,4.699-1.643,8.363-4.93,10.989c-3.288,2.628-7.859,3.94-13.716,3.94
		c-4.839,0-8.681-0.955-11.527-2.864c-2.847-1.908-4.271-4.334-4.271-7.274c0-1.644,0.515-2.956,1.545-3.941
		C69.905,108.051,71.219,107.558,72.815,107.558z"/>
	<path fill="#FFFFFF" d="M129.899,114.606c-0.186,0.879-0.277,1.54-0.277,1.979c0,1.898,1.712,2.847,5.139,2.847h1.633l-0.66,2.987
		h-22.117l0.659-2.987h1.633c2.383,0,4.039-0.41,4.965-1.232c0.926-0.822,1.551-1.997,1.875-3.525l8.368-39.479h-6.806
		c-3.379,0-5.752,1.945-7.117,5.834l-1.007,3.055h-3.68l2.987-12.43h40.03l-2.291,12.43h-3.681c0.231-1.852,0.347-3.299,0.347-4.34
		c0-3.033-1.563-4.549-4.688-4.549h-6.909L129.899,114.606z"/>
	<path fill="#FFFFFF" d="M163.544,105.44l-4.271,7.465c-0.903,1.575-1.354,2.894-1.354,3.958c0,1.714,1.32,2.569,3.959,2.569h1.666
		l-0.591,2.987h-17.569l0.59-2.987h1.354c1.273,0,2.338-0.329,3.194-0.99c0.856-0.66,1.991-2.181,3.402-4.566l24.757-42.222h5.555
		l6.735,43.993c0.232,1.481,0.637,2.483,1.216,3.004c0.577,0.521,1.573,0.781,2.986,0.781h0.937l-0.589,2.987h-19.341l0.555-2.987
		h1.667c3.402,0,5.104-1.203,5.104-3.611c0-0.973-0.047-1.782-0.138-2.431l-1.146-7.951L163.544,105.44L163.544,105.44z
		 M179.967,89.433c-0.718-5.046-1.1-8.796-1.146-11.25c-1.089,2.569-2.94,6.1-5.555,10.59l-7.604,13.09h16.076L179.967,89.433z
		 M178.475,66.655c2.708-3.126,5.242-6.608,7.604-10.451h7.604l-0.208,0.729c-3.635,4.235-7.756,7.789-12.36,10.66h-2.847
		L178.475,66.655z"/>
	<path fill="#FFFFFF" d="M243.405,122.418l0.626-2.987h0.209c2.013,0,3.425-0.376,4.235-1.128c0.811-0.752,1.412-1.87,1.807-3.351
		l8.125-37.986l-25.973,45.451h-3.818l-6.91-45.451l-7.951,37.638c-0.208,0.997-0.312,1.655-0.312,1.979
		c0,1.898,1.712,2.847,5.139,2.847h0.903l-0.625,2.987h-17.777l0.625-2.987h0.937c2.361,0,3.999-0.417,4.914-1.25
		c0.915-0.833,1.532-2.001,1.858-3.507l7.465-35.208c0.185-0.879,0.277-1.54,0.277-1.98c0-1.898-1.714-2.847-5.139-2.847h-0.903
		l0.625-2.986h16.146l6.041,40.52l23.264-40.52h15.868l-0.659,2.986h-0.903c-2.269,0-3.901,0.434-4.896,1.302
		c-0.996,0.868-1.666,2.135-2.013,3.802l-7.396,34.861c-0.186,0.88-0.277,1.54-0.277,1.979c0,1.897,1.701,2.847,5.104,2.847h0.937
		l-0.66,2.986h-18.893V122.418z"/>
	<path fill="#FFFFFF" d="M304.343,70.857c5.509,0,9.953,1.713,13.334,5.139c3.379,3.427,5.068,8.229,5.068,14.41
		c0,8.125-2.639,15.625-7.915,22.5c-5.278,6.875-12.049,10.311-20.313,10.311c-5.625,0-10.139-1.775-13.541-5.329
		c-3.402-3.553-5.104-8.351-5.104-14.393c0-8.147,2.662-15.625,7.987-22.431C289.182,74.259,296.009,70.857,304.343,70.857z
		 M294.933,119.292c5.903,0,10.712-3.269,14.428-9.808c3.714-6.541,5.573-13.536,5.573-20.991c0-4.421-0.979-7.823-2.936-10.208
		c-1.957-2.384-4.705-3.577-8.246-3.577c-5.927,0-10.76,3.282-14.495,9.844c-3.739,6.561-5.609,13.547-5.609,20.953
		c0,4.445,1.008,7.854,3.021,10.225C288.683,118.108,291.438,119.292,294.933,119.292z"/>
	<path fill="#FFFFFF" d="M333.927,107.558c0,3.634,0.959,6.557,2.882,8.768c1.922,2.21,4.56,3.315,7.916,3.315
		c3.31,0,5.942-0.821,7.9-2.464c1.955-1.643,2.935-3.876,2.935-6.702c0-2.245-0.563-4.144-1.686-5.695
		c-1.122-1.55-3.545-3.379-7.273-5.486c-3.796-2.199-6.429-4.455-7.899-6.77c-1.47-2.315-2.204-4.931-2.204-7.848
		c0-4.097,1.55-7.413,4.652-9.948c3.102-2.534,7.302-3.801,12.604-3.801c4.12,0,7.408,0.717,9.862,2.153
		c2.453,1.435,3.68,3.276,3.68,5.521c0,3.287-2.094,4.931-6.285,4.931c0-2.778-0.658-4.976-1.979-6.597
		c-1.319-1.621-3.265-2.431-5.833-2.431c-2.824,0-5.141,0.811-6.946,2.431c-1.804,1.621-2.707,3.796-2.707,6.528
		c0,2.014,0.48,3.756,1.44,5.226s3.407,3.351,7.343,5.642c3.729,2.176,6.417,4.341,8.073,6.493c1.655,2.152,2.482,4.605,2.482,7.36
		c0,4.699-1.644,8.363-4.931,10.989c-3.286,2.628-7.858,3.94-13.714,3.94c-4.839,0-8.682-0.955-11.528-2.864
		c-2.849-1.908-4.271-4.334-4.271-7.274c0-1.644,0.515-2.956,1.543-3.941C331.016,108.051,332.328,107.558,333.927,107.558z"/>
	<path fill="#FFFFFF" d="M390.143,119.433h0.936c3.937,0,6.261-1.701,6.98-5.104l7.395-34.862c0.187-0.878,0.277-1.539,0.277-1.98
		c0-1.897-1.713-2.847-5.138-2.847h-0.903l0.625-2.985h19.929c6.459,0,11.437,1.672,14.933,5.017
		c3.495,3.345,5.242,8.119,5.242,14.323c0,9.073-2.581,16.579-7.743,22.516c-5.161,5.937-12.061,8.906-20.694,8.906h-22.395
		L390.143,119.433z M410.42,118.809c6.851,0,12.273-2.628,16.265-7.882c3.994-5.253,5.99-12.164,5.99-20.729
		c0-9.999-4.501-14.999-13.507-14.999h-5.625l-9.305,43.61H410.42L410.42,118.809z"/>
	<path fill="#FFFFFF" d="M458.787,118.877h13.715c4.004,0,6.689-1.945,8.057-5.834l1.111-3.055h3.715l-3.127,12.43h-38.124
		l0.557-2.987h0.937c2.407,0,4.081-0.422,5.018-1.268c0.938-0.845,1.568-2.008,1.893-3.49l7.396-34.929
		c0.14-0.648,0.209-1.216,0.209-1.702c0-1.11-0.325-1.956-0.973-2.535c-0.648-0.578-1.992-0.868-4.027-0.868h-0.903l0.625-2.985
		h35.833l-2.257,12.431h-3.715l0.209-2.188c0.115-1.111,0.173-1.758,0.173-1.944c0-3.171-1.688-4.756-5.069-4.756h-11.944
		l-4.061,18.923h17.153l-0.695,3.473h-17.151L458.787,118.877z"/>
	<path fill="#FFFFFF" d="M56.807,197.369c0.626,0.439,0.938,1.227,0.938,2.359c0,2.27-1.32,4.29-3.959,6.059
		c-2.639,1.771-6.274,2.656-10.902,2.656c-6.18,0-11.002-1.654-14.462-4.966c-3.46-3.31-5.19-7.997-5.19-14.061
		c0-8.981,2.801-16.754,8.403-23.316c5.602-6.561,12.569-9.844,20.902-9.844c4.145,0,7.372,0.713,9.687,2.136
		c2.314,1.424,3.473,3.349,3.473,5.78c0,1.69-0.637,3.033-1.91,4.028s-2.964,1.493-5.069,1.493c0-6.437-2.361-9.653-7.084-9.653
		c-5.856,0-10.758,3.19-14.704,9.566c-3.947,6.377-5.92,13.351-5.92,20.919c0,8.868,4.213,13.299,12.639,13.299
		C49.135,203.827,53.52,201.676,56.807,197.369z"/>
	<path fill="#FFFFFF" d="M74.239,159.973l0.625-2.984h20.695l-0.555,2.984h-0.937c-2.222,0-3.843,0.424-4.862,1.271
		c-1.019,0.845-1.724,2.123-2.117,3.836l-5.313,25.102c-0.579,2.732-0.868,4.944-0.868,6.632c0,4.932,3.415,7.397,10.243,7.397
		c3.843,0,6.887-0.857,9.131-2.569c2.246-1.712,3.808-4.56,4.688-8.542l6.041-28.298c0.186-0.857,0.277-1.517,0.277-1.98
		c0-1.897-1.713-2.848-5.139-2.848h-0.902l0.625-2.984h17.847l-0.555,2.984h-0.939c-2.222,0-3.842,0.424-4.86,1.271
		c-1.019,0.845-1.725,2.123-2.118,3.836l-5.973,28.158c-2.153,10.14-8.541,15.21-19.167,15.21c-5.23,0-9.23-1.065-11.997-3.194
		c-2.766-2.131-4.149-5.162-4.149-9.098c0-1.922,0.255-4.027,0.765-6.32l5.277-25.034c0.185-0.878,0.278-1.538,0.278-1.979
		c0-1.897-1.713-2.847-5.14-2.847h-0.903V159.973z"/>
	<path fill="#FFFFFF" d="M162.918,207.752l0.626-2.988h0.209c2.014,0,3.425-0.375,4.236-1.129c0.81-0.751,1.411-1.869,1.806-3.351
		l8.125-37.984l-25.972,45.449h-3.819L141.22,162.3l-7.952,37.639c-0.208,0.996-0.312,1.654-0.312,1.979
		c0,1.897,1.712,2.847,5.138,2.847h0.903l-0.625,2.986h-17.781l0.626-2.986h0.938c2.361,0,3.998-0.417,4.913-1.248
		c0.915-0.835,1.533-2.004,1.858-3.509l7.465-35.206c0.185-0.88,0.277-1.54,0.277-1.98c0-1.897-1.713-2.848-5.139-2.848h-0.903
		l0.625-2.984h16.146l6.041,40.52l23.264-40.52h15.868l-0.659,2.984h-0.903c-2.269,0-3.901,0.435-4.895,1.302
		c-0.997,0.87-1.667,2.137-2.014,3.804l-7.396,34.86c-0.185,0.879-0.277,1.539-0.277,1.979c0,1.897,1.701,2.847,5.104,2.847h0.938
		l-0.66,2.986h-18.89V207.752z"/>
	<path fill="#FFFFFF" d="M190.281,207.752l0.625-2.988h0.938c2.222,0,3.831-0.427,4.825-1.283c0.995-0.857,1.667-2.13,2.013-3.82
		l7.396-34.859c0.185-0.88,0.277-1.539,0.277-1.98c0-1.897-1.713-2.848-5.139-2.848h-0.904l0.625-2.984h18.229
		c5.138,0,9.119,1.189,11.944,3.576c2.824,2.386,4.236,5.764,4.236,10.138c0,5.395-1.811,9.622-5.435,12.691
		c-3.623,3.066-9.056,4.599-16.302,4.599h-5.277l-2.535,11.942c-0.208,0.975-0.312,1.634-0.312,1.981
		c0,1.897,1.712,2.847,5.139,2.847h2.327l-0.626,2.986h-22.045V207.752z M209.064,184.625h3.75c10,0,15-4.617,15-13.854
		c0-6.92-3.46-10.382-10.382-10.382h-3.264L209.064,184.625z"/>
	<path fill="#FFFFFF" d="M237.989,204.764h0.937c2.222,0,3.819-0.435,4.792-1.302s1.655-2.135,2.048-3.802l7.396-34.859
		c0.185-0.88,0.278-1.539,0.278-1.98c0-1.897-1.713-2.848-5.14-2.848h-0.903l0.625-2.984h20.694l-0.625,2.984h-0.937
		c-2.245,0-3.855,0.4-4.827,1.199c-0.972,0.798-1.632,2.007-1.98,3.629l-8.402,39.409h13.992c3.635,0,6.169-2.141,7.605-6.424
		l1.875-5.312h3.68l-3.68,15.277h-38.055L237.989,204.764z"/>
	<path fill="#FFFFFF" d="M299.237,204.209h13.715c4.005,0,6.69-1.944,8.057-5.835l1.11-3.055h3.716l-3.126,12.433h-38.124
		l0.556-2.988h0.938c2.407,0,4.079-0.423,5.017-1.268c0.938-0.844,1.568-2.007,1.893-3.49l7.396-34.93
		c0.138-0.647,0.208-1.215,0.208-1.701c0-1.11-0.324-1.956-0.973-2.535c-0.648-0.577-1.99-0.869-4.027-0.869h-0.903l0.625-2.985
		h35.834l-2.256,12.43h-3.717l0.209-2.187c0.115-1.111,0.176-1.758,0.176-1.944c0-3.171-1.69-4.755-5.071-4.755h-11.943
		l-4.063,18.923h17.153l-0.694,3.471h-17.153L299.237,204.209z"/>
	<path fill="#FFFFFF" d="M347.537,190.771l-4.271,7.465c-0.903,1.575-1.354,2.893-1.354,3.958c0,1.714,1.319,2.569,3.956,2.569
		h1.669l-0.59,2.988h-17.568l0.589-2.988h1.354c1.273,0,2.338-0.328,3.192-0.988c0.857-0.661,1.992-2.183,3.403-4.566l24.756-42.221
		h5.556l6.736,43.991c0.23,1.481,0.635,2.482,1.216,3.003c0.578,0.521,1.574,0.78,2.987,0.78h0.936l-0.59,2.986h-19.339l0.556-2.986
		h1.667c3.401,0,5.102-1.203,5.102-3.611c0-0.972-0.046-1.781-0.137-2.432l-1.147-7.95h-18.679V190.771z M363.96,174.766
		c-0.719-5.048-1.099-8.797-1.146-11.251c-1.087,2.569-2.939,6.1-5.554,10.591l-7.604,13.088h16.074L363.96,174.766z"/>
	<path fill="#FFFFFF" d="M432.571,164.801c0.185-0.88,0.278-1.539,0.278-1.98c0-1.897-1.702-2.848-5.104-2.848h-0.937l0.659-2.984
		h17.847l-0.658,2.984h-0.903c-2.269,0-3.896,0.435-4.879,1.302c-0.983,0.87-1.661,2.137-2.03,3.804l-9.028,42.672h-4.618
		l-18.3-41.666l-7.152,33.854c-0.209,0.996-0.312,1.654-0.312,1.979c0,1.897,1.712,2.847,5.139,2.847h0.902l-0.625,2.988h-17.778
		l0.625-2.988h0.938c2.223,0,3.818-0.435,4.792-1.302c0.973-0.867,1.653-2.135,2.049-3.802l7.395-34.859
		c0.185-0.88,0.277-1.539,0.277-1.98c0-1.897-1.713-2.848-5.138-2.848h-0.904l0.626-2.984h12.95l17.223,39.234L432.571,164.801z
		 M433.266,144.522h3.194c-1.668,5.602-4.746,8.403-9.235,8.403c-1.876,0-3.833-0.752-5.869-2.258
		c-2.06-1.481-3.519-2.222-4.375-2.222c-2.036,0-3.46,1.25-4.271,3.749h-3.194c1.668-5.577,4.769-8.367,9.308-8.367
		c1.897,0,3.852,0.741,5.866,2.223c2.013,1.505,3.448,2.257,4.307,2.257C431.055,148.308,432.477,147.045,433.266,144.522z"/>
	<path fill="#FFFFFF" d="M475.905,156.188c5.509,0,9.952,1.714,13.334,5.139c3.38,3.427,5.068,8.229,5.068,14.41
		c0,8.125-2.637,15.625-7.915,22.499c-5.277,6.875-12.05,10.313-20.314,10.313c-5.624,0-10.137-1.776-13.539-5.33
		c-3.403-3.552-5.103-8.35-5.103-14.392c0-8.148,2.66-15.626,7.984-22.431C460.742,159.591,467.571,156.188,475.905,156.188z
		 M466.495,204.626c5.903,0,10.712-3.27,14.427-9.81c3.715-6.538,5.573-13.535,5.573-20.989c0-4.421-0.979-7.823-2.936-10.207
		c-1.956-2.385-4.703-3.579-8.246-3.579c-5.927,0-10.758,3.283-14.495,9.844c-3.738,6.563-5.607,13.548-5.607,20.955
		c0,4.445,1.007,7.854,3.021,10.226C460.246,203.439,463.001,204.626,466.495,204.626z"/>
	<path fill="#FFFFFF" d="M505.488,192.889c0,3.636,0.96,6.558,2.882,8.769c1.922,2.21,4.561,3.315,7.916,3.315
		c3.31,0,5.942-0.822,7.9-2.466c1.955-1.643,2.935-3.876,2.935-6.702c0-2.243-0.563-4.143-1.685-5.694
		c-1.123-1.55-3.546-3.38-7.272-5.486c-3.796-2.198-6.43-4.454-7.9-6.77c-1.47-2.314-2.205-4.932-2.205-7.849
		c0-4.096,1.552-7.412,4.652-9.947s7.304-3.802,12.603-3.802c4.121,0,7.409,0.718,9.863,2.153c2.452,1.436,3.68,3.277,3.68,5.521
		c0,3.289-2.095,4.93-6.284,4.93c0-2.777-0.659-4.976-1.98-6.596c-1.319-1.621-3.264-2.431-5.833-2.431
		c-2.824,0-5.14,0.81-6.944,2.431c-1.805,1.62-2.708,3.796-2.708,6.527c0,2.014,0.48,3.755,1.441,5.226
		c0.959,1.47,3.407,3.35,7.343,5.642c3.728,2.178,6.418,4.342,8.072,6.494c1.655,2.151,2.483,4.605,2.483,7.36
		c0,4.698-1.645,8.362-4.931,10.988c-3.286,2.627-7.859,3.941-13.715,3.941c-4.839,0-8.68-0.954-11.527-2.864
		c-2.849-1.91-4.271-4.335-4.271-7.274c0-1.644,0.515-2.957,1.544-3.939C502.578,193.381,503.891,192.889,505.488,192.889z"/>
</g>
</svg>
