<?xml version="1.0" encoding="utf-8"?>
<!-- Generator: Adobe Illustrator 16.0.0, SVG Export Plug-In . SVG Version: 6.00 Build 0)  -->
<!DOCTYPE svg PUBLIC "-//W3C//DTD SVG 1.1//EN" "http://www.w3.org/Graphics/SVG/1.1/DTD/svg11.dtd">
<svg version="1.1" id="Capa_1" xmlns="http://www.w3.org/2000/svg" xmlns:xlink="http://www.w3.org/1999/xlink" x="0px" y="0px"
	 width="500.984px" height="294px" viewBox="131.984 0 500.984 294" enable-background="new 131.984 0 500.984 294"
	 xml:space="preserve">
<rect x="361.959" y="68.782" transform="matrix(-0.9982 0.0592 -0.0592 -0.9982 852.761 291.5153)" opacity="0.5" fill="#E12021" enable-background="new    " width="120.207" height="179.217"/>
<rect x="254.868" y="68.769" transform="matrix(-0.977 0.2133 -0.2133 -0.977 656.4988 245.9577)" opacity="0.5" fill="#E12021" enable-background="new    " width="120.227" height="179.248"/>
<rect x="465.067" y="48.301" transform="matrix(-0.9734 -0.229 0.229 -0.9734 1020.8452 423.5951)" opacity="0.5" fill="#E12021" enable-background="new    " width="139.867" height="208.53"/>
<rect x="180.065" y="60.392" transform="matrix(-0.9734 -0.229 0.229 -0.9734 436.8221 345.6117)" opacity="0.5" fill="#E12021" enable-background="new    " width="116.799" height="174.135"/>
<polygon fill="#0F0F0F" points="555.056,269.59 166.702,269.59 178.36,222.963 566.712,222.963 "/>
<g>
	<path fill="#FFFFFF" d="M191.356,257.068h-3.292l3.274-9.213h1.101L191.356,257.068z M190.69,245.089c0-0.313,0.047-0.58,0.144-0.8
		c0.095-0.221,0.222-0.396,0.38-0.525c0.157-0.136,0.333-0.229,0.533-0.287c0.196-0.058,0.395-0.09,0.59-0.09
		c0.463,0,0.833,0.111,1.115,0.333c0.28,0.224,0.42,0.564,0.42,1.026c0,0.258-0.039,0.495-0.115,0.705
		c-0.078,0.208-0.187,0.389-0.328,0.535c-0.143,0.147-0.314,0.266-0.517,0.347c-0.203,0.084-0.431,0.125-0.685,0.125
		c-0.216,0-0.417-0.026-0.606-0.081c-0.188-0.059-0.35-0.141-0.49-0.251c-0.14-0.11-0.248-0.252-0.324-0.426
		C190.728,245.527,190.69,245.323,190.69,245.089z"/>
	<path fill="#FFFFFF" d="M200.265,253.857c-0.784,0-1.468-0.069-2.053-0.211c-0.586-0.143-1.074-0.336-1.462-0.584
		c-0.389-0.248-0.68-0.537-0.875-0.875c-0.194-0.334-0.291-0.698-0.291-1.097c0-0.295,0.06-0.553,0.18-0.774
		c0.12-0.223,0.289-0.407,0.508-0.553c0.22-0.148,0.478-0.263,0.777-0.334c0.299-0.074,0.63-0.111,0.995-0.111
		c0,0.582,0.062,1.084,0.186,1.509s0.297,0.778,0.519,1.058c0.222,0.283,0.487,0.491,0.795,0.627
		c0.308,0.135,0.647,0.204,1.018,0.204c0.357,0,0.674-0.05,0.952-0.151c0.278-0.104,0.514-0.242,0.708-0.418
		c0.194-0.176,0.343-0.383,0.444-0.621c0.102-0.236,0.153-0.489,0.153-0.762c0-0.266-0.033-0.51-0.097-0.73
		c-0.064-0.223-0.184-0.438-0.357-0.646c-0.173-0.21-0.409-0.425-0.712-0.639c-0.302-0.215-0.69-0.454-1.166-0.711
		c-0.493-0.271-0.926-0.553-1.298-0.838c-0.373-0.285-0.685-0.596-0.934-0.932c-0.25-0.332-0.439-0.699-0.564-1.096
		c-0.127-0.396-0.19-0.845-0.19-1.345c0-0.568,0.114-1.089,0.343-1.563c0.229-0.476,0.554-0.884,0.979-1.226
		c0.425-0.342,0.94-0.608,1.545-0.796c0.604-0.188,1.283-0.283,2.036-0.283c0.703,0,1.316,0.059,1.841,0.169
		c0.523,0.11,0.96,0.263,1.31,0.453c0.348,0.19,0.609,0.415,0.782,0.674s0.259,0.537,0.259,0.833c0,0.516-0.193,0.914-0.583,1.206
		c-0.388,0.295-1.023,0.44-1.905,0.44c0-0.284-0.027-0.579-0.083-0.889c-0.057-0.311-0.154-0.592-0.297-0.848
		c-0.142-0.256-0.332-0.467-0.573-0.633c-0.24-0.166-0.545-0.251-0.916-0.251c-0.253,0-0.503,0.043-0.754,0.12
		c-0.25,0.082-0.474,0.205-0.671,0.363c-0.197,0.16-0.358,0.362-0.481,0.606c-0.124,0.243-0.186,0.53-0.186,0.864
		c0,0.332,0.053,0.615,0.158,0.851c0.104,0.233,0.262,0.453,0.471,0.651c0.209,0.201,0.471,0.396,0.787,0.582
		c0.314,0.189,0.685,0.397,1.109,0.625c0.956,0.518,1.663,1.091,2.118,1.716c0.457,0.628,0.685,1.344,0.685,2.153
		c0,0.672-0.122,1.271-0.366,1.795c-0.244,0.521-0.591,0.965-1.044,1.32c-0.453,0.358-1.001,0.631-1.641,0.818
		C201.778,253.764,201.06,253.857,200.265,253.857z"/>
	<path fill="#FFFFFF" d="M212.133,252.425c0.308,0,0.6-0.046,0.878-0.133c0.279-0.089,0.535-0.207,0.773-0.354
		c0.237-0.144,0.45-0.306,0.637-0.489c0.189-0.181,0.351-0.366,0.486-0.558c0.074,0.092,0.133,0.209,0.175,0.354
		c0.043,0.146,0.065,0.298,0.065,0.457c0,0.229-0.074,0.47-0.222,0.723s-0.374,0.483-0.68,0.698
		c-0.306,0.212-0.695,0.389-1.166,0.525c-0.472,0.14-1.032,0.209-1.679,0.209c-0.58,0-1.125-0.08-1.638-0.239
		c-0.511-0.162-0.961-0.402-1.345-0.726c-0.385-0.326-0.689-0.733-0.912-1.223c-0.223-0.488-0.333-1.066-0.333-1.725
		c0-0.471,0.062-0.961,0.185-1.473c0.125-0.511,0.307-1.012,0.552-1.503c0.243-0.487,0.544-0.956,0.906-1.396
		s0.779-0.828,1.254-1.161c0.474-0.332,1.005-0.595,1.595-0.789c0.588-0.194,1.232-0.293,1.929-0.293
		c0.906,0,1.61,0.194,2.108,0.589c0.5,0.393,0.75,0.938,0.75,1.643c0,0.514-0.142,1-0.425,1.47
		c-0.285,0.469-0.676,0.879-1.175,1.235c-0.499,0.354-1.094,0.637-1.785,0.846c-0.69,0.21-1.443,0.314-2.258,0.314
		c-0.104,0-0.218,0-0.341,0c-0.124,0-0.243-0.006-0.362-0.019c-0.019,0.124-0.028,0.248-0.032,0.373
		c-0.002,0.127-0.005,0.241-0.005,0.35c0,0.735,0.171,1.298,0.514,1.695C210.925,252.227,211.441,252.425,212.133,252.425z
		 M212.797,244.47c-0.308,0-0.601,0.116-0.877,0.347c-0.279,0.231-0.528,0.533-0.75,0.9c-0.223,0.369-0.414,0.784-0.573,1.246
		c-0.161,0.458-0.277,0.913-0.353,1.364h0.167c0.468,0,0.906-0.062,1.309-0.185c0.405-0.125,0.756-0.302,1.056-0.533
		c0.3-0.23,0.534-0.508,0.704-0.829c0.169-0.32,0.253-0.681,0.253-1.082c0-0.388-0.082-0.689-0.245-0.904
		C213.324,244.578,213.094,244.47,212.797,244.47z M212.271,241.943c0.173-0.178,0.36-0.385,0.564-0.619s0.405-0.477,0.606-0.725
		c0.201-0.25,0.394-0.5,0.583-0.746c0.189-0.244,0.357-0.477,0.504-0.693h2.97l-0.056,0.195c-0.099,0.11-0.234,0.242-0.407,0.394
		c-0.173,0.153-0.369,0.315-0.588,0.487c-0.218,0.172-0.452,0.349-0.703,0.531c-0.25,0.182-0.503,0.358-0.763,0.529
		c-0.26,0.174-0.515,0.339-0.768,0.494c-0.253,0.159-0.49,0.291-0.712,0.402h-1.286L212.271,241.943z"/>
	<path fill="#FFFFFF" d="M220.911,258.223l2.572-12.089c0.02-0.079,0.036-0.163,0.052-0.251c0.016-0.086,0.029-0.166,0.042-0.242
		c0.011-0.078,0.021-0.144,0.027-0.201c0.006-0.055,0.01-0.095,0.01-0.119c0-0.172-0.019-0.312-0.056-0.418
		c-0.037-0.104-0.095-0.184-0.175-0.238c-0.08-0.055-0.183-0.094-0.309-0.113c-0.127-0.016-0.279-0.025-0.458-0.025h-0.342
		l0.167-1.008h4.08l-0.491,2.524h0.13c0.216-0.396,0.438-0.758,0.667-1.091c0.229-0.332,0.48-0.619,0.759-0.859
		c0.277-0.24,0.591-0.43,0.943-0.559c0.352-0.135,0.762-0.201,1.231-0.201c0.413,0,0.791,0.075,1.134,0.223
		c0.342,0.149,0.634,0.366,0.874,0.656c0.241,0.291,0.427,0.646,0.56,1.073c0.132,0.426,0.199,0.918,0.199,1.468
		c0,0.458-0.054,0.948-0.162,1.479c-0.108,0.524-0.269,1.056-0.485,1.58c-0.216,0.526-0.485,1.034-0.809,1.522
		c-0.323,0.487-0.706,0.916-1.143,1.29c-0.439,0.374-0.93,0.672-1.476,0.896c-0.546,0.224-1.146,0.338-1.8,0.338
		c-0.381,0-0.738-0.039-1.067-0.116c-0.33-0.077-0.618-0.183-0.865-0.319c-0.007,0.1-0.018,0.201-0.038,0.305
		c-0.011,0.088-0.027,0.185-0.045,0.293c-0.019,0.106-0.04,0.213-0.065,0.318l-0.268,1.268c-0.02,0.078-0.036,0.164-0.052,0.25
		c-0.014,0.088-0.029,0.168-0.041,0.246c-0.013,0.076-0.021,0.142-0.028,0.196c-0.006,0.058-0.008,0.097-0.008,0.121
		c0,0.173,0.018,0.313,0.055,0.417c0.038,0.105,0.096,0.184,0.175,0.241c0.08,0.056,0.185,0.093,0.31,0.11
		c0.126,0.018,0.279,0.026,0.458,0.026h0.723l-0.166,1.009h-4.815l0,0H220.911z M229.662,246.895c0-0.26-0.019-0.513-0.051-0.756
		c-0.034-0.24-0.091-0.46-0.168-0.648c-0.077-0.193-0.181-0.348-0.314-0.465c-0.133-0.115-0.298-0.174-0.495-0.174
		c-0.209,0-0.417,0.06-0.625,0.181c-0.206,0.118-0.407,0.28-0.601,0.485c-0.193,0.203-0.376,0.437-0.546,0.701
		c-0.169,0.268-0.323,0.545-0.462,0.828c-0.139,0.288-0.259,0.575-0.361,0.864c-0.103,0.29-0.178,0.563-0.227,0.815l-0.723,3.395
		c0.056,0.059,0.131,0.115,0.223,0.18s0.197,0.124,0.313,0.172c0.119,0.051,0.247,0.092,0.385,0.129
		c0.137,0.03,0.282,0.049,0.429,0.049c0.34,0,0.656-0.094,0.948-0.277c0.293-0.184,0.557-0.432,0.795-0.74
		c0.237-0.308,0.449-0.66,0.633-1.058c0.186-0.398,0.339-0.81,0.463-1.237c0.124-0.427,0.218-0.849,0.283-1.271
		C229.628,247.641,229.662,247.249,229.662,246.895z"/>
	<path fill="#FFFFFF" d="M242.241,253.857c-0.562,0-1.011-0.129-1.351-0.385c-0.338-0.255-0.508-0.628-0.508-1.121
		c0-0.199,0.01-0.391,0.027-0.578c0.019-0.188,0.052-0.408,0.103-0.651h-0.131c-0.234,0.438-0.468,0.828-0.699,1.17
		c-0.231,0.341-0.489,0.628-0.772,0.858c-0.285,0.23-0.6,0.406-0.949,0.526c-0.347,0.119-0.753,0.181-1.216,0.181
		c-0.45,0-0.844-0.09-1.185-0.265c-0.338-0.174-0.622-0.418-0.847-0.725c-0.224-0.31-0.395-0.677-0.508-1.097
		c-0.113-0.422-0.172-0.881-0.172-1.375c0-0.492,0.059-1.008,0.172-1.547c0.114-0.541,0.285-1.072,0.513-1.597
		c0.229-0.522,0.511-1.024,0.847-1.498c0.336-0.476,0.724-0.894,1.167-1.249c0.441-0.359,0.933-0.643,1.476-0.855
		c0.542-0.215,1.134-0.32,1.776-0.32c0.246,0,0.497,0.021,0.753,0.061c0.256,0.041,0.501,0.092,0.735,0.151
		c0.237,0.063,0.455,0.133,0.662,0.209c0.207,0.077,0.381,0.156,0.523,0.235l0.999-0.452h1.008l-1.25,5.909
		c-0.025,0.107-0.055,0.246-0.092,0.416c-0.036,0.173-0.073,0.356-0.105,0.553c-0.033,0.195-0.063,0.382-0.088,0.563
		c-0.024,0.185-0.037,0.338-0.037,0.463c0,0.312,0.062,0.547,0.185,0.7c0.124,0.154,0.285,0.23,0.481,0.23
		c0.179,0,0.35-0.036,0.514-0.113c0.164-0.078,0.344-0.175,0.541-0.284l0.417,0.762c-0.16,0.121-0.342,0.248-0.547,0.381
		c-0.204,0.135-0.43,0.256-0.68,0.365c-0.249,0.111-0.521,0.205-0.813,0.271C242.895,253.823,242.581,253.857,242.241,253.857z
		 M236.913,250.418c0,0.364,0.027,0.667,0.078,0.915c0.054,0.247,0.124,0.444,0.214,0.597c0.09,0.149,0.197,0.26,0.323,0.325
		c0.127,0.063,0.265,0.097,0.412,0.097c0.278,0,0.563-0.121,0.86-0.362c0.296-0.241,0.573-0.558,0.833-0.949
		c0.259-0.39,0.492-0.832,0.698-1.326c0.206-0.493,0.362-0.994,0.468-1.497l0.665-3.146c-0.123-0.178-0.294-0.312-0.514-0.396
		c-0.218-0.085-0.451-0.13-0.698-0.13c-0.371,0-0.708,0.094-1.013,0.286c-0.305,0.191-0.581,0.445-0.828,0.768
		c-0.246,0.323-0.464,0.687-0.651,1.092c-0.189,0.408-0.347,0.828-0.472,1.269c-0.127,0.438-0.221,0.87-0.283,1.294
		C236.944,249.68,236.913,250.064,236.913,250.418z"/>
	<path fill="#FFFFFF" d="M248.299,245.182c0-0.232-0.076-0.398-0.23-0.505c-0.153-0.099-0.411-0.149-0.768-0.149h-0.344l0.167-1.01
		h4.19l-0.398,2.601h0.092c0.216-0.458,0.434-0.858,0.651-1.203c0.219-0.345,0.459-0.636,0.722-0.868
		c0.262-0.236,0.56-0.411,0.893-0.531c0.334-0.121,0.723-0.183,1.167-0.183c0.672,0,1.171,0.129,1.499,0.381
		c0.327,0.254,0.491,0.619,0.491,1.101c0,0.653-0.191,1.141-0.573,1.461c-0.382,0.324-0.938,0.48-1.666,0.48
		c0-0.283-0.014-0.54-0.041-0.771c-0.027-0.231-0.077-0.43-0.147-0.592c-0.072-0.162-0.167-0.285-0.287-0.375
		c-0.119-0.084-0.27-0.129-0.449-0.129s-0.366,0.073-0.565,0.219c-0.197,0.144-0.395,0.343-0.591,0.595
		c-0.197,0.253-0.39,0.553-0.578,0.901c-0.188,0.348-0.368,0.729-0.542,1.14c-0.173,0.407-0.329,0.838-0.471,1.288
		c-0.143,0.449-0.263,0.904-0.362,1.367l-0.721,3.275h-2.859l1.609-7.613c0.02-0.105,0.042-0.24,0.07-0.414
		C248.287,245.473,248.299,245.318,248.299,245.182z"/>
	<path fill="#FFFFFF" d="M261.426,252.314c0.297,0,0.564-0.051,0.805-0.148c0.241-0.098,0.466-0.214,0.675-0.352l0.435,0.723
		c-0.209,0.178-0.43,0.348-0.662,0.508c-0.231,0.161-0.482,0.301-0.754,0.423c-0.271,0.12-0.562,0.216-0.875,0.284
		c-0.311,0.071-0.649,0.105-1.012,0.105c-0.346,0-0.667-0.043-0.967-0.133c-0.3-0.089-0.56-0.226-0.782-0.408
		c-0.222-0.18-0.396-0.407-0.522-0.688c-0.127-0.277-0.19-0.604-0.19-0.979c0-0.11,0.004-0.234,0.014-0.369
		c0.009-0.135,0.022-0.275,0.041-0.417c0.019-0.144,0.04-0.283,0.064-0.421c0.024-0.14,0.05-0.269,0.074-0.383l1.138-5.246h-1.461
		l0.204-0.974c0.27,0,0.567-0.047,0.888-0.138c0.321-0.094,0.648-0.243,0.986-0.455c0.336-0.208,0.672-0.48,1.008-0.82
		c0.337-0.34,0.653-0.754,0.948-1.24h1.101l-0.49,2.33h2.285l-0.261,1.297h-2.31l-1.138,5.188c-0.067,0.277-0.115,0.53-0.143,0.754
		c-0.028,0.227-0.042,0.43-0.042,0.607c0,0.313,0.087,0.553,0.259,0.714C260.914,252.232,261.141,252.314,261.426,252.314z"/>
	<path fill="#FFFFFF" d="M269.955,243.518l-1.314,6.158c-0.074,0.348-0.135,0.668-0.185,0.967c-0.05,0.301-0.075,0.584-0.075,0.85
		c0,0.275,0.058,0.488,0.172,0.637c0.114,0.146,0.275,0.221,0.485,0.221c0.197,0,0.379-0.035,0.545-0.109
		c0.168-0.073,0.359-0.182,0.574-0.323l0.454,0.638c-0.148,0.161-0.318,0.32-0.509,0.477c-0.192,0.154-0.407,0.299-0.648,0.421
		c-0.24,0.126-0.505,0.224-0.79,0.297c-0.285,0.074-0.603,0.11-0.947,0.11c-0.729,0-1.285-0.172-1.675-0.516
		c-0.389-0.341-0.583-0.818-0.583-1.428c0-0.271,0.025-0.596,0.074-0.973c0.049-0.377,0.126-0.807,0.231-1.285l0.741-3.524
		c0.018-0.077,0.035-0.161,0.051-0.25c0.016-0.085,0.029-0.167,0.041-0.243c0.012-0.076,0.021-0.143,0.027-0.199
		c0.007-0.057,0.01-0.096,0.01-0.121c0-0.17-0.019-0.311-0.056-0.416c-0.037-0.104-0.095-0.185-0.175-0.24
		c-0.08-0.055-0.183-0.091-0.31-0.111c-0.127-0.019-0.28-0.025-0.458-0.025h-0.343l0.167-1.008L269.955,243.518L269.955,243.518
		L269.955,243.518z M267.401,241.943c0.172-0.178,0.361-0.385,0.564-0.619c0.204-0.234,0.404-0.477,0.605-0.725
		c0.201-0.25,0.395-0.5,0.582-0.746c0.189-0.244,0.357-0.477,0.506-0.693h2.969l-0.055,0.195c-0.099,0.11-0.234,0.242-0.407,0.394
		c-0.173,0.153-0.369,0.315-0.588,0.487c-0.219,0.172-0.454,0.349-0.704,0.531c-0.25,0.182-0.504,0.358-0.761,0.529
		c-0.259,0.174-0.516,0.339-0.769,0.494c-0.253,0.159-0.49,0.291-0.712,0.402h-1.285L267.401,241.943z"/>
	<path fill="#FFFFFF" d="M276.66,252.425c0.333,0,0.634-0.046,0.902-0.133c0.268-0.089,0.511-0.208,0.726-0.356
		c0.217-0.146,0.408-0.314,0.574-0.5c0.167-0.184,0.314-0.373,0.444-0.563c0.08,0.074,0.148,0.185,0.205,0.329
		c0.056,0.145,0.083,0.311,0.083,0.503c0,0.248-0.072,0.498-0.218,0.757c-0.144,0.254-0.37,0.484-0.675,0.691
		c-0.306,0.207-0.693,0.377-1.161,0.509c-0.469,0.134-1.026,0.198-1.674,0.198c-0.572,0-1.114-0.079-1.624-0.238
		c-0.508-0.162-0.952-0.403-1.331-0.734c-0.379-0.322-0.681-0.731-0.902-1.217c-0.222-0.49-0.333-1.061-0.333-1.722
		c0-0.47,0.059-0.96,0.176-1.468c0.116-0.508,0.292-1.008,0.527-1.502c0.235-0.486,0.525-0.953,0.874-1.394
		c0.348-0.438,0.753-0.828,1.217-1.16c0.462-0.336,0.979-0.599,1.553-0.797c0.573-0.198,1.202-0.297,1.886-0.297
		c0.525,0,0.977,0.054,1.355,0.161c0.38,0.109,0.691,0.253,0.934,0.436c0.245,0.182,0.425,0.395,0.542,0.641
		c0.117,0.242,0.175,0.498,0.175,0.771c0,0.199-0.041,0.392-0.125,0.58c-0.084,0.19-0.217,0.356-0.402,0.511
		c-0.184,0.15-0.424,0.271-0.716,0.362c-0.293,0.093-0.649,0.14-1.069,0.14c0-0.33-0.029-0.648-0.087-0.949
		c-0.058-0.299-0.146-0.56-0.263-0.783c-0.117-0.225-0.26-0.402-0.43-0.534c-0.171-0.128-0.37-0.192-0.597-0.192
		c-0.271,0-0.525,0.09-0.763,0.273c-0.238,0.182-0.456,0.421-0.652,0.721c-0.197,0.301-0.371,0.645-0.522,1.026
		c-0.15,0.386-0.279,0.782-0.388,1.192c-0.107,0.41-0.189,0.814-0.245,1.213c-0.055,0.396-0.083,0.76-0.083,1.088
		c0,0.771,0.175,1.369,0.528,1.796C275.448,252.212,275.97,252.425,276.66,252.425z"/>
	<path fill="#FFFFFF" d="M286.66,243.518l-1.313,6.158c-0.075,0.348-0.135,0.668-0.185,0.967c-0.049,0.301-0.074,0.584-0.074,0.85
		c0,0.275,0.057,0.488,0.171,0.637c0.115,0.146,0.276,0.221,0.485,0.221c0.198,0,0.38-0.035,0.547-0.109
		c0.165-0.073,0.356-0.182,0.572-0.323l0.454,0.638c-0.147,0.161-0.318,0.32-0.509,0.477c-0.19,0.154-0.406,0.299-0.647,0.421
		c-0.24,0.126-0.505,0.224-0.791,0.297c-0.286,0.074-0.603,0.11-0.947,0.11c-0.728,0-1.286-0.172-1.675-0.516
		c-0.388-0.341-0.583-0.818-0.583-1.428c0-0.271,0.025-0.596,0.074-0.973c0.05-0.377,0.127-0.807,0.232-1.285l0.741-3.524
		c0.018-0.077,0.036-0.161,0.05-0.25c0.017-0.085,0.03-0.167,0.042-0.243c0.012-0.076,0.021-0.143,0.026-0.199
		c0.008-0.057,0.01-0.096,0.01-0.121c0-0.17-0.019-0.311-0.055-0.416c-0.037-0.104-0.096-0.185-0.175-0.24
		c-0.081-0.055-0.183-0.091-0.31-0.111c-0.126-0.019-0.279-0.025-0.458-0.025H282l0.165-1.008L286.66,243.518L286.66,243.518z
		 M285.346,241.814c-0.21,0-0.403-0.022-0.583-0.069c-0.179-0.046-0.334-0.117-0.466-0.218c-0.133-0.098-0.237-0.221-0.314-0.367
		c-0.077-0.146-0.116-0.322-0.116-0.52c0-0.277,0.048-0.517,0.143-0.707c0.095-0.194,0.224-0.354,0.384-0.48
		c0.158-0.129,0.348-0.221,0.563-0.277c0.216-0.06,0.441-0.088,0.677-0.088c0.204,0,0.396,0.021,0.578,0.063
		c0.182,0.046,0.342,0.113,0.48,0.214c0.139,0.099,0.25,0.224,0.333,0.375c0.083,0.149,0.125,0.329,0.125,0.541
		c0,0.259-0.051,0.485-0.153,0.68c-0.102,0.192-0.238,0.354-0.407,0.481c-0.17,0.125-0.362,0.219-0.578,0.281
		C285.796,241.783,285.576,241.814,285.346,241.814z"/>
	<path fill="#FFFFFF" d="M287.057,258.223l2.572-12.089c0.02-0.079,0.037-0.163,0.051-0.251c0.015-0.086,0.029-0.166,0.042-0.242
		c0.012-0.078,0.021-0.144,0.028-0.201c0.005-0.055,0.01-0.095,0.01-0.119c0-0.172-0.02-0.312-0.057-0.418
		c-0.036-0.104-0.095-0.184-0.175-0.238c-0.08-0.057-0.184-0.094-0.31-0.113c-0.126-0.016-0.279-0.025-0.458-0.025h-0.341
		l0.167-1.008h4.078l-0.489,2.524h0.13c0.216-0.396,0.438-0.758,0.667-1.091c0.228-0.332,0.48-0.619,0.759-0.859
		c0.276-0.24,0.591-0.43,0.943-0.559c0.35-0.135,0.761-0.201,1.229-0.201c0.414,0,0.792,0.075,1.134,0.223
		c0.343,0.149,0.635,0.366,0.874,0.656c0.242,0.291,0.428,0.646,0.561,1.073c0.133,0.426,0.2,0.918,0.2,1.468
		c0,0.458-0.054,0.948-0.162,1.479c-0.108,0.524-0.269,1.056-0.484,1.58c-0.216,0.526-0.486,1.034-0.81,1.522
		c-0.322,0.487-0.704,0.916-1.142,1.29s-0.931,0.672-1.477,0.896c-0.544,0.225-1.146,0.338-1.799,0.338
		c-0.382,0-0.74-0.039-1.068-0.116c-0.33-0.077-0.618-0.183-0.865-0.319c-0.006,0.1-0.018,0.201-0.037,0.305
		c-0.011,0.088-0.027,0.185-0.045,0.293c-0.019,0.106-0.04,0.213-0.064,0.318l-0.268,1.268c-0.019,0.078-0.036,0.164-0.052,0.25
		c-0.016,0.088-0.029,0.168-0.041,0.246c-0.013,0.076-0.022,0.142-0.028,0.196c-0.005,0.058-0.009,0.097-0.009,0.121
		c0,0.173,0.019,0.313,0.055,0.417c0.039,0.105,0.096,0.184,0.177,0.241c0.079,0.056,0.183,0.093,0.31,0.11
		c0.125,0.018,0.279,0.026,0.457,0.026h0.723l-0.167,1.009h-4.814l0,0H287.057z M295.808,246.895c0-0.26-0.018-0.513-0.052-0.756
		c-0.033-0.24-0.089-0.46-0.165-0.648c-0.079-0.193-0.182-0.348-0.315-0.465c-0.133-0.115-0.298-0.174-0.496-0.174
		c-0.208,0-0.417,0.06-0.624,0.181c-0.207,0.118-0.407,0.28-0.602,0.485c-0.194,0.203-0.376,0.437-0.545,0.701
		c-0.171,0.268-0.325,0.545-0.463,0.828c-0.14,0.288-0.258,0.575-0.361,0.864c-0.101,0.29-0.177,0.563-0.226,0.815l-0.722,3.395
		c0.056,0.059,0.13,0.115,0.222,0.18c0.093,0.064,0.197,0.124,0.315,0.172c0.116,0.051,0.245,0.092,0.383,0.129
		c0.139,0.03,0.283,0.049,0.43,0.049c0.34,0,0.655-0.094,0.948-0.277s0.557-0.432,0.795-0.74c0.237-0.308,0.449-0.66,0.633-1.058
		c0.186-0.398,0.338-0.81,0.463-1.237c0.123-0.427,0.216-0.849,0.281-1.271C295.775,247.641,295.808,247.249,295.808,246.895z"/>
	<path fill="#FFFFFF" d="M305.141,252.425c0.309,0,0.601-0.046,0.88-0.133c0.277-0.089,0.533-0.207,0.771-0.354
		c0.237-0.144,0.45-0.306,0.638-0.489c0.188-0.181,0.352-0.366,0.485-0.558c0.075,0.092,0.134,0.209,0.176,0.354
		c0.044,0.146,0.065,0.298,0.065,0.457c0,0.229-0.075,0.47-0.223,0.723c-0.148,0.253-0.376,0.483-0.68,0.698
		c-0.306,0.212-0.695,0.389-1.167,0.525c-0.472,0.14-1.031,0.209-1.678,0.209c-0.581,0-1.125-0.08-1.639-0.239
		c-0.51-0.162-0.96-0.402-1.345-0.726c-0.385-0.326-0.688-0.733-0.912-1.223c-0.222-0.488-0.333-1.066-0.333-1.725
		c0-0.471,0.063-0.961,0.186-1.473c0.124-0.511,0.307-1.012,0.55-1.503c0.245-0.487,0.546-0.956,0.906-1.396
		c0.362-0.439,0.781-0.828,1.254-1.161c0.475-0.332,1.007-0.595,1.596-0.789c0.588-0.194,1.231-0.293,1.928-0.293
		c0.906,0,1.61,0.194,2.109,0.589c0.499,0.393,0.749,0.938,0.749,1.643c0,0.514-0.144,1-0.426,1.47
		c-0.285,0.469-0.677,0.879-1.176,1.235c-0.499,0.354-1.095,0.637-1.786,0.846c-0.688,0.21-1.442,0.314-2.257,0.314
		c-0.104,0-0.219,0-0.342,0s-0.244-0.006-0.36-0.019c-0.021,0.124-0.031,0.248-0.033,0.373c-0.003,0.127-0.006,0.241-0.006,0.35
		c0,0.735,0.171,1.298,0.515,1.695C303.934,252.227,304.452,252.425,305.141,252.425z M305.807,244.47
		c-0.308,0-0.601,0.116-0.878,0.347c-0.279,0.231-0.528,0.533-0.75,0.9c-0.223,0.369-0.413,0.784-0.574,1.246
		c-0.159,0.458-0.276,0.913-0.351,1.364h0.167c0.468,0,0.905-0.062,1.31-0.185c0.403-0.125,0.754-0.302,1.054-0.533
		c0.3-0.23,0.534-0.508,0.703-0.829c0.171-0.32,0.254-0.681,0.254-1.082c0-0.388-0.081-0.689-0.245-0.904
		C306.333,244.578,306.103,244.47,305.807,244.47z"/>
	<path fill="#FFFFFF" d="M324.585,249.604c-0.02,0.094-0.045,0.224-0.078,0.395c-0.035,0.17-0.066,0.347-0.1,0.531
		c-0.031,0.187-0.059,0.367-0.078,0.548c-0.021,0.176-0.031,0.325-0.031,0.444c0,0.295,0.068,0.511,0.203,0.646
		c0.137,0.136,0.291,0.205,0.465,0.205c0.158,0,0.336-0.044,0.529-0.129c0.197-0.088,0.369-0.177,0.521-0.269l0.418,0.739
		c-0.166,0.136-0.354,0.271-0.563,0.407c-0.211,0.134-0.441,0.258-0.689,0.369c-0.25,0.107-0.521,0.199-0.809,0.267
		c-0.289,0.068-0.6,0.103-0.926,0.103c-0.277,0-0.531-0.032-0.76-0.096s-0.424-0.16-0.586-0.281
		c-0.164-0.125-0.289-0.279-0.381-0.469c-0.09-0.187-0.133-0.408-0.133-0.662c0-0.115,0.002-0.222,0.01-0.313
		s0.016-0.183,0.021-0.272c0.01-0.091,0.021-0.186,0.037-0.287c0.018-0.102,0.037-0.221,0.063-0.354h-0.109
		c-0.236,0.487-0.482,0.901-0.742,1.247s-0.535,0.628-0.826,0.852c-0.293,0.221-0.609,0.383-0.943,0.483
		c-0.338,0.104-0.699,0.153-1.088,0.153c-0.486,0-0.904-0.09-1.253-0.275c-0.347-0.186-0.635-0.438-0.858-0.75
		c-0.227-0.313-0.392-0.684-0.496-1.1c-0.106-0.42-0.157-0.863-0.157-1.334c0-0.491,0.059-1.008,0.172-1.547
		c0.114-0.541,0.283-1.071,0.509-1.596c0.225-0.523,0.502-1.025,0.832-1.499c0.333-0.476,0.711-0.894,1.145-1.249
		c0.43-0.359,0.912-0.643,1.438-0.857c0.527-0.211,1.104-0.319,1.727-0.319c0.369,0,0.715,0.042,1.035,0.122
		c0.318,0.08,0.604,0.191,0.852,0.332c0.018-0.081,0.037-0.174,0.055-0.282c0.02-0.108,0.039-0.215,0.063-0.321
		c0.02-0.107,0.043-0.211,0.064-0.308c0.021-0.094,0.037-0.173,0.051-0.226l0.168-0.76c0.018-0.08,0.035-0.162,0.055-0.248
		c0.02-0.088,0.033-0.17,0.047-0.246c0.012-0.078,0.02-0.143,0.027-0.199c0.006-0.055,0.01-0.094,0.01-0.121
		c0-0.172-0.02-0.311-0.055-0.417c-0.037-0.104-0.098-0.183-0.178-0.239c-0.078-0.055-0.186-0.093-0.314-0.109
		c-0.129-0.02-0.283-0.026-0.461-0.026h-0.438l0.178-0.999h4.559L324.585,249.604z M318.121,250.418
		c0,0.357,0.025,0.658,0.078,0.906c0.053,0.246,0.125,0.445,0.213,0.596c0.09,0.15,0.197,0.262,0.324,0.328s0.264,0.104,0.408,0.104
		c0.279,0,0.564-0.121,0.857-0.362s0.568-0.556,0.826-0.943c0.26-0.39,0.494-0.829,0.701-1.321c0.205-0.492,0.363-0.996,0.475-1.507
		l0.668-3.146c-0.137-0.174-0.322-0.303-0.557-0.396c-0.232-0.089-0.463-0.134-0.693-0.134c-0.357,0-0.688,0.1-0.99,0.293
		c-0.303,0.191-0.572,0.449-0.818,0.768c-0.242,0.318-0.459,0.681-0.646,1.094c-0.188,0.406-0.344,0.83-0.469,1.266
		c-0.121,0.436-0.217,0.865-0.281,1.297C318.152,249.686,318.121,250.07,318.121,250.418z"/>
	<path fill="#FFFFFF" d="M332.798,252.425c0.309,0,0.602-0.046,0.879-0.133c0.279-0.089,0.535-0.207,0.771-0.354
		c0.236-0.144,0.451-0.306,0.639-0.489c0.189-0.181,0.352-0.366,0.486-0.558c0.074,0.092,0.133,0.209,0.174,0.354
		c0.045,0.146,0.066,0.298,0.066,0.457c0,0.229-0.074,0.47-0.223,0.723s-0.375,0.483-0.68,0.698
		c-0.307,0.212-0.695,0.389-1.166,0.525c-0.473,0.14-1.031,0.209-1.678,0.209c-0.58,0-1.127-0.08-1.639-0.239
		c-0.512-0.162-0.963-0.402-1.346-0.726c-0.385-0.326-0.688-0.733-0.912-1.223c-0.221-0.488-0.332-1.066-0.332-1.725
		c0-0.471,0.063-0.961,0.188-1.473c0.123-0.511,0.305-1.012,0.551-1.503c0.244-0.487,0.545-0.956,0.906-1.396
		c0.359-0.439,0.777-0.828,1.252-1.161c0.477-0.332,1.008-0.595,1.596-0.789c0.59-0.194,1.232-0.293,1.93-0.293
		c0.906,0,1.609,0.194,2.107,0.589c0.5,0.393,0.75,0.938,0.75,1.643c0,0.514-0.143,1-0.426,1.47
		c-0.283,0.469-0.678,0.879-1.176,1.235c-0.5,0.354-1.096,0.637-1.785,0.846c-0.689,0.21-1.443,0.314-2.258,0.314
		c-0.104,0-0.219,0-0.342,0s-0.244-0.006-0.359-0.019c-0.02,0.124-0.031,0.248-0.035,0.373c-0.002,0.127-0.004,0.241-0.004,0.35
		c0,0.735,0.17,1.298,0.514,1.695C331.591,252.227,332.109,252.425,332.798,252.425z M333.464,244.47
		c-0.309,0-0.602,0.116-0.879,0.347c-0.277,0.231-0.527,0.533-0.748,0.9c-0.223,0.369-0.414,0.784-0.572,1.246
		c-0.162,0.458-0.279,0.913-0.354,1.364h0.166c0.471,0,0.906-0.062,1.311-0.185c0.402-0.125,0.754-0.302,1.055-0.533
		c0.301-0.23,0.533-0.508,0.705-0.829c0.17-0.32,0.254-0.681,0.254-1.082c0-0.388-0.082-0.689-0.246-0.904
		C333.992,244.578,333.761,244.47,333.464,244.47z"/>
	<path fill="#FFFFFF" d="M349.414,251.917c0-0.543,0.102-1.295,0.305-2.258l0.305-1.501c0.025-0.122,0.057-0.273,0.094-0.451
		c0.037-0.18,0.074-0.367,0.111-0.561c0.035-0.193,0.068-0.39,0.096-0.584c0.027-0.195,0.041-0.369,0.041-0.522
		c0-0.117-0.012-0.241-0.033-0.37s-0.063-0.247-0.121-0.352c-0.057-0.104-0.137-0.189-0.238-0.26
		c-0.102-0.065-0.236-0.102-0.4-0.102c-0.219,0-0.434,0.073-0.645,0.219c-0.213,0.143-0.418,0.334-0.617,0.571
		c-0.195,0.239-0.385,0.511-0.563,0.815c-0.18,0.306-0.342,0.619-0.486,0.938c-0.143,0.319-0.268,0.635-0.373,0.94
		c-0.105,0.31-0.188,0.588-0.24,0.834l-0.963,4.395h-2.84l1.59-7.537c0.021-0.08,0.035-0.165,0.053-0.252
		c0.016-0.084,0.029-0.166,0.039-0.242c0.014-0.078,0.021-0.145,0.029-0.201c0.006-0.055,0.01-0.095,0.01-0.119
		c0-0.174-0.02-0.31-0.057-0.418c-0.039-0.104-0.096-0.185-0.176-0.238c-0.082-0.057-0.184-0.094-0.311-0.113
		c-0.127-0.017-0.279-0.025-0.457-0.025h-0.346l0.168-1.008h4.209l-0.211,2.024h0.119c0.24-0.376,0.49-0.702,0.744-0.981
		c0.254-0.274,0.531-0.505,0.83-0.687c0.295-0.183,0.615-0.318,0.965-0.408c0.35-0.089,0.732-0.134,1.152-0.134
		c0.398,0,0.738,0.058,1.012,0.177c0.275,0.116,0.496,0.274,0.666,0.476s0.291,0.433,0.365,0.693
		c0.074,0.266,0.111,0.54,0.111,0.829c0,0.16-0.01,0.33-0.033,0.515c-0.021,0.182-0.049,0.363-0.082,0.551s-0.07,0.369-0.111,0.556
		c-0.039,0.183-0.076,0.36-0.107,0.524l-0.424,2.024c-0.074,0.349-0.135,0.668-0.186,0.97c-0.049,0.297-0.074,0.58-0.074,0.847
		c0,0.274,0.057,0.487,0.172,0.637c0.115,0.146,0.279,0.222,0.494,0.222c0.199,0,0.379-0.035,0.543-0.111
		c0.16-0.071,0.352-0.18,0.566-0.322l0.455,0.638c-0.148,0.161-0.316,0.32-0.51,0.479c-0.189,0.156-0.406,0.296-0.645,0.419
		c-0.236,0.125-0.5,0.223-0.789,0.298c-0.289,0.072-0.607,0.109-0.953,0.109c-0.729,0-1.287-0.172-1.676-0.516
		C349.607,253.003,349.414,252.525,349.414,251.917z"/>
	<path fill="#FFFFFF" d="M362.205,252.045c0-0.055,0.002-0.119,0.01-0.193c0.008-0.072,0.014-0.149,0.023-0.23
		c0.008-0.08,0.02-0.154,0.025-0.227c0.012-0.072,0.021-0.133,0.033-0.182h-0.156c-0.277,0.396-0.551,0.752-0.818,1.073
		c-0.27,0.319-0.555,0.597-0.855,0.827c-0.303,0.231-0.631,0.41-0.98,0.537c-0.354,0.129-0.752,0.188-1.203,0.188
		c-0.406,0-0.746-0.056-1.025-0.171c-0.279-0.114-0.5-0.268-0.666-0.458c-0.168-0.19-0.287-0.415-0.361-0.671
		s-0.111-0.523-0.111-0.801c0-0.313,0.037-0.657,0.111-1.035c0.074-0.376,0.145-0.725,0.213-1.045l0.686-3.342
		c0.049-0.258,0.09-0.489,0.119-0.702c0.031-0.212,0.047-0.365,0.047-0.47c0-0.254-0.076-0.422-0.23-0.502
		c-0.156-0.08-0.412-0.119-0.77-0.119h-0.344l0.168-1.008h4.549l-1.246,5.668c-0.037,0.146-0.074,0.314-0.111,0.5
		s-0.07,0.369-0.104,0.556c-0.029,0.185-0.057,0.36-0.078,0.526s-0.031,0.31-0.031,0.426c0,0.276,0.059,0.498,0.174,0.662
		c0.117,0.162,0.33,0.246,0.641,0.246c0.277,0,0.563-0.127,0.854-0.375c0.293-0.25,0.572-0.574,0.842-0.974
		c0.268-0.397,0.508-0.839,0.717-1.33c0.211-0.493,0.369-0.974,0.48-1.448l1.008-4.457h2.82l-1.285,6.157
		c-0.08,0.347-0.145,0.668-0.191,0.968c-0.051,0.301-0.074,0.582-0.074,0.85c0,0.275,0.057,0.486,0.17,0.637
		c0.115,0.146,0.279,0.221,0.496,0.221c0.197,0,0.379-0.035,0.541-0.109c0.162-0.073,0.354-0.182,0.568-0.324l0.461,0.639
		c-0.152,0.161-0.326,0.319-0.518,0.475c-0.189,0.156-0.404,0.301-0.643,0.423c-0.238,0.124-0.5,0.223-0.791,0.296
		c-0.291,0.074-0.607,0.109-0.951,0.109c-0.42,0-0.77-0.047-1.049-0.143c-0.281-0.094-0.51-0.223-0.682-0.388
		s-0.297-0.355-0.369-0.576C362.244,252.536,362.205,252.298,362.205,252.045z"/>
	<path fill="#FFFFFF" d="M373.333,252.425c0.307,0,0.6-0.046,0.879-0.133c0.277-0.089,0.535-0.207,0.771-0.354
		c0.236-0.144,0.447-0.306,0.637-0.489c0.188-0.181,0.352-0.366,0.486-0.558c0.074,0.092,0.133,0.209,0.176,0.354
		s0.064,0.298,0.064,0.457c0,0.229-0.074,0.47-0.223,0.723s-0.375,0.483-0.68,0.698c-0.305,0.212-0.695,0.389-1.166,0.525
		c-0.473,0.14-1.031,0.209-1.68,0.209c-0.578,0-1.125-0.08-1.637-0.239c-0.512-0.162-0.961-0.402-1.346-0.726
		c-0.385-0.326-0.689-0.733-0.91-1.223c-0.223-0.488-0.334-1.066-0.334-1.725c0-0.471,0.061-0.961,0.188-1.473
		c0.121-0.511,0.305-1.012,0.551-1.503c0.242-0.487,0.545-0.956,0.904-1.396c0.361-0.439,0.779-0.828,1.254-1.161
		c0.475-0.332,1.006-0.595,1.596-0.789c0.588-0.194,1.23-0.293,1.928-0.293c0.906,0,1.611,0.194,2.111,0.589
		c0.498,0.393,0.746,0.938,0.746,1.643c0,0.514-0.141,1-0.426,1.47c-0.281,0.469-0.676,0.879-1.174,1.235
		c-0.498,0.354-1.094,0.637-1.787,0.846c-0.688,0.21-1.441,0.314-2.256,0.314c-0.104,0-0.219,0-0.342,0s-0.244-0.006-0.361-0.019
		c-0.02,0.124-0.027,0.248-0.033,0.373c-0.002,0.127-0.004,0.241-0.004,0.35c0,0.735,0.17,1.298,0.514,1.695
		C372.125,252.227,372.642,252.425,373.333,252.425z M373.998,244.47c-0.307,0-0.602,0.116-0.877,0.347
		c-0.279,0.231-0.527,0.533-0.748,0.9c-0.223,0.369-0.414,0.784-0.572,1.246c-0.16,0.458-0.277,0.913-0.354,1.364h0.166
		c0.471,0,0.904-0.062,1.311-0.185c0.404-0.125,0.754-0.302,1.053-0.533c0.301-0.23,0.535-0.508,0.705-0.829
		c0.17-0.32,0.254-0.681,0.254-1.082c0-0.388-0.082-0.689-0.244-0.904C374.525,244.578,374.294,244.47,373.998,244.47z"/>
	<path fill="#FFFFFF" d="M381.982,252.729c0.26,0,0.5-0.03,0.723-0.096c0.223-0.064,0.414-0.156,0.574-0.275
		c0.158-0.121,0.285-0.27,0.379-0.444c0.092-0.177,0.139-0.378,0.139-0.606c0-0.215-0.043-0.406-0.125-0.574
		c-0.084-0.166-0.213-0.32-0.389-0.465c-0.176-0.146-0.398-0.291-0.666-0.431c-0.268-0.144-0.588-0.303-0.957-0.481
		c-0.369-0.172-0.705-0.357-1.004-0.556c-0.299-0.194-0.555-0.417-0.764-0.655c-0.209-0.24-0.373-0.51-0.484-0.806
		c-0.115-0.295-0.172-0.63-0.172-0.999c0-0.461,0.098-0.877,0.295-1.248c0.197-0.369,0.48-0.687,0.852-0.945
		c0.371-0.265,0.82-0.465,1.346-0.604c0.527-0.136,1.123-0.208,1.791-0.208c0.635,0,1.174,0.05,1.615,0.148
		c0.439,0.097,0.799,0.23,1.072,0.396c0.273,0.161,0.471,0.353,0.592,0.565c0.119,0.218,0.18,0.438,0.18,0.666
		c0,0.507-0.193,0.875-0.584,1.104c-0.387,0.229-0.918,0.34-1.592,0.34c0-0.252-0.021-0.507-0.072-0.763
		c-0.049-0.254-0.133-0.49-0.25-0.698c-0.115-0.211-0.268-0.378-0.453-0.509c-0.188-0.129-0.414-0.194-0.686-0.194
		c-0.246,0-0.467,0.037-0.66,0.106c-0.191,0.071-0.361,0.167-0.498,0.282c-0.141,0.125-0.246,0.265-0.318,0.426
		c-0.076,0.16-0.113,0.333-0.113,0.517c0,0.212,0.043,0.394,0.125,0.548c0.084,0.152,0.215,0.297,0.389,0.434
		c0.178,0.136,0.4,0.271,0.672,0.404c0.271,0.131,0.592,0.28,0.963,0.447c0.406,0.186,0.76,0.381,1.055,0.588
		c0.295,0.205,0.539,0.43,0.734,0.674c0.193,0.244,0.34,0.509,0.436,0.797c0.096,0.287,0.143,0.605,0.143,0.957
		c0,0.512-0.096,0.972-0.291,1.379c-0.193,0.406-0.484,0.752-0.873,1.035c-0.389,0.285-0.869,0.502-1.443,0.651
		c-0.572,0.152-1.238,0.226-1.998,0.226c-0.543,0-1.033-0.045-1.477-0.137c-0.439-0.094-0.816-0.229-1.127-0.406
		c-0.311-0.18-0.553-0.397-0.723-0.658c-0.168-0.258-0.254-0.551-0.254-0.879c0-0.295,0.061-0.545,0.176-0.746
		c0.119-0.204,0.271-0.369,0.459-0.495c0.188-0.128,0.402-0.22,0.648-0.276c0.242-0.062,0.488-0.091,0.742-0.091
		c0,0.339,0.033,0.663,0.102,0.97c0.068,0.313,0.176,0.586,0.324,0.823c0.146,0.236,0.342,0.427,0.578,0.562
		C381.345,252.66,381.636,252.729,381.982,252.729z"/>
	<path fill="#FFFFFF" d="M392.613,252.314c0.295,0,0.561-0.051,0.801-0.148c0.242-0.098,0.467-0.214,0.678-0.352l0.436,0.723
		c-0.207,0.178-0.432,0.348-0.66,0.508c-0.232,0.161-0.484,0.301-0.754,0.423c-0.271,0.12-0.564,0.216-0.877,0.284
		c-0.313,0.072-0.648,0.105-1.012,0.105c-0.346,0-0.666-0.043-0.967-0.133c-0.301-0.089-0.561-0.226-0.781-0.408
		c-0.223-0.18-0.396-0.407-0.521-0.688c-0.127-0.277-0.189-0.604-0.189-0.979c0-0.11,0.002-0.234,0.014-0.369
		c0.01-0.135,0.023-0.275,0.041-0.417c0.021-0.144,0.041-0.283,0.064-0.421c0.023-0.14,0.049-0.269,0.074-0.383l1.139-5.246h-1.461
		l0.203-0.974c0.271,0,0.566-0.047,0.887-0.138c0.322-0.094,0.648-0.243,0.986-0.455c0.336-0.208,0.672-0.48,1.008-0.82
		s0.652-0.754,0.947-1.24h1.102l-0.488,2.33h2.285l-0.26,1.297h-2.314l-1.135,5.188c-0.07,0.277-0.115,0.53-0.145,0.754
		c-0.027,0.227-0.041,0.43-0.041,0.607c0,0.313,0.086,0.553,0.258,0.714C392.095,252.232,392.328,252.314,392.613,252.314z"/>
	<path fill="#FFFFFF" d="M397.818,245.182c0-0.232-0.078-0.398-0.23-0.505c-0.154-0.099-0.408-0.149-0.768-0.149h-0.346l0.168-1.01
		h4.191l-0.4,2.601h0.096c0.215-0.458,0.434-0.858,0.65-1.203c0.221-0.345,0.459-0.636,0.723-0.868
		c0.262-0.236,0.559-0.412,0.893-0.531c0.334-0.121,0.723-0.183,1.166-0.183c0.67,0,1.172,0.129,1.498,0.381
		c0.328,0.254,0.49,0.619,0.49,1.101c0,0.653-0.189,1.141-0.574,1.461c-0.381,0.324-0.938,0.48-1.664,0.48
		c0-0.283-0.014-0.54-0.043-0.771c-0.025-0.231-0.076-0.43-0.145-0.592c-0.07-0.164-0.168-0.287-0.287-0.375
		c-0.119-0.084-0.271-0.129-0.447-0.129c-0.178,0-0.367,0.073-0.564,0.219c-0.197,0.144-0.396,0.343-0.592,0.595
		c-0.197,0.253-0.391,0.553-0.578,0.901c-0.188,0.348-0.369,0.729-0.543,1.14c-0.17,0.407-0.33,0.838-0.471,1.288
		c-0.145,0.449-0.262,0.904-0.361,1.367l-0.723,3.275h-2.857l1.607-7.613c0.021-0.105,0.045-0.24,0.07-0.414
		S397.818,245.318,397.818,245.182z"/>
	<path fill="#FFFFFF" d="M414.412,253.857c-0.563,0-1.008-0.129-1.35-0.385c-0.34-0.255-0.51-0.628-0.51-1.121
		c0-0.199,0.012-0.391,0.027-0.578c0.018-0.188,0.053-0.408,0.102-0.651h-0.131c-0.234,0.438-0.465,0.828-0.697,1.17
		c-0.232,0.341-0.488,0.628-0.773,0.858c-0.283,0.23-0.6,0.406-0.947,0.526c-0.35,0.119-0.754,0.181-1.217,0.181
		c-0.451,0-0.846-0.09-1.186-0.265c-0.34-0.174-0.621-0.418-0.846-0.725c-0.227-0.31-0.395-0.677-0.51-1.097
		c-0.115-0.422-0.17-0.881-0.17-1.375c0-0.492,0.053-1.008,0.17-1.547c0.111-0.541,0.285-1.072,0.514-1.597
		c0.229-0.522,0.512-1.024,0.848-1.498c0.336-0.476,0.725-0.894,1.166-1.249c0.438-0.359,0.93-0.643,1.475-0.855
		c0.541-0.215,1.133-0.32,1.775-0.32c0.248,0,0.498,0.021,0.754,0.061c0.254,0.041,0.5,0.092,0.734,0.151
		c0.234,0.063,0.455,0.133,0.66,0.209c0.207,0.077,0.381,0.156,0.523,0.235l0.998-0.452h1.01l-1.248,5.909
		c-0.025,0.107-0.055,0.246-0.094,0.416c-0.037,0.173-0.074,0.356-0.105,0.553c-0.037,0.195-0.063,0.382-0.088,0.563
		c-0.025,0.185-0.039,0.338-0.039,0.463c0,0.312,0.063,0.547,0.186,0.7c0.125,0.154,0.283,0.23,0.48,0.23
		c0.18,0,0.352-0.036,0.514-0.113c0.164-0.078,0.344-0.175,0.541-0.284l0.418,0.762c-0.16,0.121-0.342,0.248-0.545,0.381
		c-0.205,0.135-0.432,0.256-0.682,0.365c-0.248,0.111-0.521,0.205-0.814,0.271C415.066,253.823,414.75,253.857,414.412,253.857z
		 M409.085,250.418c0,0.364,0.025,0.667,0.076,0.915c0.055,0.247,0.125,0.444,0.213,0.597c0.088,0.149,0.197,0.26,0.324,0.325
		c0.125,0.063,0.262,0.097,0.412,0.097c0.275,0,0.564-0.121,0.859-0.362s0.574-0.558,0.832-0.949c0.258-0.39,0.49-0.832,0.699-1.326
		c0.207-0.493,0.361-0.994,0.467-1.497l0.666-3.146c-0.121-0.178-0.295-0.312-0.514-0.396s-0.453-0.13-0.699-0.13
		c-0.371,0-0.709,0.094-1.014,0.286c-0.305,0.191-0.582,0.445-0.826,0.768c-0.246,0.323-0.465,0.687-0.65,1.092
		c-0.188,0.408-0.348,0.828-0.475,1.269c-0.125,0.438-0.221,0.87-0.281,1.294C409.117,249.68,409.085,250.064,409.085,250.418z"/>
	<path fill="#FFFFFF" d="M428.712,252.425c0.332,0,0.635-0.046,0.902-0.133c0.268-0.089,0.51-0.208,0.725-0.356
		c0.217-0.146,0.408-0.314,0.576-0.5c0.164-0.184,0.313-0.373,0.441-0.563c0.08,0.074,0.146,0.185,0.203,0.329
		c0.059,0.145,0.084,0.311,0.084,0.503c0,0.248-0.072,0.498-0.217,0.757c-0.145,0.254-0.371,0.484-0.676,0.691
		s-0.693,0.377-1.162,0.509c-0.469,0.134-1.027,0.198-1.672,0.198c-0.576,0-1.117-0.079-1.625-0.238
		c-0.51-0.162-0.953-0.403-1.33-0.734c-0.381-0.322-0.68-0.731-0.904-1.217c-0.221-0.49-0.33-1.061-0.33-1.722
		c0-0.47,0.057-0.96,0.174-1.468c0.115-0.508,0.293-1.008,0.527-1.502c0.23-0.486,0.523-0.953,0.873-1.394
		c0.348-0.438,0.752-0.828,1.215-1.16c0.463-0.336,0.982-0.599,1.557-0.797s1.201-0.297,1.887-0.297
		c0.521,0,0.977,0.054,1.354,0.161c0.381,0.109,0.691,0.253,0.936,0.436c0.24,0.182,0.426,0.395,0.541,0.641
		c0.117,0.242,0.176,0.498,0.176,0.771c0,0.199-0.043,0.392-0.125,0.58c-0.084,0.19-0.217,0.356-0.402,0.511
		c-0.186,0.15-0.426,0.271-0.717,0.362c-0.293,0.093-0.648,0.14-1.066,0.14c0-0.33-0.029-0.648-0.088-0.949
		c-0.061-0.299-0.146-0.56-0.266-0.783c-0.117-0.225-0.26-0.402-0.43-0.534c-0.174-0.128-0.369-0.192-0.598-0.192
		c-0.27,0-0.525,0.09-0.764,0.273c-0.236,0.182-0.455,0.421-0.652,0.721c-0.195,0.301-0.369,0.645-0.521,1.026
		c-0.148,0.386-0.279,0.782-0.387,1.192c-0.111,0.41-0.189,0.814-0.246,1.213c-0.057,0.396-0.084,0.76-0.084,1.088
		c0,0.771,0.176,1.369,0.527,1.796C427.5,252.212,428.021,252.425,428.712,252.425z"/>
	<path fill="#FFFFFF" d="M438.683,252.425c0.311,0,0.602-0.046,0.879-0.133c0.279-0.089,0.535-0.207,0.773-0.354
		c0.238-0.144,0.451-0.306,0.641-0.489c0.188-0.181,0.35-0.366,0.484-0.558c0.074,0.092,0.133,0.209,0.176,0.354
		c0.041,0.146,0.064,0.298,0.064,0.457c0,0.229-0.076,0.47-0.223,0.723s-0.375,0.483-0.68,0.698
		c-0.305,0.212-0.695,0.389-1.168,0.525c-0.469,0.14-1.029,0.209-1.676,0.209c-0.582,0-1.125-0.08-1.639-0.239
		c-0.514-0.162-0.961-0.402-1.348-0.726c-0.385-0.326-0.688-0.733-0.91-1.223c-0.221-0.488-0.332-1.066-0.332-1.725
		c0-0.471,0.061-0.961,0.186-1.473c0.125-0.511,0.307-1.012,0.553-1.503c0.242-0.489,0.543-0.956,0.904-1.396
		c0.359-0.439,0.777-0.828,1.254-1.161c0.475-0.332,1.004-0.595,1.596-0.789c0.59-0.194,1.23-0.293,1.928-0.293
		c0.906,0,1.609,0.194,2.109,0.589c0.498,0.393,0.748,0.938,0.748,1.643c0,0.514-0.143,1-0.426,1.47
		c-0.283,0.469-0.676,0.879-1.176,1.235c-0.5,0.354-1.094,0.637-1.785,0.846c-0.689,0.21-1.441,0.314-2.258,0.314
		c-0.104,0-0.217,0-0.34,0s-0.244-0.006-0.363-0.019c-0.018,0.124-0.027,0.248-0.031,0.373c-0.004,0.127-0.006,0.241-0.006,0.35
		c0,0.735,0.174,1.298,0.514,1.695C437.476,252.227,437.996,252.425,438.683,252.425z M439.349,244.47
		c-0.309,0-0.602,0.116-0.877,0.347c-0.275,0.231-0.525,0.533-0.75,0.9c-0.221,0.369-0.414,0.784-0.572,1.246
		c-0.162,0.458-0.275,0.913-0.354,1.364h0.168c0.469,0,0.904-0.062,1.311-0.185c0.402-0.125,0.754-0.302,1.055-0.533
		c0.299-0.23,0.531-0.508,0.703-0.829c0.17-0.32,0.254-0.681,0.254-1.082c0-0.388-0.082-0.689-0.246-0.904
		C439.878,244.579,439.648,244.47,439.349,244.47z"/>
	<path fill="#FFFFFF" d="M447.63,252.352c0.195,0,0.377-0.037,0.545-0.109c0.168-0.076,0.357-0.184,0.574-0.324l0.455,0.637
		c-0.15,0.161-0.318,0.319-0.512,0.479c-0.191,0.156-0.406,0.296-0.645,0.421c-0.238,0.123-0.5,0.221-0.789,0.296
		c-0.291,0.075-0.607,0.109-0.953,0.109c-0.727,0-1.285-0.17-1.678-0.514c-0.387-0.344-0.578-0.818-0.578-1.431
		c0-0.542,0.104-1.296,0.305-2.258l1.646-7.771c0.018-0.077,0.037-0.163,0.055-0.249c0.02-0.086,0.033-0.167,0.047-0.244
		c0.016-0.076,0.021-0.145,0.027-0.199c0.008-0.057,0.01-0.094,0.01-0.12c0-0.173-0.018-0.313-0.055-0.416
		c-0.039-0.105-0.096-0.187-0.176-0.242c-0.082-0.056-0.188-0.091-0.316-0.108c-0.127-0.02-0.283-0.029-0.463-0.029h-0.396
		l0.176-0.997h4.578l-2.256,10.396c-0.076,0.348-0.135,0.669-0.186,0.969c-0.051,0.301-0.074,0.582-0.074,0.848
		c0,0.275,0.059,0.486,0.172,0.638C447.257,252.273,447.419,252.352,447.63,252.352z"/>
	<path fill="#FFFFFF" d="M455.531,252.425c0.307,0,0.6-0.046,0.879-0.133c0.275-0.089,0.533-0.207,0.771-0.354
		c0.236-0.144,0.449-0.306,0.639-0.489c0.186-0.181,0.35-0.366,0.484-0.558c0.074,0.092,0.135,0.209,0.178,0.354
		s0.064,0.298,0.064,0.457c0,0.229-0.076,0.47-0.223,0.723c-0.148,0.253-0.377,0.483-0.682,0.698
		c-0.305,0.212-0.691,0.389-1.162,0.525c-0.475,0.14-1.033,0.209-1.682,0.209c-0.58,0-1.125-0.08-1.639-0.239
		c-0.514-0.162-0.959-0.402-1.344-0.726c-0.387-0.326-0.691-0.733-0.91-1.223c-0.225-0.488-0.334-1.066-0.334-1.725
		c0-0.471,0.063-0.961,0.184-1.473c0.125-0.511,0.307-1.012,0.551-1.503c0.244-0.489,0.547-0.956,0.908-1.396
		s0.775-0.828,1.252-1.161c0.475-0.332,1.006-0.595,1.598-0.789c0.588-0.194,1.23-0.293,1.928-0.293
		c0.902,0,1.607,0.194,2.107,0.589c0.498,0.393,0.748,0.938,0.748,1.643c0,0.514-0.143,1-0.428,1.47
		c-0.281,0.469-0.672,0.879-1.172,1.235c-0.5,0.354-1.094,0.637-1.785,0.846c-0.689,0.21-1.443,0.314-2.26,0.314
		c-0.104,0-0.217,0-0.342,0c-0.121,0-0.242-0.006-0.361-0.019c-0.018,0.124-0.029,0.248-0.029,0.373
		c-0.004,0.127-0.008,0.241-0.008,0.35c0,0.735,0.174,1.298,0.514,1.695C454.32,252.227,454.837,252.425,455.531,252.425z
		 M456.195,244.47c-0.309,0-0.602,0.116-0.879,0.347c-0.275,0.231-0.525,0.533-0.748,0.9c-0.221,0.369-0.414,0.784-0.574,1.246
		c-0.16,0.458-0.277,0.913-0.352,1.364h0.166c0.471,0,0.904-0.062,1.311-0.185c0.404-0.125,0.754-0.302,1.055-0.533
		c0.299-0.23,0.533-0.508,0.703-0.829c0.17-0.32,0.256-0.681,0.256-1.082c0-0.388-0.082-0.689-0.246-0.904
		C456.718,244.579,456.492,244.47,456.195,244.47z"/>
	<path fill="#FFFFFF" d="M462.865,241.889c0.02-0.08,0.035-0.164,0.057-0.25c0.018-0.087,0.033-0.168,0.045-0.246
		c0.014-0.076,0.021-0.142,0.029-0.197c0.006-0.055,0.008-0.094,0.008-0.12c0-0.173-0.018-0.313-0.055-0.417
		c-0.039-0.104-0.096-0.184-0.174-0.241c-0.082-0.056-0.188-0.091-0.314-0.108c-0.131-0.02-0.285-0.029-0.463-0.029h-0.438
		l0.178-0.997h4.598l-0.762,3.598c-0.023,0.117-0.063,0.267-0.113,0.444c-0.053,0.178-0.113,0.372-0.176,0.584
		c-0.064,0.207-0.135,0.425-0.211,0.641c-0.08,0.223-0.15,0.43-0.221,0.627c-0.064,0.198-0.129,0.375-0.182,0.535
		c-0.057,0.162-0.102,0.284-0.131,0.369h0.094c0.229-0.463,0.465-0.862,0.711-1.207c0.244-0.341,0.516-0.627,0.807-0.854
		c0.289-0.229,0.604-0.4,0.941-0.517c0.34-0.112,0.719-0.171,1.139-0.171c0.4,0,0.771,0.075,1.109,0.223
		c0.34,0.147,0.629,0.364,0.873,0.651s0.438,0.646,0.574,1.073c0.141,0.429,0.207,0.922,0.207,1.474
		c0,0.515-0.061,1.043-0.184,1.592c-0.125,0.55-0.307,1.087-0.549,1.614c-0.238,0.527-0.533,1.027-0.883,1.5
		c-0.348,0.473-0.748,0.884-1.201,1.239c-0.451,0.354-0.953,0.638-1.504,0.847c-0.549,0.208-1.141,0.313-1.773,0.313
		c-0.26,0-0.512-0.018-0.75-0.053c-0.24-0.037-0.463-0.088-0.67-0.15s-0.396-0.133-0.563-0.211c-0.172-0.08-0.316-0.166-0.434-0.26
		l-1.072,0.545h-1.063L462.865,241.889z M468.119,246.895c0-0.375-0.025-0.692-0.078-0.953c-0.055-0.26-0.127-0.469-0.217-0.629
		c-0.094-0.162-0.203-0.277-0.324-0.352c-0.125-0.072-0.252-0.111-0.389-0.111c-0.234,0-0.459,0.069-0.678,0.209
		c-0.215,0.14-0.422,0.319-0.611,0.543c-0.195,0.219-0.375,0.469-0.539,0.74c-0.164,0.276-0.311,0.553-0.436,0.825
		c-0.127,0.272-0.23,0.531-0.318,0.776c-0.088,0.24-0.148,0.439-0.186,0.596l-0.777,3.58c0.137,0.154,0.309,0.281,0.52,0.381
		c0.209,0.1,0.445,0.146,0.711,0.146c0.369,0,0.707-0.097,1.02-0.289c0.307-0.196,0.584-0.45,0.832-0.771
		c0.244-0.317,0.461-0.68,0.641-1.087c0.184-0.407,0.338-0.824,0.459-1.249c0.125-0.425,0.215-0.842,0.277-1.253
		C468.085,247.591,468.119,247.221,468.119,246.895z"/>
	<path fill="#FFFFFF" d="M474.177,245.182c0-0.232-0.08-0.398-0.232-0.505c-0.154-0.099-0.41-0.149-0.768-0.149h-0.344l0.166-1.01
		h4.193l-0.4,2.601h0.094c0.215-0.458,0.434-0.858,0.652-1.203s0.457-0.636,0.723-0.868c0.262-0.236,0.559-0.412,0.893-0.531
		c0.334-0.121,0.725-0.183,1.164-0.183c0.674,0,1.172,0.129,1.5,0.381c0.326,0.254,0.488,0.619,0.488,1.101
		c0,0.653-0.189,1.141-0.572,1.461c-0.383,0.324-0.936,0.48-1.662,0.48c0-0.283-0.016-0.54-0.045-0.771
		c-0.025-0.231-0.078-0.43-0.146-0.592c-0.07-0.164-0.168-0.287-0.287-0.375c-0.121-0.084-0.27-0.129-0.449-0.129
		c-0.176,0-0.361,0.073-0.563,0.219c-0.197,0.144-0.396,0.343-0.592,0.595c-0.197,0.253-0.393,0.553-0.58,0.901
		c-0.188,0.348-0.365,0.729-0.539,1.14c-0.174,0.407-0.33,0.838-0.473,1.288c-0.143,0.449-0.262,0.904-0.361,1.367l-0.721,3.275
		h-2.859l1.609-7.613c0.02-0.105,0.043-0.24,0.068-0.414C474.164,245.473,474.177,245.318,474.177,245.182z"/>
	<path fill="#FFFFFF" d="M490.771,253.857c-0.561,0-1.012-0.129-1.352-0.385c-0.338-0.255-0.51-0.628-0.51-1.121
		c0-0.199,0.01-0.391,0.031-0.578c0.016-0.188,0.051-0.408,0.1-0.651h-0.131c-0.234,0.438-0.467,0.828-0.697,1.17
		c-0.234,0.341-0.49,0.628-0.773,0.858c-0.285,0.23-0.6,0.406-0.947,0.526c-0.352,0.119-0.754,0.181-1.215,0.181
		c-0.451,0-0.848-0.09-1.188-0.265c-0.34-0.174-0.621-0.418-0.846-0.725c-0.227-0.31-0.398-0.677-0.512-1.097
		c-0.113-0.422-0.17-0.881-0.17-1.375c0-0.492,0.057-1.008,0.17-1.547c0.113-0.541,0.287-1.072,0.516-1.597
		c0.229-0.522,0.512-1.024,0.846-1.498c0.336-0.476,0.725-0.894,1.166-1.249c0.439-0.359,0.934-0.643,1.477-0.855
		c0.541-0.215,1.133-0.32,1.775-0.32c0.246,0,0.496,0.021,0.752,0.061c0.256,0.041,0.502,0.092,0.734,0.151
		c0.238,0.063,0.455,0.133,0.664,0.209c0.207,0.077,0.379,0.156,0.521,0.235l0.998-0.452h1.01l-1.248,5.909
		c-0.025,0.107-0.057,0.246-0.094,0.416c-0.035,0.173-0.072,0.356-0.105,0.553c-0.033,0.195-0.064,0.382-0.088,0.563
		c-0.025,0.185-0.037,0.338-0.037,0.463c0,0.312,0.061,0.547,0.186,0.7c0.123,0.154,0.281,0.23,0.48,0.23
		c0.178,0,0.35-0.036,0.512-0.113c0.166-0.078,0.344-0.175,0.541-0.284l0.418,0.762c-0.162,0.121-0.342,0.248-0.547,0.381
		c-0.203,0.135-0.43,0.256-0.68,0.365c-0.248,0.111-0.521,0.205-0.814,0.271C491.423,253.823,491.113,253.857,490.771,253.857z
		 M485.445,250.418c0,0.364,0.025,0.667,0.078,0.915c0.051,0.247,0.125,0.444,0.211,0.597c0.09,0.149,0.197,0.26,0.324,0.325
		c0.127,0.063,0.264,0.097,0.412,0.097c0.275,0,0.564-0.121,0.857-0.362c0.297-0.241,0.574-0.558,0.834-0.949
		c0.26-0.39,0.49-0.832,0.699-1.326c0.205-0.493,0.361-0.994,0.465-1.497l0.668-3.146c-0.121-0.178-0.295-0.312-0.512-0.396
		c-0.221-0.085-0.455-0.13-0.699-0.13c-0.373,0-0.709,0.094-1.018,0.286c-0.303,0.191-0.576,0.445-0.822,0.768
		c-0.248,0.323-0.467,0.687-0.652,1.092c-0.189,0.408-0.348,0.828-0.475,1.269c-0.125,0.438-0.221,0.87-0.283,1.294
		C485.472,249.68,485.445,250.064,485.445,250.418z"/>
	<path fill="#FFFFFF" d="M500.154,252.425c0.332,0,0.631-0.046,0.898-0.133c0.268-0.089,0.51-0.208,0.725-0.356
		c0.217-0.146,0.406-0.314,0.574-0.5c0.166-0.184,0.314-0.373,0.445-0.563c0.078,0.074,0.146,0.185,0.203,0.329
		s0.084,0.311,0.084,0.503c0,0.248-0.074,0.498-0.217,0.757c-0.146,0.254-0.373,0.484-0.678,0.691
		c-0.303,0.207-0.691,0.377-1.16,0.509c-0.469,0.134-1.025,0.198-1.676,0.198c-0.572,0-1.113-0.079-1.621-0.238
		c-0.51-0.162-0.953-0.403-1.332-0.734c-0.381-0.322-0.682-0.731-0.9-1.217c-0.223-0.49-0.334-1.061-0.334-1.722
		c0-0.47,0.059-0.96,0.174-1.468c0.119-0.508,0.293-1.008,0.529-1.502c0.232-0.486,0.523-0.953,0.873-1.394
		c0.35-0.438,0.752-0.828,1.217-1.16c0.461-0.336,0.98-0.599,1.555-0.797c0.572-0.198,1.203-0.297,1.885-0.297
		c0.523,0,0.979,0.054,1.355,0.161c0.377,0.109,0.689,0.253,0.936,0.436c0.238,0.182,0.424,0.395,0.541,0.641
		c0.117,0.242,0.174,0.498,0.174,0.771c0,0.199-0.041,0.392-0.125,0.58c-0.082,0.19-0.219,0.356-0.402,0.511
		c-0.184,0.15-0.426,0.271-0.715,0.362c-0.295,0.093-0.65,0.14-1.068,0.14c0-0.33-0.027-0.648-0.088-0.949
		c-0.059-0.299-0.146-0.56-0.266-0.783c-0.115-0.225-0.262-0.402-0.432-0.534c-0.168-0.128-0.363-0.192-0.594-0.192
		c-0.271,0-0.523,0.09-0.764,0.273c-0.238,0.182-0.455,0.421-0.652,0.721c-0.197,0.301-0.371,0.645-0.521,1.026
		c-0.152,0.386-0.281,0.782-0.391,1.192c-0.105,0.41-0.189,0.814-0.244,1.213c-0.057,0.396-0.082,0.76-0.082,1.088
		c0,0.771,0.172,1.369,0.525,1.796C498.937,252.212,499.46,252.425,500.154,252.425z"/>
	<path fill="#FFFFFF" d="M510.15,243.518l-1.313,6.158c-0.076,0.348-0.139,0.668-0.188,0.967c-0.049,0.301-0.072,0.584-0.072,0.85
		c0,0.275,0.059,0.488,0.172,0.637c0.115,0.146,0.273,0.221,0.484,0.221c0.199,0,0.381-0.035,0.547-0.109
		c0.168-0.073,0.357-0.182,0.572-0.323l0.451,0.638c-0.143,0.161-0.314,0.32-0.506,0.477c-0.191,0.158-0.406,0.299-0.646,0.421
		c-0.24,0.126-0.506,0.224-0.791,0.297c-0.287,0.074-0.605,0.11-0.947,0.11c-0.729,0-1.285-0.172-1.676-0.516
		c-0.389-0.341-0.582-0.818-0.582-1.428c0-0.271,0.021-0.596,0.072-0.973s0.129-0.807,0.232-1.285l0.738-3.524
		c0.021-0.077,0.037-0.161,0.055-0.25c0.014-0.085,0.027-0.167,0.041-0.243s0.02-0.143,0.027-0.199
		c0.006-0.057,0.006-0.096,0.006-0.121c0-0.17-0.016-0.311-0.053-0.416c-0.037-0.104-0.098-0.185-0.176-0.24
		c-0.08-0.055-0.184-0.091-0.311-0.111c-0.127-0.019-0.277-0.025-0.457-0.025h-0.344l0.168-1.008h4.494l0,0l0,0V243.518z
		 M508.835,241.814c-0.209,0-0.404-0.022-0.582-0.069c-0.178-0.046-0.336-0.117-0.471-0.218c-0.133-0.098-0.236-0.221-0.313-0.367
		s-0.113-0.322-0.113-0.52c0-0.277,0.045-0.517,0.143-0.707c0.096-0.194,0.221-0.354,0.383-0.48c0.158-0.129,0.35-0.221,0.564-0.277
		c0.215-0.06,0.439-0.088,0.676-0.088c0.203,0,0.396,0.021,0.576,0.063c0.184,0.046,0.344,0.113,0.48,0.214
		c0.143,0.099,0.252,0.224,0.334,0.375c0.082,0.149,0.125,0.329,0.125,0.541c0,0.259-0.051,0.485-0.152,0.68
		c-0.104,0.192-0.236,0.354-0.406,0.481c-0.17,0.125-0.363,0.219-0.578,0.281C509.287,241.783,509.064,241.814,508.835,241.814z"/>
	<path fill="#FFFFFF" d="M511.873,249.879c0-0.473,0.055-0.963,0.164-1.468c0.113-0.505,0.283-1.001,0.506-1.489
		c0.227-0.488,0.508-0.947,0.848-1.384c0.34-0.433,0.738-0.815,1.197-1.144c0.461-0.326,0.982-0.586,1.564-0.776
		c0.584-0.191,1.229-0.286,1.939-0.286c0.539,0,1.053,0.076,1.535,0.229c0.48,0.148,0.898,0.387,1.256,0.707
		c0.359,0.321,0.645,0.731,0.854,1.235s0.313,1.104,0.313,1.808c0,0.459-0.053,0.935-0.156,1.434
		c-0.105,0.502-0.27,0.992-0.486,1.476c-0.219,0.485-0.496,0.948-0.832,1.39c-0.336,0.438-0.73,0.826-1.188,1.16
		s-0.975,0.601-1.555,0.797c-0.58,0.197-1.229,0.293-1.941,0.293c-0.594,0-1.137-0.078-1.629-0.243
		c-0.494-0.164-0.916-0.41-1.268-0.74c-0.354-0.33-0.625-0.744-0.824-1.244C511.968,251.13,511.873,250.547,511.873,249.879z
		 M516.226,252.5c0.342,0,0.648-0.1,0.924-0.292c0.27-0.192,0.52-0.45,0.738-0.769c0.221-0.317,0.41-0.681,0.568-1.086
		c0.162-0.406,0.291-0.826,0.395-1.261c0.104-0.431,0.178-0.854,0.23-1.271c0.053-0.418,0.08-0.79,0.08-1.125
		c0-0.745-0.127-1.279-0.383-1.607c-0.26-0.326-0.607-0.49-1.053-0.49c-0.318,0-0.613,0.094-0.887,0.278
		c-0.271,0.185-0.518,0.433-0.738,0.738c-0.217,0.309-0.408,0.664-0.576,1.06c-0.168,0.398-0.309,0.813-0.422,1.234
		c-0.115,0.429-0.197,0.852-0.252,1.273c-0.059,0.422-0.086,0.81-0.086,1.161c0,0.772,0.129,1.323,0.391,1.658
		C515.416,252.333,515.773,252.5,516.226,252.5z M517.345,241.943c0.174-0.178,0.361-0.385,0.564-0.619
		c0.205-0.234,0.406-0.477,0.605-0.725c0.201-0.25,0.396-0.5,0.584-0.746c0.188-0.244,0.357-0.477,0.504-0.693h2.969l-0.055,0.195
		c-0.098,0.11-0.234,0.242-0.404,0.394c-0.176,0.153-0.371,0.315-0.588,0.487c-0.221,0.172-0.455,0.349-0.705,0.531
		c-0.248,0.182-0.502,0.358-0.764,0.529c-0.258,0.174-0.516,0.339-0.77,0.494c-0.252,0.159-0.488,0.291-0.711,0.402h-1.285
		L517.345,241.943z"/>
	<path fill="#FFFFFF" d="M530.093,251.917c0-0.543,0.104-1.295,0.305-2.258l0.307-1.501c0.023-0.122,0.055-0.273,0.094-0.451
		c0.037-0.18,0.072-0.367,0.109-0.561s0.066-0.39,0.096-0.584c0.027-0.195,0.043-0.369,0.043-0.522c0-0.117-0.012-0.241-0.031-0.37
		c-0.021-0.128-0.063-0.247-0.121-0.352c-0.059-0.104-0.139-0.189-0.24-0.26c-0.104-0.065-0.236-0.102-0.402-0.102
		c-0.215,0-0.43,0.073-0.641,0.219c-0.217,0.143-0.42,0.334-0.617,0.571c-0.197,0.239-0.387,0.511-0.563,0.815
		c-0.182,0.306-0.342,0.619-0.486,0.938s-0.27,0.635-0.375,0.94c-0.104,0.31-0.186,0.588-0.238,0.834l-0.963,4.395h-2.84l1.59-7.537
		c0.02-0.08,0.035-0.165,0.053-0.252c0.016-0.084,0.029-0.166,0.043-0.242c0.012-0.078,0.021-0.145,0.025-0.201
		c0.008-0.055,0.012-0.095,0.012-0.119c0-0.174-0.021-0.31-0.059-0.418c-0.035-0.104-0.094-0.185-0.176-0.238
		c-0.08-0.057-0.184-0.094-0.311-0.113c-0.125-0.017-0.277-0.025-0.457-0.025h-0.342l0.168-1.008h4.207l-0.211,2.024h0.119
		c0.24-0.376,0.488-0.702,0.742-0.981c0.258-0.274,0.535-0.505,0.828-0.687c0.295-0.183,0.619-0.318,0.967-0.408
		c0.352-0.089,0.734-0.134,1.154-0.134c0.398,0,0.738,0.058,1.012,0.177c0.273,0.116,0.496,0.274,0.668,0.476
		c0.17,0.201,0.289,0.433,0.363,0.693c0.072,0.266,0.111,0.54,0.111,0.829c0,0.16-0.012,0.33-0.031,0.515
		c-0.023,0.182-0.051,0.363-0.086,0.551c-0.033,0.185-0.072,0.369-0.111,0.556c-0.039,0.183-0.074,0.36-0.105,0.524l-0.426,2.024
		c-0.072,0.349-0.135,0.668-0.186,0.97c-0.049,0.299-0.072,0.58-0.072,0.847c0,0.274,0.057,0.487,0.172,0.637
		c0.113,0.146,0.279,0.222,0.492,0.222c0.199,0,0.379-0.035,0.543-0.111c0.166-0.071,0.354-0.18,0.568-0.322l0.455,0.638
		c-0.148,0.161-0.318,0.32-0.51,0.479c-0.191,0.15-0.406,0.296-0.645,0.419c-0.236,0.125-0.502,0.223-0.793,0.298
		c-0.287,0.072-0.604,0.109-0.951,0.109c-0.727,0-1.285-0.172-1.674-0.516C530.291,253.003,530.093,252.525,530.093,251.917z"/>
	<path fill="#FFFFFF" d="M540.195,252.119c0,0.314-0.049,0.582-0.145,0.802c-0.094,0.22-0.219,0.396-0.377,0.527
		c-0.158,0.134-0.334,0.228-0.533,0.286c-0.195,0.058-0.393,0.089-0.592,0.089c-0.461,0-0.832-0.113-1.115-0.333
		c-0.281-0.223-0.42-0.565-0.42-1.027c0-0.259,0.039-0.492,0.115-0.704c0.076-0.208,0.186-0.389,0.328-0.536
		c0.141-0.146,0.313-0.261,0.518-0.343c0.205-0.078,0.434-0.121,0.686-0.121c0.213,0,0.416,0.028,0.604,0.085
		c0.189,0.055,0.355,0.141,0.49,0.248c0.139,0.111,0.248,0.254,0.324,0.428C540.156,251.689,540.195,251.893,540.195,252.119z
		 M539.529,240.148h3.293l-3.273,9.205h-1.102L539.529,240.148z"/>
</g>
<g>
	<path fill="#FFFFFF" d="M200.725,138.787h10.4c3.036,0,5.071-1.475,6.108-4.424l0.842-2.316h2.816l-2.37,9.425h-28.907l0.421-2.265
		h0.71c1.827,0,3.094-0.321,3.805-0.961c0.71-0.641,1.188-1.522,1.435-2.646l5.608-26.484c0.104-0.491,0.158-0.922,0.158-1.291
		c0-0.842-0.247-1.483-0.739-1.922c-0.492-0.438-1.508-0.658-3.053-0.658h-0.685l0.473-2.264h27.17l-1.712,9.426h-2.815l0.158-1.659
		c0.087-0.842,0.132-1.333,0.132-1.474c0-2.405-1.282-3.606-3.845-3.606h-9.057l-3.08,14.347h13.006l-0.526,2.634h-13.004
		L200.725,138.787z"/>
	<path fill="#FFFFFF" d="M231.133,130.206c0,2.754,0.728,4.971,2.186,6.647c1.457,1.676,3.458,2.514,6.001,2.514
		c2.51,0,4.507-0.623,5.99-1.869s2.225-2.938,2.225-5.081c0-1.703-0.427-3.143-1.275-4.319c-0.854-1.175-2.691-2.562-5.517-4.159
		c-2.879-1.667-4.876-3.378-5.989-5.133c-1.115-1.755-1.671-3.739-1.671-5.951c0-3.106,1.175-5.62,3.526-7.542
		c2.352-1.921,5.538-2.882,9.557-2.882c3.124,0,5.616,0.543,7.476,1.633c1.86,1.087,2.792,2.484,2.792,4.186
		c0,2.493-1.59,3.738-4.765,3.738c0-2.105-0.5-3.772-1.5-5.001s-2.476-1.844-4.423-1.844c-2.142,0-3.897,0.615-5.266,1.844
		s-2.054,2.877-2.054,4.949c0,1.526,0.364,2.848,1.093,3.963c0.728,1.114,2.585,2.541,5.567,4.278
		c2.826,1.649,4.866,3.291,6.121,4.923c1.256,1.631,1.883,3.491,1.883,5.58c0,3.563-1.247,6.341-3.739,8.332
		c-2.493,1.992-5.959,2.988-10.399,2.988c-3.669,0-6.583-0.725-8.74-2.172c-2.159-1.447-3.238-3.286-3.238-5.515
		c0-1.247,0.39-2.242,1.172-2.988C228.926,130.579,229.923,130.206,231.133,130.206z"/>
	<path fill="#FFFFFF" d="M274.415,135.549c-0.141,0.667-0.209,1.168-0.209,1.5c0,1.44,1.298,2.159,3.896,2.159h1.238l-0.5,2.265
		h-16.77l0.5-2.265h1.239c1.807,0,3.062-0.311,3.764-0.935c0.702-0.624,1.175-1.513,1.421-2.672l6.345-29.934h-5.16
		c-2.562,0-4.361,1.475-5.396,4.423l-0.763,2.317h-2.791l2.266-9.425h30.352l-1.737,9.425h-2.791
		c0.175-1.405,0.263-2.501,0.263-3.29c0-2.301-1.185-3.45-3.555-3.45h-5.238L274.415,135.549z"/>
	<path fill="#FFFFFF" d="M299.926,128.599l-3.238,5.66c-0.685,1.194-1.027,2.195-1.027,3.001c0,1.3,1.001,1.948,3.001,1.948h1.264
		l-0.447,2.265h-13.322l0.448-2.265h1.026c0.966,0,1.772-0.249,2.422-0.75c0.649-0.5,1.51-1.653,2.58-3.462l18.771-32.014h4.211
		l5.107,33.357c0.178,1.124,0.482,1.882,0.922,2.277c0.438,0.395,1.193,0.592,2.264,0.592h0.711l-0.445,2.265h-14.666l0.42-2.265
		h1.266c2.579,0,3.869-0.912,3.869-2.738c0-0.737-0.035-1.351-0.104-1.843l-0.868-6.028H299.926L299.926,128.599z M312.378,116.462
		c-0.544-3.826-0.833-6.669-0.869-8.53c-0.825,1.948-2.229,4.626-4.211,8.029l-5.766,9.926h12.188L312.378,116.462z M311.248,99.191
		c2.054-2.371,3.974-5.01,5.765-7.925h5.768l-0.158,0.553c-2.758,3.21-5.88,5.906-9.372,8.083h-2.159L311.248,99.191z"/>
	<path fill="#FFFFFF" d="M360.478,141.473l0.477-2.265h0.158c1.525,0,2.598-0.285,3.209-0.855c0.615-0.571,1.072-1.418,1.371-2.541
		l6.16-28.803l-19.693,34.463h-2.895l-5.238-34.463l-6.029,28.539c-0.156,0.756-0.236,1.254-0.236,1.5
		c0,1.439,1.299,2.159,3.898,2.159h0.682l-0.473,2.265h-13.48l0.477-2.265h0.709c1.791,0,3.033-0.317,3.727-0.948
		c0.693-0.632,1.16-1.517,1.408-2.659l5.66-26.695c0.139-0.667,0.211-1.168,0.211-1.502c0-1.438-1.301-2.159-3.898-2.159h-0.684
		l0.475-2.264h12.242l4.58,30.723l17.641-30.723h12.029l-0.498,2.264h-0.686c-1.721,0-2.957,0.329-3.713,0.988
		c-0.756,0.657-1.264,1.618-1.523,2.883l-5.609,26.433c-0.141,0.667-0.211,1.167-0.211,1.5c0,1.438,1.291,2.158,3.871,2.158h0.711
		l-0.502,2.264H360.48L360.478,141.473L360.478,141.473z"/>
	<path fill="#FFFFFF" d="M406.683,102.377c4.178,0,7.547,1.3,10.109,3.897c2.564,2.598,3.844,6.24,3.844,10.926
		c0,6.161-2,11.848-6.002,17.061c-4.002,5.212-9.137,7.817-15.4,7.817c-4.266,0-7.688-1.345-10.268-4.04
		c-2.58-2.694-3.871-6.333-3.871-10.913c0-6.178,2.021-11.848,6.057-17.009C395.189,104.957,400.367,102.377,406.683,102.377z
		 M399.548,139.102c4.479,0,8.123-2.479,10.941-7.437c2.813-4.959,4.225-10.263,4.225-15.916c0-3.352-0.742-5.931-2.227-7.74
		c-1.484-1.807-3.566-2.711-6.252-2.711c-4.494,0-8.16,2.489-10.99,7.463c-2.836,4.976-4.254,10.273-4.254,15.888
		c0,3.371,0.766,5.955,2.291,7.753C394.808,138.204,396.9,139.102,399.548,139.102z"/>
	<path fill="#FFFFFF" d="M429.117,130.206c0,2.754,0.727,4.971,2.186,6.647c1.455,1.676,3.457,2.514,6.002,2.514
		c2.51,0,4.506-0.623,5.986-1.869c1.486-1.246,2.229-2.938,2.229-5.081c0-1.703-0.426-3.143-1.277-4.319
		c-0.852-1.175-2.689-2.562-5.518-4.159c-2.875-1.667-4.873-3.378-5.986-5.133c-1.115-1.755-1.674-3.739-1.674-5.951
		c0-3.106,1.178-5.62,3.527-7.542c2.355-1.921,5.537-2.882,9.557-2.882c3.127,0,5.617,0.543,7.479,1.633
		c1.859,1.087,2.791,2.484,2.791,4.186c0,2.493-1.588,3.738-4.766,3.738c0-2.105-0.5-3.772-1.502-5.001
		c-0.998-1.229-2.477-1.844-4.422-1.844c-2.145,0-3.898,0.615-5.266,1.844c-1.369,1.229-2.053,2.877-2.053,4.949
		c0,1.526,0.363,2.848,1.09,3.963c0.729,1.114,2.584,2.541,5.568,4.278c2.826,1.649,4.863,3.291,6.119,4.923
		c1.256,1.631,1.883,3.491,1.883,5.58c0,3.563-1.244,6.341-3.738,8.332c-2.49,1.992-5.957,2.988-10.398,2.988
		c-3.668,0-6.582-0.725-8.74-2.172c-2.16-1.447-3.238-3.286-3.238-5.515c0-1.247,0.391-2.242,1.172-2.988
		C426.91,130.579,427.904,130.206,429.117,130.206z"/>
	<path fill="#FFFFFF" d="M471.742,139.209h0.709c2.984,0,4.746-1.29,5.291-3.87l5.607-26.434c0.143-0.667,0.209-1.167,0.209-1.501
		c0-1.438-1.299-2.158-3.895-2.158h-0.688l0.477-2.264h15.109c4.898,0,8.672,1.268,11.324,3.804
		c2.646,2.537,3.975,6.156,3.975,10.86c0,6.88-1.957,12.571-5.871,17.073c-3.914,4.502-9.146,6.753-15.691,6.753h-16.98
		L471.742,139.209z M487.115,138.736c5.195,0,9.307-1.993,12.332-5.977c3.027-3.982,4.543-9.223,4.543-15.717
		c0-7.582-3.414-11.372-10.242-11.372h-4.266l-7.055,33.066H487.115L487.115,138.736z"/>
	<path fill="#FFFFFF" d="M523.787,138.787h10.398c3.037,0,5.072-1.475,6.109-4.424l0.844-2.316h2.816l-2.371,9.425h-28.906
		l0.422-2.265h0.711c1.824,0,3.094-0.321,3.805-0.961c0.711-0.641,1.188-1.522,1.436-2.646l5.607-26.484
		c0.105-0.491,0.16-0.922,0.16-1.291c0-0.842-0.246-1.483-0.74-1.922c-0.488-0.438-1.508-0.658-3.051-0.658h-0.688l0.475-2.264
		h27.17l-1.711,9.426h-2.816l0.158-1.659c0.086-0.842,0.133-1.333,0.133-1.474c0-2.405-1.281-3.606-3.844-3.606h-9.059
		l-3.078,14.347h13.006l-0.525,2.634h-13.006L523.787,138.787z"/>
	<path fill="#FFFFFF" d="M218.996,198.303c0.474,0.331,0.711,0.93,0.711,1.789c0,1.721-1.001,3.253-3.002,4.594
		c-2.001,1.344-4.757,2.014-8.266,2.014c-4.686,0-8.342-1.256-10.965-3.764c-2.624-2.512-3.935-6.064-3.935-10.662
		c0-6.812,2.124-12.705,6.37-17.68c4.248-4.977,9.531-7.465,15.85-7.465c3.142,0,5.589,0.542,7.344,1.62
		c1.755,1.079,2.633,2.54,2.633,4.382c0,1.281-0.482,2.301-1.448,3.055c-0.965,0.754-2.248,1.133-3.844,1.133
		c0-4.881-1.789-7.317-5.371-7.317c-4.44,0-8.157,2.416-11.149,7.251c-2.993,4.836-4.488,10.124-4.488,15.859
		c0,6.728,3.194,10.086,9.583,10.086C213.178,203.198,216.503,201.568,218.996,198.303z"/>
	<path fill="#FFFFFF" d="M232.213,169.948l0.474-2.263h15.691l-0.42,2.263h-0.71c-1.686,0-2.914,0.319-3.687,0.962
		c-0.773,0.64-1.308,1.611-1.605,2.908l-4.029,19.033c-0.439,2.071-0.658,3.75-0.658,5.028c0,3.74,2.589,5.608,7.766,5.608
		c2.914,0,5.222-0.648,6.923-1.949c1.703-1.295,2.887-3.455,3.554-6.475l4.581-21.457c0.141-0.649,0.21-1.149,0.21-1.502
		c0-1.438-1.299-2.158-3.897-2.158h-0.684l0.474-2.264h13.532l-0.42,2.264h-0.712c-1.686,0-2.913,0.32-3.685,0.963
		c-0.772,0.64-1.309,1.611-1.606,2.908l-4.529,21.352c-1.632,7.688-6.476,11.532-14.533,11.532c-3.966,0-6.999-0.808-9.097-2.422
		c-2.097-1.615-3.146-3.914-3.146-6.898c0-1.457,0.193-3.053,0.58-4.793l4.001-18.979c0.14-0.666,0.21-1.166,0.21-1.502
		c0-1.438-1.299-2.157-3.897-2.157h-0.686v-0.002H232.213z"/>
	<path fill="#FFFFFF" d="M299.451,206.175l0.475-2.265h0.159c1.526,0,2.597-0.285,3.211-0.857c0.613-0.568,1.07-1.416,1.37-2.539
		l6.16-28.803l-19.692,34.462h-2.896L283,171.711l-6.03,28.54c-0.158,0.755-0.236,1.254-0.236,1.501
		c0,1.438,1.298,2.158,3.896,2.158h0.685l-0.474,2.265h-13.482l0.475-2.265h0.711c1.79,0,3.031-0.316,3.724-0.946
		c0.694-0.633,1.164-1.519,1.41-2.661l5.661-26.693c0.14-0.666,0.209-1.166,0.209-1.502c0-1.438-1.298-2.158-3.897-2.158h-0.684
		l0.474-2.264h12.241l4.581,30.724l17.639-30.724h12.032l-0.498,2.264h-0.688c-1.721,0-2.957,0.33-3.711,0.986
		c-0.755,0.66-1.264,1.621-1.528,2.885l-5.606,26.433c-0.142,0.667-0.21,1.167-0.21,1.5c0,1.438,1.289,2.159,3.869,2.159h0.712
		l-0.5,2.264L299.451,206.175L299.451,206.175L299.451,206.175z"/>
	<path fill="#FFFFFF" d="M320.201,206.175l0.473-2.265h0.711c1.686,0,2.906-0.325,3.658-0.973c0.756-0.651,1.266-1.617,1.527-2.896
		l5.605-26.432c0.143-0.668,0.211-1.168,0.211-1.504c0-1.438-1.299-2.157-3.895-2.157h-0.688l0.475-2.263h13.82
		c3.896,0,6.916,0.9,9.059,2.711c2.141,1.81,3.213,4.371,3.213,7.688c0,4.089-1.375,7.294-4.123,9.62
		c-2.746,2.326-6.867,3.488-12.359,3.488h-4.002l-1.924,9.053c-0.156,0.74-0.234,1.238-0.234,1.505c0,1.437,1.299,2.158,3.896,2.158
		h1.764l-0.475,2.264L320.201,206.175L320.201,206.175L320.201,206.175z M334.441,188.641h2.844c7.582,0,11.373-3.502,11.373-10.506
		c0-5.246-2.623-7.871-7.871-7.871h-2.477L334.441,188.641z"/>
	<path fill="#FFFFFF" d="M356.373,203.91h0.711c1.686,0,2.895-0.331,3.633-0.988c0.738-0.658,1.256-1.617,1.553-2.882l5.609-26.433
		c0.139-0.668,0.209-1.166,0.209-1.502c0-1.438-1.297-2.157-3.895-2.157h-0.688l0.475-2.263h15.691l-0.475,2.263h-0.709
		c-1.705,0-2.924,0.302-3.66,0.907c-0.738,0.604-1.238,1.522-1.502,2.752l-6.371,29.882h10.609c2.756,0,4.678-1.623,5.768-4.871
		l1.42-4.028h2.791l-2.791,11.585h-28.854L356.373,203.91z"/>
	<path fill="#FFFFFF" d="M402.812,203.489h10.398c3.037,0,5.074-1.476,6.109-4.425l0.84-2.318h2.818l-2.369,9.429h-28.906
		l0.42-2.265h0.713c1.824,0,3.094-0.322,3.805-0.963s1.189-1.521,1.436-2.646l5.605-26.484c0.105-0.49,0.158-0.922,0.158-1.289
		c0-0.844-0.244-1.484-0.738-1.924c-0.488-0.437-1.508-0.657-3.053-0.657h-0.684l0.475-2.265h27.17l-1.711,9.424h-2.818l0.158-1.655
		c0.086-0.845,0.135-1.334,0.135-1.476c0-2.404-1.281-3.604-3.846-3.604h-9.057l-3.08,14.348h13.006l-0.525,2.632h-13.004
		L402.812,203.489z"/>
	<path fill="#FFFFFF" d="M439.435,193.298l-3.238,5.661c-0.686,1.195-1.027,2.193-1.027,3.002c0,1.3,1.002,1.947,3.002,1.947h1.266
		l-0.447,2.267h-13.322l0.447-2.267h1.025c0.967,0,1.773-0.248,2.422-0.75c0.648-0.499,1.51-1.653,2.58-3.461l18.771-32.014h4.211
		l5.109,33.355c0.174,1.123,0.48,1.881,0.922,2.275c0.438,0.396,1.191,0.592,2.264,0.592h0.709l-0.445,2.265h-14.664l0.424-2.264
		h1.264c2.578,0,3.867-0.913,3.867-2.738c0-0.737-0.035-1.351-0.104-1.844l-0.869-6.028L439.435,193.298L439.435,193.298z
		 M451.886,181.163c-0.543-3.827-0.832-6.67-0.869-8.53c-0.822,1.949-2.227,4.626-4.211,8.03l-5.766,9.925h12.188L451.886,181.163z"
		/>
	<path fill="#FFFFFF" d="M503.912,173.607c0.139-0.668,0.211-1.166,0.211-1.502c0-1.438-1.291-2.157-3.869-2.157h-0.713l0.5-2.263
		h13.531l-0.498,2.263h-0.686c-1.721,0-2.953,0.329-3.697,0.985c-0.746,0.659-1.264,1.62-1.541,2.885l-6.846,32.355h-3.502
		l-13.875-31.592l-5.424,25.668c-0.158,0.755-0.236,1.254-0.236,1.501c0,1.438,1.301,2.158,3.898,2.158h0.682l-0.473,2.265h-13.479
		l0.473-2.265h0.711c1.688,0,2.896-0.33,3.635-0.987c0.738-0.656,1.252-1.619,1.555-2.882l5.605-26.433
		c0.141-0.666,0.211-1.166,0.211-1.502c0-1.438-1.299-2.158-3.896-2.158h-0.686l0.475-2.264h9.818l13.063,29.75L503.912,173.607z
		 M504.437,158.232h2.422c-1.264,4.248-3.6,6.371-7.002,6.371c-1.422,0-2.906-0.569-4.449-1.711
		c-1.563-1.125-2.668-1.686-3.316-1.686c-1.545,0-2.625,0.947-3.24,2.842h-2.424c1.268-4.229,3.617-6.343,7.061-6.343
		c1.438,0,2.92,0.562,4.447,1.685c1.527,1.143,2.615,1.713,3.268,1.713C502.759,161.104,503.837,160.145,504.437,158.232z"/>
	<path fill="#FFFFFF" d="M536.767,167.077c4.178,0,7.545,1.301,10.109,3.897c2.564,2.598,3.842,6.239,3.842,10.926
		c0,6.16-1.998,11.847-5.998,17.059c-4.002,5.213-9.139,7.82-15.404,7.82c-4.266,0-7.688-1.348-10.266-4.043
		c-2.58-2.692-3.871-6.33-3.871-10.911c0-6.179,2.02-11.849,6.057-17.009C525.269,169.658,530.449,167.077,536.767,167.077z
		 M529.632,203.805c4.477,0,8.121-2.479,10.938-7.438c2.816-4.957,4.227-10.262,4.227-15.916c0-3.35-0.74-5.93-2.227-7.738
		c-1.482-1.807-3.564-2.712-6.252-2.712c-4.492,0-8.156,2.488-10.99,7.463c-2.834,4.978-4.252,10.272-4.252,15.89
		c0,3.371,0.766,5.955,2.291,7.752S526.984,203.805,529.632,203.805z"/>
	<path fill="#FFFFFF" d="M559.199,194.906c0,2.757,0.729,4.972,2.186,6.648c1.457,1.676,3.457,2.514,6.004,2.514
		c2.506,0,4.502-0.623,5.986-1.87c1.482-1.246,2.227-2.939,2.227-5.08c0-1.703-0.428-3.144-1.277-4.319
		c-0.852-1.175-2.688-2.563-5.514-4.158c-2.879-1.668-4.875-3.377-5.992-5.134c-1.111-1.756-1.67-3.739-1.67-5.952
		c0-3.104,1.178-5.621,3.527-7.541c2.352-1.924,5.537-2.884,9.557-2.884c3.125,0,5.617,0.544,7.479,1.632
		c1.859,1.09,2.791,2.485,2.791,4.188c0,2.493-1.59,3.735-4.766,3.735c0-2.104-0.5-3.771-1.502-5
		c-0.998-1.229-2.475-1.844-4.424-1.844c-2.139,0-3.895,0.614-5.266,1.844c-1.367,1.229-2.053,2.879-2.053,4.948
		c0,1.527,0.363,2.847,1.092,3.964c0.727,1.112,2.586,2.539,5.568,4.277c2.828,1.652,4.865,3.293,6.123,4.921
		c1.252,1.634,1.881,3.494,1.881,5.584c0,3.563-1.246,6.339-3.74,8.331c-2.49,1.992-5.957,2.987-10.398,2.987
		c-3.666,0-6.58-0.724-8.736-2.171c-2.162-1.449-3.24-3.287-3.24-5.516c0-1.246,0.391-2.244,1.17-2.988
		C556.992,195.279,557.986,194.906,559.199,194.906z"/>
</g>
</svg>
