<?xml version="1.0" encoding="utf-8"?>
<!-- Generator: Adobe Illustrator 16.0.0, SVG Export Plug-In . SVG Version: 6.00 Build 0)  -->
<!DOCTYPE svg PUBLIC "-//W3C//DTD SVG 1.1//EN" "http://www.w3.org/Graphics/SVG/1.1/DTD/svg11.dtd">
<svg version="1.1" id="Capa_1" xmlns="http://www.w3.org/2000/svg" xmlns:xlink="http://www.w3.org/1999/xlink" x="0px" y="0px"
	 width="632.968px" height="294px" viewBox="0 5.7 632.968 294" enable-background="new 0 5.7 632.968 294" xml:space="preserve">
<rect x="361.976" y="68.783" transform="matrix(0.9982 -0.0592 0.0592 0.9982 -8.6375 25.2673)" opacity="0.5" fill="#E12021" enable-background="new    " width="120.212" height="179.225"/>
<rect x="254.865" y="68.769" transform="matrix(0.977 -0.2133 0.2133 0.977 -26.5361 70.829)" opacity="0.5" fill="#E12021" enable-background="new    " width="120.224" height="179.245"/>
<rect x="465.078" y="48.305" transform="matrix(0.9734 0.229 -0.229 0.9734 49.1578 -118.4663)" opacity="0.5" fill="#E12021" enable-background="new    " width="139.871" height="208.535"/>
<rect x="180.066" y="60.398" transform="matrix(0.9734 0.229 -0.229 0.9734 40.1112 -50.6943)" opacity="0.5" fill="#E12021" enable-background="new    " width="116.802" height="174.14"/>
<polygon fill="#0F0F0F" points="555.057,269.59 166.702,269.59 178.36,222.963 566.713,222.963 "/>
<g>
	<path fill="#FFFFFF" d="M191.356,257.068h-3.292l3.274-9.212h1.101L191.356,257.068z M190.69,245.089c0-0.314,0.047-0.58,0.144-0.8
		c0.095-0.22,0.222-0.396,0.38-0.526c0.157-0.135,0.333-0.229,0.533-0.287c0.196-0.057,0.395-0.089,0.59-0.089
		c0.463,0,0.833,0.111,1.115,0.333c0.28,0.223,0.42,0.564,0.42,1.026c0,0.258-0.039,0.495-0.115,0.705
		c-0.078,0.208-0.187,0.389-0.328,0.536c-0.143,0.147-0.314,0.265-0.517,0.346c-0.203,0.084-0.431,0.125-0.685,0.125
		c-0.216,0-0.417-0.027-0.606-0.081c-0.188-0.059-0.35-0.14-0.49-0.251c-0.14-0.11-0.248-0.252-0.324-0.426
		C190.728,245.527,190.69,245.323,190.69,245.089z"/>
	<path fill="#FFFFFF" d="M200.265,253.857c-0.784,0-1.468-0.069-2.053-0.211c-0.586-0.142-1.074-0.336-1.462-0.584
		c-0.389-0.247-0.68-0.537-0.875-0.874c-0.194-0.335-0.291-0.699-0.291-1.097c0-0.295,0.06-0.553,0.18-0.775
		c0.12-0.222,0.289-0.407,0.508-0.553c0.22-0.148,0.478-0.262,0.777-0.334c0.299-0.073,0.63-0.111,0.995-0.111
		c0,0.582,0.062,1.084,0.186,1.509s0.297,0.778,0.519,1.058c0.222,0.283,0.487,0.491,0.795,0.626s0.647,0.205,1.018,0.205
		c0.357,0,0.674-0.05,0.952-0.152c0.278-0.103,0.514-0.242,0.708-0.417c0.194-0.177,0.343-0.383,0.444-0.622
		c0.102-0.236,0.153-0.489,0.153-0.761c0-0.266-0.033-0.51-0.097-0.731c-0.064-0.223-0.184-0.438-0.357-0.647
		s-0.409-0.424-0.712-0.638c-0.302-0.215-0.69-0.454-1.166-0.711c-0.493-0.272-0.926-0.553-1.298-0.838
		c-0.373-0.285-0.685-0.596-0.934-0.932c-0.25-0.332-0.439-0.698-0.564-1.095c-0.127-0.396-0.19-0.845-0.19-1.345
		c0-0.568,0.114-1.089,0.343-1.564c0.229-0.475,0.554-0.883,0.979-1.225s0.94-0.608,1.545-0.796
		c0.604-0.188,1.283-0.283,2.036-0.283c0.703,0,1.316,0.058,1.841,0.169c0.523,0.11,0.96,0.262,1.31,0.453
		c0.348,0.191,0.609,0.415,0.782,0.674s0.259,0.537,0.259,0.833c0,0.515-0.193,0.914-0.583,1.206
		c-0.388,0.295-1.023,0.44-1.905,0.44c0-0.284-0.027-0.579-0.083-0.888c-0.057-0.311-0.154-0.592-0.297-0.848
		c-0.142-0.256-0.332-0.467-0.573-0.633c-0.24-0.166-0.545-0.251-0.916-0.251c-0.253,0-0.503,0.043-0.754,0.12
		c-0.25,0.082-0.474,0.206-0.671,0.364c-0.197,0.16-0.358,0.362-0.481,0.606c-0.124,0.243-0.186,0.531-0.186,0.864
		c0,0.332,0.053,0.615,0.158,0.851c0.104,0.234,0.262,0.453,0.471,0.651c0.209,0.201,0.471,0.396,0.787,0.583
		c0.314,0.189,0.685,0.397,1.109,0.625c0.956,0.517,1.663,1.09,2.118,1.715c0.457,0.628,0.685,1.344,0.685,2.154
		c0,0.671-0.122,1.271-0.366,1.794c-0.244,0.521-0.591,0.965-1.044,1.321c-0.453,0.358-1.001,0.631-1.641,0.818
		C201.778,253.763,201.06,253.857,200.265,253.857z"/>
	<path fill="#FFFFFF" d="M212.133,252.425c0.308,0,0.6-0.046,0.878-0.133c0.279-0.089,0.535-0.207,0.773-0.354
		c0.237-0.144,0.45-0.306,0.637-0.49c0.189-0.181,0.351-0.366,0.486-0.558c0.074,0.093,0.133,0.209,0.175,0.355
		c0.043,0.146,0.065,0.298,0.065,0.457c0,0.229-0.074,0.47-0.222,0.723c-0.148,0.253-0.374,0.483-0.68,0.698
		c-0.306,0.212-0.695,0.389-1.166,0.526c-0.472,0.139-1.032,0.208-1.679,0.208c-0.58,0-1.125-0.079-1.638-0.239
		c-0.511-0.162-0.961-0.402-1.345-0.726c-0.385-0.325-0.689-0.733-0.912-1.222c-0.223-0.489-0.333-1.066-0.333-1.725
		c0-0.47,0.062-0.96,0.185-1.472c0.125-0.511,0.307-1.012,0.552-1.503c0.243-0.488,0.544-0.957,0.906-1.396s0.779-0.828,1.254-1.161
		c0.474-0.332,1.005-0.595,1.595-0.789c0.588-0.194,1.232-0.293,1.929-0.293c0.906,0,1.61,0.194,2.108,0.589
		c0.5,0.393,0.75,0.938,0.75,1.642c0,0.514-0.142,1.001-0.425,1.47c-0.285,0.469-0.676,0.879-1.175,1.236
		c-0.499,0.354-1.094,0.637-1.785,0.845c-0.69,0.21-1.443,0.315-2.258,0.315c-0.104,0-0.218,0-0.341,0
		c-0.124,0-0.243-0.006-0.362-0.019c-0.019,0.124-0.028,0.248-0.032,0.373c-0.002,0.127-0.005,0.242-0.005,0.35
		c0,0.735,0.171,1.298,0.514,1.695C210.925,252.226,211.441,252.425,212.133,252.425z M212.797,244.47
		c-0.308,0-0.601,0.116-0.877,0.347c-0.279,0.231-0.528,0.532-0.75,0.9c-0.223,0.369-0.414,0.784-0.573,1.246
		c-0.161,0.458-0.277,0.913-0.353,1.364h0.167c0.468,0,0.906-0.062,1.309-0.185c0.405-0.125,0.756-0.301,1.056-0.533
		c0.3-0.23,0.534-0.507,0.704-0.829c0.169-0.32,0.253-0.68,0.253-1.082c0-0.388-0.082-0.689-0.245-0.904
		C213.324,244.578,213.094,244.47,212.797,244.47z M212.271,241.944c0.173-0.178,0.36-0.385,0.564-0.62
		c0.204-0.234,0.405-0.477,0.606-0.724c0.201-0.25,0.394-0.5,0.583-0.746c0.189-0.245,0.357-0.477,0.504-0.694h2.97l-0.056,0.196
		c-0.099,0.11-0.234,0.241-0.407,0.393c-0.173,0.153-0.369,0.315-0.588,0.487c-0.218,0.172-0.452,0.349-0.703,0.531
		c-0.25,0.182-0.503,0.359-0.763,0.53c-0.26,0.174-0.515,0.339-0.768,0.494c-0.253,0.159-0.49,0.291-0.712,0.403h-1.286
		L212.271,241.944z"/>
	<path fill="#FFFFFF" d="M220.911,258.223l2.572-12.089c0.02-0.079,0.036-0.163,0.052-0.251c0.016-0.086,0.029-0.166,0.042-0.243
		c0.011-0.077,0.021-0.143,0.027-0.2c0.006-0.055,0.01-0.095,0.01-0.119c0-0.173-0.019-0.312-0.056-0.418
		c-0.037-0.104-0.095-0.184-0.175-0.239s-0.183-0.093-0.309-0.113c-0.127-0.016-0.279-0.025-0.458-0.025h-0.342l0.167-1.008h4.08
		l-0.491,2.524h0.13c0.216-0.395,0.438-0.758,0.667-1.091c0.229-0.332,0.48-0.619,0.759-0.859c0.277-0.24,0.591-0.43,0.943-0.559
		c0.352-0.134,0.762-0.201,1.231-0.201c0.413,0,0.791,0.075,1.134,0.223c0.342,0.149,0.634,0.366,0.874,0.656
		c0.241,0.291,0.427,0.646,0.56,1.073c0.132,0.426,0.199,0.918,0.199,1.468c0,0.458-0.054,0.948-0.162,1.478
		c-0.108,0.525-0.269,1.056-0.485,1.581c-0.216,0.526-0.485,1.034-0.809,1.522c-0.323,0.488-0.706,0.916-1.143,1.29
		c-0.439,0.374-0.93,0.672-1.476,0.896s-1.146,0.338-1.8,0.338c-0.381,0-0.738-0.039-1.067-0.116
		c-0.33-0.077-0.618-0.183-0.865-0.319c-0.007,0.1-0.018,0.201-0.038,0.304c-0.011,0.088-0.027,0.185-0.045,0.294
		c-0.019,0.106-0.04,0.212-0.065,0.318l-0.268,1.267c-0.02,0.078-0.036,0.165-0.052,0.251c-0.014,0.087-0.029,0.168-0.041,0.246
		c-0.013,0.076-0.021,0.141-0.028,0.196c-0.006,0.058-0.008,0.097-0.008,0.121c0,0.173,0.018,0.314,0.055,0.417
		c0.038,0.105,0.096,0.184,0.175,0.241c0.08,0.056,0.185,0.093,0.31,0.11c0.126,0.018,0.279,0.027,0.458,0.027h0.723l-0.166,1.008
		h-4.815v0.001H220.911z M229.662,246.894c0-0.259-0.019-0.512-0.051-0.755c-0.034-0.241-0.091-0.46-0.168-0.649
		c-0.077-0.193-0.181-0.348-0.314-0.465c-0.133-0.115-0.298-0.174-0.495-0.174c-0.209,0-0.417,0.06-0.625,0.181
		c-0.206,0.118-0.407,0.281-0.601,0.485c-0.193,0.204-0.376,0.437-0.546,0.702c-0.169,0.267-0.323,0.544-0.462,0.828
		c-0.139,0.288-0.259,0.575-0.361,0.864c-0.103,0.29-0.178,0.563-0.227,0.815l-0.723,3.395c0.056,0.058,0.131,0.116,0.223,0.18
		c0.092,0.064,0.197,0.124,0.313,0.171c0.119,0.051,0.247,0.093,0.385,0.129c0.137,0.031,0.282,0.049,0.429,0.049
		c0.34,0,0.656-0.094,0.948-0.277c0.293-0.184,0.557-0.432,0.795-0.74c0.237-0.308,0.449-0.661,0.633-1.058
		c0.186-0.398,0.339-0.81,0.463-1.237c0.124-0.427,0.218-0.849,0.283-1.272C229.628,247.64,229.662,247.249,229.662,246.894z"/>
	<path fill="#FFFFFF" d="M242.241,253.857c-0.562,0-1.011-0.129-1.351-0.384c-0.338-0.255-0.508-0.628-0.508-1.121
		c0-0.199,0.01-0.391,0.027-0.579c0.019-0.188,0.052-0.408,0.103-0.651h-0.131c-0.234,0.438-0.468,0.828-0.699,1.17
		c-0.231,0.341-0.489,0.628-0.772,0.859c-0.285,0.23-0.6,0.406-0.949,0.526c-0.347,0.119-0.753,0.18-1.216,0.18
		c-0.45,0-0.844-0.089-1.185-0.264c-0.338-0.174-0.622-0.418-0.847-0.725c-0.224-0.31-0.395-0.676-0.508-1.096
		c-0.113-0.423-0.172-0.881-0.172-1.376c0-0.492,0.059-1.007,0.172-1.546c0.114-0.541,0.285-1.072,0.513-1.597
		c0.229-0.522,0.511-1.024,0.847-1.498c0.336-0.476,0.724-0.894,1.167-1.249c0.441-0.359,0.933-0.643,1.476-0.856
		c0.542-0.214,1.134-0.32,1.776-0.32c0.246,0,0.497,0.021,0.753,0.061c0.256,0.04,0.501,0.091,0.735,0.151
		c0.237,0.063,0.455,0.133,0.662,0.209c0.207,0.077,0.381,0.156,0.523,0.236l0.999-0.453h1.008l-1.25,5.91
		c-0.025,0.107-0.055,0.245-0.092,0.416c-0.036,0.172-0.073,0.356-0.105,0.552c-0.033,0.195-0.063,0.382-0.088,0.563
		c-0.024,0.184-0.037,0.337-0.037,0.462c0,0.312,0.062,0.547,0.185,0.701c0.124,0.154,0.285,0.23,0.481,0.23
		c0.179,0,0.35-0.036,0.514-0.113c0.164-0.078,0.344-0.175,0.541-0.284l0.417,0.761c-0.16,0.122-0.342,0.249-0.547,0.382
		c-0.204,0.134-0.43,0.255-0.68,0.364c-0.249,0.112-0.521,0.205-0.813,0.272C242.895,253.823,242.581,253.857,242.241,253.857z
		 M236.913,250.418c0,0.364,0.027,0.667,0.078,0.915c0.054,0.247,0.124,0.445,0.214,0.597c0.09,0.149,0.197,0.259,0.323,0.325
		c0.127,0.063,0.265,0.096,0.412,0.096c0.278,0,0.563-0.12,0.86-0.362c0.296-0.241,0.573-0.557,0.833-0.949
		c0.259-0.39,0.492-0.832,0.698-1.326c0.206-0.493,0.362-0.994,0.468-1.497l0.665-3.147c-0.123-0.178-0.294-0.311-0.514-0.396
		c-0.218-0.085-0.451-0.13-0.698-0.13c-0.371,0-0.708,0.094-1.013,0.286c-0.305,0.191-0.581,0.446-0.828,0.768
		c-0.246,0.323-0.464,0.686-0.651,1.092c-0.189,0.407-0.347,0.827-0.472,1.268c-0.127,0.438-0.221,0.87-0.283,1.294
		C236.944,249.679,236.913,250.065,236.913,250.418z"/>
	<path fill="#FFFFFF" d="M248.299,245.182c0-0.233-0.076-0.399-0.23-0.505c-0.153-0.099-0.411-0.149-0.768-0.149h-0.344l0.167-1.011
		h4.19l-0.398,2.601h0.092c0.216-0.458,0.434-0.858,0.651-1.203c0.219-0.344,0.459-0.636,0.722-0.868
		c0.262-0.236,0.56-0.411,0.893-0.531c0.334-0.122,0.723-0.183,1.167-0.183c0.672,0,1.171,0.129,1.499,0.381
		c0.327,0.254,0.491,0.619,0.491,1.1c0,0.654-0.191,1.141-0.573,1.462c-0.382,0.323-0.938,0.48-1.666,0.48
		c0-0.283-0.014-0.54-0.041-0.771c-0.027-0.232-0.077-0.43-0.147-0.593c-0.072-0.161-0.167-0.285-0.287-0.374
		c-0.119-0.085-0.27-0.129-0.449-0.129s-0.366,0.073-0.565,0.218c-0.197,0.144-0.395,0.343-0.591,0.595
		c-0.197,0.253-0.39,0.553-0.578,0.902c-0.188,0.347-0.368,0.728-0.542,1.139c-0.173,0.408-0.329,0.838-0.471,1.288
		c-0.143,0.449-0.263,0.905-0.362,1.368l-0.721,3.275h-2.859l1.609-7.613c0.02-0.106,0.042-0.241,0.07-0.415
		C248.287,245.473,248.299,245.318,248.299,245.182z"/>
	<path fill="#FFFFFF" d="M261.426,252.314c0.297,0,0.564-0.05,0.805-0.148c0.241-0.098,0.466-0.214,0.675-0.351l0.435,0.722
		c-0.209,0.178-0.43,0.348-0.662,0.508c-0.231,0.161-0.482,0.301-0.754,0.423c-0.271,0.12-0.562,0.215-0.875,0.284
		c-0.311,0.071-0.649,0.106-1.012,0.106c-0.346,0-0.667-0.044-0.967-0.134c-0.3-0.088-0.56-0.225-0.782-0.407
		c-0.222-0.18-0.396-0.408-0.522-0.688c-0.127-0.277-0.19-0.604-0.19-0.979c0-0.11,0.004-0.234,0.014-0.369
		c0.009-0.135,0.022-0.275,0.041-0.417c0.019-0.143,0.04-0.283,0.064-0.42c0.024-0.14,0.05-0.269,0.074-0.384l1.138-5.246h-1.461
		l0.204-0.973c0.27,0,0.567-0.047,0.888-0.138c0.321-0.093,0.648-0.243,0.986-0.455c0.336-0.208,0.672-0.481,1.008-0.82
		c0.337-0.34,0.653-0.754,0.948-1.241h1.101l-0.49,2.33h2.285l-0.261,1.297h-2.31l-1.138,5.188c-0.067,0.278-0.115,0.53-0.143,0.754
		c-0.028,0.227-0.042,0.429-0.042,0.607c0,0.313,0.087,0.553,0.259,0.714C260.914,252.233,261.141,252.314,261.426,252.314z"/>
	<path fill="#FFFFFF" d="M269.955,243.517l-1.314,6.159c-0.074,0.348-0.135,0.668-0.185,0.967c-0.05,0.3-0.075,0.583-0.075,0.849
		c0,0.275,0.058,0.488,0.172,0.637c0.114,0.146,0.275,0.221,0.485,0.221c0.197,0,0.379-0.035,0.545-0.11
		c0.168-0.073,0.359-0.181,0.574-0.323l0.454,0.638c-0.148,0.161-0.318,0.32-0.509,0.476c-0.192,0.154-0.407,0.299-0.648,0.421
		c-0.24,0.126-0.505,0.224-0.79,0.297c-0.285,0.074-0.603,0.11-0.947,0.11c-0.729,0-1.285-0.171-1.675-0.515
		c-0.389-0.341-0.583-0.819-0.583-1.428c0-0.271,0.025-0.596,0.074-0.972c0.049-0.378,0.126-0.807,0.231-1.286l0.741-3.524
		c0.018-0.078,0.035-0.162,0.051-0.25c0.016-0.085,0.029-0.167,0.041-0.244c0.012-0.076,0.021-0.142,0.027-0.198
		c0.007-0.057,0.01-0.096,0.01-0.121c0-0.171-0.019-0.311-0.056-0.416c-0.037-0.104-0.095-0.185-0.175-0.241
		c-0.08-0.054-0.183-0.091-0.31-0.111c-0.127-0.019-0.28-0.026-0.458-0.026h-0.343l0.167-1.008L269.955,243.517L269.955,243.517
		L269.955,243.517z M267.401,241.944c0.172-0.178,0.361-0.385,0.564-0.62c0.204-0.234,0.404-0.477,0.605-0.724
		c0.201-0.25,0.395-0.5,0.582-0.746c0.189-0.245,0.357-0.477,0.506-0.694h2.969l-0.055,0.196c-0.099,0.11-0.234,0.241-0.407,0.393
		c-0.173,0.153-0.369,0.315-0.588,0.487s-0.454,0.349-0.704,0.531c-0.25,0.182-0.504,0.359-0.761,0.53
		c-0.259,0.174-0.516,0.339-0.769,0.494c-0.253,0.159-0.49,0.291-0.712,0.403h-1.285L267.401,241.944z"/>
	<path fill="#FFFFFF" d="M276.66,252.425c0.333,0,0.634-0.046,0.902-0.133c0.268-0.089,0.511-0.208,0.726-0.357
		c0.217-0.146,0.408-0.314,0.574-0.499c0.167-0.184,0.314-0.373,0.444-0.564c0.08,0.074,0.148,0.185,0.205,0.329
		c0.056,0.145,0.083,0.311,0.083,0.503c0,0.248-0.072,0.498-0.218,0.757c-0.144,0.254-0.37,0.484-0.675,0.691
		c-0.306,0.207-0.693,0.377-1.161,0.509c-0.469,0.134-1.026,0.198-1.674,0.198c-0.572,0-1.114-0.079-1.624-0.238
		c-0.508-0.162-0.952-0.403-1.331-0.734c-0.379-0.322-0.681-0.732-0.902-1.217c-0.222-0.49-0.333-1.061-0.333-1.722
		c0-0.47,0.059-0.96,0.176-1.468c0.116-0.508,0.292-1.008,0.527-1.501c0.235-0.487,0.525-0.954,0.874-1.394
		c0.348-0.439,0.753-0.828,1.217-1.16c0.462-0.336,0.979-0.599,1.553-0.797c0.573-0.199,1.202-0.297,1.886-0.297
		c0.525,0,0.977,0.054,1.355,0.161c0.38,0.109,0.691,0.253,0.934,0.436c0.245,0.182,0.425,0.394,0.542,0.64
		c0.117,0.242,0.175,0.499,0.175,0.771c0,0.199-0.041,0.392-0.125,0.58c-0.084,0.19-0.217,0.356-0.402,0.51
		c-0.184,0.151-0.424,0.271-0.716,0.363c-0.293,0.093-0.649,0.139-1.069,0.139c0-0.33-0.029-0.648-0.087-0.948
		c-0.058-0.299-0.146-0.56-0.263-0.784c-0.117-0.225-0.26-0.402-0.43-0.534c-0.171-0.128-0.37-0.193-0.597-0.193
		c-0.271,0-0.525,0.091-0.763,0.274c-0.238,0.181-0.456,0.421-0.652,0.721c-0.197,0.3-0.371,0.644-0.522,1.026
		c-0.15,0.386-0.279,0.782-0.388,1.192c-0.107,0.411-0.189,0.815-0.245,1.214c-0.055,0.396-0.083,0.759-0.083,1.087
		c0,0.771,0.175,1.369,0.528,1.796C275.448,252.212,275.97,252.425,276.66,252.425z"/>
	<path fill="#FFFFFF" d="M286.66,243.517l-1.313,6.159c-0.075,0.348-0.135,0.668-0.185,0.967c-0.049,0.3-0.074,0.583-0.074,0.849
		c0,0.275,0.057,0.488,0.171,0.637c0.115,0.146,0.276,0.221,0.485,0.221c0.198,0,0.38-0.035,0.547-0.11
		c0.165-0.073,0.356-0.181,0.572-0.323l0.454,0.638c-0.147,0.161-0.318,0.32-0.509,0.476c-0.19,0.154-0.406,0.299-0.647,0.421
		c-0.24,0.126-0.505,0.224-0.791,0.297c-0.286,0.074-0.603,0.11-0.947,0.11c-0.728,0-1.286-0.171-1.675-0.515
		c-0.388-0.341-0.583-0.819-0.583-1.428c0-0.271,0.025-0.596,0.074-0.972c0.05-0.378,0.127-0.807,0.232-1.286l0.741-3.524
		c0.018-0.078,0.036-0.162,0.05-0.25c0.017-0.085,0.03-0.167,0.042-0.244c0.012-0.076,0.021-0.142,0.026-0.198
		c0.008-0.057,0.01-0.096,0.01-0.121c0-0.171-0.019-0.311-0.055-0.416c-0.037-0.104-0.096-0.185-0.175-0.241
		c-0.081-0.054-0.183-0.091-0.31-0.111c-0.126-0.019-0.279-0.026-0.458-0.026h-0.342l0.165-1.008L286.66,243.517L286.66,243.517z
		 M285.346,241.815c-0.21,0-0.403-0.023-0.583-0.07c-0.179-0.046-0.334-0.117-0.466-0.218c-0.133-0.097-0.237-0.221-0.314-0.367
		c-0.077-0.147-0.116-0.322-0.116-0.519c0-0.278,0.048-0.517,0.143-0.708c0.095-0.194,0.224-0.354,0.384-0.48
		c0.158-0.129,0.348-0.22,0.563-0.277c0.216-0.06,0.441-0.088,0.677-0.088c0.204,0,0.396,0.021,0.578,0.063
		c0.182,0.045,0.342,0.113,0.48,0.213c0.139,0.099,0.25,0.224,0.333,0.375c0.083,0.149,0.125,0.33,0.125,0.541
		c0,0.259-0.051,0.486-0.153,0.68c-0.102,0.192-0.238,0.355-0.407,0.481c-0.17,0.125-0.362,0.219-0.578,0.281
		C285.796,241.783,285.576,241.815,285.346,241.815z"/>
	<path fill="#FFFFFF" d="M287.057,258.223l2.572-12.089c0.02-0.079,0.037-0.163,0.051-0.251c0.015-0.086,0.029-0.166,0.042-0.243
		c0.012-0.077,0.021-0.143,0.028-0.2c0.005-0.055,0.01-0.095,0.01-0.119c0-0.173-0.02-0.312-0.057-0.418
		c-0.036-0.104-0.095-0.184-0.175-0.239c-0.08-0.056-0.184-0.093-0.31-0.113c-0.126-0.016-0.279-0.025-0.458-0.025h-0.341
		l0.167-1.008h4.078l-0.489,2.524h0.13c0.216-0.395,0.438-0.758,0.667-1.091c0.228-0.332,0.48-0.619,0.759-0.859
		c0.276-0.24,0.591-0.43,0.943-0.559c0.35-0.134,0.761-0.201,1.229-0.201c0.414,0,0.792,0.075,1.134,0.223
		c0.343,0.149,0.635,0.366,0.874,0.656c0.242,0.291,0.428,0.646,0.561,1.073c0.133,0.426,0.2,0.918,0.2,1.468
		c0,0.458-0.054,0.948-0.162,1.478c-0.108,0.525-0.269,1.056-0.484,1.581c-0.216,0.526-0.486,1.034-0.81,1.522
		c-0.322,0.488-0.704,0.916-1.142,1.29s-0.931,0.672-1.477,0.896c-0.544,0.225-1.146,0.338-1.799,0.338
		c-0.382,0-0.74-0.039-1.068-0.116c-0.33-0.077-0.618-0.183-0.865-0.319c-0.006,0.1-0.018,0.201-0.037,0.304
		c-0.011,0.088-0.027,0.185-0.045,0.294c-0.019,0.106-0.04,0.212-0.064,0.318l-0.268,1.267c-0.019,0.078-0.036,0.165-0.052,0.251
		c-0.016,0.087-0.029,0.168-0.041,0.246c-0.013,0.076-0.022,0.141-0.028,0.196c-0.005,0.058-0.009,0.097-0.009,0.121
		c0,0.173,0.019,0.314,0.055,0.417c0.039,0.105,0.096,0.184,0.177,0.241c0.079,0.056,0.183,0.093,0.31,0.11
		c0.125,0.018,0.279,0.027,0.457,0.027h0.723l-0.167,1.008h-4.814v0.001H287.057z M295.808,246.894c0-0.259-0.018-0.512-0.052-0.755
		c-0.033-0.241-0.089-0.46-0.165-0.649c-0.079-0.193-0.182-0.348-0.315-0.465c-0.133-0.115-0.298-0.174-0.496-0.174
		c-0.208,0-0.417,0.06-0.624,0.181c-0.207,0.118-0.407,0.281-0.602,0.485c-0.194,0.204-0.376,0.437-0.545,0.702
		c-0.171,0.267-0.325,0.544-0.463,0.828c-0.14,0.288-0.258,0.575-0.361,0.864c-0.101,0.29-0.177,0.563-0.226,0.815l-0.722,3.395
		c0.056,0.058,0.13,0.116,0.222,0.18c0.093,0.064,0.197,0.124,0.315,0.171c0.116,0.051,0.245,0.093,0.383,0.129
		c0.139,0.031,0.283,0.049,0.43,0.049c0.34,0,0.655-0.094,0.948-0.277s0.557-0.432,0.795-0.74c0.237-0.308,0.449-0.661,0.633-1.058
		c0.186-0.398,0.338-0.81,0.463-1.237c0.123-0.427,0.216-0.849,0.281-1.272C295.775,247.64,295.808,247.249,295.808,246.894z"/>
	<path fill="#FFFFFF" d="M305.141,252.425c0.309,0,0.601-0.046,0.88-0.133c0.278-0.089,0.534-0.207,0.771-0.354
		c0.237-0.144,0.45-0.306,0.638-0.49c0.188-0.181,0.351-0.366,0.485-0.558c0.075,0.093,0.134,0.209,0.176,0.355
		c0.044,0.146,0.065,0.298,0.065,0.457c0,0.229-0.075,0.47-0.222,0.723c-0.149,0.253-0.376,0.483-0.68,0.698
		c-0.306,0.212-0.695,0.389-1.167,0.526c-0.472,0.139-1.031,0.208-1.678,0.208c-0.581,0-1.125-0.079-1.639-0.239
		c-0.51-0.162-0.96-0.402-1.345-0.726c-0.385-0.325-0.688-0.733-0.912-1.222c-0.222-0.489-0.333-1.066-0.333-1.725
		c0-0.47,0.063-0.96,0.186-1.472c0.124-0.511,0.307-1.012,0.55-1.503c0.245-0.488,0.546-0.957,0.906-1.396
		c0.362-0.439,0.781-0.828,1.254-1.161c0.475-0.332,1.007-0.595,1.596-0.789c0.588-0.194,1.231-0.293,1.928-0.293
		c0.906,0,1.61,0.194,2.109,0.589c0.499,0.393,0.749,0.938,0.749,1.642c0,0.514-0.144,1.001-0.426,1.47
		c-0.285,0.469-0.677,0.879-1.176,1.236c-0.499,0.354-1.094,0.637-1.786,0.845c-0.688,0.21-1.442,0.315-2.257,0.315
		c-0.104,0-0.219,0-0.342,0s-0.244-0.006-0.36-0.019c-0.021,0.124-0.031,0.248-0.033,0.373c-0.003,0.127-0.006,0.242-0.006,0.35
		c0,0.735,0.171,1.298,0.515,1.695C303.934,252.226,304.452,252.425,305.141,252.425z M305.807,244.47
		c-0.308,0-0.601,0.116-0.878,0.347c-0.279,0.231-0.528,0.532-0.75,0.9c-0.223,0.369-0.413,0.784-0.574,1.246
		c-0.159,0.458-0.276,0.913-0.351,1.364h0.167c0.468,0,0.905-0.062,1.31-0.185c0.403-0.125,0.754-0.301,1.054-0.533
		c0.3-0.23,0.534-0.507,0.703-0.829c0.171-0.32,0.254-0.68,0.254-1.082c0-0.388-0.081-0.689-0.245-0.904
		C306.333,244.578,306.103,244.47,305.807,244.47z"/>
	<path fill="#FFFFFF" d="M324.585,249.604c-0.02,0.093-0.045,0.223-0.078,0.394c-0.034,0.17-0.067,0.347-0.099,0.531
		c-0.031,0.187-0.058,0.367-0.078,0.548c-0.021,0.176-0.031,0.325-0.031,0.444c0,0.295,0.067,0.511,0.203,0.646
		c0.136,0.136,0.29,0.205,0.464,0.205c0.158,0,0.337-0.044,0.53-0.129c0.196-0.088,0.369-0.176,0.522-0.269l0.417,0.74
		c-0.165,0.136-0.354,0.271-0.563,0.407c-0.211,0.134-0.44,0.258-0.689,0.369c-0.25,0.108-0.521,0.199-0.809,0.267
		c-0.288,0.068-0.599,0.102-0.925,0.102c-0.277,0-0.532-0.032-0.76-0.096c-0.229-0.063-0.423-0.159-0.586-0.281
		c-0.164-0.125-0.289-0.279-0.38-0.468c-0.09-0.187-0.133-0.409-0.133-0.663c0-0.115,0.002-0.221,0.009-0.313
		s0.015-0.183,0.022-0.272c0.01-0.091,0.021-0.186,0.037-0.287c0.017-0.102,0.036-0.221,0.062-0.355h-0.11
		c-0.235,0.487-0.482,0.902-0.742,1.247c-0.259,0.346-0.535,0.628-0.826,0.851c-0.293,0.222-0.608,0.384-0.943,0.484
		c-0.337,0.104-0.699,0.153-1.088,0.153c-0.487,0-0.905-0.09-1.253-0.275c-0.347-0.186-0.635-0.438-0.859-0.75
		c-0.226-0.313-0.391-0.683-0.496-1.1c-0.106-0.42-0.157-0.863-0.157-1.334c0-0.491,0.059-1.007,0.172-1.547
		c0.114-0.54,0.283-1.071,0.509-1.595c0.224-0.524,0.502-1.026,0.832-1.499c0.332-0.476,0.711-0.894,1.144-1.249
		c0.43-0.359,0.912-0.643,1.438-0.857c0.528-0.212,1.104-0.32,1.726-0.32c0.37,0,0.715,0.042,1.036,0.122
		c0.319,0.08,0.603,0.191,0.851,0.332c0.019-0.081,0.038-0.174,0.055-0.282c0.019-0.108,0.039-0.215,0.062-0.322
		c0.021-0.107,0.043-0.211,0.065-0.307c0.021-0.094,0.038-0.173,0.051-0.225l0.167-0.761c0.018-0.08,0.036-0.162,0.055-0.248
		c0.02-0.087,0.034-0.169,0.047-0.246s0.021-0.142,0.028-0.199c0.006-0.055,0.01-0.094,0.01-0.121c0-0.172-0.02-0.31-0.056-0.417
		c-0.037-0.104-0.097-0.182-0.176-0.239c-0.079-0.055-0.186-0.093-0.315-0.11c-0.129-0.019-0.283-0.026-0.462-0.026h-0.436
		l0.177-0.999h4.559L324.585,249.604z M318.12,250.418c0,0.358,0.026,0.658,0.079,0.906c0.052,0.246,0.124,0.445,0.213,0.596
		c0.09,0.15,0.197,0.261,0.323,0.328c0.127,0.066,0.265,0.103,0.41,0.103c0.279,0,0.563-0.121,0.856-0.362s0.569-0.556,0.827-0.943
		c0.259-0.39,0.493-0.829,0.7-1.322c0.205-0.491,0.364-0.996,0.476-1.506l0.667-3.146c-0.136-0.173-0.322-0.303-0.556-0.395
		c-0.233-0.089-0.464-0.134-0.693-0.134c-0.358,0-0.688,0.099-0.99,0.293c-0.303,0.192-0.574,0.449-0.819,0.767
		c-0.243,0.319-0.459,0.681-0.647,1.094c-0.188,0.407-0.343,0.83-0.468,1.266c-0.122,0.435-0.218,0.865-0.281,1.297
		C318.152,249.686,318.12,250.07,318.12,250.418z"/>
	<path fill="#FFFFFF" d="M332.798,252.425c0.309,0,0.602-0.046,0.88-0.133c0.278-0.089,0.535-0.207,0.771-0.354
		c0.237-0.144,0.451-0.306,0.638-0.49c0.189-0.181,0.351-0.366,0.487-0.558c0.073,0.093,0.132,0.209,0.174,0.355
		c0.045,0.146,0.065,0.298,0.065,0.457c0,0.229-0.073,0.47-0.222,0.723s-0.374,0.483-0.68,0.698
		c-0.306,0.212-0.694,0.389-1.165,0.526c-0.473,0.139-1.032,0.208-1.679,0.208c-0.58,0-1.126-0.079-1.638-0.239
		c-0.512-0.162-0.962-0.402-1.345-0.726c-0.385-0.325-0.689-0.733-0.912-1.222c-0.222-0.489-0.332-1.066-0.332-1.725
		c0-0.47,0.062-0.96,0.187-1.472c0.122-0.511,0.305-1.012,0.55-1.503c0.244-0.488,0.546-0.957,0.906-1.396
		c0.361-0.439,0.779-0.828,1.253-1.161c0.476-0.332,1.007-0.595,1.596-0.789c0.59-0.194,1.231-0.293,1.929-0.293
		c0.907,0,1.61,0.194,2.108,0.589c0.5,0.393,0.749,0.938,0.749,1.642c0,0.514-0.142,1.001-0.426,1.47
		c-0.283,0.469-0.676,0.879-1.175,1.236c-0.499,0.354-1.095,0.637-1.785,0.845c-0.69,0.21-1.443,0.315-2.258,0.315
		c-0.104,0-0.218,0-0.342,0c-0.123,0-0.244-0.006-0.36-0.019c-0.019,0.124-0.03,0.248-0.034,0.373
		c-0.002,0.127-0.004,0.242-0.004,0.35c0,0.735,0.17,1.298,0.514,1.695C331.592,252.226,332.109,252.425,332.798,252.425z
		 M333.464,244.47c-0.309,0-0.601,0.116-0.878,0.347c-0.278,0.231-0.527,0.532-0.748,0.9c-0.223,0.369-0.414,0.784-0.573,1.246
		c-0.161,0.458-0.279,0.913-0.353,1.364h0.166c0.47,0,0.905-0.062,1.31-0.185c0.403-0.125,0.755-0.301,1.055-0.533
		c0.3-0.23,0.533-0.507,0.704-0.829c0.17-0.32,0.254-0.68,0.254-1.082c0-0.388-0.082-0.689-0.245-0.904
		C333.991,244.578,333.761,244.47,333.464,244.47z"/>
	<path fill="#FFFFFF" d="M349.413,251.917c0-0.543,0.102-1.295,0.305-2.258l0.305-1.501c0.025-0.122,0.056-0.273,0.093-0.451
		c0.038-0.18,0.074-0.367,0.112-0.56c0.035-0.194,0.068-0.39,0.096-0.585s0.041-0.368,0.041-0.522c0-0.117-0.011-0.241-0.033-0.37
		c-0.021-0.129-0.062-0.247-0.121-0.351c-0.057-0.104-0.137-0.19-0.238-0.261c-0.102-0.065-0.237-0.101-0.402-0.101
		c-0.217,0-0.432,0.073-0.643,0.219c-0.214,0.143-0.419,0.334-0.617,0.571c-0.197,0.239-0.386,0.511-0.563,0.815
		c-0.18,0.306-0.342,0.619-0.486,0.939s-0.269,0.635-0.374,0.941c-0.106,0.309-0.187,0.587-0.24,0.834l-0.963,4.394h-2.839
		l1.59-7.537c0.02-0.08,0.035-0.165,0.051-0.252c0.017-0.084,0.03-0.166,0.04-0.243c0.013-0.077,0.022-0.144,0.03-0.2
		c0.005-0.055,0.008-0.095,0.008-0.12c0-0.174-0.019-0.309-0.056-0.417c-0.038-0.104-0.096-0.185-0.176-0.239
		c-0.081-0.056-0.184-0.093-0.31-0.113c-0.127-0.017-0.279-0.026-0.458-0.026h-0.344l0.167-1.008h4.21l-0.212,2.025h0.12
		c0.24-0.376,0.489-0.702,0.744-0.981c0.254-0.275,0.531-0.505,0.829-0.687c0.295-0.183,0.616-0.318,0.965-0.408
		c0.35-0.089,0.732-0.134,1.153-0.134c0.399,0,0.738,0.058,1.012,0.177c0.274,0.116,0.496,0.274,0.666,0.475
		c0.17,0.202,0.291,0.433,0.365,0.694c0.074,0.265,0.111,0.54,0.111,0.829c0,0.16-0.01,0.33-0.033,0.515
		c-0.021,0.181-0.048,0.363-0.082,0.551c-0.034,0.187-0.071,0.368-0.111,0.555c-0.04,0.183-0.076,0.361-0.107,0.525l-0.425,2.024
		c-0.074,0.348-0.135,0.668-0.186,0.969c-0.048,0.298-0.073,0.581-0.073,0.847c0,0.275,0.056,0.488,0.172,0.637
		c0.114,0.146,0.278,0.221,0.494,0.221c0.198,0,0.378-0.035,0.542-0.11c0.161-0.072,0.352-0.181,0.567-0.323l0.455,0.638
		c-0.149,0.161-0.317,0.32-0.509,0.479c-0.191,0.157-0.407,0.296-0.645,0.419c-0.236,0.125-0.501,0.223-0.79,0.298
		c-0.289,0.072-0.607,0.109-0.952,0.109c-0.728,0-1.287-0.171-1.676-0.515C349.606,253.003,349.413,252.525,349.413,251.917z"/>
	<path fill="#FFFFFF" d="M362.205,252.045c0-0.055,0.002-0.119,0.009-0.193c0.008-0.073,0.015-0.15,0.023-0.231
		c0.008-0.08,0.02-0.154,0.027-0.227c0.011-0.072,0.021-0.132,0.032-0.181h-0.156c-0.278,0.396-0.551,0.752-0.818,1.073
		c-0.27,0.319-0.555,0.597-0.856,0.827c-0.303,0.232-0.63,0.41-0.98,0.538c-0.353,0.128-0.753,0.188-1.203,0.188
		c-0.406,0-0.747-0.056-1.026-0.171c-0.278-0.114-0.499-0.267-0.666-0.458s-0.286-0.415-0.362-0.671
		c-0.074-0.256-0.11-0.523-0.11-0.801c0-0.313,0.036-0.657,0.11-1.035c0.075-0.376,0.146-0.725,0.214-1.045l0.685-3.341
		c0.05-0.259,0.09-0.49,0.12-0.703c0.031-0.211,0.046-0.365,0.046-0.47c0-0.254-0.076-0.422-0.231-0.501
		c-0.155-0.081-0.411-0.12-0.769-0.12h-0.343l0.167-1.008h4.55l-1.247,5.669c-0.036,0.146-0.074,0.314-0.11,0.5
		c-0.039,0.185-0.072,0.369-0.104,0.555c-0.03,0.185-0.058,0.36-0.078,0.527c-0.022,0.165-0.032,0.309-0.032,0.425
		c0,0.277,0.058,0.498,0.175,0.662c0.116,0.162,0.33,0.246,0.639,0.246c0.278,0,0.563-0.126,0.855-0.375s0.572-0.573,0.84-0.973
		c0.269-0.397,0.508-0.839,0.718-1.33c0.21-0.493,0.369-0.974,0.48-1.448l1.009-4.458h2.82l-1.285,6.158
		c-0.081,0.346-0.146,0.668-0.193,0.967c-0.05,0.301-0.074,0.583-0.074,0.85c0,0.275,0.057,0.487,0.171,0.637
		c0.115,0.146,0.279,0.221,0.496,0.221c0.196,0,0.378-0.036,0.54-0.11c0.163-0.073,0.354-0.182,0.569-0.324l0.461,0.639
		c-0.153,0.161-0.326,0.319-0.518,0.475c-0.19,0.155-0.404,0.3-0.642,0.422c-0.238,0.124-0.501,0.223-0.791,0.296
		c-0.291,0.074-0.608,0.11-0.952,0.11c-0.42,0-0.769-0.048-1.049-0.143c-0.28-0.094-0.509-0.223-0.68-0.388
		c-0.173-0.165-0.297-0.355-0.37-0.576C362.243,252.536,362.205,252.298,362.205,252.045z"/>
	<path fill="#FFFFFF" d="M373.333,252.425c0.308,0,0.601-0.046,0.879-0.133c0.277-0.089,0.535-0.207,0.772-0.354
		c0.236-0.144,0.448-0.306,0.637-0.49c0.188-0.181,0.351-0.366,0.485-0.558c0.075,0.093,0.134,0.209,0.177,0.355
		c0.042,0.146,0.065,0.298,0.065,0.457c0,0.229-0.076,0.47-0.223,0.723c-0.148,0.253-0.376,0.483-0.68,0.698
		c-0.305,0.212-0.695,0.389-1.166,0.526c-0.472,0.139-1.031,0.208-1.679,0.208c-0.579,0-1.125-0.079-1.638-0.239
		c-0.512-0.162-0.961-0.402-1.346-0.726c-0.385-0.325-0.689-0.733-0.91-1.222c-0.223-0.489-0.334-1.066-0.334-1.725
		c0-0.47,0.062-0.96,0.188-1.472c0.122-0.511,0.305-1.012,0.55-1.503c0.243-0.488,0.545-0.957,0.906-1.396s0.778-0.828,1.254-1.161
		c0.473-0.332,1.005-0.595,1.595-0.789c0.588-0.194,1.231-0.293,1.928-0.293c0.906,0,1.61,0.194,2.11,0.589
		c0.499,0.393,0.747,0.938,0.747,1.642c0,0.514-0.141,1.001-0.425,1.47c-0.283,0.469-0.676,0.879-1.175,1.236
		c-0.498,0.354-1.094,0.637-1.786,0.845c-0.688,0.21-1.442,0.315-2.257,0.315c-0.104,0-0.218,0-0.341,0
		c-0.124,0-0.244-0.006-0.362-0.019c-0.019,0.124-0.028,0.248-0.033,0.373c-0.001,0.127-0.004,0.242-0.004,0.35
		c0,0.735,0.17,1.298,0.514,1.695C372.125,252.226,372.643,252.425,373.333,252.425z M373.998,244.47
		c-0.307,0-0.601,0.116-0.878,0.347c-0.278,0.231-0.527,0.532-0.748,0.9c-0.223,0.369-0.413,0.784-0.572,1.246
		c-0.16,0.458-0.278,0.913-0.353,1.364h0.166c0.471,0,0.905-0.062,1.31-0.185c0.404-0.125,0.755-0.301,1.054-0.533
		c0.3-0.23,0.534-0.507,0.704-0.829c0.171-0.32,0.254-0.68,0.254-1.082c0-0.388-0.082-0.689-0.245-0.904
		C374.525,244.578,374.294,244.47,373.998,244.47z"/>
	<path fill="#FFFFFF" d="M381.981,252.729c0.26,0,0.501-0.031,0.724-0.096s0.413-0.157,0.573-0.275
		c0.159-0.122,0.286-0.27,0.379-0.445c0.092-0.176,0.14-0.378,0.14-0.606c0-0.215-0.043-0.407-0.125-0.574
		c-0.084-0.167-0.214-0.321-0.39-0.466c-0.176-0.146-0.397-0.29-0.666-0.43c-0.267-0.143-0.587-0.303-0.957-0.481
		c-0.369-0.173-0.705-0.358-1.003-0.556c-0.299-0.195-0.554-0.417-0.764-0.656c-0.208-0.24-0.372-0.509-0.485-0.805
		c-0.114-0.295-0.172-0.63-0.172-0.999c0-0.461,0.098-0.877,0.296-1.248c0.197-0.369,0.481-0.687,0.852-0.946
		c0.37-0.264,0.819-0.464,1.346-0.604c0.526-0.136,1.123-0.208,1.79-0.208c0.635,0,1.174,0.05,1.615,0.148
		c0.439,0.097,0.799,0.231,1.072,0.396c0.274,0.161,0.471,0.353,0.593,0.566c0.118,0.217,0.179,0.437,0.179,0.666
		c0,0.506-0.193,0.874-0.583,1.103c-0.388,0.229-0.919,0.34-1.592,0.34c0-0.252-0.022-0.507-0.072-0.763
		c-0.049-0.254-0.134-0.49-0.251-0.698c-0.116-0.211-0.267-0.378-0.454-0.509c-0.186-0.129-0.413-0.195-0.684-0.195
		c-0.247,0-0.467,0.038-0.661,0.107c-0.192,0.071-0.361,0.167-0.498,0.282c-0.141,0.125-0.245,0.265-0.319,0.426
		c-0.075,0.16-0.112,0.333-0.112,0.517c0,0.211,0.042,0.394,0.125,0.547s0.215,0.298,0.389,0.434
		c0.176,0.136,0.399,0.271,0.672,0.404c0.27,0.131,0.591,0.281,0.962,0.448c0.406,0.185,0.759,0.38,1.054,0.587
		c0.296,0.206,0.54,0.431,0.735,0.675c0.194,0.244,0.339,0.508,0.436,0.796c0.096,0.287,0.143,0.606,0.143,0.958
		c0,0.511-0.097,0.971-0.291,1.378c-0.194,0.406-0.485,0.752-0.874,1.036c-0.388,0.284-0.87,0.501-1.443,0.651
		c-0.572,0.152-1.239,0.226-1.998,0.226c-0.544,0-1.033-0.046-1.476-0.137c-0.441-0.094-0.817-0.229-1.127-0.407
		c-0.312-0.179-0.554-0.397-0.723-0.658c-0.168-0.257-0.254-0.551-0.254-0.878c0-0.295,0.06-0.545,0.176-0.747
		c0.118-0.204,0.271-0.369,0.459-0.495c0.187-0.128,0.402-0.219,0.647-0.276c0.242-0.062,0.49-0.091,0.743-0.091
		c0,0.339,0.034,0.663,0.102,0.97c0.067,0.312,0.176,0.585,0.324,0.823c0.147,0.236,0.342,0.426,0.578,0.562
		C381.346,252.66,381.636,252.729,381.981,252.729z"/>
	<path fill="#FFFFFF" d="M392.612,252.314c0.295,0,0.562-0.05,0.802-0.148c0.242-0.098,0.466-0.214,0.678-0.351l0.434,0.722
		c-0.206,0.178-0.43,0.348-0.66,0.508c-0.232,0.161-0.484,0.301-0.754,0.423c-0.271,0.12-0.563,0.215-0.876,0.284
		c-0.313,0.072-0.648,0.106-1.011,0.106c-0.346,0-0.667-0.044-0.968-0.134c-0.301-0.088-0.56-0.225-0.781-0.407
		c-0.223-0.18-0.396-0.408-0.522-0.688c-0.126-0.277-0.189-0.604-0.189-0.979c0-0.11,0.003-0.234,0.014-0.369
		c0.01-0.135,0.023-0.275,0.041-0.417c0.021-0.143,0.04-0.283,0.065-0.42c0.023-0.14,0.049-0.269,0.074-0.384l1.138-5.246h-1.461
		l0.204-0.973c0.27,0,0.566-0.047,0.887-0.138c0.321-0.093,0.647-0.243,0.986-0.455c0.335-0.208,0.672-0.481,1.008-0.82
		c0.336-0.34,0.651-0.754,0.947-1.241h1.102l-0.49,2.33h2.286l-0.26,1.297h-2.314l-1.136,5.188c-0.069,0.278-0.115,0.53-0.144,0.754
		c-0.026,0.227-0.041,0.429-0.041,0.607c0,0.313,0.086,0.553,0.259,0.714C392.096,252.233,392.327,252.314,392.612,252.314z"/>
	<path fill="#FFFFFF" d="M397.818,245.182c0-0.233-0.078-0.399-0.231-0.505c-0.154-0.099-0.408-0.149-0.768-0.149h-0.344
		l0.168-1.011h4.191l-0.4,2.601h0.094c0.215-0.458,0.434-0.858,0.652-1.203c0.219-0.344,0.458-0.636,0.721-0.868
		c0.262-0.237,0.559-0.412,0.893-0.531c0.334-0.122,0.724-0.183,1.166-0.183c0.671,0,1.172,0.129,1.499,0.381
		c0.328,0.254,0.49,0.619,0.49,1.1c0,0.654-0.19,1.141-0.574,1.462c-0.382,0.323-0.937,0.48-1.665,0.48
		c0-0.283-0.013-0.54-0.042-0.771c-0.025-0.232-0.076-0.43-0.146-0.593s-0.167-0.286-0.286-0.374
		c-0.119-0.085-0.271-0.129-0.447-0.129c-0.179,0-0.367,0.073-0.564,0.218c-0.199,0.144-0.397,0.343-0.592,0.595
		c-0.197,0.253-0.392,0.553-0.579,0.902c-0.188,0.347-0.368,0.728-0.543,1.139c-0.17,0.408-0.329,0.838-0.47,1.288
		c-0.144,0.449-0.263,0.905-0.361,1.368l-0.723,3.275h-2.858l1.608-7.613c0.021-0.106,0.044-0.241,0.07-0.415
		C397.803,245.473,397.818,245.318,397.818,245.182z"/>
	<path fill="#FFFFFF" d="M414.411,253.857c-0.561,0-1.008-0.129-1.349-0.384c-0.339-0.255-0.509-0.628-0.509-1.121
		c0-0.199,0.01-0.391,0.027-0.579c0.017-0.188,0.053-0.408,0.102-0.651h-0.131c-0.235,0.438-0.466,0.828-0.697,1.17
		c-0.234,0.341-0.49,0.628-0.774,0.859c-0.284,0.23-0.6,0.406-0.948,0.526c-0.349,0.119-0.754,0.18-1.217,0.18
		c-0.45,0-0.845-0.089-1.185-0.264c-0.339-0.174-0.621-0.418-0.846-0.725c-0.226-0.31-0.395-0.676-0.51-1.096
		c-0.115-0.423-0.17-0.881-0.17-1.376c0-0.492,0.054-1.007,0.17-1.546c0.112-0.541,0.286-1.072,0.514-1.597
		c0.229-0.522,0.511-1.024,0.847-1.498c0.336-0.476,0.726-0.894,1.166-1.249c0.439-0.359,0.931-0.643,1.475-0.856
		c0.542-0.214,1.133-0.32,1.775-0.32c0.248,0,0.498,0.021,0.754,0.061c0.254,0.04,0.5,0.091,0.735,0.151
		c0.235,0.063,0.455,0.133,0.661,0.209c0.207,0.077,0.381,0.156,0.523,0.236l0.998-0.453h1.009l-1.248,5.91
		c-0.025,0.107-0.055,0.245-0.094,0.416c-0.037,0.172-0.073,0.356-0.105,0.552c-0.036,0.195-0.063,0.382-0.088,0.563
		c-0.024,0.184-0.039,0.337-0.039,0.462c0,0.312,0.063,0.547,0.186,0.701c0.124,0.154,0.284,0.23,0.481,0.23
		c0.18,0,0.35-0.036,0.513-0.113c0.165-0.078,0.343-0.175,0.542-0.284l0.418,0.761c-0.162,0.122-0.343,0.249-0.546,0.382
		c-0.204,0.134-0.431,0.255-0.682,0.364c-0.248,0.112-0.521,0.205-0.813,0.272C415.065,253.823,414.75,253.857,414.411,253.857z
		 M409.086,250.418c0,0.364,0.024,0.667,0.076,0.915c0.054,0.247,0.125,0.445,0.213,0.597c0.088,0.149,0.197,0.259,0.324,0.325
		c0.125,0.063,0.262,0.096,0.411,0.096c0.276,0,0.565-0.12,0.86-0.362c0.296-0.241,0.574-0.557,0.833-0.949
		c0.258-0.39,0.49-0.832,0.699-1.326c0.206-0.493,0.361-0.994,0.466-1.497l0.667-3.147c-0.122-0.178-0.296-0.311-0.515-0.396
		c-0.219-0.085-0.452-0.13-0.699-0.13c-0.37,0-0.709,0.094-1.013,0.286c-0.305,0.191-0.582,0.446-0.826,0.768
		c-0.247,0.323-0.465,0.686-0.651,1.092c-0.188,0.407-0.347,0.827-0.475,1.268c-0.125,0.438-0.221,0.87-0.281,1.294
		C409.116,249.679,409.086,250.065,409.086,250.418z"/>
	<path fill="#FFFFFF" d="M428.712,252.425c0.333,0,0.635-0.046,0.902-0.133c0.268-0.089,0.511-0.208,0.726-0.357
		c0.216-0.146,0.407-0.314,0.575-0.499c0.165-0.184,0.313-0.373,0.441-0.564c0.081,0.074,0.148,0.185,0.204,0.329
		c0.058,0.144,0.084,0.311,0.084,0.503c0,0.248-0.073,0.498-0.217,0.757c-0.144,0.254-0.37,0.484-0.676,0.691
		c-0.305,0.207-0.692,0.377-1.162,0.509c-0.468,0.134-1.027,0.198-1.671,0.198c-0.576,0-1.117-0.079-1.626-0.238
		c-0.509-0.162-0.952-0.403-1.33-0.734c-0.381-0.322-0.68-0.732-0.903-1.217c-0.221-0.49-0.332-1.061-0.332-1.722
		c0-0.47,0.058-0.96,0.175-1.468c0.116-0.508,0.292-1.008,0.527-1.501c0.231-0.487,0.524-0.954,0.874-1.394
		c0.347-0.439,0.752-0.828,1.215-1.16c0.462-0.336,0.982-0.599,1.556-0.797c0.573-0.199,1.2-0.297,1.887-0.297
		c0.521,0,0.975,0.054,1.353,0.161c0.38,0.109,0.692,0.253,0.935,0.436c0.241,0.182,0.426,0.394,0.541,0.64
		c0.118,0.242,0.176,0.499,0.176,0.771c0,0.199-0.043,0.392-0.125,0.58c-0.083,0.19-0.217,0.356-0.402,0.51
		c-0.186,0.151-0.425,0.271-0.717,0.363c-0.293,0.093-0.649,0.139-1.067,0.139c0-0.33-0.029-0.648-0.088-0.948
		c-0.06-0.299-0.146-0.56-0.264-0.784c-0.118-0.225-0.261-0.402-0.431-0.534c-0.173-0.128-0.369-0.193-0.597-0.193
		c-0.27,0-0.525,0.091-0.764,0.274c-0.237,0.181-0.454,0.421-0.652,0.721c-0.196,0.3-0.37,0.644-0.522,1.026
		c-0.148,0.386-0.279,0.782-0.387,1.192c-0.11,0.411-0.189,0.815-0.246,1.214c-0.057,0.396-0.083,0.759-0.083,1.087
		c0,0.771,0.175,1.369,0.527,1.796C427.499,252.212,428.021,252.425,428.712,252.425z"/>
	<path fill="#FFFFFF" d="M438.684,252.425c0.309,0,0.601-0.046,0.878-0.133c0.28-0.089,0.536-0.207,0.774-0.354
		c0.238-0.144,0.45-0.306,0.64-0.49c0.187-0.181,0.349-0.366,0.485-0.558c0.074,0.093,0.133,0.209,0.176,0.355
		c0.041,0.146,0.063,0.298,0.063,0.457c0,0.229-0.076,0.47-0.222,0.723c-0.147,0.253-0.374,0.483-0.679,0.698
		c-0.306,0.212-0.696,0.389-1.168,0.526c-0.469,0.139-1.029,0.208-1.677,0.208c-0.581,0-1.125-0.079-1.639-0.239
		c-0.513-0.162-0.96-0.402-1.346-0.726c-0.386-0.325-0.688-0.733-0.91-1.222c-0.222-0.489-0.333-1.066-0.333-1.725
		c0-0.47,0.061-0.96,0.186-1.472c0.124-0.511,0.307-1.012,0.552-1.503c0.243-0.489,0.544-0.957,0.905-1.396
		c0.36-0.439,0.778-0.828,1.253-1.161c0.475-0.332,1.005-0.595,1.597-0.789c0.589-0.194,1.23-0.293,1.928-0.293
		c0.906,0,1.608,0.194,2.108,0.589c0.498,0.393,0.749,0.938,0.749,1.642c0,0.514-0.143,1.001-0.427,1.47
		c-0.282,0.469-0.676,0.879-1.176,1.236c-0.499,0.354-1.092,0.637-1.785,0.845c-0.688,0.21-1.441,0.315-2.257,0.315
		c-0.103,0-0.217,0-0.34,0s-0.245-0.006-0.363-0.019c-0.018,0.124-0.027,0.248-0.032,0.373c-0.003,0.127-0.005,0.242-0.005,0.35
		c0,0.735,0.173,1.298,0.513,1.695C437.476,252.226,437.995,252.425,438.684,252.425z M439.35,244.47
		c-0.309,0-0.603,0.116-0.877,0.347c-0.277,0.231-0.527,0.532-0.751,0.9c-0.221,0.369-0.413,0.784-0.572,1.246
		c-0.162,0.458-0.276,0.913-0.354,1.364h0.168c0.47,0,0.905-0.062,1.311-0.185c0.403-0.125,0.754-0.301,1.055-0.533
		c0.299-0.23,0.53-0.507,0.702-0.829c0.171-0.32,0.254-0.68,0.254-1.082c0-0.388-0.081-0.689-0.245-0.904
		C439.878,244.579,439.647,244.47,439.35,244.47z"/>
	<path fill="#FFFFFF" d="M447.63,252.351c0.196,0,0.378-0.037,0.546-0.109c0.168-0.076,0.357-0.184,0.573-0.324l0.456,0.637
		c-0.15,0.161-0.319,0.319-0.512,0.478c-0.191,0.156-0.407,0.296-0.644,0.421c-0.238,0.123-0.501,0.221-0.789,0.296
		c-0.292,0.075-0.608,0.109-0.954,0.109c-0.727,0-1.284-0.17-1.677-0.513c-0.388-0.344-0.579-0.819-0.579-1.431
		c0-0.542,0.103-1.296,0.305-2.258l1.646-7.771c0.019-0.078,0.037-0.163,0.055-0.249c0.02-0.086,0.034-0.167,0.048-0.245
		c0.014-0.076,0.021-0.144,0.027-0.198c0.007-0.057,0.01-0.094,0.01-0.121c0-0.173-0.019-0.312-0.056-0.416
		c-0.038-0.105-0.096-0.187-0.175-0.242c-0.082-0.055-0.187-0.091-0.317-0.108c-0.127-0.02-0.283-0.029-0.462-0.029h-0.397
		l0.175-0.998h4.579l-2.256,10.396c-0.077,0.347-0.135,0.669-0.185,0.968c-0.052,0.301-0.075,0.583-0.075,0.848
		c0,0.276,0.058,0.487,0.173,0.638C447.257,252.273,447.419,252.351,447.63,252.351z"/>
	<path fill="#FFFFFF" d="M455.53,252.425c0.308,0,0.601-0.046,0.88-0.133c0.276-0.089,0.532-0.207,0.771-0.354
		c0.236-0.144,0.45-0.306,0.639-0.49c0.186-0.181,0.349-0.366,0.484-0.558c0.075,0.093,0.134,0.209,0.177,0.355
		s0.065,0.298,0.065,0.457c0,0.229-0.076,0.47-0.223,0.723s-0.376,0.483-0.681,0.698c-0.305,0.212-0.692,0.389-1.163,0.526
		c-0.474,0.139-1.033,0.208-1.681,0.208c-0.58,0-1.125-0.079-1.638-0.239c-0.514-0.162-0.96-0.402-1.345-0.726
		c-0.386-0.325-0.69-0.733-0.91-1.222c-0.224-0.489-0.334-1.066-0.334-1.725c0-0.47,0.063-0.96,0.185-1.472
		c0.125-0.511,0.306-1.012,0.551-1.503c0.243-0.489,0.546-0.957,0.907-1.396s0.776-0.828,1.252-1.161
		c0.475-0.332,1.007-0.595,1.597-0.789c0.588-0.194,1.231-0.293,1.928-0.293c0.904,0,1.609,0.194,2.108,0.589
		c0.499,0.393,0.749,0.938,0.749,1.642c0,0.514-0.143,1.001-0.428,1.47c-0.282,0.469-0.673,0.879-1.173,1.236
		c-0.5,0.354-1.093,0.637-1.785,0.845c-0.689,0.21-1.442,0.315-2.259,0.315c-0.104,0-0.218,0-0.342,0
		c-0.121,0-0.243-0.006-0.361-0.019c-0.018,0.124-0.03,0.248-0.03,0.373c-0.004,0.127-0.007,0.242-0.007,0.35
		c0,0.735,0.173,1.298,0.513,1.695C454.32,252.226,454.838,252.425,455.53,252.425z M456.195,244.47
		c-0.309,0-0.601,0.116-0.879,0.347c-0.276,0.231-0.526,0.532-0.748,0.9c-0.221,0.369-0.415,0.784-0.575,1.246
		c-0.16,0.458-0.276,0.913-0.351,1.364h0.167c0.47,0,0.904-0.062,1.31-0.185c0.403-0.125,0.754-0.301,1.054-0.533
		c0.3-0.23,0.533-0.507,0.704-0.829c0.17-0.32,0.256-0.68,0.256-1.082c0-0.388-0.082-0.689-0.247-0.904
		C456.718,244.579,456.491,244.47,456.195,244.47z"/>
	<path fill="#FFFFFF" d="M462.865,241.889c0.02-0.081,0.035-0.164,0.056-0.25c0.018-0.087,0.033-0.168,0.046-0.246
		c0.013-0.076,0.021-0.142,0.028-0.198c0.007-0.055,0.008-0.094,0.008-0.12c0-0.173-0.017-0.313-0.054-0.417
		c-0.039-0.104-0.095-0.184-0.175-0.241c-0.081-0.056-0.186-0.091-0.314-0.109c-0.131-0.019-0.285-0.029-0.463-0.029h-0.437
		l0.177-0.997h4.598l-0.761,3.598c-0.023,0.117-0.063,0.267-0.113,0.444c-0.053,0.178-0.113,0.372-0.177,0.584
		c-0.064,0.207-0.134,0.425-0.211,0.641c-0.079,0.222-0.15,0.429-0.219,0.627c-0.065,0.198-0.129,0.375-0.183,0.535
		c-0.056,0.162-0.102,0.284-0.13,0.369h0.093c0.228-0.463,0.465-0.862,0.711-1.207c0.245-0.341,0.516-0.627,0.807-0.854
		c0.288-0.229,0.603-0.4,0.941-0.516c0.34-0.113,0.719-0.171,1.139-0.171c0.4,0,0.771,0.075,1.109,0.222
		c0.34,0.148,0.63,0.365,0.874,0.652s0.436,0.645,0.574,1.073c0.14,0.429,0.207,0.922,0.207,1.474c0,0.514-0.061,1.043-0.184,1.592
		c-0.125,0.549-0.306,1.087-0.548,1.614c-0.239,0.527-0.534,1.028-0.884,1.5c-0.348,0.473-0.747,0.884-1.2,1.239
		c-0.452,0.354-0.954,0.638-1.504,0.847c-0.55,0.208-1.142,0.313-1.774,0.313c-0.26,0-0.511-0.018-0.75-0.054
		c-0.24-0.037-0.464-0.087-0.67-0.15c-0.208-0.062-0.396-0.132-0.563-0.211c-0.172-0.08-0.315-0.166-0.433-0.259l-1.072,0.545
		h-1.063L462.865,241.889z M468.118,246.894c0-0.375-0.025-0.692-0.078-0.953c-0.054-0.259-0.126-0.468-0.217-0.628
		c-0.093-0.163-0.202-0.278-0.323-0.352c-0.125-0.073-0.252-0.111-0.39-0.111c-0.234,0-0.459,0.069-0.676,0.208
		c-0.215,0.14-0.423,0.32-0.613,0.543c-0.195,0.219-0.374,0.469-0.538,0.741c-0.164,0.276-0.31,0.552-0.436,0.825
		c-0.127,0.273-0.231,0.531-0.319,0.777c-0.087,0.24-0.147,0.439-0.185,0.595l-0.777,3.58c0.137,0.154,0.308,0.281,0.519,0.381
		c0.209,0.099,0.446,0.146,0.711,0.146c0.369,0,0.708-0.096,1.019-0.289c0.308-0.196,0.585-0.45,0.832-0.77
		c0.246-0.317,0.461-0.68,0.642-1.087c0.184-0.407,0.337-0.824,0.459-1.249c0.124-0.425,0.214-0.842,0.276-1.253
		C468.086,247.591,468.118,247.221,468.118,246.894z"/>
	<path fill="#FFFFFF" d="M474.177,245.182c0-0.233-0.08-0.399-0.232-0.505c-0.154-0.099-0.41-0.149-0.768-0.149h-0.344l0.167-1.011
		h4.192l-0.4,2.601h0.094c0.216-0.458,0.433-0.858,0.652-1.203c0.219-0.344,0.458-0.636,0.724-0.868
		c0.26-0.237,0.558-0.412,0.891-0.531c0.334-0.122,0.725-0.183,1.165-0.183c0.673,0,1.172,0.129,1.5,0.381
		c0.327,0.254,0.489,0.619,0.489,1.1c0,0.654-0.191,1.141-0.573,1.462c-0.382,0.323-0.936,0.48-1.663,0.48
		c0-0.283-0.014-0.54-0.044-0.771c-0.026-0.232-0.078-0.43-0.146-0.593c-0.071-0.163-0.168-0.286-0.288-0.374
		c-0.12-0.085-0.269-0.129-0.448-0.129c-0.177,0-0.363,0.073-0.563,0.218c-0.198,0.144-0.396,0.343-0.592,0.595
		c-0.197,0.253-0.392,0.553-0.58,0.902c-0.187,0.347-0.366,0.728-0.539,1.139c-0.174,0.408-0.331,0.838-0.473,1.288
		c-0.143,0.449-0.262,0.905-0.361,1.368l-0.722,3.275h-2.858l1.609-7.613c0.02-0.106,0.042-0.241,0.069-0.415
		C474.163,245.473,474.177,245.318,474.177,245.182z"/>
	<path fill="#FFFFFF" d="M490.771,253.857c-0.561,0-1.011-0.129-1.352-0.384c-0.337-0.255-0.509-0.628-0.509-1.121
		c0-0.199,0.01-0.391,0.031-0.579c0.015-0.188,0.05-0.408,0.099-0.651h-0.13c-0.234,0.438-0.468,0.828-0.698,1.17
		c-0.234,0.341-0.489,0.628-0.774,0.859c-0.284,0.23-0.599,0.406-0.947,0.526c-0.351,0.119-0.754,0.18-1.215,0.18
		c-0.451,0-0.846-0.089-1.187-0.264c-0.339-0.174-0.621-0.418-0.845-0.725c-0.227-0.31-0.398-0.676-0.512-1.096
		c-0.113-0.423-0.17-0.881-0.17-1.376c0-0.492,0.056-1.007,0.17-1.546c0.113-0.541,0.287-1.072,0.515-1.597
		c0.229-0.522,0.513-1.024,0.846-1.498c0.337-0.476,0.725-0.894,1.166-1.249c0.44-0.359,0.934-0.643,1.476-0.856
		c0.541-0.214,1.134-0.32,1.776-0.32c0.247,0,0.497,0.021,0.753,0.061c0.255,0.04,0.501,0.091,0.734,0.151
		c0.237,0.063,0.455,0.133,0.663,0.209c0.207,0.077,0.379,0.156,0.522,0.236l0.999-0.453h1.009l-1.248,5.91
		c-0.025,0.107-0.057,0.245-0.093,0.416c-0.037,0.172-0.073,0.356-0.107,0.552c-0.033,0.195-0.063,0.382-0.088,0.563
		c-0.024,0.184-0.036,0.337-0.036,0.462c0,0.312,0.061,0.547,0.185,0.701c0.123,0.154,0.282,0.23,0.48,0.23
		c0.178,0,0.35-0.036,0.512-0.113c0.166-0.078,0.344-0.175,0.541-0.284l0.419,0.761c-0.162,0.122-0.342,0.249-0.548,0.382
		c-0.203,0.134-0.429,0.255-0.679,0.364c-0.249,0.112-0.521,0.205-0.815,0.272C491.423,253.823,491.112,253.857,490.771,253.857z
		 M485.444,250.418c0,0.364,0.026,0.667,0.078,0.915c0.051,0.247,0.125,0.445,0.212,0.597c0.089,0.149,0.198,0.259,0.325,0.325
		c0.126,0.063,0.263,0.096,0.411,0.096c0.276,0,0.565-0.12,0.858-0.362c0.296-0.241,0.574-0.557,0.833-0.949
		c0.261-0.39,0.491-0.832,0.7-1.326c0.205-0.493,0.362-0.994,0.465-1.497l0.668-3.147c-0.121-0.178-0.295-0.311-0.513-0.396
		c-0.219-0.085-0.455-0.13-0.698-0.13c-0.373,0-0.709,0.094-1.017,0.286c-0.303,0.191-0.578,0.446-0.824,0.768
		c-0.248,0.323-0.466,0.686-0.651,1.092c-0.19,0.407-0.348,0.827-0.476,1.268c-0.124,0.438-0.219,0.87-0.282,1.294
		C485.473,249.679,485.444,250.065,485.444,250.418z"/>
	<path fill="#FFFFFF" d="M500.153,252.425c0.332,0,0.632-0.046,0.899-0.133c0.267-0.089,0.51-0.208,0.725-0.357
		c0.216-0.146,0.407-0.314,0.575-0.499c0.166-0.184,0.314-0.373,0.444-0.564c0.079,0.074,0.147,0.185,0.203,0.329
		c0.058,0.144,0.084,0.311,0.084,0.503c0,0.248-0.073,0.498-0.217,0.757c-0.146,0.254-0.373,0.484-0.677,0.691
		c-0.303,0.207-0.691,0.377-1.16,0.509c-0.469,0.134-1.026,0.198-1.676,0.198c-0.573,0-1.114-0.079-1.621-0.238
		c-0.51-0.162-0.954-0.403-1.333-0.734c-0.379-0.322-0.68-0.732-0.899-1.217c-0.224-0.49-0.334-1.061-0.334-1.722
		c0-0.47,0.058-0.96,0.174-1.468c0.119-0.508,0.293-1.008,0.529-1.501c0.233-0.487,0.524-0.954,0.872-1.394
		c0.35-0.439,0.753-0.828,1.217-1.16c0.462-0.336,0.981-0.599,1.556-0.797c0.572-0.199,1.203-0.297,1.884-0.297
		c0.524,0,0.978,0.054,1.355,0.161c0.378,0.109,0.69,0.253,0.935,0.436c0.24,0.182,0.424,0.394,0.541,0.64
		c0.118,0.242,0.175,0.499,0.175,0.771c0,0.199-0.042,0.392-0.125,0.58c-0.083,0.19-0.218,0.356-0.402,0.51
		c-0.185,0.151-0.426,0.271-0.715,0.363c-0.295,0.093-0.65,0.139-1.069,0.139c0-0.33-0.028-0.648-0.088-0.948
		c-0.059-0.299-0.147-0.56-0.265-0.784c-0.115-0.225-0.261-0.402-0.431-0.534c-0.169-0.128-0.365-0.193-0.595-0.193
		c-0.272,0-0.523,0.091-0.764,0.274c-0.237,0.181-0.455,0.421-0.651,0.721c-0.198,0.3-0.371,0.644-0.522,1.026
		c-0.152,0.386-0.281,0.782-0.391,1.192c-0.105,0.411-0.19,0.815-0.244,1.214c-0.057,0.396-0.082,0.759-0.082,1.087
		c0,0.771,0.172,1.369,0.525,1.796C498.938,252.212,499.461,252.425,500.153,252.425z"/>
	<path fill="#FFFFFF" d="M510.15,243.517l-1.313,6.159c-0.075,0.348-0.138,0.668-0.187,0.967c-0.049,0.3-0.072,0.583-0.072,0.849
		c0,0.275,0.058,0.488,0.172,0.637c0.114,0.146,0.273,0.221,0.483,0.221c0.2,0,0.382-0.035,0.547-0.11
		c0.168-0.073,0.359-0.181,0.574-0.323l0.451,0.638c-0.144,0.161-0.316,0.32-0.506,0.476c-0.192,0.159-0.406,0.299-0.647,0.421
		c-0.24,0.126-0.505,0.224-0.792,0.297c-0.287,0.074-0.604,0.11-0.946,0.11c-0.729,0-1.286-0.171-1.676-0.515
		c-0.389-0.341-0.583-0.819-0.583-1.428c0-0.271,0.023-0.596,0.074-0.972c0.05-0.378,0.127-0.807,0.232-1.286l0.738-3.524
		c0.021-0.078,0.037-0.162,0.054-0.25c0.015-0.085,0.028-0.167,0.042-0.244c0.013-0.076,0.019-0.142,0.026-0.198
		c0.006-0.057,0.007-0.096,0.007-0.121c0-0.171-0.016-0.311-0.054-0.416c-0.037-0.104-0.097-0.185-0.174-0.241
		c-0.081-0.054-0.184-0.091-0.311-0.111c-0.127-0.019-0.278-0.026-0.458-0.026h-0.344l0.169-1.008h4.494v0.001H510.15z
		 M508.836,241.815c-0.209,0-0.404-0.023-0.583-0.07c-0.178-0.046-0.335-0.117-0.47-0.218c-0.133-0.097-0.236-0.221-0.313-0.367
		c-0.076-0.147-0.114-0.322-0.114-0.519c0-0.278,0.046-0.517,0.144-0.708c0.095-0.194,0.221-0.354,0.383-0.48
		c0.158-0.129,0.348-0.22,0.563-0.277c0.216-0.06,0.44-0.088,0.677-0.088c0.203,0,0.396,0.021,0.576,0.063
		c0.184,0.045,0.343,0.113,0.481,0.213c0.141,0.099,0.251,0.224,0.334,0.375c0.082,0.149,0.124,0.33,0.124,0.541
		c0,0.259-0.051,0.486-0.152,0.68c-0.103,0.192-0.237,0.355-0.407,0.481c-0.17,0.125-0.363,0.219-0.577,0.281
		C509.287,241.783,509.064,241.815,508.836,241.815z"/>
	<path fill="#FFFFFF" d="M511.872,249.879c0-0.473,0.056-0.963,0.165-1.468c0.112-0.505,0.282-1.001,0.506-1.489
		c0.226-0.488,0.508-0.947,0.848-1.384c0.339-0.433,0.737-0.815,1.197-1.144c0.46-0.325,0.981-0.585,1.563-0.776
		c0.584-0.191,1.23-0.286,1.941-0.286c0.539,0,1.052,0.076,1.534,0.228c0.481,0.149,0.898,0.387,1.256,0.707
		c0.359,0.322,0.644,0.732,0.853,1.236c0.21,0.504,0.314,1.105,0.314,1.808c0,0.458-0.053,0.934-0.157,1.433
		c-0.106,0.502-0.27,0.993-0.487,1.476c-0.218,0.485-0.495,0.948-0.831,1.389c-0.336,0.439-0.731,0.827-1.188,1.161
		s-0.974,0.6-1.555,0.796c-0.579,0.198-1.228,0.294-1.941,0.294c-0.593,0-1.136-0.079-1.629-0.244
		c-0.494-0.164-0.915-0.41-1.267-0.74c-0.354-0.33-0.626-0.744-0.824-1.244C511.969,251.13,511.872,250.547,511.872,249.879z
		 M516.227,252.5c0.34,0,0.647-0.099,0.922-0.292c0.271-0.192,0.521-0.45,0.74-0.768c0.219-0.318,0.409-0.681,0.568-1.086
		c0.162-0.407,0.291-0.827,0.394-1.261c0.103-0.431,0.178-0.855,0.231-1.271c0.053-0.417,0.08-0.79,0.08-1.125
		c0-0.745-0.128-1.279-0.383-1.607c-0.259-0.327-0.608-0.491-1.053-0.491c-0.319,0-0.614,0.094-0.887,0.279
		c-0.272,0.184-0.517,0.432-0.737,0.738c-0.217,0.309-0.409,0.664-0.578,1.06c-0.167,0.398-0.308,0.812-0.421,1.234
		c-0.115,0.429-0.198,0.852-0.252,1.274c-0.059,0.422-0.085,0.809-0.085,1.161c0,0.772,0.128,1.323,0.39,1.658
		C515.415,252.333,515.773,252.5,516.227,252.5z M517.346,241.944c0.174-0.178,0.361-0.385,0.564-0.62
		c0.204-0.234,0.406-0.477,0.606-0.724c0.201-0.25,0.396-0.5,0.584-0.746c0.187-0.245,0.356-0.477,0.503-0.694h2.969l-0.055,0.196
		c-0.098,0.11-0.235,0.241-0.405,0.393c-0.175,0.153-0.37,0.315-0.588,0.487c-0.219,0.172-0.455,0.349-0.705,0.531
		c-0.247,0.182-0.502,0.359-0.763,0.53c-0.258,0.174-0.515,0.339-0.77,0.494c-0.252,0.159-0.488,0.291-0.71,0.403h-1.286
		L517.346,241.944z"/>
	<path fill="#FFFFFF" d="M530.093,251.917c0-0.543,0.103-1.295,0.305-2.258l0.307-1.501c0.023-0.122,0.055-0.273,0.093-0.451
		c0.037-0.18,0.073-0.367,0.109-0.56c0.037-0.194,0.068-0.39,0.097-0.585c0.026-0.195,0.042-0.368,0.042-0.522
		c0-0.117-0.011-0.241-0.031-0.37c-0.022-0.128-0.063-0.247-0.12-0.351c-0.059-0.104-0.14-0.19-0.242-0.261
		c-0.102-0.065-0.236-0.101-0.401-0.101c-0.215,0-0.43,0.073-0.642,0.219c-0.215,0.143-0.419,0.334-0.616,0.571
		c-0.198,0.239-0.387,0.511-0.563,0.815c-0.181,0.306-0.341,0.619-0.487,0.939c-0.143,0.32-0.269,0.635-0.374,0.941
		c-0.104,0.309-0.185,0.587-0.239,0.834l-0.963,4.394h-2.84l1.59-7.537c0.021-0.08,0.035-0.165,0.053-0.252
		c0.016-0.084,0.029-0.166,0.043-0.243c0.012-0.077,0.021-0.144,0.025-0.2c0.008-0.055,0.012-0.095,0.012-0.12
		c0-0.174-0.021-0.309-0.059-0.417c-0.034-0.104-0.093-0.185-0.175-0.239c-0.079-0.056-0.183-0.093-0.31-0.113
		c-0.125-0.017-0.277-0.026-0.457-0.026h-0.343l0.168-1.008h4.208l-0.211,2.025h0.119c0.24-0.376,0.489-0.702,0.743-0.981
		c0.257-0.275,0.534-0.505,0.828-0.687c0.295-0.183,0.619-0.318,0.967-0.408c0.35-0.089,0.733-0.134,1.153-0.134
		c0.399,0,0.739,0.058,1.012,0.177c0.273,0.116,0.497,0.274,0.668,0.475c0.169,0.202,0.289,0.433,0.363,0.694
		c0.073,0.265,0.111,0.54,0.111,0.829c0,0.16-0.011,0.33-0.031,0.515c-0.023,0.181-0.05,0.363-0.085,0.551
		c-0.033,0.184-0.072,0.368-0.111,0.555c-0.039,0.183-0.075,0.361-0.106,0.525l-0.426,2.024c-0.073,0.348-0.135,0.668-0.186,0.969
		c-0.049,0.3-0.072,0.581-0.072,0.847c0,0.275,0.056,0.488,0.172,0.637c0.113,0.146,0.279,0.221,0.493,0.221
		c0.199,0,0.378-0.035,0.542-0.11c0.166-0.072,0.354-0.181,0.568-0.323l0.455,0.638c-0.147,0.161-0.318,0.32-0.51,0.479
		c-0.191,0.151-0.406,0.296-0.644,0.419c-0.237,0.125-0.501,0.223-0.792,0.298c-0.287,0.072-0.604,0.109-0.952,0.109
		c-0.727,0-1.285-0.171-1.673-0.515C530.29,253.003,530.093,252.525,530.093,251.917z"/>
	<path fill="#FFFFFF" d="M540.195,252.119c0,0.315-0.049,0.582-0.144,0.802c-0.095,0.219-0.22,0.396-0.378,0.527
		c-0.158,0.134-0.334,0.228-0.532,0.286c-0.197,0.058-0.394,0.089-0.593,0.089c-0.46,0-0.831-0.113-1.114-0.333
		c-0.282-0.223-0.42-0.565-0.42-1.027c0-0.259,0.038-0.493,0.115-0.704c0.076-0.208,0.185-0.389,0.328-0.536
		c0.141-0.146,0.313-0.261,0.518-0.343c0.204-0.078,0.432-0.121,0.684-0.121c0.214,0,0.417,0.028,0.605,0.085
		c0.189,0.055,0.354,0.14,0.49,0.248c0.139,0.111,0.248,0.254,0.324,0.427C540.156,251.69,540.195,251.892,540.195,252.119z
		 M539.528,240.149h3.294l-3.273,9.205h-1.102L539.528,240.149z"/>
</g>
<g>
	<path fill="#FFFFFF" d="M200.725,138.787h10.4c3.036,0,5.071-1.475,6.108-4.424l0.842-2.316h2.816l-2.37,9.425h-28.907l0.421-2.265
		h0.71c1.827,0,3.094-0.321,3.805-0.961c0.71-0.641,1.188-1.522,1.435-2.646l5.608-26.484c0.104-0.491,0.158-0.922,0.158-1.291
		c0-0.842-0.247-1.483-0.739-1.922c-0.492-0.438-1.508-0.658-3.053-0.658h-0.685l0.473-2.264h27.17l-1.712,9.426h-2.815l0.158-1.659
		c0.087-0.842,0.132-1.333,0.132-1.474c0-2.405-1.282-3.606-3.845-3.606h-9.057l-3.08,14.347h13.006l-0.526,2.634h-13.004
		L200.725,138.787z"/>
	<path fill="#FFFFFF" d="M231.133,130.206c0,2.754,0.728,4.971,2.186,6.647c1.457,1.676,3.458,2.514,6.001,2.514
		c2.51,0,4.507-0.623,5.99-1.869c1.483-1.246,2.225-2.938,2.225-5.081c0-1.703-0.427-3.143-1.275-4.319
		c-0.854-1.175-2.691-2.562-5.517-4.159c-2.879-1.667-4.876-3.378-5.989-5.133c-1.115-1.755-1.671-3.739-1.671-5.951
		c0-3.106,1.175-5.62,3.526-7.542c2.352-1.921,5.538-2.882,9.557-2.882c3.124,0,5.616,0.543,7.476,1.633
		c1.86,1.087,2.792,2.484,2.792,4.186c0,2.493-1.59,3.738-4.765,3.738c0-2.105-0.5-3.772-1.5-5.001
		c-1-1.229-2.476-1.844-4.423-1.844c-2.142,0-3.897,0.615-5.266,1.844c-1.369,1.229-2.054,2.877-2.054,4.949
		c0,1.526,0.364,2.848,1.093,3.963c0.728,1.114,2.585,2.541,5.567,4.278c2.826,1.649,4.866,3.291,6.121,4.923
		c1.256,1.631,1.883,3.491,1.883,5.58c0,3.563-1.247,6.341-3.739,8.332c-2.493,1.992-5.959,2.988-10.399,2.988
		c-3.669,0-6.583-0.725-8.74-2.172c-2.159-1.447-3.238-3.286-3.238-5.515c0-1.247,0.39-2.242,1.172-2.988
		C228.926,130.579,229.923,130.206,231.133,130.206z"/>
	<path fill="#FFFFFF" d="M274.415,135.549c-0.141,0.667-0.209,1.168-0.209,1.5c0,1.44,1.298,2.159,3.896,2.159h1.238l-0.5,2.265
		h-16.77l0.5-2.265h1.239c1.807,0,3.062-0.311,3.764-0.935c0.702-0.624,1.175-1.513,1.421-2.672l6.345-29.934h-5.16
		c-2.562,0-4.361,1.475-5.396,4.423l-0.763,2.317h-2.791l2.266-9.425h30.352l-1.737,9.425h-2.791
		c0.175-1.405,0.263-2.501,0.263-3.29c0-2.301-1.185-3.45-3.555-3.45h-5.238L274.415,135.549z"/>
	<path fill="#FFFFFF" d="M299.926,128.599l-3.238,5.66c-0.685,1.194-1.027,2.195-1.027,3.001c0,1.3,1.001,1.948,3.001,1.948h1.264
		l-0.447,2.265h-13.322l0.448-2.265h1.026c0.966,0,1.772-0.249,2.422-0.75c0.649-0.5,1.51-1.653,2.58-3.462l18.771-32.014h4.211
		l5.108,33.357c0.176,1.124,0.482,1.882,0.921,2.277c0.438,0.395,1.193,0.592,2.264,0.592h0.711l-0.446,2.265h-14.665l0.42-2.265
		h1.265c2.579,0,3.87-0.912,3.87-2.738c0-0.737-0.036-1.351-0.104-1.843l-0.868-6.028L299.926,128.599L299.926,128.599z
		 M312.378,116.462c-0.544-3.826-0.833-6.669-0.869-8.53c-0.825,1.948-2.229,4.626-4.211,8.029l-5.766,9.926h12.189L312.378,116.462
		z M311.248,99.191c2.054-2.371,3.974-5.01,5.766-7.925h5.766l-0.157,0.553c-2.758,3.21-5.881,5.906-9.372,8.083h-2.159
		L311.248,99.191z"/>
	<path fill="#FFFFFF" d="M360.479,141.473l0.475-2.265h0.158c1.526,0,2.598-0.285,3.21-0.855c0.616-0.571,1.072-1.418,1.371-2.541
		l6.161-28.803l-19.694,34.463h-2.894l-5.24-34.463l-6.028,28.539c-0.157,0.756-0.237,1.254-0.237,1.5
		c0,1.439,1.299,2.159,3.898,2.159h0.683l-0.474,2.265h-13.479l0.475-2.265h0.71c1.79,0,3.032-0.317,3.726-0.948
		c0.694-0.632,1.161-1.517,1.409-2.659l5.66-26.695c0.139-0.667,0.211-1.168,0.211-1.502c0-1.438-1.301-2.159-3.898-2.159h-0.684
		l0.474-2.264h12.242l4.58,30.723l17.642-30.723h12.029l-0.499,2.264h-0.685c-1.721,0-2.958,0.329-3.713,0.988
		c-0.755,0.657-1.263,1.618-1.524,2.883l-5.608,26.433c-0.141,0.667-0.212,1.167-0.212,1.5c0,1.438,1.291,2.158,3.871,2.158h0.711
		l-0.501,2.264H360.48L360.479,141.473L360.479,141.473z"/>
	<path fill="#FFFFFF" d="M406.683,102.377c4.178,0,7.547,1.3,10.11,3.897c2.563,2.598,3.844,6.24,3.844,10.926
		c0,6.161-2.001,11.848-6.002,17.061c-4.002,5.212-9.137,7.817-15.402,7.817c-4.264,0-7.687-1.345-10.266-4.04
		c-2.58-2.694-3.871-6.333-3.871-10.913c0-6.178,2.02-11.848,6.056-17.009C395.189,104.957,400.366,102.377,406.683,102.377z
		 M399.549,139.102c4.477,0,8.122-2.479,10.94-7.437c2.814-4.959,4.225-10.263,4.225-15.916c0-3.352-0.742-5.931-2.226-7.74
		c-1.484-1.807-3.567-2.711-6.253-2.711c-4.493,0-8.159,2.489-10.99,7.463c-2.835,4.976-4.253,10.273-4.253,15.888
		c0,3.371,0.765,5.955,2.29,7.753C394.809,138.204,396.899,139.102,399.549,139.102z"/>
	<path fill="#FFFFFF" d="M429.116,130.206c0,2.754,0.728,4.971,2.186,6.647c1.456,1.676,3.457,2.514,6.002,2.514
		c2.51,0,4.506-0.623,5.987-1.869c1.485-1.246,2.228-2.938,2.228-5.081c0-1.703-0.425-3.143-1.278-4.319
		c-0.851-1.175-2.688-2.562-5.516-4.159c-2.876-1.667-4.874-3.378-5.987-5.133c-1.115-1.755-1.674-3.739-1.674-5.951
		c0-3.106,1.177-5.62,3.528-7.542c2.354-1.921,5.537-2.882,9.556-2.882c3.127,0,5.618,0.543,7.479,1.633
		c1.859,1.087,2.791,2.484,2.791,4.186c0,2.493-1.588,3.738-4.767,3.738c0-2.105-0.499-3.772-1.501-5.001
		c-0.999-1.229-2.476-1.844-4.421-1.844c-2.145,0-3.899,0.615-5.267,1.844c-1.369,1.229-2.053,2.877-2.053,4.949
		c0,1.526,0.363,2.848,1.091,3.963c0.728,1.114,2.584,2.541,5.568,4.278c2.827,1.649,4.864,3.291,6.12,4.923
		c1.255,1.631,1.882,3.491,1.882,5.58c0,3.563-1.245,6.341-3.739,8.332c-2.489,1.992-5.957,2.988-10.398,2.988
		c-3.668,0-6.581-0.725-8.74-2.172c-2.16-1.447-3.238-3.286-3.238-5.515c0-1.247,0.39-2.242,1.171-2.988
		C426.909,130.579,427.904,130.206,429.116,130.206z"/>
	<path fill="#FFFFFF" d="M471.741,139.209h0.709c2.985,0,4.747-1.29,5.292-3.87l5.608-26.434c0.141-0.667,0.209-1.167,0.209-1.501
		c0-1.438-1.299-2.158-3.896-2.158h-0.686l0.476-2.264h15.109c4.898,0,8.672,1.268,11.324,3.804
		c2.647,2.537,3.974,6.156,3.974,10.86c0,6.88-1.957,12.571-5.871,17.073c-3.913,4.502-9.146,6.753-15.69,6.753h-16.981
		L471.741,139.209z M487.114,138.736c5.196,0,9.308-1.993,12.332-5.977c3.029-3.982,4.544-9.223,4.544-15.717
		c0-7.582-3.415-11.372-10.243-11.372h-4.265l-7.055,33.066H487.114L487.114,138.736z"/>
	<path fill="#FFFFFF" d="M523.787,138.787h10.399c3.036,0,5.072-1.475,6.109-4.424l0.843-2.316h2.816l-2.371,9.425h-28.906
		l0.423-2.265h0.711c1.824,0,3.092-0.321,3.803-0.961c0.712-0.641,1.189-1.522,1.437-2.646l5.606-26.484
		c0.107-0.491,0.16-0.922,0.16-1.291c0-0.842-0.245-1.483-0.739-1.922c-0.489-0.438-1.509-0.658-3.052-0.658h-0.686l0.475-2.264
		h27.169l-1.711,9.426h-2.817l0.159-1.659c0.086-0.842,0.132-1.333,0.132-1.474c0-2.405-1.28-3.606-3.844-3.606h-9.058
		l-3.078,14.347h13.006l-0.526,2.634h-13.005L523.787,138.787z"/>
	<path fill="#FFFFFF" d="M218.996,198.303c0.474,0.331,0.711,0.93,0.711,1.789c0,1.72-1.001,3.253-3.002,4.594
		c-2.001,1.343-4.757,2.013-8.266,2.013c-4.686,0-8.342-1.255-10.965-3.764c-2.624-2.511-3.935-6.064-3.935-10.661
		c0-6.812,2.124-12.705,6.37-17.68c4.248-4.977,9.531-7.465,15.85-7.465c3.142,0,5.589,0.542,7.344,1.62
		c1.755,1.079,2.633,2.54,2.633,4.382c0,1.281-0.482,2.3-1.448,3.055c-0.965,0.754-2.248,1.132-3.844,1.132
		c0-4.881-1.789-7.317-5.371-7.317c-4.44,0-8.157,2.416-11.149,7.251c-2.993,4.836-4.488,10.124-4.488,15.86
		c0,6.727,3.194,10.085,9.583,10.085C213.178,203.198,216.503,201.569,218.996,198.303z"/>
	<path fill="#FFFFFF" d="M232.213,169.948l0.474-2.263h15.691l-0.42,2.263h-0.71c-1.686,0-2.914,0.32-3.687,0.962
		c-0.773,0.64-1.308,1.612-1.605,2.909l-4.029,19.033c-0.439,2.071-0.658,3.749-0.658,5.028c0,3.74,2.589,5.608,7.766,5.608
		c2.914,0,5.222-0.648,6.923-1.949c1.703-1.295,2.887-3.455,3.554-6.474l4.581-21.457c0.141-0.65,0.21-1.15,0.21-1.502
		c0-1.439-1.299-2.159-3.897-2.159h-0.684l0.474-2.263h13.532l-0.42,2.263h-0.712c-1.686,0-2.913,0.32-3.685,0.963
		c-0.772,0.64-1.309,1.611-1.606,2.909l-4.529,21.351c-1.632,7.688-6.476,11.532-14.533,11.532c-3.966,0-6.999-0.808-9.097-2.422
		c-2.097-1.615-3.146-3.914-3.146-6.898c0-1.457,0.193-3.053,0.58-4.793l4.001-18.979c0.14-0.666,0.21-1.166,0.21-1.502
		c0-1.438-1.299-2.158-3.897-2.158h-0.686v-0.002H232.213z"/>
	<path fill="#FFFFFF" d="M299.451,206.175l0.475-2.265h0.159c1.526,0,2.597-0.285,3.211-0.857c0.613-0.569,1.07-1.416,1.37-2.54
		l6.16-28.802l-19.692,34.462h-2.896L283,171.711l-6.03,28.54c-0.158,0.755-0.236,1.254-0.236,1.501
		c0,1.438,1.298,2.158,3.896,2.158h0.685l-0.474,2.265h-13.482l0.475-2.265h0.711c1.79,0,3.031-0.316,3.724-0.946
		c0.694-0.633,1.164-1.519,1.41-2.661l5.661-26.693c0.14-0.667,0.209-1.167,0.209-1.502c0-1.439-1.298-2.159-3.897-2.159h-0.684
		l0.474-2.263h12.241l4.581,30.723l17.639-30.723h12.032l-0.499,2.263h-0.686c-1.721,0-2.958,0.33-3.712,0.986
		c-0.755,0.66-1.264,1.621-1.527,2.885l-5.607,26.433c-0.141,0.667-0.21,1.167-0.21,1.5c0,1.438,1.289,2.159,3.869,2.159h0.712
		l-0.5,2.264H299.451L299.451,206.175L299.451,206.175z"/>
	<path fill="#FFFFFF" d="M320.2,206.175l0.474-2.265h0.711c1.685,0,2.905-0.325,3.658-0.973c0.755-0.651,1.265-1.617,1.526-2.896
		l5.607-26.432c0.142-0.667,0.211-1.167,0.211-1.503c0-1.438-1.299-2.158-3.896-2.158h-0.687l0.474-2.263H342.1
		c3.896,0,6.915,0.901,9.057,2.712c2.142,1.809,3.213,4.371,3.213,7.688c0,4.089-1.374,7.294-4.122,9.62
		c-2.747,2.326-6.867,3.488-12.36,3.488h-4.002l-1.923,9.053c-0.156,0.741-0.235,1.239-0.235,1.505c0,1.437,1.299,2.158,3.896,2.158
		h1.765l-0.475,2.264L320.2,206.175L320.2,206.175L320.2,206.175z M334.441,188.64h2.844c7.582,0,11.373-3.501,11.373-10.505
		c0-5.247-2.623-7.871-7.872-7.871h-2.476L334.441,188.64z"/>
	<path fill="#FFFFFF" d="M356.373,203.91h0.71c1.686,0,2.896-0.331,3.634-0.988c0.738-0.658,1.255-1.618,1.553-2.882l5.608-26.432
		c0.14-0.669,0.21-1.166,0.21-1.502c0-1.438-1.298-2.158-3.896-2.158h-0.686l0.474-2.263h15.691l-0.474,2.263h-0.71
		c-1.704,0-2.923,0.302-3.66,0.908c-0.737,0.604-1.237,1.522-1.502,2.752l-6.37,29.881h10.609c2.756,0,4.677-1.623,5.767-4.871
		l1.42-4.028h2.792l-2.792,11.585h-28.854L356.373,203.91z"/>
	<path fill="#FFFFFF" d="M402.812,203.489h10.398c3.037,0,5.074-1.475,6.109-4.425l0.841-2.318h2.818l-2.369,9.429h-28.906
		l0.42-2.265h0.713c1.823,0,3.093-0.322,3.804-0.963c0.712-0.641,1.189-1.521,1.435-2.646l5.607-26.484
		c0.105-0.491,0.157-0.922,0.157-1.29c0-0.843-0.244-1.484-0.737-1.923c-0.49-0.437-1.508-0.658-3.053-0.658h-0.685l0.475-2.264
		h27.17l-1.711,9.424h-2.818l0.158-1.656c0.087-0.844,0.134-1.334,0.134-1.475c0-2.405-1.281-3.605-3.844-3.605h-9.058
		l-3.079,14.348h13.005l-0.526,2.631h-13.003L402.812,203.489z"/>
	<path fill="#FFFFFF" d="M439.436,193.298l-3.24,5.661c-0.684,1.195-1.026,2.194-1.026,3.002c0,1.3,1.001,1.947,3.001,1.947h1.266
		l-0.448,2.267h-13.321l0.447-2.267h1.026c0.966,0,1.772-0.248,2.421-0.75c0.648-0.499,1.51-1.653,2.581-3.461l18.77-32.014h4.212
		l5.108,33.356c0.175,1.123,0.481,1.881,0.922,2.275c0.438,0.396,1.193,0.592,2.264,0.592h0.71l-0.445,2.265h-14.664l0.422-2.264
		h1.264c2.578,0,3.868-0.913,3.868-2.738c0-0.738-0.035-1.351-0.104-1.844l-0.869-6.028H439.436L439.436,193.298z M451.887,181.163
		c-0.543-3.827-0.833-6.67-0.87-8.53c-0.822,1.949-2.227,4.626-4.21,8.03l-5.766,9.925h12.188L451.887,181.163z"/>
	<path fill="#FFFFFF" d="M503.911,173.608c0.139-0.669,0.211-1.166,0.211-1.502c0-1.438-1.29-2.158-3.869-2.158h-0.712l0.499-2.263
		h13.532l-0.498,2.263h-0.686c-1.721,0-2.953,0.33-3.698,0.986c-0.746,0.659-1.262,1.62-1.541,2.885l-6.845,32.355h-3.501
		l-13.876-31.592l-5.423,25.668c-0.158,0.755-0.237,1.254-0.237,1.501c0,1.438,1.3,2.158,3.898,2.158h0.682l-0.473,2.265h-13.479
		l0.474-2.265h0.711c1.687,0,2.896-0.33,3.634-0.987c0.739-0.657,1.253-1.619,1.555-2.882l5.605-26.432
		c0.141-0.667,0.211-1.167,0.211-1.502c0-1.439-1.299-2.159-3.896-2.159h-0.685l0.474-2.263h9.819l13.061,29.749L503.911,173.608z
		 M504.437,158.232h2.422c-1.264,4.248-3.599,6.372-7.003,6.372c-1.421,0-2.906-0.57-4.448-1.712
		c-1.563-1.124-2.669-1.685-3.317-1.685c-1.545,0-2.624,0.947-3.239,2.842h-2.424c1.267-4.228,3.617-6.343,7.06-6.343
		c1.438,0,2.92,0.561,4.448,1.685c1.526,1.142,2.614,1.712,3.266,1.712C502.76,161.103,503.838,160.145,504.437,158.232z"/>
	<path fill="#FFFFFF" d="M536.768,167.077c4.177,0,7.545,1.301,10.109,3.897c2.563,2.598,3.842,6.24,3.842,10.926
		c0,6.16-1.999,11.847-5.999,17.059c-4.002,5.213-9.139,7.82-15.404,7.82c-4.265,0-7.687-1.347-10.266-4.042
		c-2.579-2.693-3.87-6.331-3.87-10.912c0-6.178,2.018-11.848,6.055-17.008C525.27,169.658,530.449,167.077,536.768,167.077z
		 M529.633,203.805c4.476,0,8.12-2.479,10.936-7.438c2.818-4.957,4.228-10.262,4.228-15.916c0-3.35-0.741-5.93-2.227-7.738
		c-1.482-1.807-3.564-2.712-6.253-2.712c-4.492,0-8.156,2.488-10.989,7.463c-2.834,4.978-4.252,10.273-4.252,15.889
		c0,3.372,0.766,5.955,2.291,7.753C524.893,202.903,526.983,203.805,529.633,203.805z"/>
	<path fill="#FFFFFF" d="M559.198,194.906c0,2.757,0.729,4.972,2.186,6.649c1.458,1.676,3.457,2.513,6.004,2.513
		c2.507,0,4.503-0.623,5.987-1.87c1.481-1.246,2.226-2.939,2.226-5.08c0-1.703-0.427-3.144-1.277-4.319
		c-0.851-1.175-2.688-2.563-5.514-4.159c-2.879-1.667-4.875-3.377-5.992-5.133c-1.111-1.756-1.67-3.739-1.67-5.952
		c0-3.104,1.178-5.621,3.527-7.542c2.351-1.923,5.538-2.883,9.557-2.883c3.124,0,5.617,0.544,7.478,1.632
		c1.859,1.09,2.791,2.485,2.791,4.188c0,2.493-1.59,3.736-4.765,3.736c0-2.104-0.501-3.772-1.502-5.001
		c-0.999-1.229-2.475-1.843-4.424-1.843c-2.139,0-3.895,0.614-5.265,1.843c-1.368,1.229-2.053,2.88-2.053,4.949
		c0,1.527,0.363,2.846,1.092,3.964c0.727,1.112,2.585,2.539,5.568,4.277c2.827,1.652,4.865,3.293,6.122,4.921
		c1.253,1.634,1.881,3.494,1.881,5.584c0,3.563-1.245,6.339-3.739,8.331c-2.49,1.992-5.957,2.987-10.398,2.987
		c-3.667,0-6.58-0.723-8.738-2.17c-2.162-1.45-3.24-3.288-3.24-5.517c0-1.246,0.391-2.243,1.171-2.987
		C556.991,195.279,557.986,194.906,559.198,194.906z"/>
</g>
</svg>
