<?xml version="1.0" encoding="utf-8"?>
<!-- Generator: Adobe Illustrator 16.0.0, SVG Export Plug-In . SVG Version: 6.00 Build 0)  -->
<!DOCTYPE svg PUBLIC "-//W3C//DTD SVG 1.1//EN" "http://www.w3.org/Graphics/SVG/1.1/DTD/svg11.dtd">
<svg version="1.1" id="Capa_1" xmlns="http://www.w3.org/2000/svg" xmlns:xlink="http://www.w3.org/1999/xlink" x="0px" y="0px"
	 width="30px" height="30px" viewBox="0 0 30 30" enable-background="new 0 0 30 30" xml:space="preserve">
<g id="password">
	<path fill="#606060" d="M12.107,4.809c-3.463,0-6.271,2.808-6.271,6.271c0,3.463,2.808,6.271,6.271,6.271
		c3.463,0,6.271-2.808,6.271-6.271C18.378,7.616,15.571,4.809,12.107,4.809z M11.418,12.644c-1.177,0-2.131-0.955-2.131-2.132
		c0-1.177,0.954-2.132,2.131-2.132c1.178,0,2.132,0.955,2.132,2.132C13.55,11.688,12.596,12.644,11.418,12.644z"/>
	
		<rect x="16.877" y="12.23" transform="matrix(0.7069 -0.7074 0.7074 0.7069 -7.1313 18.5436)" fill="#606060" width="3.86" height="11.291"/>
	<rect x="14.614" y="15.662" fill="#606060" width="3.087" height="3.087"/>
	<rect x="16.931" y="17.978" fill="#606060" width="3.086" height="3.087"/>
	<polygon fill="#606060" points="24.163,24.229 19.245,24.229 19.245,21.064 24.163,20.503 	"/>
</g>
</svg>
