<?xml version="1.0" encoding="utf-8"?>
<!-- Generator: Adobe Illustrator 16.0.0, SVG Export Plug-In . SVG Version: 6.00 Build 0)  -->
<!DOCTYPE svg PUBLIC "-//W3C//DTD SVG 1.1//EN" "http://www.w3.org/Graphics/SVG/1.1/DTD/svg11.dtd">
<svg version="1.1" id="Capa_1" xmlns="http://www.w3.org/2000/svg" xmlns:xlink="http://www.w3.org/1999/xlink" x="0px" y="0px"
	 width="57px" height="50px" viewBox="0 0 57 50" enable-background="new 0 0 57 50" xml:space="preserve">
<g>
	<path d="M17.318,40.503h-3.99l-4.35-7.8h-3.9v7.8h-3.84v-21h7.68c4.819,0,7.23,2.021,7.23,6.06c0,1.5-0.311,2.72-0.93,3.66
		c-0.62,0.94-1.5,1.76-2.64,2.461L17.318,40.503z M8.048,22.713h-2.97v6.391h2.82c1.62,0,2.73-0.275,3.33-0.826
		c0.6-0.549,0.9-1.364,0.9-2.444c0-1.06-0.291-1.845-0.87-2.355C10.678,22.968,9.608,22.713,8.048,22.713z"/>
	<path fill="#E12021" d="M34.358,40.503h-13.74v-21h13.44v3.72h-9.511v4.47h7.38v3.72h-7.38v5.37h9.811V40.503z"/>
	<path d="M46.118,40.503h-7.86v-21h7.86c1.52,0,2.915,0.245,4.186,0.735c1.27,0.49,2.359,1.19,3.27,2.1
		c0.91,0.91,1.62,2.01,2.13,3.3c0.51,1.29,0.765,2.745,0.765,4.365s-0.255,3.08-0.765,4.38c-0.51,1.301-1.22,2.4-2.13,3.3
		c-0.91,0.9-2,1.596-3.27,2.085C49.033,40.258,47.638,40.503,46.118,40.503z M46.118,23.163h-4.02v13.68h4.02
		c2,0,3.525-0.598,4.575-1.793s1.575-2.878,1.575-5.047s-0.525-3.852-1.575-5.047S48.118,23.163,46.118,23.163z"/>
</g>
</svg>
