<?xml version="1.0" encoding="utf-8"?>
<!-- Generator: Adobe Illustrator 16.0.0, SVG Export Plug-In . SVG Version: 6.00 Build 0)  -->
<!DOCTYPE svg PUBLIC "-//W3C//DTD SVG 1.1//EN" "http://www.w3.org/Graphics/SVG/1.1/DTD/svg11.dtd">
<svg version="1.1" id="Capa_1" xmlns="http://www.w3.org/2000/svg" xmlns:xlink="http://www.w3.org/1999/xlink" x="0px" y="0px"
	 width="35.334px" height="31.5px" viewBox="0 0 35.334 31.5" enable-background="new 0 0 35.334 31.5" xml:space="preserve">
<g>
	<path fill-rule="evenodd" clip-rule="evenodd" fill="#FFFFFF" d="M11.337,23.073c-2.808-0.319-4.739-1.729-5.822-4.431
		c0.955,0.126,1.833,0.164,2.798-0.15c-3.155-0.962-4.812-3.009-5.06-6.194c0.923,0.257,1.812,0.504,2.699,0.752
		c0.036-0.043,0.071-0.085,0.106-0.128C3.28,10.601,2.642,7.813,4.132,4.445c3.511,4.074,7.841,6.317,13.152,6.675
		c-0.03-0.596-0.08-1.107-0.077-1.617c0.027-3.628,3.19-6.493,6.809-6.199C25.528,3.427,26.83,4,27.928,5.034
		c0.217,0.204,0.42,0.272,0.69,0.172c1.047-0.394,2.093-0.785,3.139-1.179c0.106-0.041,0.21-0.091,0.41-0.179
		c-0.498,1.459-1.393,2.484-2.539,3.339c1.159-0.061,2.23-0.41,3.359-0.747c-0.41,0.494-0.798,1.011-1.241,1.473
		c-0.461,0.48-0.961,0.928-1.48,1.345c-0.255,0.204-0.348,0.401-0.345,0.72c0.029,4.12-1.142,7.874-3.552,11.208
		c-2.876,3.983-6.762,6.37-11.634,7.093c-4.252,0.63-8.273-0.055-12.017-2.209c-0.126-0.071-0.246-0.155-0.372-0.286
		C5.684,25.977,8.698,25.145,11.337,23.073z"/>
</g>
</svg>
