<?xml version="1.0" encoding="utf-8"?>
<!-- Generator: Adobe Illustrator 16.0.0, SVG Export Plug-In . SVG Version: 6.00 Build 0)  -->
<!DOCTYPE svg PUBLIC "-//W3C//DTD SVG 1.1//EN" "http://www.w3.org/Graphics/SVG/1.1/DTD/svg11.dtd">
<svg version="1.1" id="Capa_1" xmlns="http://www.w3.org/2000/svg" xmlns:xlink="http://www.w3.org/1999/xlink" x="0px" y="0px"
	 width="204.5px" height="101.75px" viewBox="0 0 204.5 101.75" enable-background="new 0 0 204.5 101.75" xml:space="preserve">
<g>
	<g>
		<g>
			<g>
				
					<image overflow="visible" opacity="0.35" width="94" height="92" xlink:href="16516849.png"  transform="matrix(1 0 0 1 88.6045 7.6045)">
				</image>
				<g>
					<linearGradient id="SVGID_1_" gradientUnits="userSpaceOnUse" x1="101.9414" y1="53.2607" x2="169.3994" y2="53.2607">
						<stop  offset="0" style="stop-color:#E2E3E4"/>
						<stop  offset="0.1251" style="stop-color:#EEEFF0"/>
						<stop  offset="0.3157" style="stop-color:#FBFBFB"/>
						<stop  offset="0.5" style="stop-color:#FFFFFF"/>
						<stop  offset="0.6843" style="stop-color:#FBFBFB"/>
						<stop  offset="0.8749" style="stop-color:#EEEFF0"/>
						<stop  offset="1" style="stop-color:#E2E3E4"/>
					</linearGradient>
					<path fill="url(#SVGID_1_)" d="M101.941,20.363v51.737c0,7.771,6.297,14.058,14.059,14.058h39.343
						c7.762,0,14.057-6.286,14.057-14.058V20.363H101.941z"/>
				</g>
			</g>
			<path fill="#1A171B" d="M110.573,71.402l-0.449,1.129h-1.79l2.499-6.487h1.838l2.443,6.487h-1.804l-0.416-1.129H110.573z
				 M111.749,68.05h-0.019l-0.697,2.064h1.405L111.749,68.05z"/>
			<path fill="#1A171B" d="M120.658,66.044v3.552c0,0.812-0.032,1.614-0.661,2.227c-0.529,0.516-1.354,0.698-2.093,0.698
				c-0.733,0-1.563-0.183-2.092-0.698c-0.625-0.612-0.659-1.415-0.659-2.227v-3.552h1.642v3.324c0,0.819,0.057,1.714,1.109,1.714
				c1.055,0,1.112-0.895,1.112-1.714v-3.324H120.658z"/>
			<polygon fill="#1A171B" points="124.239,72.531 122.556,72.531 122.556,67.475 121.159,67.475 121.159,66.044 125.635,66.044 
				125.635,67.475 124.239,67.475 			"/>
			<path fill="#1A171B" d="M132.892,69.156c0,1.977-1.418,3.37-3.379,3.37c-1.963,0-3.38-1.394-3.38-3.37
				c0-1.849,1.62-3.146,3.38-3.146C131.268,66.011,132.892,67.308,132.892,69.156 M127.789,69.166c0,1.053,0.776,1.82,1.724,1.82
				c0.948,0,1.724-0.768,1.724-1.82c0-0.844-0.775-1.612-1.724-1.612C128.565,67.554,127.789,68.322,127.789,69.166 M129.319,65.839
				l-0.66-0.475l1.142-1.393l0.897,0.647L129.319,65.839z"/>
			<polygon fill="#1A171B" points="133.392,66.044 135.078,66.044 138.163,70.01 138.18,70.01 138.18,66.044 139.866,66.044 
				139.866,72.531 138.18,72.531 135.091,68.56 135.078,68.56 135.078,72.531 133.392,72.531 			"/>
			<path fill="#1A171B" d="M147.336,69.156c0,1.973-1.417,3.36-3.375,3.36c-1.951,0-3.364-1.388-3.364-3.36
				c0-1.842,1.614-3.136,3.364-3.136C145.719,66.021,147.336,67.314,147.336,69.156 M142.243,69.166
				c0,1.046,0.779,1.813,1.718,1.813c0.947,0,1.726-0.767,1.726-1.813c0-0.842-0.778-1.609-1.726-1.609
				C143.022,67.557,142.243,68.324,142.243,69.166"/>
			<polygon fill="#1A171B" points="148.704,66.044 150.366,66.044 151.678,69.508 153.073,66.044 154.747,66.044 155.729,72.531 
				154.044,72.531 153.573,68.798 153.553,68.798 151.998,72.531 151.327,72.531 149.836,68.798 149.821,68.798 149.282,72.531 
				147.607,72.531 			"/>
			<path fill="#1A171B" d="M158.469,71.402l-0.45,1.129h-1.786l2.489-6.487h1.845l2.443,6.487h-1.801l-0.419-1.129H158.469z
				 M159.65,68.05h-0.021l-0.696,2.064h1.401L159.65,68.05z"/>
			<path fill="#1A171B" d="M118.854,79.017h-0.015c-0.257,0.373-0.658,0.624-1.119,0.624c-1.018,0-1.577-0.836-1.577-1.778
				c0-0.901,0.597-1.722,1.547-1.722c0.491,0,0.886,0.25,1.149,0.646h0.015v-2.678h0.632v5.421h-0.632V79.017z M118.891,77.882
				c0-0.639-0.388-1.182-1.073-1.182c-0.651,0-1.042,0.57-1.042,1.182c0,0.622,0.374,1.197,1.042,1.197
				C118.508,79.079,118.891,78.53,118.891,77.882"/>
			<path fill="#1A171B" d="M120.688,77.991c0.009,0.559,0.388,1.088,0.993,1.088c0.488,0,0.742-0.246,0.98-0.639l0.536,0.299
				c-0.307,0.571-0.883,0.901-1.524,0.901c-1.004,0-1.621-0.758-1.621-1.73c0-1.012,0.544-1.77,1.608-1.77
				c1.048,0,1.537,0.768,1.537,1.749v0.102H120.688z M122.567,77.507c-0.079-0.487-0.397-0.822-0.906-0.822
				c-0.492,0-0.857,0.356-0.938,0.822H122.567z"/>
			<path fill="#1A171B" d="M131.032,76.874c0,1.578-1.245,2.767-2.782,2.767c-1.529,0-2.777-1.188-2.777-2.767
				c0-1.517,1.257-2.766,2.777-2.766C129.773,74.108,131.032,75.357,131.032,76.874 M130.372,76.874
				c0-1.165-0.874-2.143-2.122-2.143c-1.243,0-2.117,0.978-2.117,2.143c0,1.212,0.972,2.151,2.117,2.151
				C129.4,79.025,130.372,78.086,130.372,76.874"/>
			<path fill="#1A171B" d="M134.022,77.168c-0.249-0.284-0.563-0.438-0.945-0.438c-0.617,0-1.098,0.55-1.098,1.152
				c0,0.673,0.472,1.169,1.143,1.169c0.365,0,0.663-0.168,0.9-0.433v0.807c-0.288,0.155-0.577,0.216-0.901,0.216
				c-0.978,0-1.771-0.745-1.771-1.73c0-1.021,0.788-1.77,1.8-1.77c0.295,0,0.623,0.066,0.872,0.216V77.168z"/>
			<path fill="#1A171B" d="M137.126,77.168c-0.254-0.284-0.566-0.438-0.946-0.438c-0.618,0-1.095,0.55-1.095,1.152
				c0,0.673,0.472,1.169,1.141,1.169c0.363,0,0.657-0.168,0.9-0.433v0.807c-0.288,0.155-0.58,0.216-0.909,0.216
				c-0.973,0-1.762-0.745-1.762-1.73c0-1.021,0.781-1.77,1.799-1.77c0.292,0,0.618,0.066,0.872,0.216V77.168z"/>
			<path fill="#1A171B" d="M138.699,74.731c0,0.236-0.195,0.43-0.432,0.43c-0.241,0-0.437-0.193-0.437-0.43
				c0-0.251,0.195-0.443,0.437-0.443C138.504,74.288,138.699,74.48,138.699,74.731 M138.582,79.529h-0.637v-3.293h0.637V79.529z"/>
			<path fill="#1A171B" d="M142.051,79.017h-0.018c-0.252,0.373-0.65,0.624-1.117,0.624c-1.013,0-1.575-0.836-1.575-1.778
				c0-0.901,0.598-1.722,1.548-1.722c0.494,0,0.885,0.25,1.145,0.646h0.018v-2.683h0.631v5.426h-0.631V79.017z M142.085,77.882
				c0-0.639-0.384-1.182-1.07-1.182c-0.651,0-1.04,0.57-1.04,1.182c0,0.622,0.371,1.197,1.04,1.197
				C141.709,79.079,142.085,78.53,142.085,77.882"/>
			<path fill="#1A171B" d="M143.885,77.991c0.008,0.559,0.387,1.088,0.992,1.088c0.486,0,0.749-0.246,0.987-0.639l0.535,0.299
				c-0.313,0.571-0.89,0.901-1.528,0.901c-1.008,0-1.618-0.758-1.618-1.73c0-1.012,0.546-1.77,1.604-1.77
				c1.048,0,1.542,0.768,1.542,1.749v0.102H143.885z M145.765,77.507c-0.076-0.487-0.401-0.822-0.907-0.822
				c-0.495,0-0.86,0.356-0.935,0.822H145.765z"/>
			<path fill="#1A171B" d="M147.573,76.683h0.012c0.201-0.355,0.594-0.542,0.996-0.542c0.93,0,1.167,0.623,1.167,1.423v1.966h-0.634
				v-1.884c0-0.564-0.077-0.945-0.727-0.945c-0.814,0-0.814,0.719-0.814,1.319v1.51h-0.633v-3.293h0.633V76.683z"/>
			<polygon fill="#1A171B" points="151.347,79.529 150.71,79.529 150.71,76.825 150.366,76.825 150.366,76.236 150.71,76.236 
				150.71,74.978 151.347,74.978 151.347,76.236 151.964,76.236 151.964,76.825 151.347,76.825 			"/>
			<path fill="#1A171B" d="M152.682,77.991c0.01,0.559,0.392,1.088,0.999,1.088c0.484,0,0.744-0.246,0.983-0.639l0.533,0.299
				c-0.309,0.571-0.888,0.901-1.526,0.901c-1.002,0-1.616-0.758-1.616-1.73c0-1.012,0.537-1.77,1.606-1.77
				c1.047,0,1.536,0.768,1.536,1.749v0.102H152.682z M154.563,77.507c-0.074-0.487-0.397-0.822-0.901-0.822
				c-0.498,0-0.862,0.356-0.939,0.822H154.563z"/>
			<path fill="#1A171B" d="M119.017,57.996v3.13c0,0.865,0.26,1.668,1.279,1.668c1.024,0,1.284-0.803,1.284-1.668v-3.13h0.657v3.359
				c0,1.163-0.72,2.055-1.941,2.055c-1.214,0-1.938-0.892-1.938-2.055v-3.359H119.017z"/>
			<path fill="#1A171B" d="M123.72,60.447h0.011c0.203-0.354,0.598-0.538,0.993-0.538c0.93,0,1.168,0.625,1.168,1.423v1.966h-0.634
				v-1.881c0-0.564-0.074-0.945-0.724-0.945c-0.814,0-0.814,0.717-0.814,1.311v1.516h-0.635v-3.291h0.635V60.447z"/>
			<path fill="#1A171B" d="M127.655,58.502c0,0.236-0.194,0.427-0.432,0.427c-0.243,0-0.439-0.19-0.439-0.427
				c0-0.249,0.196-0.443,0.439-0.443C127.461,58.059,127.655,58.253,127.655,58.502 M127.537,63.298h-0.628v-3.291h0.628V63.298z"/>
			<polygon fill="#1A171B" points="129.677,62.063 130.627,60.007 131.338,60.007 129.677,63.41 128.021,60.007 128.732,60.007 			
				"/>
			<path fill="#1A171B" d="M132.063,61.761c0.008,0.565,0.387,1.094,0.992,1.094c0.483,0,0.745-0.249,0.984-0.646l0.535,0.301
				c-0.31,0.571-0.889,0.901-1.528,0.901c-1,0-1.618-0.761-1.618-1.73c0-1.008,0.544-1.771,1.603-1.771
				c1.051,0,1.544,0.773,1.544,1.752v0.1H132.063z M133.939,61.282c-0.077-0.493-0.401-0.826-0.909-0.826
				c-0.487,0-0.854,0.355-0.934,0.826H133.939z"/>
			<path fill="#1A171B" d="M135.79,60.542h0.021c0.158-0.388,0.48-0.633,0.899-0.633c0.189,0,0.368,0.062,0.523,0.162l-0.286,0.575
				c-0.115-0.097-0.243-0.132-0.388-0.132c-0.683,0-0.77,0.634-0.77,1.165v1.618h-0.63v-3.291h0.63V60.542z"/>
			<path fill="#1A171B" d="M138.908,60.761c-0.078-0.163-0.239-0.289-0.422-0.289c-0.176,0-0.346,0.138-0.346,0.324
				c0,0.285,0.38,0.417,0.768,0.591c0.388,0.173,0.757,0.414,0.757,0.939c0,0.622-0.517,1.084-1.127,1.084
				c-0.479,0-0.966-0.273-1.142-0.736l0.538-0.245c0.138,0.245,0.298,0.422,0.604,0.422c0.263,0,0.499-0.182,0.499-0.466
				c0-0.177-0.083-0.264-0.236-0.358l-0.619-0.329c-0.362-0.197-0.634-0.384-0.634-0.827c0-0.537,0.441-0.961,0.973-0.961
				c0.402,0,0.724,0.215,0.902,0.576L138.908,60.761z"/>
			<path fill="#1A171B" d="M141.184,58.502c0,0.236-0.2,0.427-0.438,0.427c-0.241,0-0.441-0.19-0.441-0.427
				c0-0.249,0.2-0.443,0.441-0.443C140.983,58.059,141.184,58.253,141.184,58.502 M141.064,63.298h-0.637v-3.291h0.637V63.298z"/>
			<path fill="#1A171B" d="M144.532,62.787h-0.017c-0.25,0.374-0.652,0.623-1.12,0.623c-1.012,0-1.573-0.833-1.573-1.779
				c0-0.896,0.597-1.722,1.549-1.722c0.492,0,0.882,0.252,1.145,0.647h0.017v-2.568h0.631v5.31h-0.631V62.787z M144.564,61.653
				c0-0.642-0.385-1.182-1.069-1.182c-0.652,0-1.038,0.567-1.038,1.182c0,0.622,0.373,1.201,1.038,1.201
				C144.189,62.854,144.564,62.298,144.564,61.653"/>
			<path fill="#1A171B" d="M149.074,63.298h-0.631v-0.511h-0.019c-0.25,0.374-0.645,0.623-1.119,0.623
				c-1.002,0-1.571-0.833-1.571-1.779c0-0.896,0.597-1.722,1.555-1.722c0.482,0,0.877,0.252,1.136,0.647h0.019v-0.55h0.631V63.298z
				 M148.481,61.653c0-0.642-0.392-1.182-1.074-1.182c-0.651,0-1.038,0.567-1.038,1.182c0,0.622,0.369,1.201,1.038,1.201
				C148.097,62.854,148.481,62.298,148.481,61.653"/>
			<path fill="#1A171B" d="M152.352,62.787h-0.012c-0.255,0.374-0.658,0.623-1.12,0.623c-1.01,0-1.577-0.833-1.577-1.779
				c0-0.896,0.601-1.722,1.549-1.722c0.49,0,0.889,0.252,1.148,0.647h0.012v-2.568h0.634v5.31h-0.634V62.787z M152.392,61.653
				c0-0.642-0.39-1.182-1.072-1.182c-0.655,0-1.042,0.567-1.042,1.182c0,0.622,0.371,1.201,1.042,1.201
				C152.012,62.854,152.392,62.298,152.392,61.653"/>
			<path fill="#E1001A" d="M138.916,26.894v0.843c-0.951-0.538-2.048-0.843-3.217-0.843c-3.608,0-6.539,2.917-6.539,6.517
				c0,3.596,2.931,6.515,6.539,6.515c1.169,0,2.266-0.306,3.217-0.84v0.84h3.264V26.894H138.916z M135.695,36.638
				c-1.807,0-3.269-1.46-3.269-3.259c0-1.796,1.462-3.254,3.269-3.254c1.625,0,2.963,1.177,3.221,2.724
				c0.024,0.173,0.046,0.351,0.046,0.53c0,0.184-0.021,0.357-0.046,0.533C138.658,35.454,137.32,36.638,135.695,36.638"/>
			<path fill="#E1001A" d="M135.673,41.913c-3.6,0-6.518,2.913-6.518,6.511s2.918,6.518,6.518,6.518c3.596,0,6.518-2.92,6.518-6.518
				S139.269,41.913,135.673,41.913 M135.667,51.651c-1.799,0-3.262-1.455-3.262-3.255c0-1.799,1.463-3.256,3.262-3.256
				c1.795,0,3.252,1.457,3.252,3.256C138.919,50.196,137.462,51.651,135.667,51.651"/>
			<path fill="#E1001A" d="M127.408,26.894v22.964c0.136,3.381,2.777,6.111,6.079,6.368h-9.114v-0.01h-0.674
				c-3.597,0-6.511-2.916-6.511-6.514V26.894H127.408z"/>
			<path fill="#E1001A" d="M143.933,26.894v22.964c-0.134,3.381-2.774,6.111-6.079,6.368h9.117v-0.01h0.67
				c3.598,0,6.517-2.916,6.517-6.514V26.894H143.933z"/>
		</g>
	</g>
	<g>
		<g>
			
				<image overflow="visible" opacity="0.35" width="92" height="92" xlink:href="1651684B.png"  transform="matrix(1 0 0 1 9.6045 7.6045)">
			</image>
			<g>
				<circle fill="#9B9C9E" cx="55.283" cy="53.799" r="32.897"/>
			</g>
		</g>
		<g>
			<g>
				<linearGradient id="SVGID_2_" gradientUnits="userSpaceOnUse" x1="77.5142" y1="76.0322" x2="33.4006" y2="31.9187">
					<stop  offset="0" style="stop-color:#EDEBE8"/>
					<stop  offset="0" style="stop-color:#DEDCD9"/>
					<stop  offset="0" style="stop-color:#B7B6B3"/>
					<stop  offset="0" style="stop-color:#787776"/>
					<stop  offset="0" style="stop-color:#222221"/>
					<stop  offset="0" style="stop-color:#0F0F0F"/>
					<stop  offset="0.3575" style="stop-color:#1E1E1E"/>
					<stop  offset="1" style="stop-color:#424242"/>
				</linearGradient>
				<circle fill="url(#SVGID_2_)" cx="55.282" cy="53.801" r="31.439"/>
			</g>
			<defs>
				<filter id="Adobe_OpacityMaskFilter" filterUnits="userSpaceOnUse" x="23.843" y="22.361" width="62.878" height="62.878">
					
						<feColorMatrix  type="matrix" values="-1 0 0 0 1  0 -1 0 0 1  0 0 -1 0 1  0 0 0 1 0" color-interpolation-filters="sRGB" result="source"/>
				</filter>
			</defs>
			<mask maskUnits="userSpaceOnUse" x="23.843" y="22.361" width="62.878" height="62.878" id="SVGID_3_">
				<g filter="url(#Adobe_OpacityMaskFilter)">
					<image overflow="visible" width="68" height="68" xlink:href="16516849.jpg"  transform="matrix(1 0 0 1 21 20)">
					</image>
				</g>
			</mask>
			<g opacity="0.6" mask="url(#SVGID_3_)">
				<circle fill="#1A171B" cx="55.282" cy="53.801" r="31.439"/>
			</g>
		</g>
		<g>
			<defs>
				<circle id="SVGID_4_" cx="55.282" cy="53.801" r="31.439"/>
			</defs>
			<clipPath id="SVGID_5_">
				<use xlink:href="#SVGID_4_"  overflow="visible"/>
			</clipPath>
			<g opacity="0.2" clip-path="url(#SVGID_5_)">
				<g>
					<image overflow="visible" width="65" height="35" xlink:href="1651684F.png"  transform="matrix(1 0 0 1 23 51)">
					</image>
				</g>
				<g>
					<image overflow="visible" width="65" height="36" xlink:href="1651684A.png"  transform="matrix(1 0 0 1 23 21)">
					</image>
				</g>
			</g>
		</g>
		<g>
			
				<image overflow="visible" opacity="0.6" width="53" height="52" xlink:href="16516845.png"  transform="matrix(1 0 0 1 29.3164 28.3164)">
			</image>
			<g>
				<linearGradient id="SVGID_6_" gradientUnits="userSpaceOnUse" x1="38.9268" y1="37.4434" x2="71.0001" y2="69.5166">
					<stop  offset="0" style="stop-color:#FFF199"/>
					<stop  offset="1" style="stop-color:#B49A55"/>
				</linearGradient>
				<circle fill="url(#SVGID_6_)" cx="55.283" cy="53.798" r="22.788"/>
			</g>
		</g>
		<g>
			<defs>
				<path id="SVGID_7_" d="M75.365,45.826c4.439,11.092-0.954,23.68-12.046,28.119C52.589,78.24,39.428,72.466,35.2,61.898
					c-4.439-11.09,0.953-23.68,12.046-28.119C58.338,29.341,70.926,34.735,75.365,45.826z"/>
			</defs>
			<clipPath id="SVGID_8_">
				<use xlink:href="#SVGID_7_"  overflow="visible"/>
			</clipPath>
			<g clip-path="url(#SVGID_8_)">
				<g>
					<image overflow="visible" width="45" height="24" xlink:href="16516846.png"  transform="matrix(1 0 0 1 33 52)">
					</image>
				</g>
				<g>
					<image overflow="visible" width="45" height="25" xlink:href="16516847.png"  transform="matrix(1 0 0 1 33 31)">
					</image>
				</g>
			</g>
		</g>
		<g>
			<g>
				<g>
					<path fill="#FFFFFF" d="M31.157,67.842c-0.445,0-0.839-0.238-1.053-0.639c-0.156-0.29-0.188-0.618-0.091-0.924
						c0.095-0.3,0.304-0.549,0.588-0.701c0.177-0.095,0.375-0.146,0.573-0.146c0.443,0,0.835,0.237,1.049,0.636
						c0.156,0.291,0.189,0.619,0.095,0.926c-0.093,0.302-0.3,0.551-0.583,0.701C31.556,67.791,31.356,67.842,31.157,67.842z"/>
					<path fill="#58585A" d="M31.174,65.617c0.355,0,0.698,0.188,0.887,0.538c0.275,0.516,0.078,1.116-0.413,1.378
						c-0.157,0.084-0.325,0.125-0.491,0.125c-0.357,0-0.702-0.19-0.891-0.542c-0.275-0.514-0.073-1.111,0.421-1.376
						C30.843,65.657,31.01,65.617,31.174,65.617 M31.174,65.249L31.174,65.249c-0.228,0-0.457,0.058-0.66,0.167
						c-0.327,0.175-0.567,0.462-0.677,0.808c-0.112,0.354-0.074,0.732,0.104,1.066c0.243,0.454,0.709,0.736,1.215,0.736
						c0.229,0,0.459-0.059,0.665-0.169c0.327-0.174,0.567-0.464,0.673-0.814c0.107-0.352,0.068-0.729-0.109-1.062
						C32.143,65.529,31.679,65.249,31.174,65.249L31.174,65.249z"/>
				</g>
				<g>
					<polygon fill="#FFFFFF" points="26.715,61.367 26.389,59.995 30.32,57.339 30.673,58.819 30.046,59.241 30.325,60.413 
						31.079,60.523 31.431,61.998 					"/>
					<path fill="#58585A" d="M30.203,57.641l0.262,1.098l-0.627,0.422l0.337,1.417l0.754,0.11l0.261,1.093l-4.325-0.579
						l-0.268-1.125L30.203,57.641 M29.32,60.482l-0.205-0.856l-1.161,0.722l0.003,0.01L29.32,60.482 M30.437,57.038l-0.44,0.298
						l-3.605,2.436l-0.211,0.143l0.059,0.247l0.268,1.125l0.059,0.246l0.25,0.034l4.325,0.579l0.531,0.071l-0.125-0.522
						l-0.261-1.093l-0.058-0.242l-0.247-0.036l-0.507-0.074l-0.22-0.926l0.416-0.279l0.212-0.143l-0.06-0.249l-0.262-1.098
						L30.437,57.038L30.437,57.038z"/>
				</g>
				<g>
					<path fill="#FFFFFF" d="M28.005,57.533c-0.551,0-1.084-0.194-1.5-0.547c-0.475-0.406-0.783-1.016-0.825-1.631
						c-0.023-0.343,0.026-0.686,0.15-1.051l0.04-0.116l1.944-0.13l-0.423,0.36c-0.223,0.19-0.343,0.491-0.322,0.805
						c0.033,0.494,0.413,0.839,0.923,0.839c0.346-0.021,0.578-0.126,0.732-0.302c0.154-0.176,0.226-0.41,0.208-0.677
						c-0.019-0.286-0.179-0.572-0.417-0.746l-0.41-0.299l1.909-0.126l0.048,0.127c0.138,0.36,0.239,0.625,0.261,0.973
						c0.042,0.605-0.149,1.206-0.536,1.692c-0.394,0.5-0.94,0.777-1.624,0.822C28.11,57.531,28.058,57.533,28.005,57.533z"/>
					<path fill="#58585A" d="M29.89,54.105c0.13,0.342,0.228,0.591,0.25,0.919c0.039,0.565-0.141,1.119-0.497,1.565
						c-0.373,0.475-0.887,0.714-1.492,0.754c-0.049,0.003-0.098,0.005-0.146,0.005c-0.503,0-0.993-0.174-1.381-0.503
						c-0.436-0.373-0.721-0.933-0.76-1.503c-0.022-0.34,0.032-0.658,0.141-0.979l1.266-0.085c-0.277,0.236-0.411,0.596-0.386,0.957
						c0.041,0.615,0.519,1.01,1.106,1.01c0.03,0,0.061-0.001,0.091-0.003c0.643-0.041,1.077-0.515,1.033-1.172
						c-0.023-0.345-0.214-0.679-0.493-0.882L29.89,54.105 M29.865,53.738l-1.267,0.084l-0.242,0.016l0.001-0.001l-1.111,0.075
						l-1.266,0.085l-0.245,0.017l-0.079,0.232c-0.132,0.388-0.184,0.754-0.16,1.121c0.045,0.664,0.377,1.321,0.888,1.758
						c0.451,0.382,1.025,0.592,1.62,0.592c0.057,0,0.114-0.002,0.17-0.006c0.728-0.048,1.335-0.357,1.757-0.894
						c0.414-0.52,0.619-1.166,0.574-1.818c-0.024-0.374-0.13-0.65-0.263-1l-0.097-0.254L29.865,53.738L29.865,53.738z
						 M27.991,55.878c-0.416,0-0.712-0.268-0.739-0.666c-0.017-0.257,0.079-0.5,0.258-0.652l0.459-0.391l0.437,0.318
						c0.195,0.143,0.327,0.375,0.342,0.608c0.014,0.218-0.042,0.405-0.164,0.544c-0.123,0.141-0.305,0.222-0.525,0.236
						L27.991,55.878L27.991,55.878z"/>
				</g>
				<g>
					<path fill="#FFFFFF" d="M25.722,52.958l0.155-1.759c0.081-0.924,0.605-1.475,1.404-1.475c0.054,0,0.109,0.002,0.167,0.007
						c0.586,0.052,1.023,0.384,1.178,0.872l1.863-1.186l-0.156,1.785l-1.195,0.622l1.132,0.099l-0.125,1.422L25.722,52.958z
						 M27.664,51.696c0.021-0.431-0.126-0.481-0.28-0.495l-0.043-0.186v0.184c-0.137,0-0.27,0.055-0.319,0.44L27.664,51.696z"/>
					<path fill="#58585A" d="M30.273,49.773l-0.115,1.313l-1.648,0.858v0.011l1.56,0.137l-0.093,1.055l-4.056-0.355l0.139-1.576
						c0.065-0.754,0.455-1.307,1.221-1.307c0.048,0,0.099,0.002,0.15,0.007c0.559,0.049,1.016,0.403,1.067,0.988L30.273,49.773
						 M27.833,51.896l0.009-0.104c0.03-0.344,0-0.736-0.441-0.775c-0.021-0.002-0.041-0.002-0.06-0.002
						c-0.391,0-0.482,0.361-0.511,0.689l-0.009,0.102L27.833,51.896 M30.705,49.063l-0.629,0.4l-1.365,0.869
						c-0.228-0.438-0.681-0.734-1.247-0.783c-0.063-0.006-0.124-0.009-0.183-0.009c-0.905,0-1.498,0.614-1.587,1.644l-0.139,1.575
						l-0.032,0.367l0.367,0.032l4.056,0.355l0.367,0.032l0.032-0.367l0.093-1.055l0.032-0.366l-0.367-0.033l-0.32-0.027l0.546-0.285
						l0.179-0.093l0.018-0.201l0.115-1.312L30.705,49.063L30.705,49.063z"/>
				</g>
				<g>
					<polygon fill="#FFFFFF" points="26.233,48.405 26.852,45.792 28.083,46.083 27.794,47.309 28.099,47.38 28.373,46.217 
						29.604,46.509 29.329,47.671 29.655,47.748 29.943,46.522 31.174,46.814 30.556,49.428 					"/>
					<path fill="#58585A" d="M26.988,46.014l0.873,0.206l-0.289,1.226l0.663,0.156l0.274-1.162l0.873,0.206l-0.275,1.162
						l0.685,0.161l0.289-1.225l0.872,0.207l-0.533,2.254l-3.964-0.937L26.988,46.014 M26.715,45.57l-0.085,0.358l-0.533,2.255
						l-0.084,0.358l0.358,0.085l3.964,0.938l0.358,0.084l0.085-0.358l0.533-2.255l0.084-0.357l-0.358-0.086l-0.872-0.206
						l-0.359-0.085l-0.015,0.063l-0.324-0.076l-0.873-0.207l-0.305-0.072l0.015-0.063l-0.358-0.084l-0.873-0.206L26.715,45.57
						L26.715,45.57z"/>
				</g>
				<g>
					<path fill="#FFFFFF" d="M27.193,44.602l0.633-1.562c0.35-0.86,1.164-1.416,2.074-1.416c0.284,0,0.563,0.055,0.831,0.164
						c0.556,0.226,0.987,0.656,1.212,1.211c0.223,0.549,0.222,1.156-0.003,1.709l-0.633,1.562L27.193,44.602z M30.671,44.474
						l0.02-0.049c0.112-0.275,0.286-0.95-0.513-1.275c-0.146-0.059-0.289-0.089-0.423-0.089c-0.369,0-0.663,0.226-0.83,0.635
						l-0.024,0.06L30.671,44.474z"/>
					<path fill="#58585A" d="M29.899,41.809c0.253,0,0.51,0.048,0.762,0.15c1.061,0.431,1.533,1.636,1.108,2.681l-0.564,1.391
						L27.433,44.5l0.563-1.391C28.322,42.308,29.085,41.809,29.899,41.809 M30.772,44.713l0.089-0.22
						c0.238-0.585,0.12-1.216-0.614-1.514c-0.173-0.07-0.338-0.103-0.493-0.103c-0.45,0-0.81,0.281-1,0.75l-0.095,0.23
						L30.772,44.713 M29.899,41.441L29.899,41.441c-0.985,0-1.866,0.601-2.245,1.53l-0.563,1.391l-0.138,0.341l0.341,0.139
						l3.772,1.531l0.341,0.138l0.139-0.341l0.564-1.391c0.243-0.598,0.245-1.255,0.003-1.848c-0.245-0.602-0.711-1.068-1.314-1.313
						C30.51,41.5,30.207,41.441,29.899,41.441L29.899,41.441z M29.146,43.657c0.1-0.188,0.286-0.412,0.608-0.412
						c0.11,0,0.229,0.025,0.354,0.076c0.521,0.211,0.55,0.591,0.455,0.911L29.146,43.657L29.146,43.657z"/>
				</g>
				<g>
					
						<rect x="30.74" y="38.369" transform="matrix(-0.4918 0.8707 -0.8707 -0.4918 82.2634 33.1618)" fill="#FFFFFF" width="1.428" height="4.439"/>
					<path fill="#58585A" d="M29.942,39.126l3.545,2.001l-0.52,0.921l-3.546-2L29.942,39.126 M29.802,38.625l-0.181,0.32
						L29.1,39.868l-0.181,0.321l0.321,0.181l3.546,2l0.321,0.181l0.181-0.32l0.52-0.921l0.181-0.321l-0.32-0.181l-3.545-2.001
						L29.802,38.625L29.802,38.625z"/>
				</g>
				<g>
					<polygon fill="#FFFFFF" points="31.768,38.243 31.261,38.957 30.23,38.224 32.07,35.633 33.101,36.367 32.594,37.079 
						35.184,38.919 34.357,40.082 					"/>
					<path fill="#58585A" d="M32.114,35.89l0.73,0.52l-0.507,0.712l2.59,1.84l-0.613,0.863l-2.59-1.839L31.217,38.7l-0.73-0.52
						L32.114,35.89 M32.027,35.376l-0.213,0.3l-1.626,2.29l-0.213,0.3l0.3,0.213l0.73,0.52l0.3,0.214l0.213-0.3l0.293-0.414
						l2.29,1.626l0.3,0.213l0.213-0.3l0.613-0.863l0.213-0.3l-0.3-0.213l-2.29-1.626l0.293-0.412l0.214-0.3l-0.3-0.213l-0.73-0.52
						L32.027,35.376L32.027,35.376z"/>
				</g>
				<g>
					<polygon fill="#FFFFFF" points="33.281,34.257 34.249,33.232 38.624,35.065 37.58,36.173 36.883,35.879 36.055,36.755 
						36.378,37.444 35.336,38.547 					"/>
					<path fill="#58585A" d="M34.295,33.452l4.013,1.681l-0.774,0.821l-0.697-0.294l-1.001,1.06l0.323,0.689l-0.772,0.817
						l-1.885-3.934L34.295,33.452 M35.448,35.951l0.603-0.64l-1.238-0.575l-0.007,0.008L35.448,35.951 M34.202,33.014l-0.175,0.185
						l-0.793,0.84l-0.174,0.184l0.109,0.228l1.885,3.934l0.231,0.483l0.368-0.39l0.772-0.817l0.172-0.182l-0.106-0.227l-0.217-0.462
						l0.654-0.692l0.461,0.195l0.236,0.099l0.175-0.186l0.774-0.821l0.364-0.387l-0.49-0.206l-4.013-1.681L34.202,33.014
						L34.202,33.014z"/>
				</g>
				<g>
					<path fill="#FFFFFF" d="M39.097,34.284c-0.078,0-0.156-0.003-0.234-0.011c-0.635-0.056-1.167-0.36-1.579-0.905
						c-0.369-0.488-0.531-1.086-0.455-1.685c0.076-0.618,0.417-1.21,0.909-1.584c0.271-0.205,0.585-0.353,0.959-0.45l0.119-0.031
						l1.178,1.556l-0.536-0.157c-0.08-0.023-0.164-0.036-0.248-0.036c-0.21,0-0.423,0.074-0.601,0.209
						c-0.423,0.319-0.484,0.853-0.149,1.297c0.189,0.25,0.444,0.388,0.718,0.388c0.195,0,0.392-0.071,0.57-0.206
						c0.229-0.172,0.38-0.462,0.395-0.758l0.025-0.506l1.153,1.526l-0.08,0.11c-0.229,0.316-0.393,0.543-0.67,0.753
						C40.147,34.114,39.637,34.284,39.097,34.284z"/>
					<path fill="#58585A" d="M38.743,29.827l0.767,1.012c-0.099-0.029-0.199-0.043-0.3-0.043c-0.254,0-0.505,0.089-0.712,0.246
						c-0.517,0.391-0.565,1.05-0.185,1.555c0.228,0.301,0.54,0.461,0.865,0.461c0.229,0,0.463-0.079,0.681-0.243
						c0.277-0.208,0.451-0.55,0.468-0.896l0.766,1.013c-0.215,0.297-0.368,0.515-0.632,0.714c-0.395,0.298-0.871,0.453-1.363,0.453
						c-0.072,0-0.144-0.003-0.217-0.01c-0.602-0.053-1.084-0.351-1.449-0.833c-0.336-0.444-0.489-0.998-0.419-1.551
						c0.07-0.568,0.382-1.115,0.838-1.46C38.12,30.042,38.417,29.913,38.743,29.827 M38.888,29.409l-0.238,0.062
						c-0.397,0.104-0.732,0.262-1.023,0.482c-0.532,0.403-0.898,1.042-0.981,1.708c-0.082,0.646,0.093,1.292,0.491,1.818
						c0.439,0.58,1.03,0.918,1.711,0.978c0.082,0.008,0.166,0.012,0.249,0.012c0.581,0,1.129-0.183,1.585-0.527
						c0.299-0.226,0.471-0.463,0.688-0.763l0.159-0.221l-0.143-0.246l-0.766-1.013l-0.145-0.191l0.002,0l-0.674-0.89l-0.767-1.012
						L38.888,29.409L38.888,29.409z M39.178,32.69c-0.215,0-0.417-0.112-0.571-0.314c-0.27-0.358-0.224-0.785,0.113-1.039
						c0.146-0.111,0.32-0.172,0.49-0.172c0.067,0,0.133,0.01,0.196,0.028l0.579,0.17l-0.026,0.539
						c-0.012,0.242-0.135,0.479-0.321,0.619C39.491,32.632,39.332,32.69,39.178,32.69L39.178,32.69z"/>
				</g>
				<g>
					
						<rect x="40.673" y="28.272" transform="matrix(-0.8632 0.5049 -0.5049 -0.8632 92.5071 35.9163)" fill="#FFFFFF" width="1.428" height="4.441"/>
					<path fill="#58585A" d="M40.816,28.468l2.057,3.515l-0.915,0.535l-2.058-3.515L40.816,28.468 M40.948,27.964L40.63,28.15
						l-0.915,0.535l-0.318,0.186l0.186,0.318l2.058,3.515l0.186,0.318l0.318-0.186l0.915-0.535l0.318-0.186l-0.186-0.318
						l-2.057-3.515L40.948,27.964L40.948,27.964z"/>
				</g>
				<g>
					<path fill="#FFFFFF" d="M44.741,31.169c-0.975,0-1.79-0.573-2.181-1.533c-0.417-1.021,0.015-2.193,0.968-2.807l-0.425-0.105
						l0.463-1.499l1.111,0.269l-0.516,1.039c0.248-0.078,0.505-0.117,0.768-0.117c0.973,0,1.793,0.53,2.141,1.382
						c0.531,1.304-0.032,2.637-1.337,3.169C45.405,31.101,45.071,31.169,44.741,31.169z M44.852,27.826
						c-0.128,0-0.253,0.024-0.371,0.072c-0.241,0.098-0.438,0.294-0.54,0.538c-0.091,0.218-0.098,0.455-0.018,0.651
						c0.165,0.408,0.52,0.661,0.926,0.661l0,0c0.122,0,0.242-0.024,0.357-0.07c0.239-0.098,0.424-0.283,0.52-0.523
						c0.099-0.247,0.093-0.529-0.015-0.796C45.583,28.045,45.23,27.826,44.852,27.826z"/>
					<path fill="#58585A" d="M43.691,25.445l0.718,0.174l-0.547,1.104l-0.525-0.13L43.691,25.445 M44.929,26.601
						c0.83,0,1.63,0.434,1.97,1.268c0.497,1.221-0.028,2.437-1.236,2.929c-0.311,0.126-0.623,0.188-0.922,0.188
						c-0.869,0-1.641-0.511-2.01-1.418c-0.465-1.14,0.209-2.347,1.294-2.789C44.316,26.659,44.625,26.601,44.929,26.601
						 M44.849,29.932c0.143,0,0.287-0.027,0.427-0.084c0.584-0.238,0.871-0.909,0.606-1.559c-0.16-0.392-0.582-0.647-1.03-0.647
						c-0.147,0-0.296,0.027-0.44,0.086c-0.584,0.238-0.871,0.909-0.658,1.429C43.954,29.652,44.393,29.932,44.849,29.932
						 M43.442,25.005l-0.102,0.331l-0.354,1.147l-0.115,0.373l0.239,0.059c-0.798,0.699-1.12,1.809-0.72,2.792
						c0.414,1.016,1.314,1.647,2.351,1.647c0.354,0,0.711-0.072,1.061-0.215c1.404-0.572,2.009-2.006,1.438-3.409
						c-0.376-0.923-1.261-1.497-2.311-1.497l0,0c-0.145,0-0.289,0.011-0.43,0.033l0.24-0.483l0.205-0.413l-0.448-0.108l-0.718-0.174
						L43.442,25.005L43.442,25.005z M44.849,29.563c-0.33,0-0.619-0.209-0.755-0.545c-0.063-0.152-0.056-0.339,0.017-0.512
						c0.083-0.199,0.243-0.358,0.439-0.438c0.095-0.039,0.197-0.059,0.301-0.059c0.306,0,0.589,0.172,0.689,0.418
						c0.09,0.222,0.095,0.456,0.015,0.658c-0.077,0.193-0.226,0.342-0.418,0.421C45.044,29.544,44.947,29.563,44.849,29.563
						L44.849,29.563z"/>
				</g>
				<g>
					<polygon fill="#FFFFFF" points="47.525,25.466 48.834,25.225 50.873,27.034 50.482,24.92 51.884,24.661 52.691,29.026 
						51.381,29.268 49.343,27.454 49.735,29.573 48.332,29.833 					"/>
					<path fill="#58585A" d="M51.737,24.875l0.74,4.003l-1.041,0.192l-2.359-2.101l-0.01,0.002l0.453,2.454l-1.042,0.192
						l-0.74-4.004l1.04-0.192l2.36,2.095l0.009-0.002l-0.452-2.447L51.737,24.875 M52.032,24.446l-0.362,0.067l-1.04,0.192
						l-0.362,0.067l0.067,0.362l0.26,1.407l-1.571-1.395l-0.135-0.119l-0.177,0.032l-1.04,0.192l-0.362,0.067l0.067,0.362
						l0.74,4.004l0.067,0.362l0.362-0.066l1.042-0.192l0.362-0.067l-0.066-0.362l-0.261-1.411l1.57,1.397l0.134,0.12l0.177-0.033
						l1.041-0.192l0.362-0.067l-0.067-0.362l-0.74-4.003L52.032,24.446L52.032,24.446z"/>
				</g>
			</g>
			<g>
				<g>
					
						<rect x="53.998" y="26.106" transform="matrix(-0.0422 0.9991 -0.9991 -0.0422 85.3872 -28.2148)" fill="#FFFFFF" width="4.44" height="1.427"/>
					<path fill="#58585A" d="M55.774,24.764l1.058,0.044l-0.172,4.069l-1.057-0.045L55.774,24.764 M55.422,24.38l-0.015,0.368
						l-0.172,4.068l-0.016,0.368l0.368,0.016l1.057,0.045l0.368,0.016l0.016-0.368l0.172-4.069l0.016-0.368l-0.368-0.015
						l-1.058-0.044L55.422,24.38L55.422,24.38z"/>
				</g>
				<g>
					<polygon fill="#FFFFFF" points="60.496,29.595 59.242,27.171 58.849,29.291 57.445,29.03 58.256,24.664 59.566,24.908 
						60.82,27.328 61.213,25.213 62.615,25.473 61.806,29.839 					"/>
					<path fill="#58585A" d="M58.403,24.879l1.041,0.193l1.452,2.802l0.01,0.001l0.454-2.447l1.041,0.193l-0.742,4.003l-1.041-0.193
						l-1.452-2.806l-0.01-0.002l-0.454,2.453l-1.042-0.193L58.403,24.879 M58.108,24.45l-0.067,0.362l-0.744,4.003l-0.067,0.362
						l0.362,0.067l1.042,0.193l0.362,0.067l0.067-0.362l0.261-1.41l0.966,1.867l0.083,0.16l0.177,0.033l1.041,0.193l0.362,0.067
						l0.067-0.362l0.742-4.003l0.067-0.362l-0.362-0.067l-1.041-0.193l-0.362-0.067l-0.067,0.362l-0.261,1.407l-0.967-1.865
						l-0.083-0.16l-0.177-0.033l-1.041-0.193L58.108,24.45L58.108,24.45z"/>
				</g>
				<g>
					<path fill="#FFFFFF" d="M64.434,30.809c-0.249,0-0.514-0.05-0.767-0.145c-0.499-0.188-0.948-0.544-1.264-1.006l-0.092-0.134
						l1.02-0.901l0.11,0.205c0.181,0.337,0.388,0.546,0.634,0.638c0.059,0.022,0.12,0.034,0.175,0.034
						c0.163,0,0.199-0.094,0.212-0.13c0.05-0.134-0.208-0.324-0.347-0.427c-0.513-0.379-1.062-0.785-0.719-1.697
						c0.237-0.634,0.762-1.012,1.404-1.012c0.207,0,0.417,0.04,0.626,0.118c0.417,0.156,0.869,0.476,1.153,0.815l0.113,0.136
						l-0.983,0.894l-0.114-0.199c-0.114-0.2-0.28-0.349-0.467-0.418c-0.042-0.016-0.092-0.024-0.14-0.024
						c-0.052,0-0.142,0.01-0.167,0.076c-0.036,0.097,0.139,0.236,0.244,0.32l0.222,0.169c0.406,0.305,0.912,0.805,0.61,1.605
						c-0.189,0.51-0.488,0.842-0.888,0.987C64.83,30.776,64.637,30.809,64.434,30.809z"/>
					<path fill="#58585A" d="M64.8,26.418c0.182,0,0.371,0.035,0.562,0.106c0.385,0.144,0.81,0.442,1.076,0.761l-0.683,0.621
						c-0.126-0.22-0.32-0.409-0.563-0.5c-0.061-0.022-0.133-0.036-0.205-0.036c-0.144,0-0.286,0.054-0.339,0.196
						c-0.083,0.223,0.152,0.409,0.303,0.529l0.224,0.17c0.473,0.356,0.782,0.777,0.549,1.394c-0.141,0.379-0.379,0.734-0.779,0.879
						c-0.166,0.059-0.339,0.085-0.514,0.085c-0.239,0-0.48-0.05-0.703-0.133c-0.48-0.18-0.889-0.518-1.176-0.938l0.724-0.639
						c0.167,0.311,0.394,0.597,0.732,0.724c0.077,0.029,0.159,0.045,0.24,0.045c0.164,0,0.316-0.069,0.384-0.249
						c0.104-0.278-0.249-0.52-0.438-0.661c-0.555-0.41-0.905-0.726-0.628-1.463C63.786,26.731,64.257,26.418,64.8,26.418
						 M64.801,26.05L64.801,26.05c-0.722,0-1.312,0.423-1.577,1.132c-0.203,0.539-0.124,0.93,0.067,1.231l-0.256,0.226l-0.724,0.639
						l-0.244,0.215l0.184,0.269c0.337,0.492,0.816,0.874,1.351,1.074c0.278,0.104,0.558,0.156,0.832,0.156
						c0.224,0,0.438-0.036,0.637-0.107c0.449-0.163,0.794-0.542,1-1.098c0.244-0.647,0.013-1.125-0.255-1.438l0.188-0.171
						l0.682-0.621l0.261-0.238l-0.227-0.271c-0.307-0.368-0.778-0.701-1.229-0.869C65.262,26.094,65.029,26.05,64.801,26.05
						L64.801,26.05z M64.288,29.351l-0.037-0.035c-0.034,0-0.073-0.008-0.11-0.022c-0.188-0.07-0.352-0.23-0.501-0.489
						c0.113,0.099,0.23,0.186,0.339,0.266C64.077,29.144,64.263,29.281,64.288,29.351L64.288,29.351z"/>
				</g>
				<g>
					<polygon fill="#FFFFFF" points="66.208,31.641 67.715,28.846 66.947,28.431 67.544,27.317 70.342,28.826 69.742,29.939 
						68.972,29.524 67.464,32.318 					"/>
					<path fill="#58585A" d="M67.62,27.567l2.473,1.333l-0.425,0.79l-0.77-0.416l-1.508,2.794l-0.932-0.503l1.508-2.794
						l-0.769-0.415L67.62,27.567 M67.47,27.068l-0.174,0.325l-0.424,0.79l-0.174,0.324l0.323,0.175l0.445,0.24l-1.333,2.471
						l-0.175,0.324l0.324,0.175l0.932,0.503l0.324,0.175l0.175-0.324l1.333-2.47l0.446,0.241l0.324,0.175l0.175-0.324l0.425-0.79
						l0.174-0.324l-0.324-0.175l-2.473-1.333L67.47,27.068L67.47,27.068z"/>
				</g>
				<g>
					
						<rect x="68.079" y="30.778" transform="matrix(-0.5634 0.8262 -0.8262 -0.5634 135.918 -8.8493)" fill="#FFFFFF" width="4.438" height="1.427"/>
					<path fill="#58585A" d="M71.006,29.512l0.875,0.596l-2.294,3.362l-0.873-0.596L71.006,29.512 M70.91,29l-0.208,0.304
						l-2.292,3.362l-0.208,0.304l0.304,0.208l0.873,0.596l0.304,0.208l0.208-0.304l2.294-3.362l0.208-0.304l-0.304-0.208
						l-0.875-0.596L70.91,29L70.91,29z"/>
				</g>
				<g>
					<polygon fill="#FFFFFF" points="70.55,34.421 72.6,31.997 71.932,31.433 72.748,30.467 75.173,32.518 74.356,33.484 
						73.689,32.918 71.639,35.342 					"/>
					<path fill="#58585A" d="M72.77,30.726l2.144,1.813l-0.579,0.685l-0.667-0.566l-2.05,2.425l-0.808-0.684l2.05-2.424
						l-0.668-0.564L72.77,30.726 M72.727,30.207l-0.238,0.281l-0.579,0.685l-0.238,0.281l0.281,0.238l0.387,0.327l-1.813,2.143
						l-0.238,0.281l0.281,0.238l0.808,0.684l0.281,0.238l0.238-0.281l1.812-2.144l0.386,0.328l0.281,0.239l0.238-0.282l0.579-0.685
						l0.238-0.281l-0.281-0.238l-2.144-1.813L72.727,30.207L72.727,30.207z"/>
				</g>
				<g>
					<path fill="#FFFFFF" d="M75.079,38.411c-0.627-0.049-1.116-0.512-1.352-0.784c-0.236-0.271-0.626-0.82-0.59-1.448
						c0.037-0.669,0.516-1.087,0.866-1.392l1.866-1.625l0.938,1.077l-1.757,1.528c-0.471,0.411-0.644,0.667-0.345,1.01
						c0.115,0.131,0.229,0.195,0.351,0.195c0.22,0,0.475-0.206,0.697-0.399l1.755-1.529l0.937,1.076l-1.865,1.625
						c-0.407,0.354-0.818,0.671-1.378,0.671C75.162,38.416,75.121,38.415,75.079,38.411z"/>
					<path fill="#58585A" d="M75.852,33.421l0.696,0.799l-1.618,1.407c-0.399,0.348-0.81,0.756-0.364,1.269
						c0.163,0.187,0.327,0.259,0.49,0.259c0.285,0,0.563-0.223,0.818-0.444l1.617-1.408l0.695,0.798l-1.726,1.504
						c-0.37,0.322-0.749,0.626-1.257,0.626c-0.035,0-0.071-0.001-0.107-0.004c-0.476-0.037-0.917-0.362-1.228-0.721
						c-0.312-0.358-0.573-0.839-0.545-1.317c0.031-0.563,0.409-0.92,0.804-1.264L75.852,33.421 M75.888,32.902l-0.278,0.242
						l-1.727,1.504c-0.375,0.327-0.888,0.774-0.93,1.521c-0.041,0.692,0.381,1.287,0.635,1.579c0.254,0.292,0.784,0.792,1.477,0.846
						c0.045,0.003,0.091,0.005,0.136,0.005c0.624,0,1.065-0.339,1.499-0.716l1.726-1.504l0.278-0.242l-0.242-0.277l-0.695-0.798
						l-0.242-0.278l-0.278,0.242l-1.617,1.408c-0.142,0.124-0.407,0.354-0.576,0.354c-0.024,0-0.096,0-0.212-0.133
						c-0.15-0.173-0.204-0.285,0.328-0.75l1.618-1.407l0.278-0.242l-0.242-0.278l-0.696-0.799L75.888,32.902L75.888,32.902z"/>
				</g>
				<g>
					<path fill="#FFFFFF" d="M77.135,42.153l0.122-0.138l-0.145,0.118c-0.268-0.237-0.48-0.424-0.662-0.72
						c-0.317-0.518-0.428-1.139-0.312-1.748c0.117-0.626,0.472-1.126,1.056-1.484c0.37-0.227,0.791-0.347,1.218-0.347
						c0.168,0,0.337,0.019,0.502,0.056c0.61,0.138,1.167,0.534,1.489,1.06c0.179,0.292,0.295,0.619,0.356,0.999l0.02,0.122
						l-1.663,1.02l0.208-0.518c0.109-0.269,0.075-0.591-0.09-0.862c-0.168-0.274-0.44-0.432-0.744-0.432
						c-0.18,0-0.364,0.055-0.533,0.158c-0.228,0.14-0.383,0.342-0.438,0.569s-0.009,0.468,0.131,0.696
						c0.15,0.245,0.424,0.423,0.715,0.466l0.501,0.074l-1.631,1.001L77.135,42.153z"/>
					<path fill="#58585A" d="M78.413,38.018c0.154,0,0.309,0.017,0.461,0.051c0.559,0.126,1.073,0.489,1.373,0.977
						c0.178,0.291,0.278,0.597,0.331,0.932l-1.083,0.664c0.136-0.336,0.085-0.717-0.104-1.026c-0.213-0.346-0.548-0.52-0.901-0.52
						c-0.21,0-0.427,0.062-0.629,0.185c-0.548,0.336-0.712,0.957-0.367,1.518c0.18,0.294,0.503,0.502,0.845,0.552l-1.083,0.665
						c-0.275-0.243-0.477-0.417-0.649-0.698c-0.296-0.484-0.395-1.057-0.288-1.617c0.111-0.594,0.455-1.045,0.971-1.362
						C77.631,38.128,78.019,38.018,78.413,38.018 M78.413,37.649c-0.461,0-0.916,0.129-1.314,0.374
						c-0.621,0.381-1.016,0.938-1.141,1.609c-0.125,0.652-0.005,1.319,0.336,1.876c0.197,0.32,0.417,0.515,0.697,0.762l0.204,0.18
						l0.254-0.122l1.083-0.665l0.865-0.531h0l0.291-0.178l1.083-0.664l0.21-0.129l-0.039-0.243
						c-0.064-0.405-0.189-0.753-0.381-1.066c-0.348-0.567-0.948-0.995-1.605-1.143C78.777,37.67,78.595,37.649,78.413,37.649
						L78.413,37.649z M78.927,41.064l-0.534-0.079c-0.239-0.035-0.463-0.181-0.585-0.38c-0.114-0.186-0.152-0.379-0.109-0.558
						c0.043-0.182,0.166-0.338,0.354-0.454c0.14-0.086,0.291-0.131,0.437-0.131c0.243,0,0.451,0.122,0.587,0.345
						c0.134,0.22,0.163,0.48,0.076,0.696L78.927,41.064L78.927,41.064z"/>
				</g>
				<g>
					
						<rect x="77.435" y="41.829" transform="matrix(-0.9081 0.4187 -0.4187 -0.9081 169.8037 47.8293)" fill="#FFFFFF" width="4.44" height="1.427"/>
					<path fill="#58585A" d="M81.282,41.209l0.443,0.961l-3.699,1.705l-0.441-0.961L81.282,41.209 M81.462,40.721l-0.334,0.154
						L77.43,42.58l-0.334,0.154l0.154,0.334l0.441,0.961l0.154,0.335l0.335-0.154l3.699-1.705l0.334-0.154l-0.154-0.334
						l-0.443-0.961L81.462,40.721L81.462,40.721z"/>
				</g>
				<g>
					<path fill="#FFFFFF" d="M81.019,48.578c-1.072,0-1.938-0.674-2.26-1.758c-0.195-0.653-0.14-1.316,0.156-1.867
						c0.297-0.553,0.822-0.965,1.479-1.16c0.205-0.061,0.415-0.092,0.624-0.092c1.017,0,1.944,0.731,2.255,1.778
						c0.383,1.287-0.286,2.627-1.491,2.985C81.527,48.54,81.271,48.578,81.019,48.578z M81.025,45.172
						c-0.075,0-0.147,0.012-0.217,0.031c-0.283,0.085-0.51,0.264-0.64,0.503c-0.119,0.222-0.146,0.476-0.073,0.718
						c0.121,0.407,0.497,0.682,0.936,0.682c0.108,0,0.219-0.018,0.328-0.049c0.211-0.063,0.397-0.225,0.509-0.445
						c0.117-0.229,0.142-0.49,0.069-0.735C81.816,45.469,81.433,45.172,81.025,45.172z"/>
					<path fill="#58585A" d="M81.018,43.885c0.959,0,1.8,0.707,2.079,1.646c0.334,1.123-0.186,2.404-1.367,2.756
						c-0.242,0.072-0.481,0.107-0.711,0.107c-0.968,0-1.783-0.613-2.084-1.626c-0.373-1.253,0.249-2.424,1.511-2.799
						C80.639,43.912,80.831,43.885,81.018,43.885 M81.031,47.289c0.124,0,0.251-0.018,0.38-0.057
						c0.539-0.16,0.882-0.803,0.702-1.408c-0.151-0.508-0.624-0.836-1.088-0.836c-0.091,0-0.182,0.013-0.27,0.039
						c-0.673,0.2-1.018,0.843-0.837,1.449C80.063,46.966,80.509,47.289,81.031,47.289 M81.018,43.517
						c-0.227,0-0.455,0.034-0.677,0.1c-0.704,0.209-1.268,0.653-1.588,1.25c-0.319,0.593-0.379,1.306-0.171,2.007
						c0.341,1.148,1.297,1.89,2.437,1.89c0.269,0,0.543-0.041,0.816-0.122c1.302-0.388,2.027-1.83,1.615-3.215
						C83.116,44.302,82.116,43.517,81.018,43.517L81.018,43.517z M81.031,46.921c-0.363,0-0.661-0.216-0.759-0.549
						c-0.059-0.196-0.038-0.401,0.059-0.579c0.106-0.195,0.294-0.343,0.53-0.412c0.053-0.016,0.108-0.024,0.165-0.024
						c0.322,0,0.639,0.246,0.735,0.572c0.059,0.198,0.039,0.411-0.057,0.6c-0.089,0.175-0.234,0.303-0.397,0.351
						C81.215,46.906,81.122,46.921,81.031,46.921L81.031,46.921z"/>
				</g>
				<g>
					<polygon fill="#FFFFFF" points="79.898,52.607 81.901,50.754 79.754,50.938 79.632,49.518 84.056,49.139 84.168,50.465 
						82.168,52.318 84.311,52.134 84.436,53.556 80.012,53.935 					"/>
					<path fill="#58585A" d="M83.888,49.338l0.09,1.054l-2.313,2.143l0.001,0.012l2.479-0.213l0.092,1.055l-4.057,0.348l-0.09-1.054
						l2.319-2.145v-0.011l-2.486,0.213l-0.09-1.054L83.888,49.338 M84.223,48.939l-0.367,0.031L79.8,49.318l-0.367,0.031
						l0.032,0.367l0.09,1.054l0.031,0.367l0.367-0.032l1.429-0.121l-1.543,1.427l-0.132,0.122l0.016,0.18l0.09,1.054l0.031,0.367
						l0.367-0.031l4.057-0.348l0.368-0.032l-0.032-0.367l-0.092-1.055l-0.032-0.366l-0.367,0.032l-1.425,0.122l1.541-1.427
						l0.132-0.123l-0.016-0.179l-0.09-1.054L84.223,48.939L84.223,48.939z"/>
				</g>
				<g>
					<polygon fill="#FFFFFF" points="79.69,57.339 80.421,57.147 80.544,55.948 79.871,55.596 80.028,54.089 84.268,56.244 
						84.122,57.646 79.534,58.853 					"/>
					<path fill="#58585A" d="M80.183,54.374l3.888,1.977L83.952,57.5l-4.208,1.106l0.116-1.122l0.73-0.191l0.149-1.45l-0.673-0.353
						L80.183,54.374 M81.427,57.092l1.334-0.296v-0.01l-1.244-0.569L81.427,57.092 M79.873,53.803l-0.056,0.533l-0.116,1.116
						L79.675,55.7l0.221,0.116l0.453,0.237l-0.098,0.947l-0.483,0.127l-0.247,0.064l-0.026,0.254l-0.116,1.122l-0.055,0.529
						l0.515-0.135l4.208-1.106l0.246-0.065l0.026-0.253l0.119-1.149l0.026-0.252l-0.225-0.114l-3.888-1.977L79.873,53.803
						L79.873,53.803z"/>
				</g>
				<g>
					<polygon fill="#FFFFFF" points="78.739,61.595 79.416,58.984 83.712,60.099 83.356,61.48 80.281,60.685 79.964,61.912 					"/>
					<path fill="#58585A" d="M79.548,59.209l3.94,1.021l-0.264,1.025l-3.075-0.796l-0.317,1.228l-0.868-0.225L79.548,59.209
						 M79.284,58.76l-0.092,0.356l-0.584,2.254l-0.092,0.356l0.356,0.093l0.868,0.225l0.356,0.093l0.092-0.357l0.225-0.87
						l2.718,0.703l0.357,0.093l0.092-0.357l0.264-1.025l0.092-0.355l-0.356-0.093l-3.94-1.021L79.284,58.76L79.284,58.76z"/>
				</g>
				<g>
					<path fill="#FFFFFF" d="M79.104,67.56c-0.194,0-0.39-0.048-0.566-0.14c-0.597-0.312-0.821-1.022-0.51-1.618
						c0.209-0.403,0.617-0.653,1.062-0.653c0.192,0,0.385,0.048,0.558,0.138c0.287,0.149,0.499,0.397,0.596,0.698
						c0.099,0.306,0.07,0.636-0.083,0.928C79.952,67.312,79.547,67.56,79.104,67.56z"/>
					<path fill="#58585A" d="M79.089,65.333c0.16,0,0.322,0.037,0.473,0.116c0.499,0.26,0.705,0.86,0.435,1.378
						c-0.187,0.356-0.533,0.549-0.893,0.549c-0.162,0-0.327-0.039-0.481-0.119c-0.493-0.258-0.702-0.853-0.432-1.37
						C78.377,65.527,78.728,65.333,79.089,65.333 M79.089,64.965L79.089,64.965c-0.514,0-0.984,0.288-1.226,0.752
						c-0.358,0.688-0.1,1.507,0.588,1.866c0.203,0.105,0.428,0.161,0.652,0.161c0.512,0,0.979-0.286,1.219-0.746
						c0.176-0.337,0.209-0.717,0.095-1.07c-0.112-0.348-0.356-0.634-0.686-0.805C79.533,65.02,79.311,64.965,79.089,64.965
						L79.089,64.965z"/>
				</g>
			</g>
			<g>
				<g>
					<polygon fill="#FFFFFF" points="35.74,75.549 36.045,74.858 35.182,74.017 34.486,74.325 33.403,73.265 37.727,71.284 
						38.735,72.269 36.828,76.612 					"/>
					<path fill="#58585A" d="M37.688,71.504l0.827,0.808l-1.749,3.983l-0.807-0.788l0.305-0.69l-1.043-1.019l-0.696,0.309
						l-0.803-0.786L37.688,71.504 M36.627,74.036l0.596-1.229l-0.008-0.007l-1.218,0.621L36.627,74.036 M37.765,71.063l-0.23,0.105
						l-3.965,1.816l-0.487,0.224l0.382,0.374l0.803,0.786l0.179,0.175l0.229-0.101l0.468-0.208l0.682,0.666l-0.202,0.457
						l-0.103,0.233l0.183,0.179l0.807,0.788l0.38,0.371l0.214-0.486l1.749-3.983l0.103-0.233l-0.182-0.179l-0.827-0.808
						L37.765,71.063L37.765,71.063z"/>
				</g>
				<g>
					<polygon fill="#FFFFFF" points="37.421,76.992 40.018,73.391 41.175,74.226 39.318,76.801 40.347,77.542 39.609,78.568 					
						"/>
					<path fill="#58585A" d="M40.059,73.647l0.859,0.62l-1.857,2.575l1.029,0.741l-0.523,0.728l-1.889-1.361L40.059,73.647
						 M39.976,73.134l-0.215,0.299l-2.381,3.303l-0.215,0.298l0.299,0.216l1.889,1.361l0.299,0.216l0.215-0.3l0.523-0.728
						l0.215-0.299l-0.298-0.215l-0.73-0.525l1.642-2.276l0.215-0.299l-0.299-0.216l-0.859-0.62L39.976,73.134L39.976,73.134z"/>
				</g>
				<g>
					<polygon fill="#FFFFFF" points="40.41,79.032 41.971,76.267 41.21,75.836 41.833,74.735 44.597,76.299 43.975,77.398 
						43.213,76.969 41.651,79.731 					"/>
					<path fill="#58585A" d="M41.902,74.986l2.444,1.382l-0.441,0.779l-0.762-0.43l-1.562,2.763l-0.92-0.519l1.561-2.765
						l-0.761-0.431L41.902,74.986 M41.763,74.484l-0.181,0.32l-0.441,0.78l-0.181,0.32l0.32,0.182l0.44,0.25l-1.38,2.444
						l-0.181,0.32l0.321,0.181l0.92,0.519l0.32,0.181l0.181-0.319l1.381-2.443l0.441,0.249l0.32,0.181l0.181-0.319l0.441-0.779
						l0.182-0.321l-0.321-0.181l-2.444-1.382L41.763,74.484L41.763,74.484z"/>
				</g>
				<g>
					<polygon fill="#FFFFFF" points="45.46,81.418 45.472,80.663 44.349,80.225 43.829,80.78 42.416,80.229 45.625,76.714 
						46.938,77.229 46.878,81.973 					"/>
					<path fill="#58585A" d="M45.676,76.932l1.076,0.422l-0.055,4.351l-1.051-0.411l0.011-0.755l-1.358-0.53l-0.52,0.556
						l-1.047-0.409L45.676,76.932 M45.687,79.68l0.069-1.365l-0.01-0.003l-0.879,1.047L45.687,79.68 M45.575,76.496l-0.171,0.188
						l-2.943,3.223l-0.362,0.396l0.5,0.195l1.047,0.409l0.233,0.091l0.17-0.183l0.349-0.373l0.888,0.347l-0.007,0.499l-0.004,0.256
						l0.238,0.093l1.051,0.411l0.496,0.194l0.007-0.532l0.055-4.351l0.003-0.255l-0.237-0.093l-1.076-0.422L45.575,76.496
						L45.575,76.496z"/>
				</g>
				<g>
					<path fill="#FFFFFF" d="M52.401,83.042c-0.081,0-0.164-0.005-0.25-0.016c-0.603-0.072-1.158-0.37-1.563-0.84
						c-0.42-0.48-0.592-1.069-0.51-1.748c0.073-0.607,0.372-1.15,0.84-1.529c0.412-0.334,0.955-0.525,1.49-0.525
						c0.088,0,0.177,0.005,0.265,0.016c0.337,0.04,0.666,0.151,1.004,0.342l0.107,0.06l-0.233,1.94l-0.276-0.489
						c-0.142-0.252-0.415-0.425-0.729-0.463c-0.042-0.005-0.083-0.007-0.123-0.007c-0.47,0-0.826,0.336-0.885,0.836
						c-0.032,0.268,0.026,0.506,0.169,0.691c0.144,0.188,0.362,0.304,0.631,0.336c0.035,0.004,0.071,0.006,0.106,0.006
						c0.255,0,0.518-0.104,0.704-0.278l0.369-0.346l-0.227,1.898l-0.135,0.024C52.844,83.005,52.629,83.042,52.401,83.042z"/>
					<path fill="#58585A" d="M52.408,78.567c0.081,0,0.162,0.005,0.243,0.015c0.338,0.04,0.64,0.153,0.936,0.319l-0.151,1.26
						c-0.178-0.315-0.51-0.512-0.868-0.555c-0.049-0.006-0.098-0.009-0.145-0.009c-0.572,0-1,0.42-1.067,0.999
						c-0.078,0.639,0.307,1.152,0.961,1.231c0.042,0.005,0.085,0.008,0.128,0.008c0.304,0,0.61-0.122,0.83-0.328l-0.151,1.261
						c-0.273,0.048-0.49,0.089-0.721,0.089c-0.074,0-0.149-0.004-0.229-0.014c-0.563-0.067-1.073-0.346-1.445-0.777
						c-0.398-0.455-0.54-1.005-0.467-1.606c0.067-0.552,0.34-1.057,0.773-1.408C51.416,78.742,51.915,78.567,52.408,78.567
						 M52.408,78.199L52.408,78.199c-0.576,0-1.162,0.207-1.606,0.566c-0.505,0.41-0.828,0.996-0.907,1.65
						C49.808,81.14,50,81.794,50.45,82.309c0.433,0.503,1.03,0.823,1.679,0.9c0.095,0.012,0.185,0.017,0.272,0.017
						c0.25,0,0.476-0.04,0.737-0.086l0.269-0.048l0.081-0.279l0.151-1.261l0.12-1.004h0l0.042-0.343l0.151-1.26l0.029-0.244
						l-0.215-0.121c-0.359-0.202-0.71-0.321-1.072-0.363C52.6,78.205,52.503,78.199,52.408,78.199L52.408,78.199z M52.444,81.468
						c-0.029,0-0.057-0.002-0.086-0.006c-0.217-0.025-0.392-0.117-0.506-0.265c-0.113-0.146-0.159-0.339-0.132-0.557
						c0.047-0.404,0.33-0.675,0.702-0.675c0.033,0,0.067,0.002,0.101,0.006c0.257,0.031,0.478,0.169,0.591,0.37l0.299,0.53
						l-0.391,0.367C52.869,81.382,52.653,81.468,52.444,81.468L52.444,81.468z"/>
				</g>
				<g>
					<polygon fill="#FFFFFF" points="55.498,78.626 56.905,78.56 58.783,82.917 57.262,82.987 56.964,82.293 55.76,82.35 
						55.512,83.068 53.998,83.139 					"/>
					<path fill="#58585A" d="M56.787,78.749l1.722,3.996l-1.127,0.053l-0.297-0.695l-1.457,0.069l-0.248,0.719l-1.121,0.052
						l1.375-4.139L56.787,78.749 M55.88,81.348l0.879-0.04l-0.491-1.274h-0.011L55.88,81.348 M57.024,78.369l-0.255,0.012
						l-1.154,0.055l-0.252,0.013l-0.08,0.239l-1.375,4.139l-0.169,0.509l0.536-0.024l1.121-0.052l0.25-0.012l0.082-0.236
						l0.167-0.483l0.953-0.045l0.197,0.46l0.1,0.235l0.255-0.012l1.127-0.053l0.532-0.025l-0.21-0.488l-1.722-3.996L57.024,78.369
						L57.024,78.369z"/>
				</g>
				<g>
					<polygon fill="#FFFFFF" points="58.6,78.392 60,78.113 60.616,81.228 61.859,80.98 62.107,82.221 59.463,82.746 					"/>
					<path fill="#58585A" d="M59.855,78.33l0.616,3.114l1.244-0.247l0.176,0.879l-2.282,0.453l-0.792-3.993L59.855,78.33
						 M60.145,77.897l-0.361,0.071l-1.039,0.206l-0.361,0.072l0.071,0.36l0.792,3.993l0.072,0.361l0.361-0.071l2.282-0.453
						l0.362-0.072l-0.073-0.361l-0.176-0.879l-0.072-0.36l-0.361,0.071l-0.882,0.176l-0.544-2.753L60.145,77.897L60.145,77.897z"/>
				</g>
				<g>
					
						<rect x="62.021" y="77.483" transform="matrix(-0.9565 0.2917 -0.2917 -0.9565 145.9886 137.6392)" fill="#FFFFFF" width="1.426" height="4.437"/>
					<path fill="#58585A" d="M62.648,77.601l1.185,3.894l-1.012,0.31l-1.185-3.895L62.648,77.601 M62.894,77.141l-0.353,0.107
						l-1.012,0.309l-0.352,0.107l0.107,0.353l1.185,3.895l0.107,0.353l0.353-0.107l1.012-0.31l0.352-0.108l-0.107-0.352L63,77.493
						L62.894,77.141L62.894,77.141z"/>
				</g>
				<g>
					<path fill="#FFFFFF" d="M63.261,77.265l1.535-0.693c0.3-0.136,0.618-0.204,0.944-0.204c0.885,0,1.66,0.498,2.022,1.3
						c0.503,1.115-0.008,2.438-1.14,2.949l-1.537,0.693L63.261,77.265z M65.867,79.571l0.049-0.022
						c0.27-0.122,0.861-0.491,0.506-1.276c-0.171-0.38-0.449-0.58-0.805-0.58c-0.153,0-0.313,0.037-0.478,0.111l-0.059,0.026
						L65.867,79.571z"/>
					<path fill="#58585A" d="M65.74,76.551c0.775,0,1.512,0.434,1.854,1.192c0.471,1.043-0.02,2.241-1.047,2.705l-1.369,0.618
						l-1.673-3.71l1.367-0.617C65.154,76.611,65.45,76.551,65.74,76.551 M65.775,79.814l0.216-0.098
						c0.576-0.261,0.925-0.797,0.599-1.521c-0.208-0.463-0.566-0.688-0.973-0.688c-0.178,0-0.365,0.043-0.553,0.128l-0.227,0.103
						L65.775,79.814 M65.74,76.183c-0.352,0-0.695,0.074-1.02,0.221l-1.367,0.617l-0.335,0.151l0.151,0.336l1.673,3.71l0.151,0.336
						l0.335-0.151l1.369-0.618c1.224-0.553,1.777-1.984,1.231-3.192C67.544,76.735,66.684,76.183,65.74,76.183L65.74,76.183z
						 M65.327,77.928c0.101-0.034,0.198-0.052,0.291-0.052c0.282,0,0.497,0.159,0.638,0.472c0.231,0.513-0.009,0.808-0.298,0.974
						L65.327,77.928L65.327,77.928z"/>
				</g>
				<g>
					<polygon fill="#FFFFFF" points="68.11,74.792 69.271,73.995 73.163,76.71 71.907,77.57 71.288,77.138 70.294,77.819 
						70.463,78.562 69.214,79.42 					"/>
					<path fill="#58585A" d="M69.27,74.219l3.569,2.49l-0.931,0.638l-0.619-0.433l-1.203,0.824l0.169,0.742l-0.925,0.636
						l-1.012-4.244L69.27,74.219 M69.871,76.905l0.725-0.498l-1.089-0.823l-0.01,0.006L69.871,76.905 M69.272,73.771l-0.21,0.145
						l-0.952,0.653l-0.208,0.144l0.059,0.245l1.012,4.244l0.124,0.522l0.442-0.304l0.925-0.636l0.206-0.142l-0.056-0.244
						L70.501,77.9l0.786-0.538l0.41,0.286l0.209,0.146l0.21-0.145l0.931-0.638l0.439-0.301l-0.437-0.305l-3.569-2.49L69.272,73.771
						L69.272,73.771z"/>
				</g>
				<g>
					<path fill="#FFFFFF" d="M70.643,72.994l1.199-1.183c0.431-0.425,0.997-0.658,1.593-0.658c0.594,0,1.151,0.233,1.569,0.658
						c0.421,0.427,0.646,0.993,0.634,1.593c-0.012,0.592-0.253,1.149-0.68,1.569l-1.201,1.184L70.643,72.994z M73.887,74.255
						l0.038-0.037c0.211-0.209,0.638-0.761,0.033-1.375c-0.205-0.207-0.437-0.317-0.671-0.317c-0.24,0-0.48,0.112-0.695,0.323
						l-0.044,0.044L73.887,74.255z"/>
					<path fill="#58585A" d="M73.435,71.338c0.521,0,1.04,0.198,1.438,0.603c0.804,0.815,0.761,2.109-0.044,2.902l-1.069,1.054
						l-2.856-2.9l1.068-1.054C72.378,71.542,72.907,71.338,73.435,71.338 M73.885,74.516l0.169-0.167
						c0.45-0.444,0.592-1.069,0.035-1.635c-0.25-0.253-0.527-0.372-0.802-0.372c-0.289,0-0.576,0.131-0.824,0.376l-0.176,0.173
						L73.885,74.516 M73.435,70.97L73.435,70.97c-0.645,0-1.257,0.252-1.722,0.71l-1.068,1.055l-0.262,0.258l0.258,0.263l2.856,2.9
						l0.258,0.262l0.262-0.258l1.069-1.054c0.461-0.454,0.722-1.057,0.735-1.698c0.014-0.649-0.23-1.262-0.687-1.726
						C74.682,71.223,74.079,70.97,73.435,70.97L73.435,70.97z M72.811,72.899c0.154-0.125,0.317-0.189,0.476-0.189
						c0.187,0,0.368,0.088,0.54,0.263c0.395,0.4,0.272,0.761,0.058,1.018L72.811,72.899L72.811,72.899z"/>
				</g>
			</g>
		</g>
		<g>
			<g>
				<g>
					<g>
						<path fill-rule="evenodd" clip-rule="evenodd" fill="#58585A" d="M56.763,73.1c0.392-1.252,0.003-2.582-0.728-3.672
							c-2.694-4.039-3.174-6.624-2.858-9.652c-1.29,2.737-2.248,5.646-0.105,9.335c0.693,1.192,2.864,3.177,3.904,4.813
							C57.09,73.628,56.668,73.398,56.763,73.1z"/>
						<path fill-rule="evenodd" clip-rule="evenodd" fill="#58585A" d="M64.563,47.34c-5.789,1.637-12.116,2.12-15.267,8.112
							c-1.711,3.259-0.117,6.913,2.258,11.729c-1.174-3.785-1.208-6.009,0.831-8.49c3.567-4.343,8.864-6.667,13.1-9.229
							c4.381-2.649,5.922-3.886,7.435-5.452C71.055,45.156,67.453,46.521,64.563,47.34z"/>
						<path fill-rule="evenodd" clip-rule="evenodd" fill="#58585A" d="M52.241,50.961c-1.102-0.708-2.458-1.32-3.941-2.395
							c-1.646-1.195-3.074-1.941-5.403-2.583c-1.993-0.554-3.535-0.827-5.194-2.152c1.273,1.772,2.94,4.938,8.627,7.341
							c-0.384-0.081-0.771-0.187-1.176-0.226c-1.162-0.12-3.286,0.891-4.946,1.436c-1.225,0.403-1.71,0.634-3.033,0.675
							c3.108,0.533,7.151,0.397,10.204-1.105C49.716,50.803,51.166,50.506,52.241,50.961z"/>
						<path fill-rule="evenodd" clip-rule="evenodd" fill="#58585A" d="M51.278,51.711c-2.022,0.058-3.963,0.8-5.669,2.469
							c-2.431,2.384-1.43,5.88-3.957,7.275c2.604-1.197,3.771-3.183,5.491-5.169C48.501,54.717,49.145,52.05,51.278,51.711z"/>
						<path fill-rule="evenodd" clip-rule="evenodd" fill="#58585A" d="M47.544,47.025c0.425-0.359,0.582-1.066,0.603-1.576
							c1.464,2.271,2.793,4.287,4.491,5.668c0.625-0.506,1.419-1.127,1.921-1.414c-0.114-1.442,0.052-2.805,0.03-4.508
							c-0.049-3.033-1.512-5.555-2.137-7.428c-0.461-1.383-0.332-3.083-0.291-3.997c-1.304,2.674-3.76,9.627-0.469,15.662
							c-0.682-0.839-1.371-1.94-1.873-3.038c-1.483-2.116-4.112-6.179-6.663-8.001C45.34,40.413,47.111,43.063,47.544,47.025z"/>
						<path fill-rule="evenodd" clip-rule="evenodd" fill="#58585A" d="M58.135,48.381c0.366-0.137,0.771-0.236,1.1-0.32
							c1.414-2.635,8.568-5.379,10.005-8.349c-1.966,1.657-5.327,3.465-9.716,5.153c-0.123,0.411-0.249,0.799-0.378,1.168
							c0.118,0.043,0.229,0.095,0.354,0.123c-0.147,0.131-0.36,0.324-0.611,0.558C58.52,47.309,58.327,47.822,58.135,48.381z"/>
						<path fill-rule="evenodd" clip-rule="evenodd" fill="#58585A" d="M57.614,48.462c1.131-2.847,3.869-9.858,2.649-13.531
							c-0.189,3.444-3.032,6.652-4.362,9.785c-0.763,1.788-0.413,3.622-0.389,4.625C56.413,48.912,56.643,48.744,57.614,48.462z"/>
					</g>
				</g>
				<defs>
					<filter id="Adobe_OpacityMaskFilter_1_" filterUnits="userSpaceOnUse" x="37.175" y="33.771" width="35.744" height="40.153">
						
							<feColorMatrix  type="matrix" values="-1 0 0 0 1  0 -1 0 0 1  0 0 -1 0 1  0 0 0 1 0" color-interpolation-filters="sRGB" result="source"/>
					</filter>
				</defs>
				<mask maskUnits="userSpaceOnUse" x="37.175" y="33.771" width="35.744" height="40.153" id="SVGID_9_">
					<g filter="url(#Adobe_OpacityMaskFilter_1_)">
						<image overflow="visible" width="40" height="45" xlink:href="16516859.jpg"  transform="matrix(1 0 0 1 35 31)">
						</image>
					</g>
				</mask>
				<g opacity="0.6" mask="url(#SVGID_9_)">
					<g>
						<path fill-rule="evenodd" clip-rule="evenodd" fill="#1A171B" d="M56.763,73.1c0.392-1.252,0.003-2.582-0.728-3.672
							c-2.694-4.039-3.174-6.624-2.858-9.652c-1.29,2.737-2.248,5.646-0.105,9.335c0.693,1.192,2.864,3.177,3.904,4.813
							C57.09,73.628,56.668,73.398,56.763,73.1z"/>
						<path fill-rule="evenodd" clip-rule="evenodd" fill="#1A171B" d="M64.563,47.34c-5.789,1.637-12.116,2.12-15.267,8.112
							c-1.711,3.259-0.117,6.913,2.258,11.729c-1.174-3.785-1.208-6.009,0.831-8.49c3.567-4.343,8.864-6.667,13.1-9.229
							c4.381-2.649,5.922-3.886,7.435-5.452C71.055,45.156,67.453,46.521,64.563,47.34z"/>
						<path fill-rule="evenodd" clip-rule="evenodd" fill="#1A171B" d="M52.241,50.961c-1.102-0.708-2.458-1.32-3.941-2.395
							c-1.646-1.195-3.074-1.941-5.403-2.583c-1.993-0.554-3.535-0.827-5.194-2.152c1.273,1.772,2.94,4.938,8.627,7.341
							c-0.384-0.081-0.771-0.187-1.176-0.226c-1.162-0.12-3.286,0.891-4.946,1.436c-1.225,0.403-1.71,0.634-3.033,0.675
							c3.108,0.533,7.151,0.397,10.204-1.105C49.716,50.803,51.166,50.506,52.241,50.961z"/>
						<path fill-rule="evenodd" clip-rule="evenodd" fill="#1A171B" d="M51.278,51.711c-2.022,0.058-3.963,0.8-5.669,2.469
							c-2.431,2.384-1.43,5.88-3.957,7.275c2.604-1.197,3.771-3.183,5.491-5.169C48.501,54.717,49.145,52.05,51.278,51.711z"/>
						<path fill-rule="evenodd" clip-rule="evenodd" fill="#1A171B" d="M47.544,47.025c0.425-0.359,0.582-1.066,0.603-1.576
							c1.464,2.271,2.793,4.287,4.491,5.668c0.625-0.506,1.419-1.127,1.921-1.414c-0.114-1.442,0.052-2.805,0.03-4.508
							c-0.049-3.033-1.512-5.555-2.137-7.428c-0.461-1.383-0.332-3.083-0.291-3.997c-1.304,2.674-3.76,9.627-0.469,15.662
							c-0.682-0.839-1.371-1.94-1.873-3.038c-1.483-2.116-4.112-6.179-6.663-8.001C45.34,40.413,47.111,43.063,47.544,47.025z"/>
						<path fill-rule="evenodd" clip-rule="evenodd" fill="#1A171B" d="M58.135,48.381c0.366-0.137,0.771-0.236,1.1-0.32
							c1.414-2.635,8.568-5.379,10.005-8.349c-1.966,1.657-5.327,3.465-9.716,5.153c-0.123,0.411-0.249,0.799-0.378,1.168
							c0.118,0.043,0.229,0.095,0.354,0.123c-0.147,0.131-0.36,0.324-0.611,0.558C58.52,47.309,58.327,47.822,58.135,48.381z"/>
						<path fill-rule="evenodd" clip-rule="evenodd" fill="#1A171B" d="M57.614,48.462c1.131-2.847,3.869-9.858,2.649-13.531
							c-0.189,3.444-3.032,6.652-4.362,9.785c-0.763,1.788-0.413,3.622-0.389,4.625C56.413,48.912,56.643,48.744,57.614,48.462z"/>
					</g>
				</g>
			</g>
			<g>
				<linearGradient id="SVGID_10_" gradientUnits="userSpaceOnUse" x1="53.4346" y1="67.6719" x2="56.9903" y2="65.9131">
					<stop  offset="0.3962" style="stop-color:#FFF199"/>
					<stop  offset="1" style="stop-color:#B49A55"/>
				</linearGradient>
				<path fill="url(#SVGID_10_)" d="M56.976,73.935c-0.004,0.002,0.03-0.058,0.005-0.163c-0.019-0.111-0.133-0.227-0.228-0.42
					c-0.02-0.049-0.04-0.106-0.037-0.17c0.005-0.067,0.021-0.119,0.032-0.183c0.023-0.12,0.054-0.253,0.076-0.394
					c0.006-0.14,0.014-0.288,0.022-0.444c-0.014-0.157-0.017-0.324-0.036-0.495c-0.058-0.341-0.139-0.708-0.298-1.072
					c-0.139-0.373-0.358-0.727-0.593-1.098c-0.238-0.371-0.483-0.755-0.734-1.146l-0.186-0.295l-0.169-0.311
					c-0.112-0.209-0.225-0.418-0.339-0.627c-0.24-0.411-0.406-0.857-0.597-1.284c-0.046-0.107-0.093-0.214-0.138-0.32
					c-0.046-0.106-0.073-0.221-0.11-0.329c-0.07-0.219-0.139-0.435-0.206-0.646c-0.032-0.107-0.072-0.211-0.095-0.318
					c-0.022-0.107-0.043-0.213-0.064-0.318c-0.042-0.211-0.082-0.416-0.121-0.618c-0.049-0.197-0.047-0.399-0.069-0.59
					c-0.017-0.19-0.034-0.375-0.049-0.552c-0.024-0.354,0.002-0.683,0.003-0.97c-0.003-0.288,0.038-0.537,0.056-0.742
					c0.046-0.409,0.074-0.644,0.074-0.644s-0.006,0.235-0.017,0.646c-0.005,0.205-0.025,0.456-0.004,0.741
					c0.007,0.143,0.014,0.293,0.022,0.453c0.013,0.16,0,0.33,0.03,0.503c0.023,0.174,0.048,0.354,0.072,0.541
					c0.03,0.186,0.036,0.383,0.092,0.575c0.047,0.195,0.096,0.396,0.144,0.6c0.023,0.101,0.048,0.204,0.073,0.311
					c0.025,0.104,0.068,0.203,0.101,0.307c0.149,0.411,0.265,0.848,0.468,1.263c0.189,0.416,0.358,0.854,0.594,1.256
					c0.11,0.206,0.219,0.412,0.329,0.616l0.163,0.308l0.184,0.296c0.243,0.395,0.481,0.782,0.712,1.158
					c0.232,0.377,0.447,0.766,0.574,1.158c0.148,0.386,0.217,0.773,0.261,1.13c0.011,0.18,0.011,0.353,0.014,0.517
					c-0.021,0.163-0.04,0.32-0.058,0.466c-0.031,0.14-0.071,0.268-0.103,0.389c-0.015,0.058-0.036,0.121-0.041,0.166
					c-0.008,0.052,0.004,0.102,0.02,0.147c0.076,0.181,0.179,0.321,0.19,0.436C57.011,73.882,56.972,73.935,56.976,73.935z"/>
				<linearGradient id="SVGID_11_" gradientUnits="userSpaceOnUse" x1="59.2085" y1="50.3584" x2="62.3316" y2="55.7689">
					<stop  offset="0.3962" style="stop-color:#FFF199"/>
					<stop  offset="1" style="stop-color:#B49A55"/>
				</linearGradient>
				<path fill="url(#SVGID_11_)" d="M51.554,67.192c0,0-0.041-0.129-0.118-0.368c-0.079-0.237-0.187-0.592-0.312-1.045
					c-0.116-0.455-0.259-1.011-0.353-1.663c-0.091-0.648-0.149-1.4-0.024-2.209c0.129-0.804,0.435-1.659,0.946-2.441
					c0.13-0.196,0.257-0.396,0.407-0.583c0.073-0.096,0.141-0.19,0.222-0.289c0.078-0.091,0.156-0.182,0.235-0.274
					c0.158-0.183,0.312-0.373,0.482-0.555c0.173-0.18,0.348-0.36,0.524-0.544c0.721-0.712,1.5-1.413,2.347-2.055
					c0.842-0.645,1.73-1.259,2.64-1.836c1.829-1.142,3.724-2.154,5.472-3.148c0.878-0.494,1.706-0.992,2.492-1.479
					c0.394-0.24,0.776-0.475,1.146-0.702c0.186-0.113,0.367-0.224,0.545-0.335c0.173-0.115,0.343-0.23,0.51-0.343
					c0.332-0.226,0.651-0.44,0.954-0.647c0.303-0.204,0.599-0.389,0.849-0.6c0.256-0.201,0.497-0.391,0.719-0.564
					c0.111-0.086,0.218-0.17,0.32-0.25c0.104-0.078,0.199-0.156,0.282-0.24c0.689-0.637,1.083-1.002,1.083-1.002
					s-0.379,0.38-1.043,1.045c-0.081,0.086-0.175,0.168-0.274,0.248c-0.101,0.084-0.206,0.171-0.314,0.262
					c-0.217,0.182-0.453,0.379-0.705,0.59c-0.246,0.219-0.535,0.412-0.833,0.628c-0.3,0.213-0.616,0.437-0.945,0.67
					c-0.164,0.116-0.334,0.234-0.505,0.354c-0.178,0.113-0.356,0.229-0.54,0.346c-0.366,0.232-0.743,0.475-1.133,0.723
					s-0.791,0.502-1.199,0.764c-0.415,0.254-0.843,0.504-1.279,0.755c-1.746,1.007-3.633,2.031-5.441,3.175
					c-0.908,0.569-1.792,1.172-2.632,1.806c-0.842,0.63-1.618,1.319-2.331,2.017c-0.175,0.179-0.348,0.354-0.518,0.529
					c-0.169,0.18-0.327,0.367-0.49,0.549c-0.08,0.089-0.159,0.18-0.239,0.269c-0.073,0.086-0.146,0.185-0.218,0.273
					c-0.149,0.182-0.278,0.373-0.406,0.56c-0.513,0.755-0.824,1.573-0.963,2.354c-0.133,0.784-0.101,1.523-0.031,2.17
					c0.073,0.647,0.198,1.204,0.299,1.661c0.112,0.456,0.202,0.814,0.272,1.056C51.518,67.063,51.554,67.192,51.554,67.192z"/>
				<linearGradient id="SVGID_12_" gradientUnits="userSpaceOnUse" x1="40.4136" y1="49.7148" x2="42.516" y2="46.8204">
					<stop  offset="0.3962" style="stop-color:#FFF199"/>
					<stop  offset="1" style="stop-color:#B49A55"/>
				</linearGradient>
				<path fill="url(#SVGID_12_)" d="M37.701,43.839c0,0,0.114,0.14,0.306,0.39c0.191,0.251,0.463,0.61,0.79,1.041
					c0.165,0.212,0.343,0.444,0.543,0.678c0.195,0.238,0.416,0.477,0.637,0.728c0.231,0.241,0.468,0.495,0.725,0.735
					c0.249,0.248,0.522,0.478,0.79,0.713c0.279,0.225,0.55,0.458,0.836,0.661c0.285,0.206,0.56,0.417,0.845,0.596
					c0.139,0.093,0.277,0.185,0.411,0.274c0.138,0.084,0.273,0.167,0.404,0.248c0.262,0.16,0.512,0.313,0.75,0.436
					c0.236,0.131,0.453,0.25,0.644,0.356c0.195,0.099,0.367,0.186,0.507,0.257c0.28,0.146,0.44,0.229,0.44,0.229
					s-0.168-0.065-0.463-0.177c-0.147-0.059-0.325-0.129-0.531-0.211c-0.203-0.086-0.429-0.19-0.673-0.309
					c-0.247-0.111-0.508-0.248-0.78-0.397c-0.138-0.073-0.28-0.149-0.423-0.227c-0.14-0.087-0.282-0.174-0.427-0.263
					c-0.292-0.176-0.582-0.375-0.872-0.584c-0.294-0.205-0.572-0.439-0.858-0.666c-0.27-0.242-0.547-0.479-0.797-0.735
					c-0.261-0.245-0.49-0.514-0.72-0.765c-0.22-0.26-0.428-0.516-0.612-0.768c-0.19-0.247-0.355-0.492-0.51-0.715
					c-0.306-0.447-0.532-0.838-0.702-1.104C37.796,43.993,37.701,43.839,37.701,43.839z"/>
				<linearGradient id="SVGID_13_" gradientUnits="userSpaceOnUse" x1="44.542" y1="50.9521" x2="45.141" y2="54.83">
					<stop  offset="0.3962" style="stop-color:#FFF199"/>
					<stop  offset="1" style="stop-color:#B49A55"/>
				</linearGradient>
				<path fill="url(#SVGID_13_)" d="M37.172,53.066c0,0,0.242,0.026,0.665,0.072c0.211,0.016,0.465,0.048,0.761,0.061
					c0.294,0.021,0.626,0.031,0.989,0.044c0.361,0.008,0.755,0.013,1.169-0.002c0.414-0.011,0.852-0.039,1.302-0.075
					c0.449-0.036,0.913-0.091,1.381-0.166c0.468-0.073,0.938-0.173,1.405-0.288c0.232-0.063,0.464-0.124,0.695-0.185
					c0.227-0.075,0.456-0.144,0.678-0.223c0.445-0.161,0.866-0.347,1.278-0.541c0.409-0.199,0.823-0.369,1.215-0.518
					c0.393-0.148,0.772-0.271,1.129-0.358c0.356-0.09,0.692-0.144,0.991-0.159c0.3-0.016,0.562,0.004,0.772,0.037
					c0.212,0.041,0.372,0.094,0.479,0.135c0.104,0.046,0.161,0.068,0.161,0.068s-0.058-0.018-0.166-0.052
					c-0.109-0.034-0.272-0.067-0.479-0.093c-0.21-0.019-0.466-0.021-0.756,0.014s-0.611,0.11-0.957,0.209
					c-0.346,0.101-0.712,0.236-1.094,0.398c-0.382,0.162-0.774,0.348-1.183,0.548c-0.407,0.198-0.844,0.4-1.295,0.569
					c-0.226,0.085-0.457,0.157-0.688,0.237c-0.235,0.065-0.471,0.136-0.707,0.197c-0.478,0.111-0.958,0.206-1.435,0.274
					c-0.477,0.068-0.947,0.119-1.404,0.148c-0.457,0.035-0.899,0.04-1.318,0.034c-0.419-0.002-0.815-0.023-1.18-0.046
					c-0.364-0.025-0.697-0.06-0.991-0.101c-0.295-0.032-0.549-0.082-0.76-0.112c-0.208-0.035-0.371-0.072-0.482-0.095
					C37.231,53.079,37.172,53.066,37.172,53.066z"/>
				<linearGradient id="SVGID_14_" gradientUnits="userSpaceOnUse" x1="45.5308" y1="55.8818" x2="48.2155" y2="57.9242">
					<stop  offset="0.3962" style="stop-color:#FFF199"/>
					<stop  offset="1" style="stop-color:#B49A55"/>
				</linearGradient>
				<path fill="url(#SVGID_14_)" d="M41.652,61.466c0,0,0.188-0.112,0.517-0.307c0.163-0.099,0.373-0.202,0.579-0.369
					c0.106-0.079,0.219-0.162,0.337-0.251c0.117-0.088,0.247-0.173,0.365-0.286c0.121-0.108,0.248-0.221,0.378-0.336
					c0.065-0.06,0.133-0.116,0.198-0.18c0.062-0.064,0.126-0.132,0.19-0.198c0.128-0.136,0.26-0.273,0.395-0.415
					c0.128-0.148,0.258-0.299,0.392-0.454c0.271-0.301,0.524-0.641,0.799-0.97c0.271-0.334,0.539-0.679,0.821-1.015
					c0.141-0.165,0.281-0.331,0.421-0.497c0.139-0.169,0.275-0.337,0.39-0.507c0.24-0.345,0.467-0.701,0.675-1.052
					c0.212-0.351,0.417-0.689,0.631-1.002c0.208-0.315,0.427-0.604,0.649-0.851c0.113-0.122,0.22-0.241,0.339-0.337
					c0.059-0.049,0.112-0.1,0.168-0.144c0.06-0.041,0.117-0.081,0.172-0.119c0.108-0.083,0.224-0.138,0.326-0.191
					c0.102-0.06,0.203-0.096,0.295-0.127c0.179-0.074,0.331-0.092,0.432-0.111c0.101-0.018,0.154-0.027,0.154-0.027
					s-0.052,0.015-0.149,0.043c-0.099,0.027-0.245,0.065-0.415,0.149c-0.088,0.036-0.183,0.079-0.277,0.144
					c-0.096,0.061-0.203,0.121-0.3,0.209c-0.051,0.041-0.103,0.084-0.158,0.128c-0.05,0.045-0.099,0.1-0.151,0.15
					c-0.107,0.1-0.207,0.219-0.311,0.341c-0.205,0.25-0.403,0.539-0.595,0.857c-0.194,0.317-0.381,0.666-0.588,1.019
					c-0.203,0.356-0.416,0.725-0.667,1.087c-0.125,0.185-0.26,0.355-0.397,0.521c-0.14,0.169-0.279,0.338-0.42,0.505
					c-0.283,0.33-0.553,0.674-0.826,1.005c-0.277,0.331-0.544,0.659-0.826,0.962c-0.139,0.151-0.271,0.307-0.409,0.447
					c-0.145,0.138-0.285,0.271-0.421,0.403c-0.068,0.065-0.136,0.13-0.202,0.193c-0.069,0.061-0.142,0.116-0.211,0.173
					c-0.139,0.111-0.272,0.22-0.401,0.323c-0.124,0.109-0.26,0.192-0.388,0.274c-0.128,0.08-0.248,0.155-0.362,0.229
					c-0.221,0.153-0.438,0.24-0.608,0.326C41.85,61.372,41.652,61.466,41.652,61.466z"/>
				<linearGradient id="SVGID_15_" gradientUnits="userSpaceOnUse" x1="52.813" y1="42.4453" x2="55.4389" y2="42.422">
					<stop  offset="0.3962" style="stop-color:#FFF199"/>
					<stop  offset="1" style="stop-color:#B49A55"/>
				</linearGradient>
				<path fill="url(#SVGID_15_)" d="M54.702,46.658c0.012-0.34,0.006-0.683,0.01-1.023c-0.001-0.174,0.01-0.336-0.003-0.52
					l-0.039-0.508l-0.036-0.508l-0.092-0.51l-0.094-0.509c-0.033-0.169-0.086-0.333-0.129-0.498
					c-0.088-0.332-0.175-0.663-0.294-0.983c-0.11-0.324-0.219-0.648-0.35-0.962c-0.123-0.319-0.249-0.636-0.383-0.948l-0.393-0.94
					c-0.134-0.313-0.249-0.63-0.372-0.946c-0.053-0.154-0.097-0.324-0.146-0.485c-0.048-0.162-0.069-0.329-0.106-0.493
					c-0.058-0.332-0.097-0.67-0.115-1.008c-0.015-0.169-0.02-0.339-0.021-0.508c-0.007-0.17-0.007-0.34-0.004-0.509
					c0.001-0.34,0.015-0.68,0.026-1.02c-0.021,0.339-0.045,0.679-0.057,1.019c-0.008,0.169-0.013,0.339-0.012,0.51
					c-0.002,0.171-0.003,0.34,0.006,0.511c0.009,0.341,0.038,0.681,0.086,1.021c0.032,0.168,0.049,0.342,0.092,0.507
					c0.045,0.165,0.081,0.327,0.133,0.495c0.115,0.321,0.218,0.649,0.349,0.962l0.377,0.949c0.128,0.314,0.248,0.631,0.365,0.95
					c0.125,0.316,0.228,0.638,0.33,0.96c0.113,0.32,0.192,0.647,0.274,0.975c0.039,0.164,0.09,0.325,0.119,0.49l0.081,0.495
					l0.082,0.495l0.036,0.509l0.035,0.508c0.01,0.155-0.001,0.335,0,0.501c-0.006,0.338-0.001,0.676-0.018,1.016l-0.036,1.02
					c-0.005,0.342-0.018,0.682-0.019,1.024l0.033,0.942c0,0-1.499,1.257-1.779,1.48c0,0,1.344-0.847,1.503-0.963
					c0.078-0.061,0.162-0.109,0.243-0.162l0.246-0.158l0.074-0.047l-0.005-0.086l-0.041-1.009c0-0.338,0.009-0.677,0.014-1.015
					L54.702,46.658z"/>
				<linearGradient id="SVGID_16_" gradientUnits="userSpaceOnUse" x1="60.2695" y1="40.1299" x2="67.4916" y2="48.7457">
					<stop  offset="0.3962" style="stop-color:#FFF199"/>
					<stop  offset="1" style="stop-color:#B49A55"/>
				</linearGradient>
				<path fill="url(#SVGID_16_)" d="M59.147,46.042c0.118,0.042,0.237,0.079,0.357,0.108l0.026,0.007l-0.02,0.02l-0.592,0.577
					l0.007-0.008l-0.212,0.4c-0.037,0.068-0.063,0.139-0.095,0.208l-0.09,0.208c-0.031,0.068-0.053,0.142-0.081,0.211l-0.081,0.213
					l-0.146,0.432l-0.114-0.111l0.549-0.186c0.184-0.055,0.368-0.105,0.553-0.158l-0.069,0.055c0.137-0.248,0.294-0.486,0.478-0.697
					c0.183-0.215,0.382-0.41,0.583-0.601c0.41-0.376,0.846-0.716,1.292-1.042c0.445-0.322,0.896-0.639,1.359-0.934l1.385-0.888
					c0.462-0.294,0.923-0.59,1.377-0.895c0.458-0.299,0.909-0.606,1.348-0.93c0.438-0.325,0.861-0.669,1.258-1.042
					c0.196-0.188,0.388-0.382,0.558-0.595c0.177-0.208,0.328-0.437,0.464-0.674c-0.117,0.247-0.248,0.492-0.415,0.712
					c-0.158,0.225-0.341,0.433-0.528,0.636c-0.375,0.406-0.794,0.766-1.223,1.111c-0.431,0.345-0.874,0.671-1.323,0.988
					c-0.454,0.311-0.911,0.614-1.369,0.915l-1.373,0.904c-0.454,0.306-0.914,0.602-1.356,0.919
					c-0.443,0.316-0.876,0.646-1.279,1.008c-0.199,0.182-0.395,0.368-0.569,0.57c-0.182,0.197-0.337,0.413-0.473,0.639l-0.027,0.045
					l-0.042,0.01c-0.185,0.045-0.371,0.089-0.554,0.136l-0.542,0.161l-0.177,0.053l0.062-0.164l0.163-0.432l0.091-0.213
					c0.031-0.07,0.057-0.143,0.093-0.211l0.106-0.207c0.036-0.067,0.068-0.139,0.108-0.203l0.241-0.395l0.003-0.006l0.002-0.004
					l0.63-0.537l0.007,0.025C59.377,46.14,59.261,46.094,59.147,46.042z"/>
				<linearGradient id="SVGID_17_" gradientUnits="userSpaceOnUse" x1="56.6821" y1="41.8193" x2="61.643" y2="43.1556">
					<stop  offset="0.3962" style="stop-color:#FFF199"/>
					<stop  offset="1" style="stop-color:#B49A55"/>
				</linearGradient>
				<path fill="url(#SVGID_17_)" d="M55.513,49.352c0.335-0.184,0.67-0.363,1.011-0.535l0.263-0.117
					c0.087-0.037,0.174-0.083,0.265-0.111l0.541-0.191l-0.049,0.046c0.205-0.547,0.407-1.093,0.602-1.644l0.576-1.648
					c0.187-0.551,0.364-1.105,0.531-1.663c0.164-0.559,0.329-1.116,0.476-1.677c0.148-0.562,0.284-1.127,0.396-1.697
					c0.108-0.57,0.211-1.141,0.279-1.717c0.035-0.288,0.062-0.577,0.076-0.866c0.009-0.145,0.014-0.29,0.014-0.434
					c0.005-0.145,0.007-0.291,0.002-0.435c-0.002-0.29-0.023-0.579-0.061-0.867c-0.036-0.288-0.095-0.573-0.169-0.856
					c0.098,0.274,0.185,0.557,0.237,0.845c0.056,0.288,0.097,0.58,0.118,0.872c0.014,0.147,0.024,0.293,0.024,0.44
					c0.006,0.147,0.006,0.294,0.003,0.441c-0.003,0.294-0.019,0.587-0.042,0.88c-0.046,0.585-0.121,1.169-0.23,1.746
					c-0.104,0.577-0.233,1.149-0.375,1.718c-0.071,0.284-0.145,0.567-0.223,0.85c-0.076,0.283-0.166,0.562-0.251,0.842
					c-0.175,0.559-0.36,1.113-0.555,1.665c-0.196,0.551-0.396,1.101-0.617,1.643c-0.218,0.543-0.44,1.082-0.666,1.62l-0.016,0.036
					l-0.035,0.01l-0.544,0.158c-0.092,0.021-0.179,0.063-0.268,0.092l-0.266,0.099L55.513,49.352z"/>
			</g>
		</g>
	</g>
</g>
</svg>
