<?xml version="1.0" encoding="utf-8"?>
<!-- Generator: Adobe Illustrator 16.0.0, SVG Export Plug-In . SVG Version: 6.00 Build 0)  -->
<!DOCTYPE svg PUBLIC "-//W3C//DTD SVG 1.1//EN" "http://www.w3.org/Graphics/SVG/1.1/DTD/svg11.dtd">
<svg version="1.1" id="Capa_1" xmlns="http://www.w3.org/2000/svg" xmlns:xlink="http://www.w3.org/1999/xlink" x="0px" y="0px"
	 width="30px" height="30px" viewBox="0 0 30 30" enable-background="new 0 0 30 30" xml:space="preserve">
<path fill="#606060" d="M16.51,14.647l0.069-0.03c2.101-1.16,3.226-3.218,3.313-5.595c0.094-2.489-1.986-4.51-4.478-4.51
	c-0.026,0-0.193,0.007-0.193,0.007s-0.104-0.007-0.13-0.007c-2.491,0-4.539,2.021-4.444,4.51c0.089,2.377,1.229,4.435,3.329,5.595
	l0.076,0.03c-3.529,0.413-6.297,2.578-6.938,5.373c0.713,2.584,4.007,4.541,7.979,4.541c0.027,0,0.129-0.004,0.129-0.004
	s0.164,0.004,0.19,0.004c3.973,0,7.327-1.957,8.041-4.541C22.813,17.227,20.041,15.06,16.51,14.647z"/>
</svg>
