<?xml version="1.0" encoding="utf-8"?>
<!-- Generator: Adobe Illustrator 16.0.0, SVG Export Plug-In . SVG Version: 6.00 Build 0)  -->
<!DOCTYPE svg PUBLIC "-//W3C//DTD SVG 1.1//EN" "http://www.w3.org/Graphics/SVG/1.1/DTD/svg11.dtd">
<svg version="1.1" id="Capa_1" xmlns="http://www.w3.org/2000/svg" xmlns:xlink="http://www.w3.org/1999/xlink" x="0px" y="0px"
	 width="35.334px" height="39.167px" viewBox="0 0 35.334 39.167" enable-background="new 0 0 35.334 39.167" xml:space="preserve">
<g id="you">
	<g>
		<polygon fill="#FFFFFF" points="9.667,16.667 11.667,16.667 11.667,11.308 14.14,3.667 12.133,3.667 10.867,8.782 9.5,3.667 
			7.51,3.667 9.667,11.308 		"/>
		<path fill="#FFFFFF" d="M21.769,16.637c0.527,0,1.898-0.279,1.898-1.182v1.212h2v-10h-2v7.557c0,0.27-0.67,0.708-1.01,0.708
			c-0.376,0-0.72-0.259-0.72-0.639V6.667h-1.271v8.283C20.667,15.881,20.823,16.637,21.769,16.637z"/>
		<path fill="#FFFFFF" d="M20.724,26.261c-0.119,0.061-0.057,0.153-0.057,0.275v5.603c0,0.146,0.082,0.252,0.214,0.314
			c0.271,0.141,0.478,0.15,0.667-0.091c0.094-0.125,0.119-0.335,0.119-0.62v-4.641c0-0.302-0.006-0.534-0.125-0.69
			C21.341,26.142,21.017,26.113,20.724,26.261z"/>
		<path fill="#FFFFFF" d="M28.479,17.667H7.759c-2.221,0-4.092,1.778-4.092,4.001v10.561c0,2.224,1.871,4.438,4.092,4.438h20.72
			c2.221,0,4.188-2.215,4.188-4.438V21.668C32.667,19.445,30.699,17.667,28.479,17.667z M10.104,33.667H8.25v-10H6.667v-2h5v2
			h-1.563V33.667z M16.667,33.667h-2v-0.808c0,0.364-0.577,0.641-0.912,0.832c-0.898,0.516-2.088,0.508-2.088-1.315v-6.709h2v6.083
			c0,0.362-0.129,0.606,0.229,0.606c0.328,0,0.771-0.416,0.771-0.671v-6.019h2V33.667z M23.667,31.987
			c0,1.109-0.361,1.976-1.475,1.976c-0.607,0-1.525-0.223-1.525-0.806v0.51h-2v-12h2v3.919c0-0.458,0.834-0.836,1.43-0.836
			c1.221,0,1.57,1.031,1.57,2.249V31.987z M27.135,34.096c-1.591,0-2.009-1.097-2.009-2.717v-4.033c0-1.563,0.613-2.713,2.121-2.713
			c1.604,0,1.42,1.02,1.42,2.645v3.39h-2v0.593c0,0.676-0.254,1.26,0.42,1.26c0.705,0,0.463-0.383,0.463-1.168l1.15-0.041
			C28.7,33.042,28.897,34.096,27.135,34.096z"/>
		<path fill="#FFFFFF" d="M26.938,26.208c-0.62,0-0.753,0.435-0.753,1.055v0.907h1.48v-0.907
			C27.665,26.649,27.538,26.208,26.938,26.208z"/>
	</g>
	<path fill="#FFFFFF" d="M16.694,6.981c-1.548,0-3.027,1.021-3.027,2.534v4.628c0,1.661,1.323,2.532,3.027,2.532
		c1.413,0,2.973-0.948,2.973-2.532V9.515C19.667,8.04,18.115,6.981,16.694,6.981z M16.667,14.063c0,0.517-0.011,0.894-0.483,0.894
		c-0.486,0-0.517-0.397-0.517-0.894V9.67c0-0.515-0.012-0.899,0.48-0.899c0.537,0,0.52,0.372,0.52,0.899V14.063z"/>
</g>
</svg>
